<?xml version="1.0" encoding="utf-8"?>
<!-- Generator: Adobe Illustrator 27.0.0, SVG Export Plug-In . SVG Version: 6.00 Build 0)  -->
<svg version="1.1" id="圖層_1" xmlns="http://www.w3.org/2000/svg" xmlns:xlink="http://www.w3.org/1999/xlink" x="0px" y="0px"
	 viewBox="0 0 20 20" style="enable-background:new 0 0 20 20;" xml:space="preserve">
<style type="text/css">
	.st0{fill:#FFFFFF;}
</style>
<path class="st0" d="M9.5,9V5.2h1.9V9h3.8v1.9h-3.8v3.8H9.5v-3.8H5.7V9H9.5z M10.4,19.5c-5.3,0-9.5-4.3-9.5-9.5
	c0-5.3,4.3-9.5,9.5-9.5c5.3,0,9.5,4.3,9.5,9.5C19.9,15.2,15.7,19.5,10.4,19.5z M10.4,17.6c2,0,4-0.8,5.4-2.2C17.2,13.9,18,12,18,9.9
	c0-2-0.8-4-2.2-5.4c-1.4-1.4-3.4-2.2-5.4-2.2S6.5,3.1,5,4.6C3.6,6,2.8,7.9,2.8,9.9c0,2,0.8,4,2.2,5.4C6.5,16.8,8.4,17.6,10.4,17.6
	L10.4,17.6z"/>
</svg>
