<svg width="20" height="20" viewBox="0 0 20 20" fill="none" xmlns="http://www.w3.org/2000/svg">
<path d="M9.4741 8.99593V5.18718H11.3785V8.99593H15.1872V10.9003H11.3785V14.7091H9.4741V10.9003H5.66534V8.99593H9.4741ZM10.4263 19.47C5.16735 19.47 0.904404 15.2071 0.904404 9.94812C0.904404 4.68918 5.16735 0.426239 10.4263 0.426239C15.6852 0.426239 19.9482 4.68918 19.9482 9.94812C19.9482 15.2071 15.6852 19.47 10.4263 19.47ZM10.4263 17.5656C12.4466 17.5656 14.3841 16.7631 15.8127 15.3345C17.2412 13.9059 18.0438 11.9684 18.0438 9.94812C18.0438 7.92783 17.2412 5.99029 15.8127 4.56173C14.3841 3.13317 12.4466 2.33062 10.4263 2.33062C8.406 2.33062 6.46845 3.13317 5.0399 4.56173C3.61134 5.99029 2.80878 7.92783 2.80878 9.94812C2.80878 11.9684 3.61134 13.9059 5.0399 15.3345C6.46845 16.7631 8.406 17.5656 10.4263 17.5656V17.5656Z" fill="url(#paint0_linear_193_10)"/>
<defs>
<linearGradient id="paint0_linear_193_10" x1="10.4263" y1="0.426239" x2="10.4263" y2="19.47" gradientUnits="userSpaceOnUse">
<stop offset="0.3125" stop-color="#714E39"/>
<stop offset="1" stop-color="#582F32"/>
</linearGradient>
</defs>
</svg>
