<?xml version="1.0" encoding="UTF-8"?><svg xmlns="http://www.w3.org/2000/svg" xmlns:xlink="http://www.w3.org/1999/xlink" viewBox="0 0 538.26 372.89"><defs><style>.cls-1,.cls-2,.cls-3,.cls-4,.cls-5,.cls-6,.cls-7,.cls-8,.cls-9,.cls-10{fill:none;}.cls-2{stroke:#277ef1;}.cls-2,.cls-11,.cls-4,.cls-5,.cls-6,.cls-7,.cls-8,.cls-9,.cls-12,.cls-10{stroke-miterlimit:10;}.cls-2,.cls-12{stroke-width:1.5px;}.cls-13{fill:url(#linear-gradient);}.cls-14{clip-path:url(#clippath);}.cls-15{fill:#68d7ec;}.cls-16{fill:#ef9d7d;}.cls-17,.cls-11,.cls-12{fill:#fff;}.cls-18{fill:#ffeef0;}.cls-19{fill:#ffbea1;}.cls-20{fill:#ffd273;}.cls-21,.cls-22,.cls-23{fill:#ff796d;}.cls-24{fill:#a7c3ea;}.cls-25,.cls-26{fill:#e0ebfc;}.cls-27,.cls-28{fill:#19202d;}.cls-29{fill:#277ef1;}.cls-30{fill:#24b3c6;}.cls-11,.cls-7{stroke:#55a0f2;stroke-width:2px;}.cls-3{stroke:#19202d;stroke-linejoin:round;}.cls-3,.cls-4,.cls-5,.cls-6{stroke-width:.75px;}.cls-4{stroke:#050d75;}.cls-5{stroke:#fff;}.cls-6{stroke:#ef977f;}.cls-31{fill:#ffdee1;mix-blend-mode:multiply;opacity:.65;}.cls-28{mix-blend-mode:screen;}.cls-32{fill:url(#linear-gradient-2);}.cls-8{stroke:#1b5889;}.cls-9{stroke:#a7c3ea;}.cls-33,.cls-22{opacity:.55;}.cls-12{stroke:#ff928d;}.cls-34{isolation:isolate;}.cls-26{opacity:.75;}.cls-23{opacity:.35;}.cls-10{stroke:#9ce8f2;stroke-width:.5px;}</style><clipPath id="clippath"><circle class="cls-1" cx="370.4" cy="131.6" r="37.78" transform="translate(86.31 403.27) rotate(-63.28)"/></clipPath><linearGradient id="linear-gradient" x1="365.64" y1="173.88" x2="365.64" y2="80.52" gradientUnits="userSpaceOnUse"><stop offset="0" stop-color="#fff" stop-opacity=".2"/><stop offset=".27" stop-color="#fff" stop-opacity=".21"/><stop offset=".4" stop-color="#fff" stop-opacity=".24"/><stop offset=".5" stop-color="#fff" stop-opacity=".29"/><stop offset=".59" stop-color="#fff" stop-opacity=".36"/><stop offset=".66" stop-color="#fff" stop-opacity=".46"/><stop offset=".73" stop-color="#fff" stop-opacity=".57"/><stop offset=".79" stop-color="#fff" stop-opacity=".7"/></linearGradient><linearGradient id="linear-gradient-2" x1="393.31" x2="393.31" xlink:href="#linear-gradient"/></defs><g class="cls-34"><g id="OBJECTS"><g><g><g><path class="cls-25" d="M308.36,273.94h-110.02s4.56,70.08-17.22,70.08h144.47c-21.78,0-17.22-70.08-17.22-70.08Z"/><path class="cls-24" d="M197.09,316.06l110.92-22.47c-.2-11.11,.35-19.65,.35-19.65h-110.02s1.47,22.6-1.25,42.13Z"/><rect class="cls-25" x="32.58" y="5.33" width="441.53" height="289.73" rx="18.42" ry="18.42"/><rect class="cls-11" x="44.98" y="15.6" width="416.74" height="269.2" rx="14.75" ry="14.75"/><line class="cls-7" x1="44.98" y1="49.55" x2="461.72" y2="49.55"/><path class="cls-26" d="M411.67,38.98H124.57c-3.93,0-7.12-3.19-7.12-7.12h0c0-3.93,3.19-7.12,7.12-7.12H411.67c3.93,0,7.12,3.19,7.12,7.12h0c0,3.93-3.19,7.12-7.12,7.12Z"/><g><path class="cls-2" d="M65.43,32.21c0,2.1-1.7,3.8-3.8,3.8s-3.8-1.7-3.8-3.8,1.7-3.8,3.8-3.8,3.8,1.7,3.8,3.8Z"/><path class="cls-2" d="M83.17,32.21c0,2.1-1.7,3.8-3.8,3.8s-3.8-1.7-3.8-3.8,1.7-3.8,3.8-3.8,3.8,1.7,3.8,3.8Z"/><path class="cls-2" d="M100.9,32.21c0,2.1-1.7,3.8-3.8,3.8s-3.8-1.7-3.8-3.8,1.7-3.8,3.8-3.8,3.8,1.7,3.8,3.8Z"/></g><g><g><path class="cls-2" d="M369.66,147.1H137.04c-8.81,0-15.96-7.14-15.96-15.96h0c0-8.81,7.14-15.96,15.96-15.96h232.62c8.81,0,15.96,7.14,15.96,15.96h0c0,8.81-7.14,15.96-15.96,15.96Z"/><path class="cls-29" d="M369.66,115.18h-26.78v31.91h26.78c8.81,0,15.96-7.14,15.96-15.96h0c0-8.81-7.14-15.96-15.96-15.96Z"/></g><path class="cls-17" d="M374.32,138.84l-5.28-5.28c1.07-1.43,1.65-3.17,1.65-4.96,0-4.57-3.72-8.3-8.3-8.3s-8.3,3.72-8.3,8.3,3.72,8.3,8.3,8.3c1.33,0,2.64-.33,3.82-.94l5.5,5.5c.35,.35,.81,.54,1.3,.54s.95-.19,1.3-.54c.35-.35,.54-.81,.54-1.3s-.19-.95-.54-1.3Zm-5.97-10.24c0,3.28-2.67,5.95-5.95,5.95s-5.96-2.67-5.96-5.95,2.67-5.96,5.96-5.96,5.95,2.67,5.95,5.96Z"/><path class="cls-26" d="M204,138.01h-66.57c-3.79,0-6.87-3.07-6.87-6.87h0c0-3.79,3.07-6.87,6.87-6.87h66.57c3.79,0,6.87,3.07,6.87,6.87h0c0,3.79-3.07,6.87-6.87,6.87Z"/></g><rect class="cls-25" x="161.47" y="342.02" width="183.76" height="10.23"/><g><g><rect class="cls-26" x="169.4" y="166.97" width="60.4" height="15.35" rx="7.67" ry="7.67"/><line class="cls-2" x1="177.66" y1="176.56" x2="221.55" y2="176.56"/></g><g><rect class="cls-26" x="241.98" y="166.97" width="95.32" height="15.35" rx="7.67" ry="7.67"/><line class="cls-2" x1="258.71" y1="176.56" x2="320.57" y2="176.56"/></g></g><line class="cls-2" x1="380.09" y1="62.41" x2="396.95" y2="62.41"/><line class="cls-2" x1="405.12" y1="62.41" x2="421.98" y2="62.41"/><g><rect class="cls-26" x="428.05" y="57.85" width="2.27" height="2.27"/><rect class="cls-26" x="431.21" y="57.85" width="2.27" height="2.27"/><rect class="cls-26" x="434.38" y="57.85" width="2.27" height="2.27"/><rect class="cls-26" x="428.05" y="61.28" width="2.27" height="2.27"/><rect class="cls-26" x="431.21" y="61.28" width="2.27" height="2.27"/><rect class="cls-26" x="434.38" y="61.28" width="2.27" height="2.27"/><rect class="cls-26" x="428.05" y="64.71" width="2.27" height="2.27"/><rect class="cls-26" x="431.21" y="64.71" width="2.27" height="2.27"/><rect class="cls-26" x="434.38" y="64.71" width="2.27" height="2.27"/></g><circle class="cls-26" cx="446.02" cy="62.41" r="5.75"/><path class="cls-31" d="M148.04,75.63H32.58v43.49h115.46c2.57,0,4.66-2.1,4.66-4.7v-34.09c0-2.6-2.08-4.7-4.66-4.7Z"/><g><circle class="cls-29" cx="450.21" cy="24.73" r="1.5"/><circle class="cls-29" cx="450.21" cy="31.86" r="1.5"/><circle class="cls-29" cx="450.21" cy="38.98" r="1.5"/></g><line class="cls-9" x1="320.57" y1="342.56" x2="226.54" y2="342.56"/><line class="cls-9" x1="215.99" y1="342.56" x2="185.29" y2="342.56"/></g><g><rect class="cls-31" x="235.76" y="201.79" width="211.93" height="66.13" rx="7.15" ry="7.15"/><rect class="cls-12" x="226.86" y="195.85" width="211.93" height="66.13" rx="7.15" ry="7.15"/><g><path class="cls-18" d="M424.74,226.08h-124.04c-2.11,0-3.81-1.71-3.81-3.81h0c0-2.11,1.71-3.81,3.81-3.81h124.04c2.11,0,3.81,1.71,3.81,3.81h0c0,2.11-1.71,3.81-3.81,3.81Z"/><path class="cls-18" d="M424.74,239.37h-124.04c-2.11,0-3.81-1.71-3.81-3.81h0c0-2.11,1.71-3.81,3.81-3.81h124.04c2.11,0,3.81,1.71,3.81,3.81h0c0,2.11-1.71,3.81-3.81,3.81Z"/><path class="cls-18" d="M424.74,212.79h-124.04c-2.11,0-3.81-1.71-3.81-3.81h0c0-2.11,1.71-3.81,3.81-3.81h124.04c2.11,0,3.81,1.71,3.81,3.81h0c0,2.11-1.71,3.81-3.81,3.81Z"/><rect class="cls-18" x="296.89" y="245.03" width="35.08" height="7.63" rx="3.81" ry="3.81"/></g><g><path class="cls-23" d="M240.23,205.16h36.76c2.96,0,5.37,2.41,5.37,5.37v36.76c0,2.96-2.41,5.37-5.37,5.37h-36.76c-2.96,0-5.37-2.41-5.37-5.37v-36.76c0-2.96,2.41-5.37,5.37-5.37Z"/><polygon class="cls-17" points="253.33 214.67 240.22 239.92 266.43 239.92 253.33 214.67"/><polygon class="cls-17" points="267.32 222.97 264.17 229.04 269.82 239.92 276.12 239.92 267.32 222.97"/><path class="cls-17" d="M274.33,218.24c0,1.51-1.22,2.74-2.73,2.74s-2.73-1.22-2.73-2.74,1.22-2.74,2.73-2.74,2.73,1.22,2.73,2.74Z"/></g></g><g><rect class="cls-31" x="282.62" y="7.46" width="154.76" height="63.51" rx="6.86" ry="6.86"/><rect class="cls-12" x="272.07" y=".75" width="154.76" height="63.51" rx="6.86" ry="6.86"/><g><path class="cls-18" d="M412.34,29.78h-70.35c-2.02,0-3.66-1.64-3.66-3.66h0c0-2.02,1.64-3.66,3.66-3.66h70.35c2.02,0,3.66,1.64,3.66,3.66h0c0,2.02-1.64,3.66-3.66,3.66Z"/><path class="cls-18" d="M412.34,42.55h-70.35c-2.02,0-3.66-1.64-3.66-3.66h0c0-2.02,1.64-3.66,3.66-3.66h70.35c2.02,0,3.66,1.64,3.66,3.66h0c0,2.02-1.64,3.66-3.66,3.66Z"/><path class="cls-18" d="M412.34,17.02h-70.35c-2.02,0-3.66-1.64-3.66-3.66h0c0-2.02,1.64-3.66,3.66-3.66h70.35c2.02,0,3.66,1.64,3.66,3.66h0c0,2.02-1.64,3.66-3.66,3.66Z"/><path class="cls-18" d="M368.35,55.31h-26.37c-2.02,0-3.66-1.64-3.66-3.66h0c0-2.02,1.64-3.66,3.66-3.66h26.37c2.02,0,3.66,1.64,3.66,3.66h0c0,2.02-1.64,3.66-3.66,3.66Z"/></g><path class="cls-18" d="M325.98,31.18c-.1-1.66-.39-3.34-.9-5-.51-1.66-1.2-3.22-2.04-4.65l-4.18,1.97c-.81-1.31-1.79-2.49-2.9-3.52l2.74-3.73c-2.55-2.26-5.61-3.88-8.91-4.75l-1.56,4.36c-1.47-.35-2.99-.5-4.54-.44l-.69-4.57c-1.66,.1-3.34,.39-5,.9-1.66,.51-3.22,1.2-4.65,2.04l1.97,4.18c-1.31,.81-2.49,1.79-3.52,2.9l-3.73-2.74c-2.26,2.55-3.88,5.61-4.75,8.91l4.36,1.56c-.35,1.47-.5,2.99-.44,4.54l-4.57,.69c.1,1.66,.39,3.34,.9,5,.51,1.66,1.2,3.22,2.04,4.65l4.18-1.97c.81,1.31,1.79,2.49,2.9,3.52l-2.74,3.73c2.55,2.26,5.61,3.88,8.91,4.75l1.56-4.36c1.47,.35,2.99,.5,4.54,.44l.69,4.57c1.66-.1,3.34-.39,5-.9,1.66-.51,3.22-1.2,4.65-2.04l-1.97-4.18c1.31-.81,2.49-1.79,3.52-2.9l3.73,2.74c2.26-2.55,3.88-5.61,4.75-8.91l-4.36-1.56c.35-1.47,.5-2.99,.44-4.54l4.57-.69Zm-18.61,11.33c-5.52,1.68-11.37-1.43-13.05-6.95s1.43-11.37,6.95-13.05c5.52-1.68,11.37,1.43,13.05,6.95,1.68,5.52-1.43,11.37-6.95,13.05Z"/></g><g><rect class="cls-12" x="4.59" y="65.84" width="145.71" height="43.16" rx="4.66" ry="4.66"/><g><path class="cls-18" d="M141.13,85.57H52.78c-1.37,0-2.49-1.11-2.49-2.49h0c0-1.37,1.11-2.49,2.49-2.49h88.35c1.37,0,2.49,1.11,2.49,2.49h0c0,1.37-1.11,2.49-2.49,2.49Z"/><path class="cls-18" d="M141.13,94.24H52.78c-1.37,0-2.49-1.11-2.49-2.49h0c0-1.37,1.11-2.49,2.49-2.49h88.35c1.37,0,2.49,1.11,2.49,2.49h0c0,1.37-1.11,2.49-2.49,2.49Z"/><path class="cls-18" d="M141.13,76.89H52.78c-1.37,0-2.49-1.11-2.49-2.49h0c0-1.37,1.11-2.49,2.49-2.49h88.35c1.37,0,2.49,1.11,2.49,2.49h0c0,1.37-1.11,2.49-2.49,2.49Z"/><path class="cls-18" d="M111.24,102.92H52.78c-1.37,0-2.49-1.11-2.49-2.49h0c0-1.37,1.11-2.49,2.49-2.49h58.46c1.37,0,2.49,1.11,2.49,2.49h0c0,1.37-1.11,2.49-2.49,2.49Z"/></g><g><rect class="cls-22" x="14.59" y="73.57" width="27.7" height="27.7" rx="3.13" ry="3.13"/><path class="cls-17" d="M23.79,80.52v13.79c0,1.16,1.32,1.84,2.26,1.15l9.43-6.89c.78-.57,.78-1.73,0-2.3l-9.43-6.89c-.94-.69-2.26-.02-2.26,1.15Z"/></g></g></g><g><g><path class="cls-19" d="M467.21,175.87s-12.5,14.91-6.78,18.22c5.72,3.31,11.37,2.78,13.4,.9,2.22-2.04,8.25-7.1,7.08-10.84-1.66-5.27-8.43-10.54-13.7-8.28Z"/><polyline class="cls-19" points="467.66 194.69 467.06 205.23 479.85 202.37 475.81 189.84"/><g class="cls-33"><path class="cls-21" d="M476.85,193.89c-1.27-.18-2.5-.69-3.52-1.46-.41-.31-.78-.97-.36-1.26,.22-.15,.51-.07,.78-.05,.83,.04,1.51-.64,2.05-1.27,.63-.73,1.28-1.51,1.5-2.45,.22-.94-.14-2.1-1.03-2.46-.85-.35-1.84,.13-2.48,.79-.18,.19-.37,.4-.62,.44-.42,.07-.76-.4-.76-.83,0-.43,.23-.81,.4-1.2,.47-1.06,.56-2.27,.26-3.39-.16-.58-.37-1.32,.11-1.68,.31-.24,.76-.15,1.14-.04,1.43,.41,2.81,.98,4.1,1.71,2.42,1.35,4,4.55,3.52,7.29-.47,2.66-2.95,4.55-5.1,5.87"/></g><path class="cls-21" d="M481.82,188.58c-.36-2.21-1.7-4.39-3.61-5.56-2.62-1.61-5.32-3.1-8.09-4.45-1.25-.61-2.61-1.29-3.23-2.54-.35-.71-.41-1.51-.44-2.3-.05-1.3-.01-2.64,.43-3.87s1.37-2.34,2.61-2.73c1.79-.57,3.69,.46,5.15,1.65,3.59,2.94,6.09,7.19,6.92,11.77,1.27-.36,2.74,.2,3.45,1.31,.71,1.11,1.17,5.66-3.2,6.72"/></g><g><path class="cls-16" d="M437.38,223.03l-31.15-8.58s-6.25-10.45-7.69-10.21c-1.44,.24,2.31,5.22,.39,5.54-1.07,.18-4.57,.07-5.25-.48-.68-.55-2.49-5.14-2.96-5.06-.79,.13-.09,6.43,1.32,7.83,1.03,1.03,5.19,4.08,8.6,5.78,3.44,1.71,36.95,25.37,43.42,24.29"/><polyline class="cls-17" points="424.89 219.32 420.79 218.46 419.39 230.91 430.6 235.11"/><path class="cls-30" d="M488.85,210.96s-3.64-11.39-15.39-9.53c-11.75,1.85-33.19,20.51-33.19,20.51l-16.17-2.76-1.52,21s13.08,7.4,21.27,7.4c16.83,0,40.12-30.57,40.12-30.57"/><path class="cls-8" d="M465.46,236.62c11.38-8.46,14.13-16.17,18.5-16.17"/></g><g><path class="cls-27" d="M499.35,299.28s12.4-2.21,16.66-2.89c8.28-1.33,16.84-1.44,13.49-4.78-4.37-4.37-24.75-13.85-24.75-13.85l-10.5,8.37,5.1,13.16Z"/><g><path class="cls-19" d="M438.27,337.81l4.83,20.33c-6.3,9.2-7.77-.38-7.77-.38l-11.72-21.88"/><path class="cls-27" d="M444.19,361.93l-1.08-3.79c-5.32,3.27-7.77-.38-7.77-.38l-10.38,3.1c-3.01,1.04-3.44,4.38-1.33,4.38h18.07c1.73,0,2.97-1.65,2.5-3.31Z"/></g><g><path class="cls-19" d="M510.58,342.25h20.71c6.97,5.5-2.06,7.27-2.06,7.27l-20.45,5.5"/><path class="cls-27" d="M535.16,342.35l-3.87-.1c2.08,4.78-2.06,7.27-2.06,7.27,0,0,1.82,6.68,1.82,7.43s-1.9,2.4-1.11,3.5,5.15,.52,5.74-.98c1.58-4.03,2.58-14.79,2.58-14.79,0-1.61-1.31-2.15-3.1-2.33Z"/></g><path class="cls-29" d="M472.42,273.04s-32.27,64.3-22.14,79.03c5.79,8.42,15.87,9.45,29.58,9.45h36.45l5.1-19.4-45.51-2.27s32.97-30.64,34.74-43.89c2.27-17-5.95-31.73-5.95-31.73"/><path class="cls-29" d="M457.4,272.54s-2.13,3.6-4.28,3.6h-33.72c-13.03,0-22.76,7.5-18.32,27.83s14.27,47.53,14.27,47.53h27l-9.87-41.92h36.52c14.97,0,23.4-11.92,16.37-33.45"/><g><path class="cls-5" d="M496.99,287.55s1.31,9-3.38,19.2c-4.14,9.01-17.27,24.74-22.92,32.83-1,1.44-.03,3.41,1.72,3.5l48.11,2.38"/><path class="cls-5" d="M439.01,351.51l-11.85-44.13c-.3-1.13,.55-2.23,1.71-2.23h29.4"/><line class="cls-4" x1="456.59" y1="309.59" x2="465.62" y2="287.55"/></g></g><path class="cls-20" d="M463.32,220.61s-3.89,36.93-6.58,52.98c6.23,11.33,51.67,10.29,53.65,8.31,1.98-1.98-7.38-48.57-15.06-59.76-7.67-11.19-32.01-14.55-32.01-1.52Z"/><path class="cls-15" d="M477.23,201.55s19.92-1.1,28.77,32.57c9,34.25,23.5,57.48,23.5,57.48,0,0-5.5-1.92-15.04-.88-15.83,1.72-35.51,9.98-35.51,9.98,0,0-7.44-15.82-12.53-34.89-9.57-35.85-3.18-57.35-3.18-57.35l13.98-6.91Z"/><path class="cls-3" d="M470.46,272.87s3.9-23.08,2.8-24.08c-1.1-1-6.2-.65-6.2-1.52s7.54-2.25,6.2-3.47c-1.34-1.22-8.24-30.36-4.34-35.15"/><g><g class="cls-14"><g><path class="cls-13" d="M380.55,80.52s-52.89,92.71-53.18,93.36h23.37l53.18-93.36h-23.37Z"/><path class="cls-32" d="M416.2,80.52s-52.89,92.71-53.18,93.36h7.39l53.18-93.36h-7.39Z"/></g></g><rect class="cls-21" x="384.34" y="169.94" width="8.21" height="33.46" transform="translate(-38.82 130.27) rotate(-18.15)"/><path class="cls-27" d="M357.42,92.01c-21.86,7.17-33.78,30.7-26.61,52.57,7.17,21.86,30.7,33.78,52.56,26.61,21.86-7.17,33.78-30.7,26.61-52.57-7.17-21.86-30.7-33.78-52.56-26.61Zm24.1,73.54c-18.75,6.15-38.94-4.07-45.08-22.83-6.15-18.75,4.07-38.94,22.83-45.08,18.75-6.15,38.94,4.07,45.08,22.83,6.15,18.75-4.07,38.94-22.83,45.08Z"/><path class="cls-27" d="M403.73,233.31h0c-3.2,1.05-6.64-.69-7.69-3.89l-14.27-43.5,11.59-3.8,14.27,43.5c1.05,3.2-.69,6.64-3.89,7.69Z"/></g><path class="cls-10" d="M477.9,232.18c3.73,3,5.39,7.83,6.83,12.4,5.09,16.2,9.53,32.46,18.29,48.24"/><g><path class="cls-19" d="M433.75,230.46l-29.15-12.58s-6.25-10.45-7.69-10.21,2.31,5.22,.39,5.54c-1.07,.18-4.57,.07-5.25-.48-.68-.55-2.49-5.14-2.96-5.06-.79,.13-.09,6.43,1.32,7.83,1.03,1.03,5.19,4.08,8.6,5.78,3.44,1.71,34.95,29.37,41.42,28.29"/><polyline class="cls-17" points="429.38 227.61 420.52 224.14 415.61 237.12 427.7 245.56"/><path class="cls-15" d="M485.36,205.23s-3.68-5.5-15.37-3.27c-6.74,1.28-33.15,28.16-33.15,28.16l-13.06-4.74-7.12,22.53s16.09,10.13,24.28,10.13c16.83,0,40.12-30.57,40.12-30.57"/><path class="cls-3" d="M462.56,247.08c11.38-8.46,14.13-16.17,18.5-16.17"/></g><polygon class="cls-27" points="478.43 276.14 491.28 277.34 491.28 279.37 479.73 279.34 478.43 276.14"/><path class="cls-19" d="M465.23,180.16s-6.83,2.96-6.83,4.11,3.62,2.47,3.62,2.47"/><path class="cls-27" d="M467.69,181.5c-.14-.2-.37-.32-.6-.26-.54,.14-.89,1.16-.79,1.64,.07,.35,.46,.65,.78,.49,.14-.07,.23-.2,.31-.33,.22-.33,.46-.69,.45-1.09,0-.16-.06-.32-.16-.45Z"/><path class="cls-27" d="M467,178.69c.72,.37,1.45,.84,2.04,1.4,.29,.28,.55,.59,.78,.93s.38,.78,.7,1.06c.16,.13,.37,.04,.39-.16,.04-.46-.26-.9-.52-1.27s-.56-.71-.89-1.02c-.69-.63-1.46-1.06-2.38-1.2-.14-.02-.26,.17-.11,.25h0Z"/><path class="cls-6" d="M459.21,189.26c1.23,.52,3.41,1.08,5.46,.4"/></g><g><g><path class="cls-19" d="M101.78,178.79h13.96s5.51-3.5,8.02-3.7c3.43-.27,9.9-.03,9.55,1.29-.35,1.32-10.03,3.05-9.73,4.19,.3,1.14,5.27,.54,5.27,1.5,0,2.02-13.39,2.11-13.39,2.11l-19.89,2.47"/><path class="cls-20" d="M39.79,126.12s20.66,4.68,28.23,17.42c7.83,13.17,17.98,30.26,17.98,30.26l28.46,5v6.41s-25.94,6.69-33.72,6.69c-14.25,0-31.95-36.91-31.95-36.91"/><line class="cls-4" x1="111.82" y1="185.87" x2="111.82" y2="178.33"/></g><g><path class="cls-27" d="M68.06,354.72s-2.05,2.2-2.05,5.9c0,2.62,.5,4.38,.5,4.38h1.14l.25-2.16s3.05,.33,6.25,2.14c1.55,.88,9.02,.3,10.13-.39,1.24-.77,.79-1.97,.33-2.44-.46-.47-8.78-3.47-8.78-3.47"/><path class="cls-19" d="M54,269.75c-10.49,32.09,14.07,84.97,14.07,84.97l4.84,1.87s3.59-55.6,3.59-82.11c0-22.36,3.51-58.35-19.5-69.06"/><path class="cls-19" d="M72.36,354.72s2.93,3.18,7.24,5.35c1.36,.68-.39,1.78-1.84,1.91-4.54,.4-10.61-5.91-10.61-5.91l1.51-3"/></g><g><path class="cls-27" d="M9.84,360.96c-3.29,3.29-8.1,11.27-5.05,11.89s11.23-7.14,11.23-7.14l-.03,.65,1.2,.02s1.02-4.27-.8-6.1"/><path class="cls-19" d="M6.32,248.17s.92,27.9,.4,32.88c-.52,4.97,3.12,78.93,3.12,79.91-.2,1.44-4.1,6.93-2.14,6.93,1.83,0,8.96-6.4,8.67-7.6,.41-1.06,12.59-42.12,15.21-58.1,3.05-18.63-.69-30.66-.69-30.66l10.24-60.23"/></g><g><path class="cls-29" d="M57.34,198.31s14.95,5.48,18.69,29.18c2.96,18.72,1.76,47.98,1.76,47.98,0,0-5.88,6.73-28.04,10.51-29.89,5.09-43.08-2.13-43.08-2.13,0,0-5.48-37.27-1.55-61.07,4.02-24.33,23.37-32.71,23.37-32.71"/><path class="cls-4" d="M10.38,285.28S-.48,215.1,21.37,197.5"/></g><g><path class="cls-20" d="M59.75,143.53s-.21,3.43,.95,5.49c2.23,3.95,5.17,6.92,5.17,15.63,0,5.37-4.69,10.62-4.69,12.29s-3.66,20.56-3.66,20.56h-18.53c-15.51,0-20.68-5.61-20.68-5.61l-11.77-42.63,26.13-21.99,8.55-.91,18.53,17.17Z"/><line class="cls-4" x1="49.87" y1="145.28" x2="57.43" y2="145.28"/><path class="cls-4" d="M59.75,143.53s-.21,3.43,.95,5.49c2.23,3.95,5.17,8.59,5.17,15.63,0,5.37-4.69,10.62-4.69,12.29s-3.84,21.37-3.84,21.37"/></g><g><path class="cls-27" d="M67.43,166.22l-7.1,31.78h45.28l7.21-32.22c.16-.66-.21-1.25-.79-1.25h-42.7c-.85,0-1.65,.72-1.89,1.69Z"/><path class="cls-27" d="M72.81,198H37.67l.19-1.77c.12-1.13,1.13-2.05,2.26-2.05h33.09l-.41,3.82Z"/><path class="cls-28" d="M90.36,181.27c-.47,2.08-2.32,3.77-4.11,3.77s-2.87-1.69-2.39-3.77c.47-2.08,2.32-3.77,4.11-3.77s2.87,1.69,2.39,3.77Z"/></g><g><path class="cls-19" d="M25.14,202.23H61.58s6.14,.65,10.99,.56c4.85-.09,7.75-3.95,7.75-4.79,0-.67-2.83,.04-6.83,0-2.46-.03-4.2,.36-4.39-.18-.46-1.28,4.21-2.08,3.29-2.99-.35-.35-2.42-.28-3.83,0-3.5,.71-7.16,2.86-7.16,2.86l-30.4-7.05"/><path class="cls-20" d="M35.41,126.12s-28.81,2.83-34.08,23.96c-5.86,23.46,9.02,50.01,16.66,52.16,3.18,.9,39.44,.91,39.44,.91l1.66-6.27-30.59-6.82-3.34-40.8"/><line class="cls-4" x1="55.86" y1="196.16" x2="54.88" y2="203.15"/><polyline class="cls-4" points="59.09 196.88 28.49 190.07 25.15 149.26"/></g><g><path class="cls-27" d="M31.81,98.68c-3.01,.8-5.73,2.68-7.68,5.21-2.04,2.65-3.23,5.9-4.83,8.86-.83,1.54-1.89,2.94-2.92,4.35-.77,1.05-2.54,2.18-2.12,3.67,.42,1.49,2.7,2.21,4.01,2.37,1.72,.21,3.48-.04,5.2,.23,1.47,.23,2.86,.83,4.25,1.36,3.06,1.16,6.4,1.99,9.69,1.64,2.04-.21,3.77-1.27,5.73-1.73,2-.47,4.31-.07,6.38-.09,.8,0,1.67-.06,2.25-.6,.53-.49,.68-1.26,.75-1.98,.27-2.91-.42-5.9-1.93-8.41-1.42-2.36-3.52-4.25-4.94-6.61-1.62-2.69-2.71-5.39-5.3-7.35-2.28-1.73-5.88-1.64-8.52-.94Z"/><path class="cls-19" d="M42.53,120.54l-.83,7.41s-.6,2.62-3.14,2.81c-5.78,.43-5.9-3.49-5.9-3.49l4.42-9.32"/><path class="cls-19" d="M37.48,119.95s8.56,3.88,12.74-.55c2.39-2.53-3.7-15.16-6.35-16.94-2.65-1.78-7.84,.13-8.94,3.11-1.1,2.99-4.01,10.83,2.55,14.37"/><path class="cls-27" d="M47.67,109.75c0,.35-.29,.64-.64,.64s-.64-.29-.64-.64,.29-.64,.64-.64,.64,.29,.64,.64Z"/><path class="cls-27" d="M40.59,112.32c0,.35,.29,.64,.64,.64s.64-.29,.64-.64-.29-.64-.64-.64-.64,.29-.64,.64Z"/><path class="cls-27" d="M42.15,109.68c-.77-.37-1.69-.34-2.44,.08-.62,.35-1.25,1.02-1.27,1.77,0,.12,.16,.16,.23,.06,.17-.27,.31-.55,.52-.8s.44-.46,.73-.62c.64-.36,1.42-.42,2.12-.22,.15,.04,.26-.19,.11-.26h0Z"/><path class="cls-27" d="M47.94,107.46c-.55-.61-1.49-.67-2.21-.35-.35,.16-.64,.42-.86,.72-.11,.15-.2,.33-.26,.51-.06,.2-.06,.39,.02,.58,.03,.09,.15,.11,.2,.03,.08-.12,.16-.24,.22-.38,.07-.15,.14-.29,.22-.42,.16-.25,.39-.46,.66-.6,.58-.3,1.29-.17,1.85,.1,.13,.06,.25-.09,.15-.2h0Z"/><path class="cls-6" d="M44.71,110.58s2.48,2.64,2.22,3.25c-.43,1-1.92,1-1.92,1"/><path class="cls-17" d="M45.2,117.06l3.29-1.13s.59,1.94-.49,2.32c-2.09,.75-2.81-1.19-2.81-1.19Z"/><path class="cls-6" d="M42.42,121.52s-2.24,.1-5-1.48"/><path class="cls-27" d="M34.6,116.39c3.59-2.58,5-7.73,5.7-12.1,2.47,.62,4.92,1.33,7.34,2.13,.24-1.19,.04-5.75-5.63-7.52-2.81-.88-5.88,.45-7.79,2.69-2.79,3.26-3.86,7.92-2.77,12.07"/><path class="cls-19" d="M35.52,116.1c-1.95-1.95-3.38-.81-3.7,0-.32,.81-.03,1.74,.41,2.5,.55,.95,1.42,1.81,2.51,1.96,1.09,.15,2.33-.67,2.29-1.77"/><path class="cls-17" d="M34.07,124.32s1.71,5.28,4.49,6.44c-1.49,1.1-3.88,4.52-3.88,4.52-3.55-3.55-3.67-8.83-3.67-8.83l3.05-2.13Z"/><path class="cls-17" d="M41.91,126.12s-1.27,3.77-3.35,4.65c1.26,1.17,3.49,4.01,3.49,4.01,0,0,1.59-1.35,1.15-5.29,0-1.04-1.29-3.36-1.29-3.36Z"/></g></g><g><circle class="cls-18" cx="164.25" cy="219.3" r="21.56"/><g><rect class="cls-17" x="150.68" y="212.17" width="19.6" height="15.23" rx="1.88" ry="1.88"/><path class="cls-17" d="M178.06,225.94l-5.68-2.7v-6.92l5.68-2.7c.37-.17,.79,.09,.79,.5v11.32c0,.41-.42,.67-.79,.5Z"/></g></g></g></g></g></svg>