<svg width="82" height="82" viewBox="0 0 82 82" fill="none" xmlns="http://www.w3.org/2000/svg">
<path d="M74.3238 34.8237C74.3238 25.789 70.8055 17.2951 64.417 10.9068C58.0286 4.51828 49.5346 1 40.4999 1C31.4652 1 22.9712 4.51828 16.5828 10.9068C10.1943 17.2951 6.67603 25.7892 6.67603 34.8237V42.2957C6.67603 42.3043 6.67618 42.313 6.67618 42.3218C6.67603 42.3394 6.67603 42.357 6.67603 42.3746V46.8459C6.67603 52.8814 11.4998 57.8115 17.4944 57.9834V70.7008C17.4944 70.7224 17.4947 70.7439 17.4952 70.7653C17.5378 75.8627 21.7036 80 26.8082 80H60.4195C62.1238 80 63.5054 78.6184 63.5054 76.9141C63.5054 75.237 62.1678 73.8726 60.5013 73.8292V64.4586C60.5013 63.6402 60.1762 62.8551 59.5975 62.2765C59.0188 61.6978 58.2339 61.3727 57.4153 61.3727H26.8082C25.7061 61.3727 24.6485 61.5649 23.6664 61.9179V30.3167C23.6664 28.8581 24.5217 27.8395 25.7462 27.8395H56.1543C56.8045 27.8395 57.3335 28.3684 57.3335 29.0188L57.3334 49.0289C57.3334 50.7331 58.715 52.1149 60.4193 52.1149C62.1235 52.1149 63.5053 50.7331 63.5053 49.0289V45.8941C63.5053 45.8874 63.5054 45.8808 63.5054 45.8742V37.4147C66.0958 37.5819 68.1519 39.7427 68.1519 42.3747V49.0291C68.1519 50.7334 69.5335 52.115 71.2379 52.115C72.9422 52.115 74.3238 50.7334 74.3238 49.0291V42.3747C74.3238 42.3571 74.3238 42.3395 74.3236 42.3219C74.3236 42.3133 74.3238 42.3047 74.3238 42.2959V34.8237ZM12.8479 46.8458V42.3744C12.8479 39.7424 14.9041 37.5818 17.4944 37.4144V51.8056C14.9041 51.6384 12.8479 49.4778 12.8479 46.8458ZM26.8082 67.5445H54.3294V73.8281H26.8082C25.0799 73.8281 23.6707 72.422 23.6669 70.6937C23.6669 70.6905 23.6669 70.6873 23.6669 70.6842C23.6669 70.6799 23.6669 70.6757 23.6667 70.6714C23.6667 70.6664 23.6667 70.6613 23.6666 70.6564C23.6828 68.9378 25.0858 67.5445 26.8082 67.5445V67.5445ZM63.5054 31.2369V29.0188C63.5054 24.9654 60.2078 21.6676 56.1543 21.6676H25.7462C21.1191 21.6676 17.4946 25.4667 17.4946 30.3167V31.2369C15.8724 31.2835 14.3361 31.6784 12.9578 32.3494C14.2131 18.2569 26.0864 7.17188 40.4999 7.17188C54.9134 7.17188 66.7867 18.2569 68.0422 32.3494C66.6639 31.6784 65.1275 31.2835 63.5054 31.2369V31.2369Z" fill="white"/>
<path d="M43.0411 37.3443C40.8743 35.8898 38.0979 35.7488 35.7949 36.9765C33.492 38.2042 32.0615 40.588 32.0615 43.1977V48.0598C32.0615 50.6696 33.492 53.0533 35.7949 54.281C36.8373 54.8368 37.9766 55.1121 39.1126 55.1121C40.4863 55.1121 41.8551 54.7094 43.0411 53.9132L46.6623 51.4822C48.6163 50.1704 49.783 47.9822 49.7828 45.6288C49.7828 43.2755 48.6162 41.0873 46.6623 39.7756L43.0411 37.3443ZM43.2223 46.3579L39.6011 48.7888C39.2391 49.0319 38.9105 48.9478 38.6983 48.8347C38.4861 48.7216 38.2332 48.4954 38.2332 48.0598V43.1977C38.2332 42.7622 38.4861 42.5358 38.6983 42.4229C38.81 42.3633 38.9538 42.3119 39.118 42.3119C39.2656 42.3119 39.4297 42.3536 39.6011 42.4687L43.2223 44.8998C43.5603 45.1269 43.611 45.454 43.611 45.6288C43.6108 45.8035 43.5603 46.1308 43.2223 46.3579V46.3579Z" fill="white"/>
</svg>
