<svg width="82" height="82" viewBox="0 0 82 82" fill="none" xmlns="http://www.w3.org/2000/svg">
<path d="M74.3235 34.8237C74.3235 25.789 70.8053 17.2951 64.4168 10.9068C58.0284 4.51828 49.5344 1 40.4997 1C31.465 1 22.9709 4.51828 16.5826 10.9068C10.1941 17.2951 6.67578 25.7892 6.67578 34.8237V42.2957C6.67578 42.3043 6.67594 42.313 6.67594 42.3218C6.67578 42.3394 6.67578 42.357 6.67578 42.3745V46.8459C6.67578 52.8814 11.4996 57.8115 17.4942 57.9834V70.7008C17.4942 70.7224 17.4945 70.7439 17.4949 70.7653C17.5375 75.8627 21.7034 80 26.808 80H60.4192C62.1236 80 63.5052 78.6184 63.5052 76.9141C63.5052 75.237 62.1676 73.8726 60.501 73.8292V64.4586C60.501 63.6402 60.1759 62.8551 59.5973 62.2765C59.0185 61.6978 58.2336 61.3727 57.4151 61.3727H26.808C25.7058 61.3727 24.6483 61.5649 23.6662 61.9179V30.3167C23.6662 28.8581 24.5215 27.8395 25.7459 27.8395H56.154C56.8042 27.8395 57.3333 28.3684 57.3333 29.0188L57.3331 49.0289C57.3331 50.7331 58.7147 52.1149 60.4191 52.1149C62.1233 52.1149 63.505 50.7331 63.505 49.0289V45.8941C63.505 45.8874 63.5052 45.8808 63.5052 45.8742V37.4147C66.0955 37.5819 68.1517 39.7427 68.1517 42.3747V49.0291C68.1517 50.7334 69.5332 52.115 71.2376 52.115C72.942 52.115 74.3235 50.7334 74.3235 49.0291V42.3747C74.3235 42.3571 74.3235 42.3395 74.3234 42.3219C74.3234 42.3133 74.3235 42.3047 74.3235 42.2959V34.8237ZM12.8477 46.8458V42.3744C12.8477 39.7424 14.9038 37.5818 17.4942 37.4144V51.8056C14.9038 51.6384 12.8477 49.4778 12.8477 46.8458ZM26.808 67.5445H54.3291V73.8281H26.808C25.0797 73.8281 23.6705 72.422 23.6666 70.6937C23.6666 70.6905 23.6666 70.6873 23.6666 70.6842C23.6666 70.6798 23.6666 70.6757 23.6665 70.6714C23.6665 70.6664 23.6665 70.6613 23.6663 70.6564C23.6825 68.9378 25.0856 67.5445 26.808 67.5445ZM63.5052 31.2369V29.0188C63.5052 24.9654 60.2075 21.6676 56.154 21.6676H25.7459C21.1189 21.6676 17.4943 25.4667 17.4943 30.3167V31.2369C15.8722 31.2835 14.3358 31.6784 12.9575 32.3494C14.2129 18.2569 26.0862 7.17188 40.4997 7.17188C54.9132 7.17188 66.7865 18.2569 68.042 32.3494C66.6636 31.6784 65.1273 31.2835 63.5052 31.2369Z" fill="url(#paint0_linear_11_212)"/>
<path d="M43.0411 37.3443C40.8743 35.8898 38.0979 35.7488 35.7949 36.9765C33.492 38.2042 32.0615 40.588 32.0615 43.1977V48.0598C32.0615 50.6696 33.492 53.0533 35.7949 54.281C36.8373 54.8368 37.9766 55.1121 39.1126 55.1121C40.4863 55.1121 41.8551 54.7094 43.0411 53.9132L46.6623 51.4822C48.6163 50.1704 49.783 47.9822 49.7828 45.6288C49.7828 43.2755 48.6162 41.0873 46.6623 39.7756L43.0411 37.3443ZM43.2223 46.3579L39.6011 48.7888C39.2391 49.0319 38.9105 48.9478 38.6983 48.8347C38.4861 48.7216 38.2332 48.4954 38.2332 48.0598V43.1977C38.2332 42.7622 38.4861 42.5358 38.6983 42.4229C38.81 42.3633 38.9538 42.3119 39.118 42.3119C39.2656 42.3119 39.4297 42.3536 39.6011 42.4687L43.2223 44.8998C43.5603 45.1269 43.611 45.454 43.611 45.6288C43.6108 45.8035 43.5603 46.1308 43.2223 46.3579Z" fill="url(#paint1_linear_11_212)"/>
<defs>
<linearGradient id="paint0_linear_11_212" x1="40.4997" y1="1" x2="40.4997" y2="80" gradientUnits="userSpaceOnUse">
<stop stop-color="#004E70"/>
<stop offset="1" stop-color="#005E8A"/>
</linearGradient>
<linearGradient id="paint1_linear_11_212" x1="40.9222" y1="36.1455" x2="40.9222" y2="55.1121" gradientUnits="userSpaceOnUse">
<stop stop-color="#004E70"/>
<stop offset="1" stop-color="#005E8A"/>
</linearGradient>
</defs>
</svg>
