<svg width="82" height="82" viewBox="0 0 82 82" fill="none" xmlns="http://www.w3.org/2000/svg">
<path d="M76.9141 44.4931C78.6184 44.4931 80 43.1282 80 41.4444V25.7015C80 18.9771 74.4626 13.5065 67.6562 13.5065V9.83727C67.6562 8.15344 66.2747 6.78851 64.5703 6.78851H51.5065C47.0581 6.78851 43.0846 8.8353 40.5 12.0257C37.9154 8.8353 33.9419 6.78851 29.4935 6.78851H16.4297C14.7253 6.78851 13.3438 8.15344 13.3438 9.83727V13.5065C6.53741 13.5065 1 18.9771 1 25.7015V56.6996C1 63.4239 6.53741 68.8946 13.3438 68.8946H29.7092C30.9922 72.5665 34.5262 75.2115 38.6736 75.2115H42.3264C46.4738 75.2115 50.0076 72.5665 51.2908 68.8946H67.6562C74.4626 68.8946 80 63.4239 80 56.6881C80 55.0043 78.6184 53.645 76.9141 53.645C75.2097 53.645 73.8281 55.0157 73.8281 56.6996C73.8281 60.0617 71.0594 62.7971 67.6562 62.7971H48.7203C47.016 62.7971 45.6344 64.162 45.6344 65.8459C45.6344 67.648 44.1504 69.114 42.3264 69.114H38.6736C36.8496 69.114 35.3656 67.6478 35.3656 65.8459C35.3656 64.162 33.984 62.7971 32.2797 62.7971H13.3438C9.94058 62.7971 7.17188 60.0617 7.17188 56.6996V25.7015C7.17188 22.3393 9.94058 19.604 13.3438 19.604V53.8033C13.3438 55.4871 14.7253 56.852 16.4297 56.852H64.5703C66.2747 56.852 67.6562 55.4871 67.6562 53.8033V19.604C71.0594 19.604 73.8281 22.3393 73.8281 25.7015V41.4444C73.8281 43.1282 75.2097 44.4931 76.9141 44.4931V44.4931ZM19.5156 12.886H29.4935C33.8609 12.886 37.4141 16.3964 37.4141 20.7111V50.7545H19.5156V12.886ZM61.4844 50.7545H43.5859V20.7111C43.5859 16.3964 47.1391 12.886 51.5065 12.886H61.4844V50.7545Z" fill="white"/>
<path d="M49.0356 21.954C49.0356 23.6378 50.4172 25.0027 52.1216 25.0027H53.7763C55.4806 25.0027 56.8622 23.6378 56.8622 21.954C56.8622 20.2701 55.4806 18.9052 53.7763 18.9052H52.1216C50.4172 18.9052 49.0356 20.2701 49.0356 21.954Z" fill="white"/>
<path d="M53.7763 28.7714H52.1216C50.4172 28.7714 49.0356 30.1364 49.0356 31.8202C49.0356 33.504 50.4172 34.8689 52.1216 34.8689H53.7763C55.4806 34.8689 56.8622 33.504 56.8622 31.8202C56.8622 30.1364 55.4806 28.7714 53.7763 28.7714Z" fill="white"/>
<path d="M53.7763 38.6377H52.1216C50.4172 38.6377 49.0356 40.0026 49.0356 41.6865C49.0356 43.3703 50.4172 44.7352 52.1216 44.7352H53.7763C55.4806 44.7352 56.8622 43.3703 56.8622 41.6865C56.8622 40.0026 55.4806 38.6377 53.7763 38.6377Z" fill="white"/>
<path d="M28.8783 18.9052H27.2236C25.5193 18.9052 24.1377 20.2701 24.1377 21.954C24.1377 23.6378 25.5193 25.0027 27.2236 25.0027H28.8783C30.5827 25.0027 31.9642 23.6378 31.9642 21.954C31.9642 20.2701 30.5827 18.9052 28.8783 18.9052V18.9052Z" fill="white"/>
<path d="M28.8783 28.7714H27.2236C25.5193 28.7714 24.1377 30.1364 24.1377 31.8202C24.1377 33.504 25.5193 34.8689 27.2236 34.8689H28.8783C30.5827 34.8689 31.9642 33.504 31.9642 31.8202C31.9642 30.1364 30.5827 28.7714 28.8783 28.7714Z" fill="white"/>
<path d="M28.8783 38.6377H27.2236C25.5193 38.6377 24.1377 40.0026 24.1377 41.6865C24.1377 43.3703 25.5193 44.7352 27.2236 44.7352H28.8783C30.5827 44.7352 31.9642 43.3703 31.9642 41.6865C31.9642 40.0026 30.5827 38.6377 28.8783 38.6377Z" fill="white"/>
</svg>
