<svg width="82" height="82" viewBox="0 0 82 82" fill="none" xmlns="http://www.w3.org/2000/svg">
<path d="M68.8111 44.4837C70.5155 44.4837 71.8971 43.1371 71.8971 41.4759V10.7076C71.8971 5.90625 67.8894 2 62.9633 2H21.2712C15.6643 2 11.1025 6.44449 11.1025 11.9074V69.0924C11.1025 74.5555 15.6625 79 21.2675 79H68.8111C70.5155 79 71.8971 77.6534 71.8971 75.9922C71.8971 74.331 70.5155 72.9844 68.8111 72.9844H67.7781V63.822C70.243 62.2769 71.885 59.5837 71.8969 56.5264C71.9034 54.8653 70.5269 53.5135 68.8227 53.5071H68.8107C67.112 53.5071 65.7315 54.8464 65.725 56.5035C65.7193 57.982 64.4805 59.1848 62.9633 59.1848H29.9582V8.01562H62.9633C64.4862 8.01562 65.7252 9.22326 65.7252 10.7076V41.4759C65.7252 43.1371 67.1068 44.4837 68.8111 44.4837V44.4837ZM61.6062 72.9844H21.2675C19.0656 72.9844 17.2744 71.2385 17.2744 69.0924C17.2744 66.9463 19.0656 65.2006 21.2675 65.2006H61.6062V72.9844ZM23.7862 59.185H21.2675C19.8507 59.185 18.5009 59.4689 17.2744 59.9815V11.9074C17.2744 9.76136 19.0673 8.01562 21.2712 8.01562H23.7862V59.185Z" fill="#FFFF00"/>
<path d="M52.7843 39.8251C51.3674 40.7483 50.9869 42.6163 51.9341 43.9972C52.8813 45.3782 54.798 45.7491 56.2146 44.8258C58.2168 43.5212 59.4119 41.341 59.4119 38.9937V29.0141C59.413 28.9697 59.4129 28.9253 59.4119 28.881V22.1466C59.4119 20.0493 58.3535 18.0876 56.5804 16.8991C54.8071 15.7105 52.5491 15.449 50.5397 16.1993L40.6497 19.8926C38.1395 20.83 36.4532 23.22 36.4532 25.8399V35.149C36.4521 35.1933 36.4522 35.2377 36.4532 35.2821V45.4115C36.4532 45.7461 36.2828 46.0569 35.9975 46.2428C34.5806 47.1661 34.2001 49.0341 35.1474 50.415C35.7423 51.2824 36.7196 51.7513 37.7156 51.7513C38.305 51.7513 38.9012 51.587 39.428 51.2436C41.43 49.939 42.6252 47.7588 42.6252 45.4115V37.2847L53.2402 33.3207V38.9938C53.2401 39.3283 53.0696 39.639 52.7843 39.8251V39.8251ZM42.6251 30.8427V25.8401C42.6251 25.6948 42.7186 25.5622 42.8579 25.5103L52.7479 21.817C52.7918 21.8006 52.9256 21.7502 53.0831 21.8558C53.2402 21.9611 53.2402 22.1008 53.2402 22.1468V26.8785L42.6251 30.8427Z" fill="#FFFF00"/>
</svg>
