<svg width="82" height="82" viewBox="0 0 82 82" fill="none" xmlns="http://www.w3.org/2000/svg">
<path d="M69.7892 40.9794C66.9184 40.9794 64.8656 41.8821 63.4302 42.9828C62.7476 42.4587 61.9252 41.9794 60.9414 41.6211V21.0507C64.3446 21.0507 67.1133 23.7844 67.1133 27.1445V28.7919C67.1133 30.4747 68.4949 31.8388 70.1992 31.8388C71.9036 31.8388 73.2852 30.4747 73.2852 28.7919V27.1445C73.2852 20.4243 67.7477 14.957 60.9414 14.957V12.8134C60.9414 11.1306 59.5598 9.76648 57.8555 9.76648H49.4205C44.9723 9.76648 40.9987 11.812 38.4141 15.0002C35.8294 11.812 31.8558 9.76648 27.4076 9.76648H17.4297C15.7253 9.76648 14.3438 11.1306 14.3438 12.8134V14.9568C7.53741 14.9568 2 20.4241 2 27.1443V58.1233C2 64.8435 7.53741 70.3108 14.3438 70.3108H59.5483C59.7347 70.4371 59.9079 70.5538 60.0665 70.6595C62.0614 71.991 62.1932 72.0233 62.6837 72.1435C62.928 72.2033 63.1778 72.2334 63.4277 72.2334C63.6777 72.2334 63.9275 72.2033 64.1718 72.1435C64.6607 72.0236 64.7922 71.9914 66.7839 70.6685C67.7042 70.0571 69.1255 69.0855 70.6686 67.9289C74.753 64.8674 77.5214 62.1509 78.8969 59.8551C80.3513 57.4275 81 55.0831 81 52.2533C81 45.7208 76.2851 40.9794 69.7892 40.9794V40.9794ZM20.5156 15.8602H27.4076C31.6267 15.8602 35.0859 19.1344 35.3159 23.2443V34.021C35.3159 35.7038 36.6975 37.0679 38.4019 37.0679C40.1062 37.0679 41.4878 35.7038 41.4878 34.021V23.9533C41.4958 23.8635 41.5 23.7725 41.5 23.6805C41.5 19.3684 45.0531 15.8602 49.4205 15.8602H54.7695V41.1894C49.5213 42.1695 45.9058 46.4885 45.8759 52.1819H20.5156V15.8602ZM8.17188 58.1233V27.1445C8.17188 23.7844 10.9406 21.0507 14.3438 21.0507V55.2289C14.3438 56.9117 15.7253 58.2758 17.4297 58.2758H47.1445C47.3866 58.8021 47.6651 59.3266 47.9819 59.8553C48.7699 61.1703 50.0223 62.6291 51.7243 64.2172H14.3438C10.9406 64.217 8.17188 61.4835 8.17188 58.1233ZM73.5848 56.7525C71.9273 59.5189 66.4456 63.5507 63.4318 65.5605C60.4191 63.5428 54.9406 59.5011 53.2938 56.7525C52.4085 55.2749 52.0474 53.9715 52.0474 52.2533C52.0474 48.4341 54.6472 47.0732 57.0801 47.0732C59.2901 47.0732 60.2154 48.1116 60.6026 48.9827C61.0945 50.0899 62.2031 50.8051 63.4277 50.8054H63.4285C64.6529 50.8054 65.7615 50.0908 66.254 48.9839C66.6417 48.1122 67.5698 47.0732 69.7892 47.0732C72.2251 47.0732 74.8281 48.4341 74.8281 52.2533C74.8281 53.9753 74.468 55.2789 73.5848 56.7525Z" fill="#FFFF00"/>
</svg>
