<svg width="82" height="82" viewBox="0 0 82 82" fill="none" xmlns="http://www.w3.org/2000/svg">
<path d="M70.9196 52.8953C70.0772 50.575 68.6498 48.4855 66.7572 46.8442C65.0668 45.3782 63.0741 44.3323 60.9414 43.7668V22.2686C64.3446 22.2686 67.1133 25.0373 67.1133 28.4405V40.525C67.1133 42.2294 68.4949 43.6109 70.1992 43.6109C71.9036 43.6109 73.2852 42.2294 73.2852 40.525V28.4405C73.2852 21.6341 67.7477 16.0967 60.9414 16.0967V13.9258C60.9414 12.2214 59.5598 10.8398 57.8555 10.8398H49.4205C44.9721 10.8398 40.9985 12.9116 38.4141 16.1407C35.8294 12.9116 31.8558 10.8398 27.4076 10.8398H17.4297C15.7253 10.8398 14.3438 12.2214 14.3438 13.9258V16.0967C7.53741 16.0967 2 21.6341 2 28.4405V59.8166C2 66.6229 7.53741 72.1603 14.3438 72.1603H75.6911C76.5161 72.1603 77.3066 71.83 77.8864 71.2432C79.8943 69.2108 81.0002 66.518 81.0002 63.6612C81 57.9499 76.5397 53.2611 70.9196 52.8953ZM20.5156 17.0117H27.4076C31.6262 17.0117 35.0853 20.3271 35.3159 24.4891V35.4053C35.3159 37.1096 36.6975 38.4912 38.4019 38.4912C40.1062 38.4912 41.4878 37.1096 41.4878 35.4053V25.2093C41.496 25.118 41.5002 25.0256 41.5002 24.9322C41.5002 20.5648 45.0533 17.0117 49.4207 17.0117H54.7695V43.4846C52.2776 43.907 49.9166 44.9727 47.9491 46.5876C45.9508 48.2278 44.4252 50.3748 43.5284 52.7723C42.6381 53.0125 41.7927 53.3599 41.0063 53.7991H20.5156V17.0117ZM8.17188 59.8164V28.4405C8.17188 25.0373 10.9406 22.2686 14.3438 22.2686V56.8849C14.3438 58.5893 15.7253 59.9709 17.4297 59.9709H35.8543C35.4675 61.104 35.2578 62.3168 35.2578 63.5749C35.2578 64.3942 35.3466 65.2026 35.5195 65.9884H14.3438C10.9406 65.9883 8.17188 63.2197 8.17188 59.8164ZM74.2006 65.9883H42.0473C41.6444 65.2552 41.4296 64.428 41.4296 63.5748C41.4296 60.9289 43.4951 58.7299 46.1317 58.5686C47.518 58.4838 48.677 57.4831 48.963 56.1241C49.7768 52.2576 53.2415 49.4512 57.2011 49.4512C61.3292 49.4512 64.9073 52.5222 65.5242 56.5945C65.6518 57.4369 66.1221 58.189 66.8234 58.6728C67.5246 59.1565 68.395 59.3287 69.2278 59.1485C69.5482 59.0792 69.8791 59.044 70.2113 59.044C72.757 59.044 74.8281 61.1151 74.8281 63.6609C74.8281 64.4915 74.6098 65.2893 74.2006 65.9883Z" fill="url(#paint0_linear_11_254)"/>
<defs>
<linearGradient id="paint0_linear_11_254" x1="41.5001" y1="10.8398" x2="41.5001" y2="72.1603" gradientUnits="userSpaceOnUse">
<stop stop-color="#004E70"/>
<stop offset="1" stop-color="#005E8A"/>
</linearGradient>
</defs>
</svg>
