<svg width="82" height="82" viewBox="0 0 82 82" fill="none" xmlns="http://www.w3.org/2000/svg">
<path d="M62.9303 15.2969L59.6841 13.1449C57.6437 11.7924 55.0288 11.6609 52.8598 12.8026C50.6907 13.9441 49.3433 16.1611 49.3433 18.5881V22.8921C49.3433 25.3191 50.6907 27.536 52.8598 28.6777C53.8415 29.1944 54.9142 29.4502 55.984 29.4502C57.2778 29.4502 58.5671 29.0758 59.6841 28.3354L62.9303 26.1832H62.9302C64.7703 24.9634 65.8689 22.9287 65.8689 20.7403C65.8692 18.5517 64.7706 16.5169 62.9303 15.2969V15.2969ZM59.49 21.1239L56.2437 23.276C56.1862 23.3141 56.0107 23.4308 55.7632 23.3001C55.5153 23.1697 55.5153 22.9605 55.5153 22.892V18.588C55.5153 18.5194 55.5153 18.3104 55.7632 18.1798C55.8475 18.1354 55.9236 18.1195 55.9893 18.1195C56.1166 18.1195 56.2058 18.1788 56.2437 18.2039L59.4898 20.3559C59.6275 20.4472 59.6972 20.5762 59.6972 20.74C59.6972 20.9036 59.6276 21.0328 59.49 21.1239Z" fill="white"/>
<path d="M76.5847 20.7401C76.5847 10.4068 68.071 2 57.606 2C47.299 2 38.8844 10.1554 38.6334 20.2745H24.6078C22.9034 20.2745 21.5218 21.6386 21.5218 23.3214V25.4849H7.50195C5.79759 25.4849 4.41602 26.8489 4.41602 28.5317V76.9531C4.41602 78.6359 5.79759 80 7.50195 80H58.8192C60.5236 80 61.9052 78.6359 61.9052 76.9531C61.9052 75.2703 60.5236 73.9062 58.8192 73.9062H44.7995V61.1228H55.7333V61.7366C55.7333 63.4194 57.1149 64.7834 58.8192 64.7834C60.5236 64.7834 61.9052 63.4194 61.9052 61.7366V38.9952C70.3062 37.0668 76.5847 29.6138 76.5847 20.7401V20.7401ZM44.7994 34.5586C47.7446 37.2222 51.5407 38.9822 55.7331 39.3896V43.8146H44.7994V34.5586ZM27.6937 26.3683H38.6275V37.1425H27.6937V26.3683ZM10.5879 43.2363H21.5218V50.4864H10.5879V43.2363ZM21.5218 31.5786V37.1424H10.5879V31.5786H21.5218ZM10.5879 56.5802H21.5218V73.9062H10.5879V56.5802ZM27.6937 43.2363H38.6275V73.9062H27.6937V43.2363ZM44.7994 55.029V49.9083H55.7331V55.029H44.7994ZM57.606 33.3863C50.5443 33.3863 44.7994 27.7132 44.7994 20.74C44.7994 13.7667 50.5445 8.09375 57.606 8.09375C64.6676 8.09375 70.4128 13.7669 70.4128 20.7401C70.4128 27.7133 64.6677 33.3863 57.606 33.3863Z" fill="white"/>
</svg>
