<svg width="82" height="82" viewBox="0 0 82 82" fill="none" xmlns="http://www.w3.org/2000/svg">
<path d="M47.8418 14.6328H21.0479C19.3435 14.6328 17.9619 15.9794 17.9619 17.6406V30.6799C17.9619 32.3412 19.3435 33.6878 21.0479 33.6878H47.8417C49.546 33.6878 50.9276 32.3412 50.9276 30.6799V17.6406C50.9278 15.9794 49.546 14.6328 47.8418 14.6328ZM44.7559 27.6721H24.1338V20.6484H44.7557V27.6721H44.7559Z" fill="#00FF00"/>
<path d="M47.8418 39.3H21.0479C19.3435 39.3 17.9619 40.6466 17.9619 42.3079C17.9619 43.9691 19.3435 45.3157 21.0479 45.3157H47.8417C49.546 45.3157 50.9276 43.9691 50.9276 42.3079C50.9276 40.6466 49.546 39.3 47.8418 39.3V39.3Z" fill="#00FF00"/>
<path d="M47.8418 50.1282H21.0479C19.3435 50.1282 17.9619 51.4748 17.9619 53.136C17.9619 54.7972 19.3435 56.1438 21.0479 56.1438H47.8417C49.546 56.1438 50.9276 54.7972 50.9276 53.136C50.9276 51.4748 49.546 50.1282 47.8418 50.1282Z" fill="#00FF00"/>
<path d="M47.8418 60.9563H21.0479C19.3435 60.9563 17.9619 62.3029 17.9619 63.9641C17.9619 65.6253 19.3435 66.9719 21.0479 66.9719H47.8417C49.546 66.9719 50.9276 65.6253 50.9276 63.9641C50.9276 62.3029 49.546 60.9563 47.8418 60.9563Z" fill="#00FF00"/>
<path d="M74.9132 57.0652C76.6176 57.0652 77.9991 55.7186 77.9991 54.0574V32.9961C77.9991 26.3621 72.4617 20.9649 65.6554 20.9649H63.8887V14.0312C63.8887 7.39722 58.3513 2 51.5449 2H17.3447C10.5384 2 5.00098 7.39722 5.00098 14.0312V66.4285C5.00098 73.3605 10.8115 79 17.9534 79H67.8774C73.4585 79 77.9991 74.5743 77.9991 69.1345V69.0965C77.9991 67.4353 76.6176 66.0887 74.9132 66.0887C73.2088 66.0887 71.8273 67.4353 71.8273 69.0965V69.1345C71.8273 71.2573 70.0555 72.9844 67.8774 72.9844H67.858C66.766 72.9844 65.7757 72.5567 65.0573 71.8658C65.0546 71.8631 65.0518 71.8604 65.049 71.8576C65.0473 71.856 65.0456 71.8542 65.0438 71.8525C64.3303 71.1556 63.8887 70.1945 63.8887 69.1345V26.9805H65.6554C69.0586 26.9805 71.8273 29.6791 71.8273 32.9961V54.0576C71.8273 55.7186 73.2088 57.0652 74.9132 57.0652V57.0652ZM17.9534 72.9844C14.2147 72.9844 11.1729 70.0433 11.1729 66.4285V14.0312C11.1729 10.7142 13.9416 8.01562 17.3447 8.01562H51.5448C54.948 8.01562 57.7167 10.7142 57.7167 14.0312V69.1345V69.1472V69.1535C57.7167 70.5115 58.0013 71.8064 58.5158 72.9844H17.9534Z" fill="#00FF00"/>
</svg>
