<?xml version="1.0" encoding="utf-8"?>
<!-- Generator: Adobe Illustrator 27.0.0, SVG Export Plug-In . SVG Version: 6.00 Build 0)  -->
<svg version="1.1" xmlns="http://www.w3.org/2000/svg" xmlns:xlink="http://www.w3.org/1999/xlink" x="0px" y="0px"
	 viewBox="0 0 750 525" style="enable-background:new 0 0 750 525;" xml:space="preserve">
<style type="text/css">
	.st0{fill:#A1CA1E;}
	.st1{fill:#7EA22B;}
	.st2{fill:#9D5C3A;}
	.st3{fill:#7D932D;}
	.st4{fill:#5C662D;}
	.st5{fill:#5F6C2E;}
	.st6{fill:#93B625;}
	.st7{fill:#9DC531;}
	.st8{fill:#A8CD3B;}
	.st9{display:none;}
	.st10{display:inline;opacity:0.24;}
	.st11{fill:#4E5528;}
</style>
<g id="圖層_1">
	<g>
		<path class="st0" d="M0.7,95.1C348.6,122,554.8,292.5,629,371.4C722.9,471.3,750.7,525,750.7,525l-750-1.2V95.1z"/>
	</g>
	<g>
		<path class="st0" d="M0,96c348.5,26.9,548.8,204,548.8,204l1.7,225.8L0,524.7V96z"/>
	</g>
	<g>
		<path class="st1" d="M286.4,221.9c0,0-1.5-18.2-6-16.6c-4.5,1.6-4.9,8.4-4.9,8.4s-1.7-17.6-6.8-16.2c-5.2,1.4-5.4,15.8-5.4,15.8
			s-3.6-12.6-6.6-9.2c-2.9,3.4-3.4,10.8-3.4,10.8s-5.9-9.1-7.7-4.7c-1.8,4.3-0.6,12.9-0.6,12.9L286.4,221.9z"/>
	</g>
	<g>
		<path class="st1" d="M420.3,279.7c0,0-0.8-15.9-4.7-14.7c-4,1.2-4.5,7.1-4.5,7.1s-0.9-15.4-5.5-14.3c-4.5,1.1-5.2,13.6-5.2,13.6
			s-2.8-11.1-5.4-8.2c-2.6,2.8-3.3,9.3-3.3,9.3s-4.9-8.1-6.6-4.3c-1.7,3.7-0.9,11.2-0.9,11.2L420.3,279.7z"/>
	</g>
	<g>
		<path class="st1" d="M536.7,479.5c0,0-0.8-15.9-4.7-14.7c-4,1.2-4.5,7.1-4.5,7.1s-0.9-15.4-5.5-14.3c-4.5,1.1-5.2,13.6-5.2,13.6
			s-2.8-11.1-5.4-8.2c-2.6,2.8-3.3,9.3-3.3,9.3s-4.9-8.1-6.6-4.3c-1.7,3.7-0.9,11.2-0.9,11.2L536.7,479.5z"/>
	</g>
	<g>
		<path class="st1" d="M634,431.6c0,0-0.6-11.9-3.5-10.9c-3,0.9-3.4,5.3-3.4,5.3s-0.7-11.4-4.1-10.6c-3.4,0.8-3.9,10.1-3.9,10.1
			s-2.1-8.3-4-6.1c-2,2.1-2.5,6.9-2.5,6.9s-3.6-6-4.9-3.2c-1.3,2.8-0.7,8.3-0.7,8.3L634,431.6z"/>
	</g>
	<g>
		<path class="st1" d="M666.3,453c0,0-0.6-11.9-3.5-10.9c-3,0.9-3.4,5.3-3.4,5.3s-0.7-11.4-4.1-10.6c-3.4,0.8-3.9,10.1-3.9,10.1
			s-2.1-8.3-4-6.1c-2,2.1-2.5,6.9-2.5,6.9s-3.6-6-4.9-3.2c-1.3,2.8-0.7,8.3-0.7,8.3L666.3,453z"/>
	</g>
	<g>
		<path class="st1" d="M114.9,173.8c0,0-0.8-15.9-4.7-14.7c-4,1.2-4.5,7.1-4.5,7.1s-0.9-15.4-5.5-14.3c-4.5,1.1-5.2,13.6-5.2,13.6
			s-2.8-11.1-5.4-8.2c-2.6,2.8-3.3,9.3-3.3,9.3s-4.9-8.1-6.6-4.3c-1.7,3.7-0.9,11.2-0.9,11.2L114.9,173.8z"/>
	</g>
	<g>
		<path class="st1" d="M47.4,371.2c0,0-0.8-15.9-4.7-14.7c-4,1.2-4.5,7.1-4.5,7.1s-0.9-15.4-5.5-14.3c-4.5,1.1-5.2,13.6-5.2,13.6
			s-2.8-11.1-5.4-8.2c-2.6,2.8-3.3,9.3-3.3,9.3s-4.9-8.1-6.6-4.3c-1.7,3.7-0.9,11.2-0.9,11.2L47.4,371.2z"/>
	</g>
	<g>
		<path class="st1" d="M338,343c0,0-0.8-15.9-4.7-14.7c-4,1.2-4.5,7.1-4.5,7.1s-0.9-15.4-5.5-14.3c-4.5,1.1-5.2,13.6-5.2,13.6
			s-2.8-11.1-5.4-8.2c-2.6,2.8-3.3,9.3-3.3,9.3s-4.9-8.1-6.6-4.3c-1.7,3.7-0.9,11.2-0.9,11.2L338,343z"/>
	</g>
	<g>
		<path class="st1" d="M133.8,490c0,0-0.8-15.9-4.7-14.7c-4,1.2-4.5,7.1-4.5,7.1s-0.9-15.4-5.5-14.3c-4.5,1.1-5.2,13.6-5.2,13.6
			s-2.8-11.1-5.4-8.2c-2.6,2.8-3.3,9.3-3.3,9.3s-4.9-8.1-6.6-4.3c-1.7,3.7-0.9,11.2-0.9,11.2L133.8,490z"/>
	</g>
	<g>
		<path class="st1" d="M182.6,469.1c0,0-0.8-15.9-4.7-14.7c-4,1.2-4.5,7.1-4.5,7.1s-0.9-15.4-5.5-14.3c-4.5,1.1-5.2,13.6-5.2,13.6
			s-2.8-11.1-5.4-8.2c-2.6,2.8-3.3,9.3-3.3,9.3s-4.9-8.1-6.6-4.3c-1.7,3.7-0.9,11.2-0.9,11.2L182.6,469.1z"/>
	</g>
	<g>
		<path class="st1" d="M75.4,269.1c0,0-0.7-15.3-4.6-14.1c-3.8,1.2-4.3,6.9-4.3,6.9S65.6,247,61.2,248c-4.4,1-5,13.1-5,13.1
			s-2.7-10.7-5.2-7.9c-2.6,2.7-3.2,8.9-3.2,8.9s-4.7-7.8-6.3-4.2c-1.6,3.6-0.9,10.8-0.9,10.8L75.4,269.1z"/>
	</g>
	<g>
		<g>
			<g>
				<path class="st2" d="M308.8,212.5L308.8,212.5c1.4,0,2.5-1.1,2.5-2.4l0.4-47.3c0-1.4-1.1-2.5-2.4-2.5l0,0
					c-1.4,0-2.5,1.1-2.5,2.4l-0.4,47.3C306.4,211.4,307.5,212.5,308.8,212.5z"/>
			</g>
			<g>
				<path class="st3" d="M296.3,150.7c4.6-7.6,8.8-15.4,13.1-23.2l12.9,23.4c1.6,2.7,20.2,32.4,20.7,32.1c-8.2,5.6-22.6,7.2-34,7.4
					c-11,0.2-26.3-2.2-33.9-7.9C275.6,182.7,294.6,153.4,296.3,150.7z"/>
			</g>
			<g>
				<path class="st1" d="M275.1,182.4c0.2,0.1,4.2-5.8,8.7-12.6c-0.7,5.2-1.9,10.4-3.6,15.5C278.3,184.4,276.6,183.5,275.1,182.4z"
					/>
			</g>
			<g>
				<path class="st3" d="M283.8,169.8c0.6-0.9,1.2-1.9,1.9-2.8c14.7,1.5,29.5,0.3,43.5-5.1c5.9,9.4,13.5,21.2,13.8,21
					c-8.2,5.6-22.6,7.2-34,7.4c-8.9,0.1-20.6-1.4-28.8-5C281.9,180.2,283.1,175,283.8,169.8z"/>
			</g>
			<g>
				<path class="st4" d="M285.7,167c4.9-7.4,9.8-15,10.6-16.3c4.6-7.6,8.8-15.4,13.1-23.2l12.9,23.4c0.6,1,3.5,5.6,6.9,11
					C315.3,167.3,300.5,168.4,285.7,167z"/>
			</g>
			<g>
				<path class="st1" d="M297.4,124.4c4.3-7,8.2-14.3,12.2-21.5l12,21.7c1.5,2.6,18.8,30.1,19.2,29.8c-7.6,5.2-21,6.7-31.6,6.9
					c-10.2,0.2-24.4-2-31.5-7.4C278.2,154.1,295.9,126.9,297.4,124.4z"/>
			</g>
			<g>
				<path class="st5" d="M297.4,124.4c4.3-7,8.2-14.3,12.2-21.5l12,21.7c0.6,1,3.3,5.4,6.6,10.5c-11.8,3.7-23.9,3.6-35.7,1
					c0.9-2.4,1.7-5,2.3-7.6C296.1,126.4,297.1,124.9,297.4,124.4z"/>
			</g>
			<g>
				<path class="st6" d="M294.8,128.5c-0.6,2.6-1.3,5.2-2.3,7.6c-0.8-0.2-1.5-0.4-2.3-0.5C291.9,132.9,293.5,130.5,294.8,128.5z"/>
			</g>
			<g>
				<path class="st7" d="M277.8,153.9C277.8,153.8,277.8,153.8,277.8,153.9c0.2,0.1,6.9-9.9,12.4-18.3c0.8,0.2,1.5,0.4,2.3,0.5
					C289.8,143.2,285.3,149.3,277.8,153.9z"/>
			</g>
			<g>
				<path class="st1" d="M292.5,136.1c11.7,2.6,23.8,2.7,35.7-1c5.5,8.7,12.4,19.4,12.6,19.2c-7.6,5.2-21,6.7-31.6,6.9
					c-10.2,0.2-24.3-2-31.4-7.3C285.3,149.3,289.8,143.2,292.5,136.1z"/>
			</g>
			<g>
				<path class="st8" d="M294.7,108.4c-1.1-0.5-2.1-1-3-1.6c0.2,0.2,10.3-15.3,11.2-16.7c2.4-4,4.6-8.1,6.9-12.2l0.6,1
					C309,90.2,303.1,100.5,294.7,108.4z"/>
			</g>
			<g>
				<path class="st0" d="M297.6,109.4c-1-0.3-2-0.6-2.9-1c8.4-7.9,14.3-18.2,15.7-29.6l6.2,11.3c0.9,1.5,10.7,17.1,10.9,16.9
					c-1.6,1.1-3.7,1.9-5.9,2.5c4.3,6.8,12.7,20,12.9,19.9c-6.1,4.1-16.7,5.3-25.1,5.5c-8.1,0.1-19.4-1.6-25-5.9
					C284.6,129.2,293.2,116.2,297.6,109.4z"/>
			</g>
		</g>
	</g>
	<g>
		<g>
			<g>
				<path class="st2" d="M203.2,217.2L203.2,217.2c1.4,0,2.5-1.1,2.6-2.5l0.9-48.1c0-1.4-1.1-2.5-2.5-2.6l0,0
					c-1.4,0-2.5,1.1-2.6,2.5l-0.9,48.1C200.7,216,201.8,217.2,203.2,217.2z"/>
			</g>
			<g>
				<path class="st3" d="M191.2,154.1c4.8-7.7,9.2-15.6,13.6-23.5l12.9,24c1.6,2.8,20.2,33.2,20.7,32.9c-8.4,5.6-23.1,7.1-34.7,7.1
					c-11.2,0.1-26.7-2.6-34.4-8.5C169.7,186.4,189.5,156.8,191.2,154.1z"/>
			</g>
			<g>
				<path class="st1" d="M169.2,186.1c0.2,0.1,4.4-5.9,9-12.7c-0.8,5.3-2.1,10.6-3.9,15.7C172.4,188.2,170.7,187.2,169.2,186.1z"/>
			</g>
			<g>
				<path class="st3" d="M178.3,173.4c0.6-0.9,1.3-1.9,1.9-2.9c15,1.7,30.1,0.7,44.4-4.6c5.9,9.6,13.5,21.8,13.8,21.6
					c-8.4,5.6-23.1,7.1-34.7,7.1c-9.1,0-21-1.7-29.3-5.4C176.2,184,177.5,178.7,178.3,173.4z"/>
			</g>
			<g>
				<path class="st4" d="M180.2,170.5c5.1-7.5,10.1-15.1,11-16.5c4.8-7.7,9.2-15.6,13.6-23.5l12.9,24c0.6,1,3.5,5.8,6.9,11.3
					C210.3,171.2,195.2,172.2,180.2,170.5z"/>
			</g>
			<g>
				<path class="st1" d="M192.7,127.3c4.5-7.1,8.5-14.5,12.7-21.8l12,22.3c1.5,2.6,18.8,30.8,19.2,30.6c-7.8,5.2-21.4,6.6-32.3,6.6
					c-10.4,0.1-24.8-2.4-32-7.9C172.7,157.4,191.1,129.8,192.7,127.3z"/>
			</g>
			<g>
				<path class="st5" d="M192.7,127.3c4.5-7.1,8.5-14.5,12.7-21.8l12,22.3c0.6,1,3.3,5.5,6.6,10.8c-12.1,3.6-24.4,3.4-36.3,0.6
					c1-2.5,1.8-5,2.4-7.7C191.3,129.3,192.3,127.8,192.7,127.3z"/>
			</g>
			<g>
				<path class="st6" d="M189.9,131.5c-0.6,2.7-1.4,5.2-2.4,7.7c-0.8-0.2-1.6-0.4-2.3-0.6C186.9,135.9,188.6,133.4,189.9,131.5z"/>
			</g>
			<g>
				<path class="st7" d="M172.3,157.1C172.3,157.1,172.3,157.1,172.3,157.1c0.2,0.1,7.1-10,12.8-18.5c0.8,0.2,1.6,0.4,2.3,0.6
					C184.6,146.3,180,152.5,172.3,157.1z"/>
			</g>
			<g>
				<path class="st1" d="M187.5,139.2c11.9,2.8,24.3,3,36.3-0.6c5.5,8.9,12.4,19.9,12.6,19.8c-7.8,5.2-21.4,6.6-32.3,6.6
					c-10.4,0.1-24.8-2.4-31.9-7.8C180,152.5,184.6,146.3,187.5,139.2z"/>
			</g>
			<g>
				<path class="st8" d="M190.1,111c-1.1-0.5-2.2-1.1-3-1.7c0.2,0.2,10.7-15.5,11.6-16.9c2.5-4,4.8-8.2,7.2-12.4l0.6,1
					C204.9,92.7,198.7,103.1,190.1,111z"/>
			</g>
			<g>
				<path class="st0" d="M193,112.1c-1-0.3-2-0.7-2.9-1.1c8.6-7.9,14.8-18.3,16.3-30l6.2,11.6c0.9,1.5,10.7,17.5,10.9,17.4
					c-1.6,1.1-3.8,1.9-6.1,2.5c4.3,7,12.6,20.6,12.9,20.4c-6.2,4.1-17.1,5.2-25.7,5.3c-8.3,0-19.8-1.9-25.4-6.3
					C179.6,132,188.4,118.9,193,112.1z"/>
			</g>
		</g>
	</g>
	<g>
		<g>
			<g>
				<path class="st2" d="M159.1,197.3L159.1,197.3c1.2,0,2.2-1,2.2-2.2l0.3-41.7c0-1.2-1-2.2-2.2-2.2l0,0c-1.2,0-2.2,1-2.2,2.2
					l-0.3,41.7C156.9,196.3,157.9,197.3,159.1,197.3z"/>
			</g>
			<g>
				<path class="st3" d="M148,142.7c4.1-6.7,7.8-13.6,11.6-20.5l11.4,20.7c1.4,2.4,17.8,28.6,18.3,28.3c-7.2,4.9-19.9,6.4-30,6.5
					c-9.7,0.2-23.2-1.9-29.9-7C129.7,170.9,146.5,145.1,148,142.7z"/>
			</g>
			<g>
				<path class="st1" d="M129.3,170.7c0.2,0.1,3.7-5.1,7.7-11.1c-0.6,4.6-1.7,9.2-3.2,13.7C132.1,172.5,130.6,171.6,129.3,170.7z"/>
			</g>
			<g>
				<path class="st3" d="M137,159.6c0.5-0.8,1.1-1.7,1.7-2.5c13,1.3,26.1,0.3,38.4-4.5c5.2,8.3,11.9,18.7,12.2,18.6
					c-7.2,4.9-19.9,6.4-30,6.5c-7.9,0.1-18.2-1.2-25.4-4.4C135.3,168.7,136.4,164.2,137,159.6z"/>
			</g>
			<g>
				<path class="st4" d="M138.7,157.1c4.3-6.5,8.6-13.2,9.3-14.4c4.1-6.7,7.8-13.6,11.6-20.5l11.4,20.7c0.5,0.9,3.1,5,6.1,9.7
					C164.8,157.3,151.7,158.3,138.7,157.1z"/>
			</g>
			<g>
				<path class="st1" d="M149,119.4c3.8-6.2,7.2-12.7,10.8-19l10.6,19.2c1.3,2.3,16.6,26.5,17,26.3c-6.7,4.6-18.5,5.9-27.9,6.1
					c-9,0.2-21.5-1.8-27.8-6.5C132,145.7,147.6,121.7,149,119.4z"/>
			</g>
			<g>
				<path class="st5" d="M149,119.4c3.8-6.2,7.2-12.7,10.8-19l10.6,19.2c0.5,0.8,2.9,4.7,5.8,9.3c-10.4,3.3-21.1,3.2-31.5,0.9
					c0.8-2.1,1.5-4.4,2-6.7C147.9,121.2,148.7,119.9,149,119.4z"/>
			</g>
			<g>
				<path class="st6" d="M146.7,123.1c-0.5,2.3-1.2,4.6-2,6.7c-0.7-0.2-1.4-0.3-2-0.5C144.1,127,145.5,124.8,146.7,123.1z"/>
			</g>
			<g>
				<path class="st7" d="M131.7,145.5C131.6,145.5,131.6,145.5,131.7,145.5c0.2,0.1,6.1-8.7,10.9-16.2c0.7,0.2,1.4,0.3,2,0.5
					C142.2,136,138.2,141.5,131.7,145.5z"/>
			</g>
			<g>
				<path class="st1" d="M144.6,129.8c10.4,2.3,21.1,2.4,31.5-0.9c4.8,7.7,10.9,17.1,11.2,17c-6.7,4.6-18.5,5.9-27.9,6.1
					c-9,0.2-21.5-1.8-27.8-6.5C138.2,141.5,142.2,136,144.6,129.8z"/>
			</g>
			<g>
				<path class="st8" d="M146.6,105.3c-1-0.4-1.9-0.9-2.6-1.5c0.2,0.1,9.1-13.5,9.9-14.8c2.2-3.5,4.1-7.2,6.1-10.8l0.5,0.9
					C159.2,89.3,154,98.4,146.6,105.3z"/>
			</g>
			<g>
				<path class="st0" d="M149.1,106.2c-0.9-0.3-1.7-0.6-2.5-0.9c7.4-6.9,12.6-16,13.9-26.1l5.5,10c0.8,1.3,9.4,15.1,9.6,14.9
					c-1.4,1-3.2,1.7-5.2,2.2c3.8,6,11.2,17.7,11.4,17.6c-5.4,3.7-14.7,4.7-22.2,4.8c-7.2,0.1-17.1-1.4-22.1-5.2
					C137.7,123.7,145.2,112.2,149.1,106.2z"/>
			</g>
		</g>
	</g>
	<g>
		<g>
			<g>
				<path class="st2" d="M35.5,138.3L35.5,138.3c1.4,0,2.5-1.1,2.5-2.5l0.4-48.5c0-1.4-1.1-2.5-2.5-2.5l0,0c-1.4,0-2.5,1.1-2.5,2.5
					L33,135.8C32.9,137.2,34.1,138.3,35.5,138.3z"/>
			</g>
			<g>
				<path class="st3" d="M22.6,74.8c4.7-7.8,9-15.8,13.5-23.8l13.3,24c1.7,2.8,20.8,33.2,21.2,32.9c-8.4,5.7-23.2,7.4-34.9,7.6
					c-11.3,0.2-27-2.3-34.8-8.1C1.3,107.7,20.9,77.6,22.6,74.8z"/>
			</g>
			<g>
				<path class="st1" d="M0.8,107.4c0.2,0.1,4.3-5.9,9-12.9c-0.7,5.4-2,10.7-3.7,15.9C4.1,109.5,2.3,108.5,0.8,107.4z"/>
			</g>
			<g>
				<path class="st3" d="M9.8,94.5c0.6-1,1.3-1.9,1.9-2.9c15.1,1.5,30.4,0.3,44.7-5.2c6.1,9.6,13.9,21.8,14.2,21.6
					c-8.4,5.7-23.2,7.4-34.9,7.6c-9.1,0.2-21.2-1.4-29.6-5.1C7.8,105.2,9.1,99.8,9.8,94.5z"/>
			</g>
			<g>
				<path class="st4" d="M11.7,91.6c5-7.6,10-15.4,10.9-16.7c4.7-7.8,9-15.8,13.5-23.8l13.3,24c0.6,1,3.6,5.8,7.1,11.3
					C42.1,91.9,26.9,93.1,11.7,91.6z"/>
			</g>
			<g>
				<path class="st1" d="M23.8,47.8c4.4-7.2,8.4-14.7,12.5-22.1L48.6,48c1.5,2.6,19.3,30.9,19.7,30.6c-7.8,5.3-21.5,6.9-32.4,7
					c-10.5,0.2-25-2.1-32.3-7.6C4,78.4,22.2,50.4,23.8,47.8z"/>
			</g>
			<g>
				<path class="st5" d="M23.8,47.8c4.4-7.2,8.4-14.7,12.5-22.1L48.6,48c0.6,1,3.4,5.5,6.7,10.8c-12.1,3.8-24.6,3.7-36.6,1
					c1-2.5,1.7-5.1,2.3-7.8C22.4,49.9,23.4,48.3,23.8,47.8z"/>
			</g>
			<g>
				<path class="st6" d="M21,52.1c-0.6,2.7-1.4,5.3-2.3,7.8c-0.8-0.2-1.6-0.4-2.4-0.6C18.1,56.6,19.7,54.1,21,52.1z"/>
			</g>
			<g>
				<path class="st7" d="M3.6,78.1C3.6,78.1,3.6,78.1,3.6,78.1c0.2,0.1,7.1-10.1,12.7-18.8c0.8,0.2,1.6,0.4,2.4,0.6
					C15.9,67.1,11.3,73.4,3.6,78.1z"/>
			</g>
			<g>
				<path class="st1" d="M18.7,59.9c12.1,2.7,24.5,2.8,36.6-1c5.6,8.9,12.7,19.9,13,19.8c-7.8,5.3-21.5,6.9-32.4,7
					c-10.5,0.2-25-2.1-32.3-7.5C11.3,73.4,15.9,67.1,18.7,59.9z"/>
			</g>
			<g>
				<path class="st8" d="M21,31.5c-1.2-0.5-2.2-1.1-3-1.7c0.2,0.2,10.6-15.7,11.5-17.2c2.5-4.1,4.8-8.4,7.1-12.6l0.6,1
					C35.6,12.8,29.5,23.4,21,31.5z"/>
			</g>
			<g>
				<path class="st0" d="M23.9,32.5c-1-0.3-2-0.6-2.9-1C29.5,23.4,35.6,12.8,37.1,1l6.4,11.6c0.9,1.5,11,17.5,11.2,17.4
					c-1.6,1.1-3.8,2-6.1,2.6c4.4,7,13,20.6,13.3,20.4c-6.2,4.2-17.1,5.5-25.8,5.6c-8.3,0.1-19.9-1.7-25.7-6
					C10.6,52.8,19.4,39.4,23.9,32.5z"/>
			</g>
		</g>
	</g>
	<g>
		<g>
			<g>
				<path class="st2" d="M74.1,151.4L74.1,151.4c1.2,0,2.1-0.9,2.1-2.1l0.3-40.7c0-1.2-0.9-2.1-2.1-2.1l0,0c-1.2,0-2.1,0.9-2.1,2.1
					L72,149.3C71.9,150.5,72.9,151.4,74.1,151.4z"/>
			</g>
			<g>
				<path class="st3" d="M63.3,98.2c4-6.5,7.6-13.3,11.3-20l11.1,20.1c1.4,2.4,17.4,27.9,17.8,27.6c-7.1,4.8-19.4,6.2-29.3,6.4
					c-9.5,0.2-22.6-1.9-29.2-6.8C45.4,125.8,61.8,100.5,63.3,98.2z"/>
			</g>
			<g>
				<path class="st1" d="M45,125.5c0.2,0.1,3.6-5,7.5-10.8c-0.6,4.5-1.7,8.9-3.1,13.3C47.8,127.3,46.3,126.4,45,125.5z"/>
			</g>
			<g>
				<path class="st3" d="M52.5,114.7c0.5-0.8,1.1-1.6,1.6-2.4c12.7,1.3,25.4,0.3,37.4-4.4c5.1,8.1,11.6,18.3,11.9,18.1
					c-7.1,4.8-19.4,6.2-29.3,6.4c-7.7,0.1-17.7-1.2-24.8-4.3C50.9,123.6,51.9,119.2,52.5,114.7z"/>
			</g>
			<g>
				<path class="st4" d="M54.2,112.2c4.2-6.4,8.4-12.9,9.1-14c4-6.5,7.6-13.3,11.3-20l11.1,20.1c0.5,0.9,3,4.8,5.9,9.5
					C79.6,112.5,66.8,113.5,54.2,112.2z"/>
			</g>
			<g>
				<path class="st1" d="M64.2,75.5c3.7-6.1,7-12.3,10.5-18.5l10.3,18.7c1.3,2.2,16.2,25.9,16.5,25.6c-6.6,4.5-18.1,5.8-27.2,5.9
					c-8.8,0.1-21-1.8-27.1-6.3C47.7,101.1,62.9,77.7,64.2,75.5z"/>
			</g>
			<g>
				<path class="st5" d="M64.2,75.5c3.7-6.1,7-12.3,10.5-18.5l10.3,18.7c0.5,0.8,2.9,4.6,5.7,9.1c-10.2,3.2-20.6,3.1-30.7,0.9
					c0.8-2.1,1.5-4.3,2-6.5C63.1,77.3,64,76,64.2,75.5z"/>
			</g>
			<g>
				<path class="st6" d="M62,79.1c-0.5,2.3-1.1,4.4-2,6.5c-0.7-0.1-1.3-0.3-2-0.5C59.5,82.9,60.9,80.8,62,79.1z"/>
			</g>
			<g>
				<path class="st7" d="M47.3,100.9C47.3,100.9,47.3,100.9,47.3,100.9c0.2,0.1,5.9-8.5,10.7-15.8c0.7,0.2,1.3,0.3,2,0.5
					C57.6,91.7,53.8,97,47.3,100.9z"/>
			</g>
			<g>
				<path class="st1" d="M60,85.6c10.1,2.2,20.5,2.3,30.7-0.9c4.7,7.5,10.6,16.7,10.9,16.6c-6.6,4.5-18.1,5.8-27.2,5.9
					c-8.8,0.1-21-1.7-27.1-6.3C53.8,97,57.6,91.7,60,85.6z"/>
			</g>
			<g>
				<path class="st8" d="M61.9,61.8c-1-0.4-1.8-0.9-2.6-1.4c0.2,0.1,8.9-13.2,9.6-14.4c2.1-3.4,4-7,6-10.5l0.5,0.9
					C74.2,46.2,69.1,55,61.9,61.8z"/>
			</g>
			<g>
				<path class="st0" d="M64.4,62.7c-0.9-0.2-1.7-0.5-2.5-0.9c7.2-6.8,12.3-15.6,13.5-25.5l5.4,9.7c0.7,1.2,9.2,14.7,9.4,14.6
					c-1.4,0.9-3.2,1.6-5.1,2.1C88.8,68.6,96,80,96.2,79.9c-5.2,3.6-14.4,4.6-21.6,4.7c-7,0.1-16.7-1.4-21.6-5
					C53.2,79.7,60.6,68.5,64.4,62.7z"/>
			</g>
		</g>
	</g>
</g>
<g id="圖層_2" class="st9">
	<g class="st10">
		<path class="st11" d="M339.1,177.5c-0.3-0.5-0.6-0.9-0.9-1.4c0,0,0,0,0,0c-0.1-0.2-0.3-0.5-0.5-0.7c0,0,0-0.1-0.1-0.1
			c-0.2-0.2-0.3-0.5-0.5-0.7c0,0,0,0,0,0c-0.4-0.5-0.7-1.1-1.1-1.7c0,0,0,0,0,0c-0.2-0.3-0.4-0.6-0.6-0.9c0,0,0,0,0,0
			c-2.1-3.2-4.3-6.7-6.3-10c-0.6-0.9-1.1-1.7-1.6-2.6c1.3-0.3,2.5-0.6,3.7-0.9c0.7-0.2,1.3-0.4,1.9-0.6c2.9-0.9,5.5-2.1,7.6-3.6h0
			c0,0,0,0,0,0c0,0,0,0,0,0c0,0,0,0,0,0c0,0,0,0-0.1,0c0,0,0,0,0,0c0,0,0-0.1-0.1-0.1c0,0,0,0,0,0c-0.1-0.1-0.2-0.2-0.3-0.4
			c0,0,0,0-0.1-0.1c0-0.1-0.1-0.1-0.1-0.2c0,0,0-0.1-0.1-0.1c-0.1-0.1-0.1-0.2-0.2-0.2c0,0,0-0.1-0.1-0.1c-0.1-0.1-0.2-0.2-0.3-0.4
			c0,0,0,0,0,0c-0.1-0.1-0.2-0.2-0.3-0.4c0,0-0.1-0.1-0.1-0.1c-0.1-0.1-0.1-0.2-0.2-0.3c0,0-0.1-0.1-0.1-0.1
			c-0.1-0.1-0.2-0.3-0.3-0.4c0,0,0-0.1-0.1-0.1c-0.2-0.3-0.5-0.7-0.7-1.1c0,0-0.1-0.1-0.1-0.1c-0.1-0.2-0.2-0.3-0.3-0.5
			c0,0-0.1-0.1-0.1-0.1c-0.1-0.2-0.2-0.3-0.3-0.5c0,0,0-0.1-0.1-0.1c-0.3-0.4-0.6-0.9-0.9-1.3c0,0-0.1-0.1-0.1-0.1
			c-0.1-0.2-0.3-0.4-0.4-0.6c0,0,0-0.1-0.1-0.1c-0.2-0.2-0.3-0.5-0.5-0.7c0,0,0,0,0,0c-0.3-0.5-0.7-1-1-1.6c0,0,0,0,0,0
			c-1.9-2.9-3.9-6.2-5.8-9.1c-0.5-0.8-1-1.6-1.5-2.3c3-0.8,5.7-1.9,7.8-3.4c-0.3,0.2-8.7-13-12.9-19.9c2.3-0.6,4.3-1.4,5.9-2.5
			c-0.2,0.2-10.1-15.5-10.9-16.9l-6.2-11.3l-0.6-1c-2.3,4.1-4.5,8.2-6.9,12.2c-0.9,1.4-10.9,16.9-11.2,16.7c0.8,0.6,1.8,1.2,3,1.6
			c0.9,0.4,1.9,0.7,2.9,1c-4.4,6.8-12.9,19.8-13.2,19.6c2,1.5,4.7,2.7,7.7,3.6c-1.7,2.6-3.5,5.4-5.4,8.2c0,0,0,0,0,0
			c-0.7,1.1-1.4,2.1-2.1,3.1c0,0-0.1,0.1-0.1,0.1c-0.1,0.2-0.2,0.3-0.3,0.5c0,0.1-0.1,0.1-0.1,0.2c-0.1,0.2-0.2,0.3-0.3,0.5
			c0,0.1-0.1,0.1-0.1,0.2c-0.3,0.5-0.6,0.9-0.9,1.4c-0.1,0.1-0.1,0.2-0.2,0.3c-0.1,0.1-0.2,0.2-0.2,0.3c-0.1,0.1-0.1,0.2-0.2,0.3
			c-0.1,0.1-0.1,0.2-0.2,0.3c-0.1,0.1-0.1,0.2-0.2,0.3c-0.1,0.1-0.1,0.2-0.2,0.2c-0.1,0.1-0.2,0.3-0.3,0.4c0,0.1-0.1,0.1-0.1,0.2
			c-0.1,0.2-0.2,0.4-0.4,0.5c0,0.1-0.1,0.1-0.1,0.2c-0.1,0.1-0.2,0.2-0.2,0.4c0,0.1-0.1,0.1-0.1,0.2c-0.1,0.1-0.1,0.2-0.2,0.3
			c0,0.1-0.1,0.1-0.1,0.2c-0.1,0.1-0.1,0.2-0.2,0.3c0,0-0.1,0.1-0.1,0.1c-0.1,0.1-0.2,0.3-0.3,0.4c0,0,0,0,0,0
			c-0.1,0.1-0.2,0.2-0.2,0.3c0,0-0.1,0.1-0.1,0.1c-0.1,0.1-0.1,0.2-0.2,0.2c0,0-0.1,0.1-0.1,0.1c0,0.1-0.1,0.1-0.1,0.2
			c0,0-0.1,0.1-0.1,0.1c-0.1,0.1-0.1,0.1-0.1,0.2c0,0,0,0,0,0.1c-0.1,0.1-0.1,0.1-0.2,0.2c0,0,0,0,0,0c0,0-0.1,0.1-0.1,0.1
			c0,0,0,0,0,0c0,0,0,0.1-0.1,0.1c0,0,0,0,0,0c0,0,0,0,0,0c0,0,0,0,0,0c0,0,0,0,0,0c-17.6-6.2-36-12.1-55.2-17.6
			c3-0.8,5.7-1.9,7.9-3.3c-0.3,0.2-8.7-13.4-12.9-20.4c2.3-0.6,4.4-1.4,6.1-2.5c-0.3,0.2-10.1-15.9-10.9-17.4L206.4,81l-0.6-1
			c-2.4,4.1-4.7,8.3-7.2,12.4c-0.9,1.5-11.3,17.1-11.6,16.9c0.8,0.6,1.9,1.2,3,1.7c0.9,0.4,1.9,0.8,2.9,1.1
			c-2.5,3.7-6.2,9.3-9.2,13.6c-1.2-0.3-2.4-0.6-3.6-0.9c0.6-0.3,1.1-0.6,1.6-0.9c-0.2,0.2-7.6-11.5-11.4-17.6c2-0.5,3.8-1.2,5.2-2.2
			c-0.2,0.1-8.9-13.7-9.6-14.9l-5.5-10l-0.5-0.9c-2,3.6-4,7.3-6.1,10.8c-0.8,1.3-9.7,14.9-9.9,14.8c0.7,0.6,1.6,1,2.6,1.5
			c0.8,0.3,1.6,0.6,2.5,0.9c-1.8,2.7-4.3,6.6-6.6,10c-16.8-3.5-34-6.7-51.7-9.5c-0.2-0.4-0.4-0.7-0.7-1.1c1.4-0.3,2.7-0.6,4-1
			c0.6-0.2,1.1-0.3,1.6-0.5c2.1-0.8,4.1-1.7,5.7-2.8l0,0l0,0c0,0,0,0,0,0c0,0,0,0,0,0c0,0,0,0,0,0c0,0,0,0,0,0c0,0,0,0-0.1-0.1
			c0,0,0,0,0,0c0,0-0.1-0.1-0.1-0.2c0,0,0,0,0,0c0-0.1-0.1-0.1-0.1-0.2c0,0,0,0,0-0.1c0-0.1-0.1-0.1-0.1-0.2c0,0,0-0.1-0.1-0.1
			c0-0.1-0.1-0.1-0.1-0.2c0,0,0,0-0.1-0.1c-0.1-0.2-0.3-0.4-0.5-0.7c0,0-0.1-0.1-0.1-0.1c-0.1-0.1-0.1-0.2-0.2-0.3
			c0,0-0.1-0.1-0.1-0.1c-0.1-0.1-0.1-0.2-0.2-0.3c0,0,0-0.1-0.1-0.1c-0.1-0.1-0.2-0.3-0.3-0.4c0,0,0,0,0-0.1
			c-0.1-0.1-0.2-0.3-0.3-0.4c0,0-0.1-0.1-0.1-0.1c-0.1-0.1-0.2-0.3-0.3-0.4c0,0-0.1-0.1-0.1-0.1c-0.1-0.1-0.2-0.3-0.3-0.4
			c0,0,0-0.1-0.1-0.1c-0.2-0.4-0.5-0.7-0.7-1.1c0,0-0.1-0.1-0.1-0.1c-0.1-0.2-0.2-0.3-0.3-0.5c0,0,0-0.1-0.1-0.1
			c-0.1-0.2-0.2-0.4-0.4-0.6c0,0,0,0,0-0.1c-0.3-0.4-0.6-0.9-0.9-1.3c0,0,0,0,0,0c-0.1-0.2-0.3-0.4-0.4-0.6c0,0,0-0.1-0.1-0.1
			c-1.5-2.3-3.1-4.8-4.5-7.1c-0.4-0.7-0.8-1.3-1.3-2c2.6-0.7,4.9-1.6,6.8-2.9C96,80,88.8,68.6,85.1,62.8c1.9-0.5,3.7-1.2,5.1-2.1
			c-0.2,0.1-8.7-13.3-9.4-14.6l-5.4-9.7l-0.5-0.9c-2,3.5-3.9,7.1-6,10.5c-0.8,1.2-9.4,14.6-9.6,14.4c0.7,0.5,1.6,1,2.6,1.4
			c0.8,0.3,1.6,0.6,2.5,0.9c-0.9,1.5-2.1,3.2-3.3,5.1c-0.1-0.1-0.2-0.2-0.2-0.4c0,0,0,0,0,0c-1.8-2.8-3.7-5.8-5.4-8.6
			c-0.5-0.8-1-1.6-1.5-2.4c3.1-0.8,5.9-2,8.1-3.5c-0.3,0.2-8.9-13.4-13.3-20.4c2.3-0.6,4.4-1.4,6.1-2.6
			c-0.3,0.2-10.3-15.9-11.2-17.4L37.1,1l-0.6-1c-2.3,4.2-4.6,8.5-7.1,12.6C28.5,14,18.2,29.9,17.9,29.8c0.9,0.6,1.9,1.2,3,1.7
			c0.9,0.4,1.9,0.7,2.9,1c-4.5,7-13.3,20.3-13.5,20.1c2,1.5,4.8,2.8,7.9,3.7c-2.4,3.6-5.1,7.9-7.6,11.6c0,0.1-0.1,0.1-0.1,0.2
			c-0.1,0.2-0.2,0.3-0.3,0.5c0,0.1-0.1,0.1-0.1,0.2c-0.1,0.2-0.2,0.3-0.3,0.5c-0.1,0.1-0.1,0.2-0.2,0.2c-0.3,0.5-0.6,1-1,1.4
			c-0.1,0.1-0.1,0.2-0.2,0.3c-0.1,0.1-0.2,0.2-0.2,0.3c-0.1,0.1-0.1,0.2-0.2,0.3C8,71.9,7.9,72,7.8,72.1c-0.1,0.1-0.2,0.3-0.3,0.4
			c-0.1,0.1-0.1,0.2-0.2,0.2c-0.1,0.1-0.2,0.3-0.3,0.4c0,0.1-0.1,0.1-0.1,0.2c-0.1,0.2-0.2,0.3-0.4,0.5c0,0.1-0.1,0.1-0.1,0.2
			c-0.1,0.1-0.2,0.2-0.2,0.4c0,0.1-0.1,0.1-0.1,0.2c-0.1,0.1-0.2,0.2-0.2,0.3c0,0.1-0.1,0.1-0.1,0.2c-0.1,0.1-0.1,0.2-0.2,0.3
			c0,0.1-0.1,0.1-0.1,0.2c-0.1,0.1-0.2,0.3-0.3,0.4c0,0,0,0.1-0.1,0.1C5,76.2,5,76.3,4.9,76.4c0,0-0.1,0.1-0.1,0.1
			c-0.1,0.1-0.1,0.2-0.2,0.2c0,0-0.1,0.1-0.1,0.1c-0.1,0.1-0.1,0.1-0.1,0.2c0,0-0.1,0.1-0.1,0.1c-0.1,0.1-0.1,0.1-0.2,0.2
			c0,0,0,0,0,0.1C4.1,77.5,4,77.6,4,77.7c0,0,0,0,0,0.1c0,0-0.1,0.1-0.1,0.1c0,0,0,0,0,0.1c0,0,0,0.1-0.1,0.1c0,0,0,0,0,0
			c0,0,0,0-0.1,0c0,0,0,0,0,0c0,0,0,0,0,0c0,0,0,0,0,0c0,0,0,0,0,0c0,0,0,0,0,0c0,0,0,0,0,0c3.3,2.5,8.1,4.3,13.3,5.5
			c-1.6,2.5-3.4,5.2-5.2,8c-0.6,1-1.3,2-1.9,2.9c-0.4,0.6-0.8,1.2-1.2,1.8c0,0-0.1,0.1-0.1,0.1c0,0.1-0.1,0.1-0.1,0.2
			C5.6,96.4,2.8,96.2,0,96v428.7l550.5,1.2L548.8,300C548.8,300,475,234.8,339.1,177.5z M59.7,82.6c-0.9,1.4-1.9,2.9-2.9,4.4
			c-0.1-0.2-0.3-0.4-0.4-0.6c-0.6-0.9-1.1-1.8-1.7-2.6c0.9-0.2,1.8-0.4,2.7-0.6c0.7-0.2,1.3-0.4,2-0.5
			C59.5,82.6,59.6,82.6,59.7,82.6z"/>
	</g>
</g>
</svg>
