<?xml version="1.0" encoding="utf-8"?>
<!-- Generator: Adobe Illustrator 27.0.0, SVG Export Plug-In . SVG Version: 6.00 Build 0)  -->
<svg version="1.1" id="圖層_1" xmlns="http://www.w3.org/2000/svg" xmlns:xlink="http://www.w3.org/1999/xlink" x="0px" y="0px"
	 viewBox="0 0 580 525" style="enable-background:new 0 0 580 525;" xml:space="preserve">
<style type="text/css">
	.st0{fill:#A1CA1E;}
	.st1{fill:#7EA22B;}
	.st2{fill:#9D5C3A;}
	.st3{fill:#7D932D;}
	.st4{fill:#5C662D;}
	.st5{fill:#5F6C2E;}
	.st6{fill:#93B625;}
	.st7{fill:#9DC531;}
	.st8{fill:#A8CD3B;}
	.st9{fill:#06914F;}
	.st10{fill:#94C52C;}
	.st11{fill:#A0B7CA;}
	.st12{fill:#99B1BF;}
	.st13{fill:#8CA3B0;}
	.st14{fill:#AEC3D8;}
	.st15{fill:#87A0AD;}
	.st16{fill:#EEEEED;}
	.st17{fill:#839BA8;}
	.st18{fill:#BBD5EB;}
	.st19{fill:#F19B99;}
	.st20{opacity:0.24;}
	.st21{fill:#FFFFFF;}
	.st22{fill-rule:evenodd;clip-rule:evenodd;fill:#FFFFFF;}
	.st23{fill-rule:evenodd;clip-rule:evenodd;fill:#3F3226;}
	.st24{fill-rule:evenodd;clip-rule:evenodd;fill:#E56761;}
	.st25{fill-rule:evenodd;clip-rule:evenodd;fill:#DA7373;}
	.st26{fill-rule:evenodd;clip-rule:evenodd;fill:#F19B99;}
	.st27{opacity:0.44;}
	.st28{fill:#FBE5B8;}
	.st29{fill:#BBD650;}
	.st30{opacity:0.75;}
	.st31{fill:#ED6F1F;}
	.st32{fill:#E16210;}
	.st33{fill:#F7AF25;}
	.st34{fill:#130307;}
	.st35{fill:#EF8686;}
	.st36{fill-rule:evenodd;clip-rule:evenodd;fill:#AEC3D8;}
</style>
<g>
	<path class="st0" d="M580,86.7C141.7,114.4,77.8,523.6,77.8,523.6l502.1,1.7V86.7z"/>
</g>
<g>
	<path class="st1" d="M427.2,442c0,0,1.1-13.1,4.3-12c3.3,1.1,3.5,6,3.5,6s1.2-12.7,4.9-11.6c3.7,1,3.9,11.4,3.9,11.4
		s2.6-9.1,4.7-6.6c2.1,2.4,2.5,7.8,2.5,7.8s4.3-6.5,5.6-3.4c1.3,3.1,0.4,9.3,0.4,9.3L427.2,442z"/>
</g>
<g>
	<path class="st1" d="M265.6,476.6c0,0,1.1-13.1,4.3-12c3.3,1.1,3.5,6,3.5,6s1.2-12.7,4.9-11.6c3.7,1,3.9,11.4,3.9,11.4
		s2.6-9.1,4.7-6.6c2.1,2.4,2.5,7.8,2.5,7.8s4.3-6.5,5.6-3.4c1.3,3.1,0.4,9.3,0.4,9.3L265.6,476.6z"/>
</g>
<g>
	<path class="st1" d="M469.3,425.6c0,0,1.1-13.1,4.3-12c3.3,1.1,3.5,6,3.5,6s1.2-12.7,4.9-11.6c3.7,1,3.9,11.4,3.9,11.4
		s2.6-9.1,4.7-6.6c2.1,2.4,2.5,7.8,2.5,7.8s4.3-6.5,5.6-3.4c1.3,3.1,0.4,9.3,0.4,9.3L469.3,425.6z"/>
</g>
<g>
	<path class="st1" d="M158.4,382.8c0,0,1.1-13.1,4.3-12c3.3,1.1,3.5,6,3.5,6s1.2-12.7,4.9-11.6c3.7,1,3.9,11.4,3.9,11.4
		s2.6-9.1,4.7-6.6c2.1,2.4,2.5,7.8,2.5,7.8s4.3-6.5,5.6-3.4c1.3,3.1,0.4,9.3,0.4,9.3L158.4,382.8z"/>
</g>
<g>
	<path class="st1" d="M251.7,275c0,0,1.1-13.1,4.3-12c3.3,1.1,3.5,6,3.5,6s1.2-12.7,4.9-11.6c3.7,1,3.9,11.4,3.9,11.4
		s2.6-9.1,4.7-6.6c2.1,2.4,2.5,7.8,2.5,7.8s4.3-6.5,5.6-3.4c1.3,3.1,0.4,9.3,0.4,9.3L251.7,275z"/>
</g>
<g>
	<path class="st1" d="M513.6,367.5c0,0,0.8-16.6,5-15.3c4.2,1.3,4.7,7.5,4.7,7.5s1-16.1,5.7-14.9c4.8,1.1,5.4,14.2,5.4,14.2
		s2.9-11.6,5.7-8.6c2.8,3,3.5,9.7,3.5,9.7s5.1-8.4,6.9-4.5c1.8,3.9,0.9,11.7,0.9,11.7L513.6,367.5z"/>
</g>
<g>
	<path class="st1" d="M219.9,462c0,0,0.8-16.6,5-15.3c4.2,1.3,4.7,7.5,4.7,7.5s1-16.1,5.7-14.9c4.8,1.1,5.4,14.2,5.4,14.2
		s2.9-11.6,5.7-8.6c2.8,3,3.5,9.7,3.5,9.7s5.1-8.4,6.9-4.5c1.8,3.9,0.9,11.7,0.9,11.7L219.9,462z"/>
</g>
<g>
	<path class="st1" d="M531.9,195.3c0,0,0.8-16.6,5-15.3c4.2,1.3,4.7,7.5,4.7,7.5s1-16.1,5.7-14.9c4.8,1.1,5.4,14.2,5.4,14.2
		s2.9-11.6,5.7-8.6c2.8,3,3.5,9.7,3.5,9.7s5.1-8.4,6.9-4.5c1.8,3.9,0.9,11.7,0.9,11.7L531.9,195.3z"/>
</g>
<g>
	<path class="st1" d="M482.5,267.3c0,0,0.8-16,4.8-14.8c4,1.3,4.5,7.2,4.5,7.2s0.9-15.5,5.5-14.4c4.6,1.1,5.2,13.7,5.2,13.7
		s2.8-11.2,5.5-8.3c2.7,2.9,3.4,9.4,3.4,9.4s4.9-8.1,6.6-4.4c1.7,3.8,0.9,11.3,0.9,11.3L482.5,267.3z"/>
</g>
<g>
	<g>
		<g>
			<path class="st2" d="M382.2,159.8L382.2,159.8c-0.8,0-1.5-0.7-1.5-1.5l-0.2-29.2c0-0.8,0.7-1.5,1.5-1.5l0,0
				c0.8,0,1.5,0.7,1.5,1.5l0.2,29.2C383.7,159.1,383,159.8,382.2,159.8z"/>
		</g>
		<g>
			<path class="st3" d="M389.9,121.5c-2.9-4.7-5.5-9.5-8.1-14.3l-8,14.5c-1,1.7-12.5,20-12.8,19.8c5.1,3.5,14,4.4,21,4.6
				c6.8,0.1,16.3-1.4,21-4.9C402.7,141.3,390.9,123.2,389.9,121.5z"/>
		</g>
		<g>
			<path class="st1" d="M403,141.1c-0.1,0.1-2.6-3.6-5.4-7.8c0.5,3.2,1.2,6.4,2.2,9.6C401.1,142.4,402.1,141.8,403,141.1z"/>
		</g>
		<g>
			<path class="st3" d="M397.6,133.4c-0.4-0.6-0.8-1.2-1.2-1.8c-9.1,0.9-18.3,0.2-26.9-3.1c-3.7,5.8-8.3,13.1-8.5,13
				c5.1,3.5,14,4.4,21,4.6c5.5,0.1,12.7-0.9,17.8-3.1C398.8,139.8,398.1,136.6,397.6,133.4z"/>
		</g>
		<g>
			<path class="st4" d="M396.5,131.6c-3-4.6-6.1-9.3-6.5-10.1c-2.9-4.7-5.5-9.5-8.1-14.3l-8,14.5c-0.4,0.6-2.1,3.5-4.3,6.8
				C378.2,131.8,387.3,132.5,396.5,131.6z"/>
		</g>
		<g>
			<path class="st1" d="M389.2,105.2c-2.7-4.4-5.1-8.9-7.5-13.3l-7.4,13.4c-0.9,1.6-11.6,18.6-11.9,18.4c4.7,3.2,13,4.1,19.5,4.2
				c6.3,0.1,15.1-1.3,19.5-4.6C401.1,123.6,390.2,106.8,389.2,105.2z"/>
		</g>
		<g>
			<path class="st5" d="M389.2,105.2c-2.7-4.4-5.1-8.9-7.5-13.3l-7.4,13.4c-0.3,0.6-2,3.3-4.1,6.5c7.3,2.3,14.8,2.2,22.1,0.6
				c-0.6-1.5-1-3.1-1.4-4.7C390,106.5,389.4,105.6,389.2,105.2z"/>
		</g>
		<g>
			<path class="st6" d="M390.8,107.8c0.4,1.6,0.8,3.2,1.4,4.7c0.5-0.1,1-0.2,1.4-0.3C392.6,110.5,391.6,109,390.8,107.8z"/>
		</g>
		<g>
			<path class="st7" d="M401.3,123.5C401.4,123.5,401.4,123.5,401.3,123.5c-0.1,0.1-4.3-6.1-7.7-11.3c-0.5,0.1-1,0.2-1.4,0.3
				C393.9,116.9,396.7,120.7,401.3,123.5z"/>
		</g>
		<g>
			<path class="st1" d="M392.2,112.5c-7.3,1.6-14.8,1.7-22.1-0.6c-3.4,5.4-7.6,12-7.8,11.9c4.7,3.2,13,4.1,19.5,4.2
				c6.3,0.1,15.1-1.3,19.4-4.5C396.7,120.7,393.9,116.9,392.2,112.5z"/>
		</g>
		<g>
			<path class="st8" d="M390.9,95.4c0.7-0.3,1.3-0.6,1.8-1c-0.2,0.1-6.4-9.5-6.9-10.4c-1.5-2.5-2.9-5-4.3-7.6l-0.3,0.6
				C382,84.1,385.7,90.5,390.9,95.4z"/>
		</g>
		<g>
			<path class="st0" d="M389.1,96c0.6-0.2,1.2-0.4,1.8-0.6c-5.2-4.9-8.9-11.2-9.7-18.3l-3.9,7c-0.5,0.9-6.6,10.6-6.7,10.5
				c1,0.7,2.3,1.2,3.7,1.5c-2.6,4.2-7.8,12.4-8,12.3c3.8,2.6,10.3,3.3,15.6,3.4c5,0.1,12-1,15.5-3.6
				C397.1,108.2,391.8,100.2,389.1,96z"/>
		</g>
	</g>
</g>
<g>
	<g>
		<g>
			<path class="st2" d="M539.7,132.4L539.7,132.4c-1.2,0-2.2-0.9-2.2-2.1L537.2,89c0-1.2,0.9-2.2,2.1-2.2l0,0c1.2,0,2.2,0.9,2.2,2.1
				l0.3,41.3C541.8,131.4,540.8,132.4,539.7,132.4z"/>
		</g>
		<g>
			<path class="st3" d="M550.6,78.4c-4-6.6-7.7-13.5-11.5-20.2l-11.3,20.4c-1.4,2.4-17.7,28.3-18.1,28c7.2,4.9,19.7,6.3,29.7,6.5
				c9.6,0.2,22.9-1.9,29.6-6.9C568.7,106.4,552.1,80.8,550.6,78.4z"/>
		</g>
		<g>
			<path class="st1" d="M569.1,106.1c-0.2,0.1-3.7-5.1-7.6-11c0.6,4.6,1.7,9.1,3.2,13.5C566.3,107.9,567.8,107.1,569.1,106.1z"/>
		</g>
		<g>
			<path class="st3" d="M561.5,95.1c-0.5-0.8-1.1-1.6-1.6-2.5c-12.9,1.3-25.8,0.3-38-4.4c-5.2,8.2-11.8,18.5-12,18.4
				c7.2,4.9,19.7,6.3,29.7,6.5c7.8,0.1,18-1.2,25.1-4.4C563.2,104.2,562.1,99.7,561.5,95.1z"/>
		</g>
		<g>
			<path class="st4" d="M559.8,92.6c-4.3-6.5-8.5-13.1-9.2-14.2c-4-6.6-7.7-13.5-11.5-20.2l-11.3,20.4c-0.5,0.9-3,4.9-6,9.6
				C534,92.9,547,93.9,559.8,92.6z"/>
		</g>
		<g>
			<path class="st1" d="M549.6,55.4c-3.7-6.1-7.1-12.5-10.6-18.8l-10.5,19c-1.3,2.2-16.4,26.2-16.8,26c6.6,4.5,18.3,5.8,27.6,6
				c8.9,0.1,21.3-1.8,27.5-6.4C566.4,81.4,551,57.6,549.6,55.4z"/>
		</g>
		<g>
			<path class="st5" d="M549.6,55.4c-3.7-6.1-7.1-12.5-10.6-18.8l-10.5,19c-0.5,0.8-2.9,4.7-5.7,9.2c10.3,3.2,20.9,3.2,31.2,0.9
				c-0.8-2.1-1.5-4.3-2-6.6C550.7,57.2,549.9,55.9,549.6,55.4z"/>
		</g>
		<g>
			<path class="st6" d="M551.9,59c0.5,2.3,1.2,4.5,2,6.6c0.7-0.1,1.3-0.3,2-0.5C554.4,62.9,553,60.8,551.9,59z"/>
		</g>
		<g>
			<path class="st7" d="M566.8,81.2C566.8,81.2,566.8,81.2,566.8,81.2c-0.2,0.1-6-8.6-10.8-16c-0.7,0.2-1.3,0.3-2,0.5
				C556.3,71.8,560.2,77.2,566.8,81.2z"/>
		</g>
		<g>
			<path class="st1" d="M553.9,65.7c-10.3,2.3-20.8,2.4-31.2-0.9c-4.8,7.6-10.8,17-11,16.8c6.6,4.5,18.3,5.8,27.6,6
				c8.9,0.1,21.3-1.8,27.4-6.4C560.2,77.2,556.3,71.8,553.9,65.7z"/>
		</g>
		<g>
			<path class="st8" d="M552,41.5c1-0.4,1.9-0.9,2.6-1.4c-0.2,0.1-9-13.4-9.8-14.6c-2.1-3.5-4.1-7.1-6-10.7l-0.5,0.9
				C539.5,25.6,544.7,34.6,552,41.5z"/>
		</g>
		<g>
			<path class="st0" d="M549.5,42.4c0.9-0.3,1.7-0.5,2.5-0.9c-7.3-6.9-12.5-15.9-13.7-25.9l-5.5,9.9c-0.7,1.3-9.3,14.9-9.5,14.8
				c1.4,1,3.2,1.7,5.2,2.2c-3.7,6-11.1,17.5-11.3,17.4c5.3,3.6,14.6,4.6,22,4.8c7.1,0.1,17-1.4,21.9-5.1
				C560.8,59.6,553.3,48.3,549.5,42.4z"/>
		</g>
	</g>
</g>
<g>
	<g>
		<g>
			<path class="st2" d="M500.4,144.7L500.4,144.7c-1.1,0-2-0.9-2-2l-0.3-38.2c0-1.1,0.9-2,2-2l0,0c1.1,0,2,0.9,2,2l0.3,38.2
				C502.3,143.8,501.4,144.7,500.4,144.7z"/>
		</g>
		<g>
			<path class="st3" d="M510.5,94.7c-3.7-6.1-7.1-12.5-10.6-18.7l-10.4,18.9c-1.3,2.2-16.3,26.2-16.7,25.9c6.6,4.5,18.3,5.8,27.5,6
				c8.9,0.1,21.2-1.8,27.4-6.4C527.2,120.6,511.8,96.9,510.5,94.7z"/>
		</g>
		<g>
			<path class="st1" d="M527.6,120.4c-0.2,0.1-3.4-4.7-7.1-10.2c0.6,4.2,1.6,8.4,2.9,12.5C525,122,526.4,121.3,527.6,120.4z"/>
		</g>
		<g>
			<path class="st3" d="M520.6,110.2c-0.5-0.8-1-1.5-1.5-2.3c-11.9,1.2-23.9,0.3-35.2-4.1c-4.8,7.6-10.9,17.1-11.2,17
				c6.6,4.5,18.3,5.8,27.5,6c7.2,0.1,16.7-1.1,23.3-4C522.1,118.6,521.1,114.4,520.6,110.2z"/>
		</g>
		<g>
			<path class="st4" d="M519,107.9c-3.9-6-7.9-12.1-8.5-13.2c-3.7-6.1-7.1-12.5-10.6-18.7l-10.4,18.9c-0.5,0.8-2.8,4.5-5.6,8.9
				C495.1,108.2,507.1,109.1,519,107.9z"/>
		</g>
		<g>
			<path class="st1" d="M509.6,73.5c-3.5-5.7-6.6-11.6-9.9-17.4L490,73.6c-1.2,2.1-15.2,24.3-15.5,24.1c6.2,4.2,17,5.4,25.5,5.5
				c8.3,0.1,19.7-1.6,25.4-5.9C525.1,97.5,510.8,75.5,509.6,73.5z"/>
		</g>
		<g>
			<path class="st5" d="M509.6,73.5c-3.5-5.7-6.6-11.6-9.9-17.4L490,73.6c-0.5,0.8-2.7,4.3-5.3,8.5c9.6,3,19.3,2.9,28.8,0.8
				c-0.8-2-1.4-4-1.8-6.1C510.6,75.1,509.8,73.9,509.6,73.5z"/>
		</g>
		<g>
			<path class="st6" d="M511.7,76.8c0.5,2.1,1.1,4.2,1.8,6.1c0.6-0.1,1.2-0.3,1.9-0.4C514,80.4,512.7,78.4,511.7,76.8z"/>
		</g>
		<g>
			<path class="st7" d="M525.4,97.3C525.4,97.3,525.5,97.3,525.4,97.3c-0.2,0.1-5.6-8-10-14.8c-0.6,0.2-1.2,0.3-1.9,0.4
				C515.8,88.7,519.4,93.6,525.4,97.3z"/>
		</g>
		<g>
			<path class="st1" d="M513.5,82.9c-9.5,2.1-19.3,2.2-28.8-0.8c-4.4,7-10,15.7-10.2,15.6c6.2,4.2,17,5.4,25.5,5.5
				c8.2,0.1,19.7-1.6,25.4-5.9C519.4,93.6,515.8,88.7,513.5,82.9z"/>
		</g>
		<g>
			<path class="st8" d="M511.8,60.6c0.9-0.4,1.7-0.8,2.4-1.3c-0.2,0.1-8.3-12.4-9-13.5c-2-3.2-3.8-6.6-5.6-9.9l-0.5,0.8
				C500.2,45.9,505,54.2,511.8,60.6z"/>
		</g>
		<g>
			<path class="st0" d="M509.5,61.4c0.8-0.2,1.6-0.5,2.3-0.8c-6.8-6.4-11.6-14.7-12.7-23.9l-5.1,9.2c-0.7,1.2-8.6,13.8-8.8,13.7
				c1.3,0.9,3,1.5,4.8,2c-3.5,5.5-10.2,16.2-10.4,16.1c4.9,3.3,13.5,4.3,20.3,4.4c6.6,0.1,15.7-1.3,20.3-4.7
				C519.9,77.4,513,66.9,509.5,61.4z"/>
		</g>
	</g>
</g>
<g>
	<g>
		<path class="st9" d="M580,171.3c-8.2,4.1-15.2,12.9-18.2,19.4c-0.5-13.5-3.2-27.3-8-40.6c-2.7-7.6-7.7-20.5-17-24.4
			c-14.1-5.9-20.1,25.3-22.6,32.2c-6.3-11.4-16.6-21.4-28.9-28.1c-5.1-2.8-11,0-10.8,5c0.8,14.4,8.1,29.8,19.7,40.6
			c-6-5.6-13.7-12.3-22.6-11.2c-11.3,1.4-9.4,14.5-6.6,22.3c2.1,5.8,6.5,11.1,8.4,16.8c-3.4-2-7.5-2.9-11-1.5c-3.6,1.4-6,4.5-7,8
			c-1,3.4-0.9,7.2-0.7,10.9c-6.4-18.8-20.8-36-40.4-46.6c-3.2-1.7-6.9-2.4-10.1-1.5c-5.3,1.6-5.1,6-4.4,9.9
			c2.4,14.8,9.5,29.6,20.3,42c-6.6-1.4-13.6,1.2-16.6,6.1c-3,4.9-1.9,11.9,2.7,16.7c-10.8,5-13.2,19.7-4.8,29.1
			c14.3-5.1,31.6,17.8,47.1,23.5h50.9H580V171.3z"/>
	</g>
</g>
<g>
	<g>
		<path class="st1" d="M418.6,299.2H313.9c-2.7-7.1,0.5-17.2,3.3-25.2c-5.1-2.3-10.2-4.3-14.2-9.1c-3.9-4.7-6.1-11.9-4.4-18.2
			c1.6-5.8,6.9-10,11.8-8.7c-4.5-1.7-9-3.6-12.7-7.1c-4-3.8-7-9.8-6.5-15.9c0.4-4.4,3.1-8.5,6.4-9.9c-6.8-3.5-12-9.8-14.2-17.2
			c-0.9-3.1-1.3-6.6,0.1-9.6c1.4-3,5-5,8-3.9c-0.8-7.8-0.6-15.7,0.5-23.5c1.1-7.5,3.9-16.1,11.1-18.6c6.5-2.2,13.8,1.8,17.5,7.6
			c2.9,4.6,4.1,9.9,4.8,15.3c0.3-2.4,1-4.7,2.8-6.2c5.3-4.4,10.2,0.4,12.9,5.1c3.5,6.3,3.8,13.2,3.6,20.2c-0.1,4.1,1.2,2,3.8,1.1
			c4.1-1.3,9.1,1.4,11,5.1c2.9,5.8,2.2,12.9,1,19.6c2.2-6.3,9.8-9.3,15-5.9c6,4,8.1,13.9,6,21.8c2.6-8.1,13-8.2,18.2-2.1
			s6.4,15.3,7.4,23.9c3.2-9.3,13.3-7.8,19.3-2.2c4,3.7,5.1,8,5.9,13.3C435.4,267.7,434.5,288.3,418.6,299.2z"/>
	</g>
	<g>
		<path class="st10" d="M301,204.5L301,204.5C301,204.5,301,204.5,301,204.5C301,204.5,301,204.5,301,204.5z"/>
	</g>
	<g>
		<path class="st0" d="M382.3,299.2h-3.5c-0.5-0.5-0.9-0.9-1.4-1.3c-8.4,1.5-18-0.3-26.3-2.1c-9.2-2-18.2-5.3-26.7-10
			c-0.1-0.1,0-0.3,0.1-0.2c8.3,3.8,16.8,6.9,25.6,8.7c4.8,1,9.6,1.7,14.4,1.9c3.7,0.2,7.4-0.2,11.1-0.2c-9.7-10-18.5-21.2-25.7-33.8
			c0,0-0.1,0-0.1,0.1c-12.1,1.8-25.5-1.4-36.3-8.1c-0.3-0.2-0.1-0.7,0.2-0.6c11.7,5.2,22.9,7.2,35.3,6.8c-0.6-1-1.1-2-1.6-3.1
			c-5.2-10.1-10.1-20.5-14.7-31c-0.8,0.1-7.7-0.7-12.8-0.8c-1,0.9-2.3,1.3-3.5,1.8c-1.8,0.7-3.7,1.3-5.5,1.7
			c-0.3,0.1-0.5-0.5-0.2-0.6c1.9-0.7,3.7-1.5,5.5-2.6c0.4-0.3,0.9-0.6,1.3-0.9c-0.8-0.3-1.6-0.5-2.3-0.8c-3.7-1.5-8.6-3.9-11.7-7.3
			c-0.4-0.5,0-1.4,0.5-1.1c4.1,3.1,8.3,5.5,12.8,7.1c1.2,0.4,2.4,0.7,3.6,0.9c0,0,0,0,0.1,0c3.9,0.6,7.7,0.3,11.6,0.9
			c-1.8-4.2-3.6-8.4-5.3-12.6c-2-4.9-4-9.9-5.7-15c-7.3-0.4-14.4-3.2-20.7-6.7c-0.2-0.1,0-0.3,0.1-0.2c6.5,3.4,13,4.8,20.2,6
			c-3.3-9.8-5.9-19.9-7.2-30.4c0-0.3,0.3-0.4,0.4-0.1c2,11.4,5.2,22.3,9,32.9c5.9-7.8,10.2-17.2,10.1-28c0,0,0,0,0,0
			c0.4,10.8-2.5,22-9.8,28.9c1.6,4.5,3.4,8.9,5.3,13.3c2,4.8,4.1,9.5,6.1,14.3c1.4-2.3,2.8-4.6,4.1-7c0.7-1.3,1.3-2.6,1.9-3.8
			c0.4-0.9,1.1-1.8,1.5-2.7c0.4-0.9,0.6-1.8,1-2.7c0.9-2.1,1.7-4.2,2.5-6.3c1.6-4.2,3-8.6,4.2-13c0,0,0.1,0,0.1,0
			c-1.2,7.2-3.3,14.1-6.1,20.5c3.3-1.5,6.5-3.1,9.7-5c0.1-0.1,0.2,0.1,0.1,0.2c-3.1,3-6.7,5.3-10.6,6.5c-2.3,5-5,9.7-8.1,14.2
			c0,0,0,0,0,0c4.1,9.3,8.5,18.5,13.2,27.3c0.8,1.5,1.6,2.9,2.5,4.4c2.3-3.8,5-7.3,7.2-11.2c2.1-3.8,4-7.8,5.7-12
			c3.7-9.2,6-18.8,7.5-28.8c0-0.3,0.5-0.2,0.5,0.1c-0.7,9.8-2.9,19.3-6.3,28.2c-3.3,8.5-7.9,18.5-14.1,24.6
			c6.7,11.3,14.4,21.4,23,30.6c4.5-9,9.3-17.4,12.2-27.5c3.1-11.1,3.6-22.4,2.3-33.9c0-0.3,0.4-0.4,0.5-0.1
			c5.2,20.5-1.9,47.5-13,63.6C378.1,295,380.2,297.1,382.3,299.2z"/>
	</g>
</g>
<g>
	<path class="st11" d="M459.5,294.4c0,0-13.1-8.4-20.8,3.9c-5.5,8.8,1.1,14.5,1.1,14.5l-16.3,0.4c0,0-6.4-2.3-7.4,1.5
		c0,0-3.6,2.1,0.8,4.5c0,0-2.1,2.5,4.7,2.8H482c0,0,5.5-3.6,0-7.2c0,0-10.7-23.4-16.7-25L459.5,294.4z"/>
	<g>
		<g>
			<path class="st12" d="M446.1,293.4c1.6,0,3.2-0.4,4.8-0.8c0.3-0.1,0.7-0.2,1-0.4c0.7-0.5,0.9-1.4,0.6-2.1
				c-0.2-0.8-0.8-1.4-1.4-1.8c-1.3-1-3-1.4-4.6-1.2c-0.9,0.1-1.7,0.4-2.6,0.6c-1.5,0.4-3.1,0.6-4.7,0.6c-0.8,0-1.7-0.1-2.5-0.3
				c-0.6-0.2-1.2-0.5-1.7-0.3c-0.2,0.1-0.5,0.2-0.6,0.4c-0.3,0.3-0.5,0.6-0.5,1c0,0.7,0.6,1.1,1.2,1.5c1.8,1,3.7,1.6,5.7,2.1
				C442.6,292.9,444.3,293.4,446.1,293.4z"/>
		</g>
		<g>
			<path class="st12" d="M500.3,300c4.1-2.5,6.9-6.2,5.5-11.5c-1.3-4.8-7-6.8-11.4-5.6c-2.7,0.7-8.2,4.9-11.8,9.5
				c-2,2.6-3.3,5.3-3.2,7.6H500.3z"/>
		</g>
		<g>
			<path class="st12" d="M495.8,307.9c4.1-2.5,6.9-6.2,5.5-11.5c-1.3-4.8-7-6.8-11.4-5.6c-2.3,0.6-6.6,3.7-10,7.4
				c2.1,2.9,3.6,6.2,4.4,9.7H495.8z"/>
		</g>
		<g>
			<path class="st13" d="M488.8,300c-0.8-3.5-2.3-6.8-4.4-9.7c-0.6,0.7-1.2,1.4-1.8,2.1c-2,2.6-3.3,5.3-3.2,7.6H488.8z"/>
		</g>
		<g>
			<path class="st12" d="M459.5,300c-0.2-0.3-0.4-0.6-0.6-0.9c-1.6-2.3-4.2-4.2-6.7-5.4c-1.6-0.8-3.2-0.8-4.5-0.1
				c-2.3,1.2-3.2,3.8-3.4,6.3H459.5z"/>
		</g>
		<g>
			<path class="st14" d="M484.7,300c-0.3-2.5-1.1-5.2-2.4-7.6c-2.7-4.9-6.8-9-10.3-13.4c-4.1-4.9-6.3-10.8-10.2-15.7
				c-4.5-5.8-12-7-13.1,1.3c-1.3,10.2-2.2,20.4-3.4,30.7c-0.2,1.6-0.2,3.2,0.1,4.7H484.7z"/>
		</g>
		<g>
			<path class="st15" d="M448.6,264.6c1.1-8.3,8.6-7.1,13.1-1.3c2.8,3.6,4.8,7.8,7.3,11.7c-6.5,3.7-14.1,5.6-22,5.5
				c-0.1-0.1-0.2-0.1-0.2-0.1C447.4,275.1,448,269.8,448.6,264.6z"/>
		</g>
		<g>
			<path class="st16" d="M473.6,300c-0.4-1.8-1-3.5-1.6-5.1c-1.1-2.7-2.6-5.1-4.6-7.2c-4.4-4.8-12.4-9-19-6.9
				c-1.2,0.4-1.6,1.5-1.7,2.7c-0.4,3.3-0.8,6.6-1.2,9.8c-0.1,0.7-0.1,1.3-0.2,2c-0.2,1.6-0.2,3.2,0.1,4.7H473.6z"/>
		</g>
		<g>
			<path class="st12" d="M405.3,114.5c2-6.2,7.2-12.6,13.7-11.6c3.8,0.6,6.7,3.6,9.1,6.6c5.9,7.4,10.1,16.2,13.9,24.8
				c5,11.3,9,23.4,11.2,35.7c2.1,11.8,3.7,26.2,1,38c-0.1,0.4-0.2,0.7-0.4,1c-0.3,0.3-0.8,0.4-1.2,0.4c-4-0.2-6-5.6-8.3-8.2
				c-3.8-4.2-7.6-8.5-11.2-13C416.3,167.6,396.5,142.6,405.3,114.5z"/>
		</g>
		<g>
			<path class="st17" d="M455.5,188.3c0.4,6.7,0.1,13.5-1.3,19.6c-0.1,0.4-0.2,0.7-0.4,1c-0.3,0.3-0.8,0.4-1.2,0.4
				c-4-0.2-6-5.6-8.3-8.2c-3.2-3.5-6.2-7.1-9.3-10.7C441.8,188.2,448.8,187.2,455.5,188.3z"/>
		</g>
		<g>
			<path class="st12" d="M405.3,114.5c2-6.2,7.2-12.6,13.7-11.6c3.8,0.6,6.7,3.6,9.1,6.6c5.9,7.4,10.1,16.2,13.9,24.8
				c5,11.3,9,23.4,11.2,35.7c1,5.8,1.9,12.1,2.3,18.5c-6.7-1.1-13.7-0.1-20.5,2c-0.6-0.8-1.3-1.5-1.9-2.3
				C416.3,167.6,396.5,142.6,405.3,114.5z"/>
		</g>
		<g>
			<path class="st14" d="M387.6,217.3c18.8-15.1,49.5-21.9,72.6-12.3c23.3,9.6,26.9,35.3,12.8,54.3c-17.4,23.5-51.6,21.4-76.2,12.5
				C365.9,260.7,361.2,238.5,387.6,217.3z"/>
		</g>
		<g>
			<path class="st14" d="M387.6,217.3c18.8-15.1,49.5-21.9,72.6-12.3c23.3,9.6,26.9,35.3,12.8,54.3c-17.4,23.5-51.6,21.4-76.2,12.5
				C365.9,260.7,361.2,238.5,387.6,217.3z"/>
		</g>
		<g>
			<path class="st11" d="M453.6,248.2c2.4-11.8,7.1-27.1,17.7-31.8c1-0.5,2-0.9,3-1.2c10,12.2,9.3,30-1.2,44.2
				c-17.4,23.5-51.6,21.4-76.2,12.5c-0.5-0.2-1-0.4-1.4-0.5C418.4,272.7,448.3,270.4,453.6,248.2z"/>
		</g>
		<g>
			<path class="st14" d="M387.6,217.3c18.8-15.1,49.5-21.9,72.6-12.3c5.9,2.5,10.6,6,14,10.1c-1,0.4-2,0.8-3,1.2
				c-10.6,4.7-15.3,20.1-17.7,31.8c-5.3,22.2-35.1,24.5-58.3,23C365.8,260,361.7,238.1,387.6,217.3z"/>
		</g>
		<g>
			<path class="st14" d="M514.2,97c4.4-1.2,8.8,0,12.2,4.9c8.1,11.6-1.3,31.5-6.8,42.4c-12.5,25.3-29.2,48.1-44.1,72
				c-1.2,1.9-2.6,3.9-4.7,4.2c-3.7,0.5-5.7-4.6-6.1-8.6c-2.2-21.1,0.7-43.6,8.6-63.7C479.9,131.6,495.2,102.2,514.2,97z"/>
		</g>
		<g>
			<path class="st18" d="M514.8,106.7c-0.5-1-1.1-1.9-1.9-2.7c-0.9-0.9-5.8-4-7-3.2c2.7-1.7,5.4-3.1,8.3-3.8c4.4-1.2,8.8,0,12.2,4.9
				c8.1,11.6-1.3,31.5-6.8,42.4c-1,2-2,4-3.1,6c3.1-5.8,2.7-16.2,2.5-22.7c-0.2-5.9-1.1-11.8-2.9-17.4
				C515.7,109,515.4,107.8,514.8,106.7z"/>
		</g>
		<g>
			<path class="st19" d="M504.5,153.8c2.2-4.5,4.2-9.2,4.8-14.3c0.5-3.8,0.9-11.1-3.1-13.3c-8.7-4.8-15,10.9-17.5,16.2
				c-5,10.8-8.6,22.1-11.9,33.6c-3,10.6-7.8,21.8-6.8,33.1C470.1,209.3,495.6,171.7,504.5,153.8z"/>
		</g>
		<g class="st20">
			<path class="st21" d="M502.3,154.6c2.2-4.5,4.2-9.2,4.8-14.3c0.5-3.8,0.9-11.1-3.1-13.3c-1.5-0.8-3-1-4.3-0.8
				c2-1.1,4.2-1.3,6.6,0c4,2.2,3.6,9.5,3.1,13.3c-0.6,5-2.6,9.8-4.8,14.3c-8.9,18-34.4,55.6-34.4,55.3c-0.1-0.7-0.1-1.5-0.1-2.2
				C476.2,197.7,494.9,169.4,502.3,154.6z"/>
		</g>
		<g>
			<path class="st22" d="M371.7,240.3c1.7-4.1,5.1-7.5,9.7-9.1c4.4-1.6,9.3-1.5,13.9-0.6c4.3,0.8,8.4,2.4,11.1,6
				c2.4,3.3,2.9,7.5,2.3,11.5c-0.9,6-5.2,10.9-10.5,13.6c-2.1,1.1-4.4,1.8-6.7,2.2c-2,0.3-4,0.4-6,0.1c-4.6-0.7-9-3.5-11.8-7.2
				C369.9,251.7,369.5,245.5,371.7,240.3z"/>
		</g>
		<g>
			<path class="st23" d="M374.7,256.7c1.1-0.4,1.8-1.1,2.3-2.3c0.5-1.2,0.7-2.4,0.7-3.7c0-0.6-0.1-1.6,0.3-2.2c0.7-1,2-0.5,2.2,0.7
				c0.4,2,0,4.1,0.5,6.1c1.3,4.8,7.9,2.4,10.7,0.7c0.7-0.4,1,0.3,0.8,0.9c-0.4,1.2-1.8,2.2-2.9,2.8c-1.1,0.6-2.4,0.9-3.7,1
				c-1.3,0.1-2.6-0.1-3.8-0.6c-0.3-0.1-3.5-1.7-3.2-2c-0.3,0.4-0.6,0.7-1,0.9c-0.6,0.5-1.1,0.9-1.8,0.2c-0.5-0.5-1.1-1-1.6-1.5
				c-0.2-0.2-0.7-0.8-0.2-0.9C374.3,256.8,374.5,256.8,374.7,256.7z"/>
		</g>
		<g>
			<path class="st24" d="M389,240.7c0,0.7-0.6,1.4-1.1,2c-2.1,2.3-4.3,4.5-6.6,6.7c-0.6,0.5-1.2,1.1-2.1,1.2c-1.2,0.2-2.2-0.5-3-1.3
				c-3.4-3.4-7.7-10.7-0.6-12.5C379.1,235.9,389,236.4,389,240.7z"/>
		</g>
		<g>
			<path class="st25" d="M384,244.7c2.4-3.2,0-6.9-3.3-8.2c4,0.2,8.3,1.4,8.3,4.3c0,0.7-0.6,1.4-1.1,2c-2.1,2.3-4.3,4.5-6.6,6.7
				c-0.6,0.5-1.2,1.1-2.1,1.2c-1.2,0.2-2.2-0.5-3-1.3c-0.8-0.8-1.6-1.8-2.4-2.9C376.7,248.2,380.5,248.2,384,244.7z"/>
		</g>
		<g>
			<path class="st26" d="M375.5,236.8c1.2-0.3,3.1-0.5,5.1-0.3c3.3,1.4,5.7,5.1,3.3,8.2c-3.5,3.5-7.2,3.5-10.2,1.7
				C371.4,242.8,370.2,238.2,375.5,236.8z"/>
		</g>
		<g>
			<g>
				<g>
					<g>
						<path class="st10" d="M460,238.6c-1.3-0.6-2.1,0.1-2.4,1.4c-0.8,3.3,1.5,5.8,3.1,8.4c1.2,1.9,1.7,3.5,1.4,5.7
							c-0.3,2.1-1.7,3.9-2.7,5.7c-0.2,0.4-0.5,0.9-0.4,1.3c0.1,0.8,1.1,1.1,1.8,0.8c1-0.4,1.2-1.3,1.8-2.1c0.8-1.2,1.8-2.3,2.5-3.5
							c0.4-0.7,0.7-1.4,1.1-2c1.3-2.1,3.4-3.9,5.2-5.6c1.6-1.4,3.1-3.1,4.4-4.8c0.6-0.8,1-1.7,0.9-2.6c-0.1-0.9-0.9-1.6-1.7-1.6
							c1-0.7,2.1-2,1.9-3.3c-0.2-1.1-1.5-1.7-2.6-1.2c1-0.7,2-1.4,2.3-2.5c0.2-0.7,0-1.6-0.7-2c-0.4-0.2-0.8-0.1-0.3-0.6
							c0.9-0.8,1.7-1.7,2.1-2.9c0.3-0.9,0.3-2.1-0.9-2.2c-0.4,0-0.8,0.2-1.1,0.4c0.6-0.7,1.1-1.5,1.3-2.5c0.3-1.2-0.1-2.6-1.2-3.1
							c-1.2-0.6-2.6,0.1-3.7,0.9c-1.1,0.8-2.1,1.7-3,2.8c-0.2-0.5-0.9-0.7-1.5-0.5c-0.5,0.2-0.9,0.7-1.2,1.1
							c-0.7,1.2-0.8,2.6-0.4,3.9c-0.6-0.2-1.4-0.1-2,0.4c-1.5,1.2-1.4,3.6-0.6,5.2c-0.4-0.8-1.6-0.9-2.5-0.4c-1,0.6-1.6,1.7-1.7,2.7
							C459.2,236.5,459.4,238,460,238.6z M466.6,228.2C466.6,228.1,466.6,228.1,466.6,228.2L466.6,228.2
							C466.6,228.1,466.6,228.1,466.6,228.2z"/>
					</g>
					<g class="st27">
						<path class="st28" d="M464.6,251.9c0.2-0.4,0-3.6,0.1-3.7c3.4-0.6,7.6-3,9.5-6.1c0,0,0-0.1-0.1-0.1c-1.3,1.6-2.8,2.9-4.5,3.8
							c-1.6,0.9-3.3,1.3-4.9,1.8c0.1-2.2,0.4-4.4,1-6.6c1.5,0,3.3-0.6,4.8-1.2c1.5-0.7,3-1.5,4.3-2.6c0,0,0-0.1,0-0.1
							c-1.4,1-2.9,1.9-4.5,2.6c-0.7,0.3-1.5,0.5-2.2,0.7c-0.8,0.2-1.5,0.3-2.3,0.5c0.1-0.3,0.2-0.6,0.2-0.8c0.5-1.7,1.1-3.3,1.8-5
							c0.9-0.2,1.8-0.4,2.8-0.7c0.6,0.3,1.3,0.5,2.1,0.5c-0.6-0.2-1.2-0.4-1.8-0.6c1.1-0.4,2.3-1,3.3-1.7c-0.7,0.4-1.4,0.7-2.1,1
							c-0.4,0.2-0.7,0.3-1.1,0.5c-0.2,0.1-0.3,0.1-0.5,0.2c-0.2,0.1-0.3,0.1-0.5,0.1c-0.2,0.1-0.5,0.2-0.7,0.2
							c-0.5,0.1-0.9,0.2-1.4,0.3c0.3-0.8,0.7-1.7,1-2.5c0.3-0.8,0.7-1.5,1-2.3c1.8,0.1,3.5-0.9,4.8-2.3c-1.3,1.3-3,1.9-4.7,2.1
							c0.9-1.8,1.8-3.5,3-5.1c0,0,0-0.1-0.1,0c-1.2,1.4-2.1,3-2.9,4.6c-0.7-1-1.3-2-1.7-3.3c0,0-0.1,0,0,0c0.3,1.2,0.8,2.4,1.7,3.4
							c-0.4,0.8-0.8,1.7-1.2,2.5c-0.3,0.7-0.6,1.5-0.9,2.2c-0.4-0.6-0.9-1-1.3-1.6c-0.1-0.2-0.2-0.4-0.3-0.6
							c-0.3-0.7-0.5-1.6-0.7-2.5c0-0.1-0.2,0-0.2,0.1c-0.1,0.8,0.3,1.7,0.5,2.4c0.1,0.1,0.1,0.3,0.2,0.4c-0.1,0-0.2,0-0.3-0.1
							c-0.4-0.1-0.7-0.2-1-0.4c-0.1,0-0.1,0.1-0.1,0.1c0.3,0.2,0.6,0.3,0.9,0.5c0.2,0.1,0.4,0.2,0.6,0.2c0.6,0.6,1.3,1.6,1.5,1.7
							c-0.8,1.9-1.5,3.7-2.1,5.6c-0.1,0.2-0.1,0.4-0.2,0.6c-1.5-1.5-2.6-3.1-3.4-5.2c0-0.1-0.1,0-0.1,0c0.5,2.2,1.7,4.2,3.4,5.5
							c-0.7,2.4-1,4.9-1.1,7.3c-0.4-0.5-0.9-0.9-1.4-1.4c-0.6-0.6-1.1-1.3-1.5-2c-0.8-1.3-1.5-2.8-2-4.2c0.4,1.6,1.1,3.2,2,4.5
							c0.8,1.3,1.7,2.7,2.9,3.5C464.2,249.8,463.9,251.4,464.6,251.9z"/>
					</g>
				</g>
				<g>
					<g>
						<path class="st0" d="M457.8,261.4c0.3,1.7,2.3,7.8,8.9,4.7c0.7-1.4,1.9-4.1,2.4-4.8c0.5-0.3,1.3-0.9,2.4-1.5
							c1-0.6,2.2-1.3,3.4-2l-0.7-0.6c-1.2,0.7-2.2,1.4-3,2c-0.3,0.2-0.5,0.4-0.8,0.5c0.1-0.3,0.3-0.7,0.6-0.9
							c0.2-0.2,0.4-0.4,0.4-0.4c0.8-0.4,1.6-1,2.4-1.6l-1.3-1.1c-0.4,0.6-0.6,1-0.6,1l-1.2,0.9c0.4-0.6,0.8-1.4,1.3-2.2
							c0,0,0,0,0.1,0l-3.1-2.8c-0.3,0.5-0.6,0.9-0.9,1.4c0-0.2,0.1-0.3,0.1-0.5c0.1-0.4,0.2-0.9,0.3-1.4l-1-0.9c0,0,0,0.1,0,0.1
							c-0.1,0.2-0.3,0.4-0.5,0.7C463.2,256.4,458.3,260.3,457.8,261.4z M460.7,260.8c1.2-1.9,4.5-5.2,6.6-7.7
							c-0.2,0.8-0.4,1.5-0.6,2c-2.2,2.3-4.8,5-6.1,5.9c0.1-0.3,0.2-0.5,0.4-0.7C460.9,260.5,460.8,260.7,460.7,260.8z"/>
					</g>
				</g>
				<g>
					<path class="st1" d="M486.6,244.9c1-0.3,2-0.6,2.7-1.3c0.7-0.8,0.8-2.1,0-2.7c0.8-0.7,1.5-1.5,1.9-2.4c0.5-1,0.6-2.3-0.3-3
						c-0.7-0.5-1.6-0.4-2.4-0.1c-0.8,0.3-1.5,0.8-2.4,0.9c-0.1-0.9-0.7-1.7-1.6-1.9s-1.8,0.1-2.4,0.8c0.1-0.9-1-1.6-2-1.5
						c-0.9,0.1-1.7,0.8-2.4,1.4c-4,3.7-7.8,7.9-10,12.8c-0.2,0.4-0.3,0.8-0.3,1.2c0,0.4,0.3,0.8,0.5,1.2c0.5,0.8,1.1,1.7,1.6,2.5
						c0.4,0.6,0.8,1.3,1.4,1.7c1.1,0.8,2.7,0.7,4.1,0.4c2.9-0.8,5-2.9,7.6-4.2c1.2-0.6,2.5-1.2,3.6-2
						C487.3,247.9,488.6,245.5,486.6,244.9z"/>
				</g>
				<g>
					<g>
						<path class="st0" d="M465.3,242.1c-1.1-0.9-2-0.4-2.6,0.7c-1.3,2.3-0.8,5.4,0.5,7.6c1.4,2.5,1.8,5.1,0.4,7.8
							c-0.4,0.8-0.9,1.7-0.4,2.4c0.4,0.5,1.1,0.6,1.7,0.3c0.6-0.2,1-0.7,1.5-1.2c2.1-2.2,4.9-4.6,7.8-5.8c2.6-1.1,5.8-1.4,7-4.4
							c0.5-1.3-0.4-2.8-1.8-2.6c1.4-0.3,2.7-1.5,2.8-2.7c0.1-1.1-1-2-2.1-1.8c1.1-0.4,2.2-0.9,2.9-1.8c0.4-0.6,0.4-1.6-0.2-2.1
							c-0.4-0.3-0.8-0.3-0.1-0.7c1.1-0.6,2.1-1.2,2.7-2.2c0.5-0.8,0.8-1.9-0.3-2.4c-0.4-0.1-0.8-0.1-1.2,0.1c0.7-0.6,1.5-1.2,1.9-2
							c0.6-1,0.6-2.5-0.3-3.3c-1-0.9-2.5-0.6-3.7-0.1c-1.3,0.5-2.5,1.1-3.6,1.9c-0.1-0.6-0.7-0.9-1.3-0.9c-0.6,0-1.1,0.4-1.5,0.8
							c-0.9,0.9-1.4,2.3-1.4,3.6c-0.5-0.4-1.3-0.4-2-0.1c-1.8,0.8-2.3,3-1.9,4.8c-0.2-0.8-1.3-1.3-2.3-1c-1.1,0.3-2,1.2-2.4,2.2
							C465.1,239.9,464.8,241.5,465.3,242.1z M474.3,233.9C474.3,233.9,474.3,233.9,474.3,233.9L474.3,233.9
							C474.3,233.9,474.3,233.9,474.3,233.9z"/>
					</g>
					<g class="st27">
						<path class="st28" d="M466.4,254.5c0.6-0.3,0.6-1.4,0.8-2c3.3,0.3,8-0.9,10.6-3.3c0,0,0-0.1-0.1-0.1c-1.6,1.1-3.4,2-5.3,2.5
							c-1.8,0.4-3.4,0.4-5.1,0.5c0.7-2.1,1.5-4.1,2.7-6c1.4,0.4,3.3,0.3,4.9,0.1c1.6-0.2,3.2-0.7,4.8-1.4c0.1,0,0-0.1,0-0.1
							c-1.6,0.6-3.3,1.1-5,1.3c-0.8,0.1-1.5,0.1-2.3,0.1c-0.8,0-1.5-0.1-2.3-0.1c0.1-0.2,0.3-0.5,0.5-0.7c0.9-1.4,1.9-2.9,3-4.3
							c0.9,0.1,1.9,0.1,2.8,0c0.5,0.5,1.1,0.8,1.9,1c-0.5-0.3-1.1-0.7-1.6-1c1.2-0.1,2.4-0.4,3.6-0.8c-0.8,0.2-1.5,0.3-2.3,0.4
							c-0.4,0.1-0.8,0.1-1.2,0.1c-0.2,0-0.3,0.1-0.5,0.1c-0.2,0-0.4,0-0.5,0c-0.2,0-0.5,0-0.7,0c-0.5,0-0.9,0-1.4,0
							c0.5-0.7,1.1-1.4,1.6-2.1c0.5-0.6,1-1.3,1.6-1.9c1.7,0.5,3.6,0,5.2-0.9c-1.6,0.9-3.4,1.1-5.1,0.8c1.3-1.5,2.6-2.8,4.2-4.1
							c0,0,0-0.1,0,0c-1.5,1.1-2.8,2.3-4,3.6c-0.4-1.2-0.7-2.3-0.8-3.5c0,0,0,0,0,0c0,1.2,0.2,2.5,0.7,3.7c-0.6,0.7-1.2,1.4-1.8,2.1
							c-0.5,0.6-1,1.2-1.4,1.8c-0.2-0.6-0.6-1.2-0.8-1.8c-0.1-0.2-0.1-0.4-0.2-0.6c-0.1-0.8-0.1-1.6,0-2.5c0-0.1-0.2-0.1-0.2,0
							c-0.3,0.8-0.2,1.7-0.1,2.4c0,0.1,0,0.3,0.1,0.4c-0.1,0-0.2-0.1-0.2-0.1c-0.3-0.2-0.6-0.4-0.8-0.6c0,0-0.1,0-0.1,0.1
							c0.2,0.2,0.5,0.5,0.7,0.7c0.2,0.1,0.3,0.3,0.6,0.4c0.4,0.8,0.9,1.9,0.9,2c-1.2,1.6-2.4,3.2-3.4,4.8c-0.1,0.2-0.2,0.3-0.3,0.5
							c-1.1-1.8-1.7-3.7-1.9-5.9c0-0.1-0.1,0-0.1,0c-0.1,2.2,0.5,4.5,1.8,6.1c-1.3,2.1-2.2,4.4-2.9,6.7c-0.3-0.6-0.7-1.1-1-1.6
							c-0.4-0.7-0.7-1.5-0.9-2.3c-0.5-1.5-0.7-3-0.9-4.6c0,1.7,0.2,3.3,0.7,4.8c0.4,1.4,1,3,1.9,4.1
							C466.7,253.2,466.4,254.3,466.4,254.5z"/>
					</g>
				</g>
				<g>
					<g>
						<path class="st29" d="M484.7,258.3c0.7-0.3,1.4-0.9,1.6-1.7c0.2-0.7-0.2-1.5-0.8-1.7c1.3,0.3,3-0.1,3.5-1.4
							c0.2-0.5,0.2-1.1-0.1-1.5c1,0,1.9-0.4,2.6-1c0.3-0.3,0.5-0.7,0.6-1.1c0-0.4-0.2-0.9-0.7-0.9c0.6-0.8,1-1.7,1.4-2.6
							c0.3-0.9,0.5-2-0.1-2.7c-0.6-0.6-1.6-0.6-2.4-0.2c-0.6,0.3-1.1,0.8-1.5,1.4c0.1-0.3,0.2-0.6,0.1-0.9c-0.3-0.8-1.1-0.6-1.7-0.2
							c-0.8,0.5-1.2,1.2-1.6,2c-0.2,0.5-0.3,0.2-0.5-0.1c-0.4-0.4-1.1-0.4-1.5-0.1c-0.7,0.5-1,1.3-1.3,2.1c0.1-0.8-0.5-1.6-1.3-1.6
							c-1,0.1-1.7,1.1-2,1.9c-0.2-0.6-0.8-1-1.4-0.9c-0.7,0.1-1.2,0.6-1.6,1.2c-1,1.2-1.8,2.6-2.5,4c-0.4,0.8-0.8,1.5-1.2,2.3
							c-0.3,0.6-0.8,1.7-1.4,2c0-0.2-0.2-0.4-0.4-0.4c-0.2,0-0.4,0.1-0.6,0.3c-0.1,0.1-0.2,0.3-0.2,0.4c0,0.2,0,0.4,0,0.6
							c0,0.4-0.2,0.5-0.4,0.8c-0.8,0.8-1.5,1.6-2.1,2.5c-0.1,0.1-0.2,0.3-0.1,0.4c0,0.1,0.1,0.1,0.1,0.2c0.3,0.4,0.7,0.9,1.3,0.8
							c0.3-0.1,0.6-0.3,0.8-0.5c0.9-0.9,1.9-1.8,3.1-2.2c1.1-0.4,2.3-0.1,3.4,0.3c2.1,0.6,4.3,1.8,6.5,0.6c0.8-0.5,1.1-1.2,0.5-1.9
							C483,258.6,484.1,258.5,484.7,258.3z M488.6,251.7L488.6,251.7C488.6,251.7,488.6,251.7,488.6,251.7
							C488.6,251.7,488.6,251.7,488.6,251.7z"/>
					</g>
					<g class="st30">
						<path class="st28" d="M472.3,257.7c0.2-0.2,2.6-0.7,2.5-0.8c-0.2-2.5,0.6-5.9,2.4-7.8c0,0,0.1,0,0,0c-0.8,1.2-1.5,2.5-1.8,3.9
							c-0.3,1.3-0.3,2.5-0.3,3.8c1.5-0.5,3-1.1,4.4-2c-0.3-1.1-0.2-2.4-0.1-3.6c0.2-1.2,0.5-2.4,1-3.5c0,0,0.1,0,0.1,0
							c-0.4,1.2-0.8,2.4-0.9,3.6c-0.1,0.6-0.1,1.1-0.1,1.7c0,0.6,0.1,1.1,0.1,1.7c0.2-0.1,0.4-0.2,0.5-0.3c1.1-0.7,2.1-1.4,3.1-2.2
							c-0.1-0.7-0.1-1.4,0-2.1c-0.4-0.4-0.6-0.8-0.7-1.4c0.2,0.4,0.5,0.8,0.8,1.1c0.1-0.9,0.3-1.8,0.6-2.6c-0.1,0.6-0.2,1.1-0.3,1.7
							c0,0.3-0.1,0.6-0.1,0.9c0,0.1,0,0.2-0.1,0.4c0,0.1,0,0.3,0,0.4c0,0.2,0,0.4,0,0.5c0,0.3,0,0.7,0,1c0.5-0.4,1-0.8,1.6-1.2
							c0.5-0.4,0.9-0.8,1.4-1.1c-0.4-1.2,0-2.6,0.7-3.8c-0.7,1.2-0.8,2.5-0.6,3.7c1.1-0.9,2.1-2,3-3.1c0,0,0.1,0,0,0
							c-0.8,1.1-1.7,2-2.7,2.9c0.9,0.3,1.7,0.5,2.6,0.6c0,0,0,0,0,0c-0.9,0-1.9-0.1-2.7-0.5c-0.5,0.5-1,0.9-1.6,1.3
							c-0.4,0.4-0.9,0.7-1.4,1.1c0.5,0.2,0.9,0.4,1.3,0.6c0.1,0.1,0.3,0.1,0.4,0.1c0.6,0.1,1.2,0.1,1.8,0c0.1,0,0.1,0.1,0,0.1
							c-0.6,0.2-1.2,0.1-1.7,0.1c-0.1,0-0.2,0-0.3,0c0,0.1,0.1,0.1,0.1,0.2c0.1,0.2,0.3,0.4,0.4,0.6c0,0,0,0.1-0.1,0.1
							c-0.2-0.2-0.4-0.3-0.5-0.5c-0.1-0.1-0.2-0.3-0.3-0.4c-0.6-0.3-1.4-0.6-1.5-0.7c-1.2,0.9-2.3,1.7-3.5,2.5
							c-0.1,0.1-0.2,0.2-0.4,0.2c1.3,0.8,2.7,1.3,4.3,1.4c0,0,0,0.1,0,0.1c-1.6,0.1-3.3-0.4-4.5-1.3c-1.6,1-3.2,1.7-4.9,2.2
							c0.4,0.2,0.8,0.5,1.2,0.7c0.5,0.3,1.1,0.5,1.7,0.7c1.1,0.3,2.2,0.5,3.4,0.6c-1.2,0-2.4-0.2-3.6-0.5c-1-0.3-2.2-0.7-3-1.4
							C473.8,257.5,472.8,258,472.3,257.7z"/>
					</g>
				</g>
			</g>
			<g>
				<path class="st31" d="M435.1,300h0.8c3.8-3.7,9.6-8.7,12.5-10.7c1.4-1,3.4-2.6,5.6-4.7c3.3-3,7.2-7,10.3-11
					c4.9-6.3,6-10.1,2.5-13.3c-0.3-0.2-0.8-0.8-1.1-1c-2-1.7-3.8-2.8-6.5-2c-2.6,0.8-5.9,3.7-10.4,10.4c-2.1,2.3-3.2,5.2-5,7.7
					c-0.8,1.1-2.7,3.9-4.9,7.2c-2.8,4.2-6.2,9.2-8.5,12.7c0.8,0.8,1.5,1.7,2.3,2.5C433.5,298.4,434.3,299.2,435.1,300z"/>
			</g>
			<g>
				<path class="st32" d="M435.7,300c3.8-3.7,9.6-8.7,12.5-10.7c1.4-1,3.4-2.6,5.6-4.7c3.3-3,7.2-7,10.3-11c4.9-6.3,6-10.1,2.5-13.3
					c-0.3-0.2-0.8-0.8-1.1-1c-0.3-0.3-0.6-0.5-0.9-0.8c-1.4,18.3-17.4,31.6-31.7,41.5H435.7z"/>
			</g>
			<g>
				<path class="st31" d="M433,300c15.3-10.6,30.4-24.2,31.7-41.5c-1.7-1.3-3.3-1.9-5.6-1.2c-2.6,0.8-5.9,3.7-10.4,10.4
					c-1.9,2.2-3.3,4.9-4.9,7.3c-1.6,2.5-3.3,5.1-5,7.6c-4.5,6.7-10.4,15.4-11.1,16.8c-0.1,0.3-0.3,0.5-0.4,0.7H433z"/>
			</g>
			<g>
				<g>
					<path class="st33" d="M457.8,267.4c-0.2,0.4,1,1.8,1.8,0.7C460.4,267,458.2,266.5,457.8,267.4z"/>
				</g>
				<g>
					<path class="st33" d="M456.1,269.5c-0.1,1-1.7-0.6-1.9-1.1C454,267.9,456.3,267.7,456.1,269.5z"/>
				</g>
				<g>
					<path class="st33" d="M450.3,271.8c-0.7,1.3,1.3,1.7,1.6,1.3C452.2,272.7,451.3,270.1,450.3,271.8z"/>
				</g>
				<g>
					<path class="st33" d="M446.5,276.6c-0.8,1.1,1.3,1.8,1.4,1.4C448,277.6,447.5,275.3,446.5,276.6z"/>
				</g>
				<g>
					<path class="st33" d="M444.8,280.8c-0.5,0.7,1.7,1.9,1.9,1.7C446.9,282.4,445.8,279.2,444.8,280.8z"/>
				</g>
				<g>
					<path class="st33" d="M442.7,286.8c0-1-0.7-2.4-1.9-2.1c-1.2,0.3-0.8,0.7,0.3,1.5C442.1,287.1,442.7,287.3,442.7,286.8z"/>
				</g>
				<g>
					<path class="st33" d="M439.1,288.4c0.7,0.7,1.6,2.3,0.1,1.6c-1.5-0.7-1.3-1.2-1.1-1.6C438.4,288,438.8,288.1,439.1,288.4z"/>
				</g>
				<g>
					<path class="st33" d="M439.1,288.4c0.1,0.1,0.2,0.2,0.2,0.3c-0.4,0.4-0.6,1.1-0.7,1c-0.8-0.5-0.7-1-0.4-1.3
						C438.4,288,438.8,288.1,439.1,288.4z"/>
				</g>
			</g>
		</g>
		<g>
			<path class="st14" d="M433.5,295.8c0.2-0.1,0.4-0.2,0.6-0.3c0,0,0.5-0.4,0.4-0.5c0.6,0.3,1.3,0.2,1.7-0.2
				c0.5-0.4,0.6-1.1,0.4-1.7c0.4,0,0.7-0.3,0.9-0.7c0.1-0.4,0.1-0.8-0.1-1.2c-0.2-0.6-0.6-1.1-1.1-1.4c-0.4-0.3-1-0.5-1.3-0.9
				c-0.5-0.5,0-0.7,0.3-1.1c0.1-0.1,0.1-0.2,0.1-0.4c-0.1-0.8-1.9-0.2-2.3-0.1c-0.8,0.4-1.4,0.9-1.9,1.6c-0.4,0.5-0.8,1-1,1.5
				C429.7,292.2,431.4,296.4,433.5,295.8z"/>
		</g>
		<g>
			<g>
				<path class="st21" d="M425.8,222.4c1-2.3,2.6-4.3,4.5-5.8c5.6-4.3,14.3-2.8,19.1,2.1c6,6.1,3.5,17.2-3.6,21.5
					C434,247.3,420.2,235,425.8,222.4z"/>
			</g>
			<g>
				<path class="st34" d="M426.6,224.3c2.1-5.1,9-7.2,13.7-4.5c6.1,3.4,5.4,13.1-0.3,16.5c-4.1,2.5-10.1,1.4-12.9-2.5
					C425.4,231.2,425.3,227.5,426.6,224.3z"/>
			</g>
		</g>
		<g>
			<ellipse class="st35" cx="433.9" cy="253.1" rx="10.9" ry="8.4"/>
		</g>
		<path class="st16" d="M446.3,291.9c0,0-7.7,17.6,6.1,23.8H485l-15.7-25L446.3,291.9z"/>
		<g>
			<g>
				<path class="st36" d="M442,288.3c0.1-0.7,1-1.2,1.7-1c-0.8-0.4-0.8-1.7-0.2-2.3c0.6-0.6,1.6-0.7,2.5-0.5
					c0.9,0.2,1.6,0.7,2.5,0.9c0.4,2.1,0.4,4.3,0.1,6.5c0,0-0.1,0-0.1,0c-0.7,0-1.5-0.1-2.2,0c-0.9,0.1-1.8,0.3-2.6,0
					c-0.8-0.3-1.2-1.7-0.4-2.1C442.5,289.8,441.8,289,442,288.3z"/>
			</g>
			<g>
				<path class="st36" d="M448.5,285.3c1.4,0.1,2.9,0.2,4.2-0.2c2.6-0.7,3.8-1.6,5.9-3.3c1.7-1.4,3.5-2.4,5.6-2.7
					c3-0.4,6.5,0.5,6.8,4.1c0.5,6.7-8.3,8.3-13.1,8.5c-3.7,0.2-10.7,1.5-13.7-1.4c-1.4-1.3-1.4-4,0.5-4.7
					C445.9,285.2,447.2,285.2,448.5,285.3z"/>
			</g>
		</g>
		<path class="st14" d="M476.5,297c0,0-13.1-8.4-20.8,3.9c-5.5,8.8,1.1,14.5,1.1,14.5l-16.3,0.4c0,0-6.4-2.3-7.4,1.5
			c0,0-3.6,2.1,0.8,4.5c0,0-2.1,2.5,4.7,2.8H499c0,0,5.5-3.6,0-7.2c0,0-10.7-23.4-16.7-25L476.5,297z"/>
	</g>
</g>
</svg>
