<?xml version="1.0" encoding="utf-8"?>
<!-- Generator: Adobe Illustrator 26.5.0, SVG Export Plug-In . SVG Version: 6.00 Build 0)  -->
<svg version="1.1" id="圖層_1" xmlns="http://www.w3.org/2000/svg" xmlns:xlink="http://www.w3.org/1999/xlink" x="0px" y="0px"
	 viewBox="0 0 255.1 141.7" style="enable-background:new 0 0 255.1 141.7;" xml:space="preserve">
<style type="text/css">
	.st0{clip-path:url(#SVGID_00000018950475249826208630000016520747811285973419_);}
	.st1{fill:#92A1B5;}
	.st2{fill:#818C9A;}
	.st3{fill:#BCC100;}
	.st4{fill:#A3A300;}
	.st5{fill:#FFFFFF;}
	.st6{fill:#677384;}
	.st7{fill:#CFD329;}
	.st8{fill:#B5C6D5;}
	.st9{fill:#B6C4DB;}
	.st10{fill:#EDEDED;}
	.st11{fill:#D6D6D6;}
	.st12{fill:#D16966;}
	.st13{fill:#160100;}
	.st14{fill:#A2B5CC;}
	.st15{fill:#F7652B;}
	.st16{fill:#FFFCF0;}
	.st17{fill:#3873B4;}
	.st18{fill:#E25220;}
	.st19{fill:#F6F6F6;}
</style>
<g>
	<g>
		<defs>
			<rect id="SVGID_1_" x="3.6" y="11.4" width="113.4" height="78.8"/>
		</defs>
		<clipPath id="SVGID_00000131353619920801612550000011873775985595776417_">
			<use xlink:href="#SVGID_1_"  style="overflow:visible;"/>
		</clipPath>
		<g style="clip-path:url(#SVGID_00000131353619920801612550000011873775985595776417_);">
			<path class="st1" d="M104.9,82.7h-27l-6.6,7.6l-6.9-7.6c-3.2,0-6.3-1.3-8.6-3.6c-2.3-2.3-3.6-5.4-3.6-8.6V46.7
				c0-3.2,1.3-6.3,3.6-8.6c2.3-2.3,5.3-3.6,8.6-3.6h40.5c3.2,0,6.3,1.3,8.6,3.6c2.3,2.3,3.6,5.4,3.6,8.6v23.7c0,3.2-1.3,6.3-3.6,8.6
				C111.2,81.4,108.1,82.7,104.9,82.7L104.9,82.7z"/>
			<path class="st2" d="M56.3,79.5c16.6-8.9,25.4-26.3,20.5-45H64.4c-3.2,0-6.3,1.3-8.6,3.6c-2.3,2.3-3.6,5.4-3.6,8.6v23.7
				c0,1.7,0.4,3.4,1,5C54,77,55,78.3,56.3,79.5L56.3,79.5z"/>
			<path class="st3" d="M75.6,43c0,14.7-11.5,27.1-27,30.6c-2.9,0.6,1.8,10.5,3.7,14c-10.5,0-16.4-13.2-18.3-13.4
				C16.8,71.9,3.6,58.8,3.6,43c0-17.5,16.1-31.6,36-31.6S75.6,25.6,75.6,43z"/>
			<path class="st4" d="M37.1,28.5c7.7,0,13.1,5.8,13.1,12.8c0,2.6-0.7,5.1-2.1,7.2c-1.4,2.1-3.5,3.8-5.8,4.7
				c1.9,2.1,4.6,2.9,7.9,2.9c1.5,0,3-0.1,4.4-0.4V62c-1.7,0.3-3.4,0.5-5,0.5c-6,0-11.7-2.9-14.5-8.4c-3-0.4-5.9-1.9-7.9-4.2
				c-2-2.3-3.1-5.4-3-8.5C24.1,34.3,29.5,28.5,37.1,28.5z M37.1,47.6c3.6,0,5.9-3,5.9-6.3c0-3.3-2.3-6.3-5.9-6.3s-5.9,3-5.9,6.3
				C31.2,44.6,33.6,47.6,37.1,47.6L37.1,47.6z"/>
			<path class="st5" d="M37.1,26.9c7.7,0,13.1,5.8,13.1,12.8c0,2.6-0.7,5.1-2.1,7.2s-3.5,3.8-5.8,4.7c1.9,2.1,4.6,2.9,7.9,2.9
				c1.5,0,3-0.1,4.4-0.4v6.2c-1.7,0.3-3.4,0.5-5,0.5c-6,0-11.7-2.9-14.5-8.4c-3.1-0.4-5.9-1.9-7.9-4.2c-2-2.3-3.1-5.4-3-8.5
				C24.1,32.7,29.5,26.9,37.1,26.9z M37.1,46.1c3.6,0,5.9-3,5.9-6.3c0-3.3-2.3-6.3-5.9-6.3s-5.9,3-5.9,6.3
				C31.2,43,33.6,46.1,37.1,46.1z"/>
			<path class="st6" d="M89.4,68H82l-1.5,3.3h-7.4l12.4-25h0.3l12.4,25H91L89.4,68z M84,63.4h3.5c-0.7-1.5-1.2-3-1.7-4.6h-0.1
				C85.2,60.3,84.6,61.9,84,63.4L84,63.4z"/>
			<path class="st5" d="M89.4,66.5H82l-1.5,3.3h-7.4l12.4-25h0.3l12.4,25H91L89.4,66.5z M84,61.8h3.5c-0.7-1.5-1.2-3-1.7-4.6h-0.1
				C85.2,58.8,84.6,60.3,84,61.8L84,61.8z"/>
			<path class="st7" d="M6.7,35.9c0,0,5.6-15.9,24.1-20.7c18.5-4.8,31.8,6.4,31.8,6.4S29.8,2.8,6.7,35.9z"/>
			<path class="st8" d="M79.1,36.4h20.1c3,0,10-0.6,11.8,2.2c0,0-4.5-0.5-15-0.5s-17-0.1-17-0.1V36.4z"/>
		</g>
	</g>
	<g>
		<path class="st9" d="M120.5,12.3c9.2-9.7,23-13.8,36.7-11.8c17.4,2.5,34.3,13.1,43.8,28c10.4,16.3,14.5,44.1,3.7,61.2
			c-3.2,5.1-8.2,8.7-11.5,13.7c-4.3,6.4-3.8,16.4,3.7,20.2c3.9,2,11.1,2.1,11.6-3.4c0.4-4-3.1-7.7-2.6-11.8c0.7-5,3.8-9.3,7-13
			c1.8-2,3.8-4,6.3-5.1c0.9-0.4,6.8-0.9,6.8-0.9c-5.4,7.3,1.9,18.1-1.4,26.6c3.8-0.8,6.8,3,10.1,5.2c4.8,3.1,11.1,2.7,16.8,2.2
			c-1.8,3.3-4.3,6.2-7.2,8.5c-3,2.3-6.3,4-10,5c-3.6,0.9-7.4,1.1-11.1,0.5c-3.7-0.6-7.3-1.9-10.4-3.9c-0.2-0.1-8.7,4.4-9.8,4.8
			c-3.6,1.2-7.2,2-10.9,2.6c-19,3-40.1-0.2-55.4-12.6c-14-11.3-21.9-28.3-25.8-45.6C106.1,60.7,103.9,29.8,120.5,12.3z"/>
		<path class="st9" d="M124.2,8.9c9-7.2,21-10.1,33-8.4c17.4,2.5,34.3,13.1,43.8,28c10.4,16.3,14.5,44.1,3.7,61.2
			c-3.2,5.1-8.2,8.7-11.5,13.7c-4.3,6.4-3.8,16.4,3.7,20.2c3.9,2,11.1,2.1,11.6-3.4c0.2-2.5-1-4.8-1.8-7.1c-1.7-4.9,0.2-10,3-14
			c2.3-3.2,4.9-6.3,8.5-8.1c1.3-0.7,2.7-1.1,4.1-1.1c0.2,0,0.6,0,1.1,0c-0.3,0.4-0.6,0.9-0.9,1.3c-5.7,8.6-13.8,19.1-6.4,29.7
			c4.3,6.7,14.3,4.9,20,11.1c-7.4,4.2-14.6-1.4-22.4-0.7c0.4,0.9,0.5,1.9,0.2,2.8c-0.4-0.2-0.7-0.4-1.1-0.6
			c-0.2-0.1-8.7,4.4-9.8,4.8c-3.6,1.2-7.2,2-10.9,2.6c-10.4,1.7-21,1.4-31.2-1c1.2-16.7,12.5-34.8,18.9-50.8
			C194.4,51,159.1,20.9,124.2,8.9z"/>
		<path class="st10" d="M121.1,13.7c2.3-1,4.7-1.6,7.2-1.6c5-0.1,9.8,1.6,14.2,4c21.6,11.5,33.8,38.3,28.4,62.2
			c-2.4,10.3-7.5,19.7-10.7,29.8c-1.6,5-2.5,10.3-2.4,15.6c0.1,3.2,3.7,10.9,2.8,13.4c-2.2,6-20.8-6.6-23.9-9.2
			c-14-11.3-21.9-28.3-25.8-45.6C107.5,66.8,101.5,22.7,121.1,13.7z"/>
		<path class="st11" d="M141,83.6c0.5-4.3,1.5-8.6,3-12.6c0.9-2.4,3.8-4.3,6-2.1c1,1,1.5,3.2,3.2,2.9c1.3-0.2,2.3-2,2.5-3.1
			c0.4-1.7,0.1-3.4,0.2-5.1c0.2-3.1,0.6-6.1,1.2-9.2c1.2-5.6,4.3-10.2,10.4-10.7c4.6,10.8,6.1,23,3.5,34.6
			c-2.4,10.3-7.5,19.7-10.7,29.8c-1.6,5-2.5,10.3-2.4,15.6c0.1,2.1,1.2,4,1.5,6.1c0.3,2.1-1.9,3.3-3.7,3.9c-3.4,1.3-7.5,1.3-10.3-1
			c-1.7-1.5-2.7-3.7-3.5-5.8c-1.4-3.6-2.2-7.4-2.4-11.3c-0.1-4.2,1.2-8.3,1-12.5C140.2,96.9,140.1,90.2,141,83.6z"/>
		<path class="st11" d="M114,93.6c-1.2-3.7-2.3-7.4-3.1-11.2c-0.6-2.5-1.2-5.9-1.8-9.7c10.1-2.4,21-10.1,24.6-3.6
			C140.4,81.2,127.8,90.7,114,93.6z"/>
		<path class="st12" d="M172.4,39.6c-2.4,2-2.5,6-0.2,8.9c2.4,2.9,6.3,3.6,8.7,1.5c2.4-2,2.5-6,0.2-8.9
			C178.8,38.3,174.9,37.6,172.4,39.6z"/>
		<path class="st13" d="M154.8,31.8c0.5-0.1,0.8-0.4,0.6-0.9c-0.2-0.8-3.5-0.9-4.3-1.2c-1-0.4-1.8-0.9-2.4-1.7
			c-0.6-0.8-1.1-1.7-1.2-2.7c0-0.2-0.1-0.3-0.2-0.4c-0.1-0.1-0.3-0.2-0.4-0.2c-0.2,0-0.3,0-0.5,0.1c-0.1,0.1-0.3,0.2-0.3,0.3
			c-0.1,0.3-0.1,0.7,0,1.1c0.3,1.1,0.8,2.1,1.5,2.9c0.7,0.8,1.6,1.5,2.6,2C150.7,31.1,153.5,32.1,154.8,31.8z"/>
		<path class="st12" d="M135.8,2.5l0.2,0.1c2.4,0.9,2.2,4.7,1.2,6.5c-1.6,2.7-5.5,3.4-8.7,1.5c-1.1-0.7-2.1-1.6-2.7-2.8
			C127.6,6,133,1.7,135.8,2.5z"/>
		<path class="st5" d="M184.5,27.9c0.6-4.9-3.6-10-9.2-10c-5.6,0.1-9.4,5.9-8,11.2c1.7,6.7,10.1,8.1,14.8,3.6
			C183.4,31.4,184.2,29.8,184.5,27.9L184.5,27.9z"/>
		<path class="st13" d="M179.8,26.5c0.4-6.2-8.3-8.7-11.6-1.9c-2.4,4.9,3.7,9.4,7.9,7.4c1-0.5,1.9-1.3,2.6-2.3
			C179.3,28.8,179.7,27.6,179.8,26.5z"/>
		<path class="st5" d="M156.6,10.2c0.5-4.1-3-8.4-7.7-8.4c-4.7,0.1-7.9,4.9-6.8,9.4c1.4,5.6,8.5,6.8,12.4,3
			C155.6,13.1,156.4,11.7,156.6,10.2z"/>
		<path class="st13" d="M152.6,8.6c0-0.8-0.1-1.5-0.4-2.2c-0.3-0.7-0.8-1.3-1.4-1.7c-3-2.1-6.6-0.1-8,3c-1.9,4.3,3.4,7.8,7,5.9
			c0.9-0.5,1.6-1.2,2.1-2.1C152.3,10.6,152.6,9.6,152.6,8.6L152.6,8.6z"/>
		<path class="st14" d="M199.3,47.2c0-2.5,0.8-4.9,2.6-4.5c2.6,0.6,3.6,3.6,3.7,6c0,1.8-0.8,3.9-2.9,3.7
			C200.5,53,199.4,50,199.3,47.2z"/>
		<path class="st14" d="M193.8,52.9c4.3-2.3,4.8,5.5,3.3,7.9C194.2,65.7,189.2,55.3,193.8,52.9z"/>
		<path class="st14" d="M206.3,69.7c2.1-2.5,4.2,7.1,1.3,8.6C203.2,80.7,204.3,72.2,206.3,69.7z"/>
		<path class="st14" d="M206.7,56.4c1.7-0.8,4.2,0.9,3.3,5c-0.9,4.1-3.9,2.4-4.6-0.6C204.9,58.4,205.6,56.9,206.7,56.4z"/>
		<path class="st14" d="M199.2,64.2c0.7-3.9,5.4,2.3,2.1,4.5C199.2,70.1,198.7,66.6,199.2,64.2z"/>
		<path class="st15" d="M108.7,87.2l46.5,15.8L168,50.5c0.3-1.1,0.1-2.4-0.5-3.4c-0.6-1-1.6-1.7-2.7-2l-41.8-10.2
			c-0.2,0-0.4-0.1-0.5,0c-0.2,0-0.4,0.1-0.5,0.2c-0.2,0.1-0.3,0.2-0.4,0.4c-0.1,0.1-0.2,0.3-0.2,0.5L108.7,87.2z"/>
		<path class="st16" d="M108,91.2c0.5-2.2,1.3-5.3,0.2-5.2c0.3,0,0.5,0,0.8,0.1l41.2,10.1c1.4,0.3,2.5,1.2,3.2,2.4
			c0.7,1.2,0.9,2.6,0.6,4l-0.1,0.4l-46.1-11.3L108,91.2z"/>
		<path class="st10" d="M107.8,92l0-0.1l46.1,11.3l-0.1,0.4c-0.2,0.7-0.5,1.3-0.9,1.9c-0.4,0.6-0.9,1-1.5,1.4
			c-0.6,0.4-1.3,0.6-1.9,0.7c-0.7,0.1-1.4,0.1-2.1-0.1l-41.2-10.1c-0.7-0.2,0.1-0.2-0.4-0.6C106.9,96.3,107.2,94.5,107.8,92z"/>
		<path class="st17" d="M153,101.9c0.5-2-0.9-4.1-3-4.6l-41.2-10.1c-0.2,0-0.3-0.1-0.4-0.2c-0.1-0.1-0.2-0.2-0.3-0.3
			c-0.1-0.1-0.1-0.3-0.2-0.4c0-0.2,0-0.3,0-0.5c0.1-0.3,0.3-0.6,0.6-0.7c0.3-0.2,0.6-0.2,0.9-0.1l41.2,10.1c3.5,0.9,5.7,4.2,4.9,7.4
			l-0.1,0.3l-2.4-0.6L153,101.9z"/>
		<path class="st17" d="M106.8,95.1l41.2,10.1c2.2,0.5,4.3-0.7,4.8-2.7l0.1-0.3l2.4,0.6l-0.1,0.3c-0.8,3.2-4.2,5.1-7.7,4.3
			l-41.2-10.1c-0.2,0-0.3-0.1-0.4-0.2c-0.1-0.1-0.2-0.2-0.3-0.3c-0.1-0.1-0.1-0.3-0.2-0.4c0-0.2,0-0.3,0-0.5c0-0.1,0.1-0.3,0.2-0.4
			c0.1-0.1,0.2-0.2,0.4-0.3c0.1-0.1,0.3-0.1,0.4-0.1C106.5,95.1,106.7,95.1,106.8,95.1z"/>
		<path class="st18" d="M150.6,94.9c0.1,0,0.2,0,0.3,0c0.1,0,0.2,0,0.3-0.1c0.1,0,0.1-0.1,0.2-0.2c0.1-0.1,0.1-0.2,0.1-0.3
			l11.6-47.7c0-0.2,0-0.4-0.1-0.5c-0.1-0.2-0.3-0.3-0.4-0.3c-0.2,0-0.4,0-0.5,0.1c-0.2,0.1-0.3,0.3-0.3,0.4l-11.6,47.7
			c0,0.1,0,0.2,0,0.3c0,0.1,0,0.2,0.1,0.3c0,0.1,0.1,0.1,0.2,0.2C150.4,94.9,150.5,94.9,150.6,94.9L150.6,94.9z"/>
		<path class="st19" d="M145.2,77.6l-23.8-5.8c-0.5-0.1-0.9-0.4-1.2-0.8c-0.3-0.4-0.3-0.9-0.2-1.4l5-20.7c0.1-0.5,0.4-0.9,0.8-1.2
			c0.4-0.3,0.9-0.3,1.4-0.2l21.9,5.4c0.5,0.1,0.9,0.3,1.3,0.6c0.4,0.3,0.7,0.7,1,1.1c0.3,0.4,0.4,0.9,0.5,1.4c0.1,0.5,0.1,1-0.1,1.5
			l-4.6,18.9c-0.1,0.5-0.4,0.9-0.8,1.2C146.2,77.6,145.7,77.7,145.2,77.6L145.2,77.6z"/>
		<path class="st9" d="M146,64.8c0.1-1.1,1.3-1.6,2.4-1.7c4.6-0.4,8.8,2.5,11.8,6c3.8,4.4,6.2,10,11,13.5c2.5,1.8,10.6,4.2,10.6,8
			c0,4.5-10.5,6.2-13.7,6.6c-5.5,0.6-11.3-0.2-16-3.2c-1.2-0.7-2.2-1.7-2.9-2.9c-0.5-1.1-0.7-2.3-0.7-3.5c-0.3-4.3-0.4-8.5-0.4-12.8
			c0-2.8,0.1-5.9-1.4-8.3C146.4,66.1,146,65.5,146,64.8z"/>
		<path class="st9" d="M107.8,60.3c-0.3,0.9,0.5,1.7,1.2,2.3c1.4,0.9,2.9,1.5,4.6,1.8c1.6,0.3,3.3,0.2,4.9-0.2
			c1.8-0.5,3.4-1.3,5.2-1.9c2.8-0.8,5.8-0.7,8.5,0.2c2.8,0.9,5.2,2.6,6.9,5c0.7,1.6-0.4,3.4-1.6,4.7c-6.2,6.9-18.2,17.6-27.6,10.7
			c-3.2-2.3-5.6-6.3-6.5-10.4C102.5,67.9,103.6,63.1,107.8,60.3z"/>
	</g>
</g>
</svg>
