<svg width="97" height="113" viewBox="0 0 97 113" fill="none" xmlns="http://www.w3.org/2000/svg">
<path d="M43.0221 104.399C44.5269 103.263 47.3107 103.095 48.9359 103.035C49.618 103.035 50.3102 103.085 50.9924 103.11C51.8565 103.115 52.7172 103.003 53.5505 102.778C53.6794 102.757 53.8024 102.709 53.9117 102.639C54.0027 102.557 54.0761 102.457 54.1274 102.346C55.1807 100.363 55.256 97.6815 55.4365 95.4607C55.6531 93.0371 55.5213 90.5954 55.0453 88.2083C54.5086 85.6157 58.5314 85.0753 58.6969 87.7671C58.9928 92.5607 58.737 98.2219 56.4146 102.673C58.6417 102.505 60.7584 102.827 62.4639 103.962C62.7545 104.147 62.9774 104.419 63.0995 104.738C63.2217 105.058 63.2366 105.408 63.1422 105.736C63.0477 106.065 62.8488 106.354 62.5749 106.562C62.301 106.771 61.9666 106.886 61.6212 106.892C58.7069 107.001 56.2591 106.163 53.3298 106.892C50.4908 107.601 47.9628 108.994 45.4147 110.362C43.4434 111.428 41.8183 108.548 43.7042 107.388C44.5373 106.845 45.4071 106.36 46.3075 105.935C45.194 105.876 44.1256 106.302 43.0321 106.505C42.8549 106.565 42.6626 106.565 42.4854 106.505C42.3707 106.442 42.2807 106.342 42.2296 106.223C42.1497 106.037 42.1202 105.833 42.1439 105.632C42.1676 105.432 42.2438 105.241 42.365 105.078C42.5438 104.816 42.766 104.587 43.0221 104.399V104.399Z" fill="#BC9699"/>
<path d="M56.1689 105.881C57.8141 104.656 60.7986 104.473 62.5541 104.394C63.2915 104.369 64.0589 104.453 64.7762 104.473C65.7097 104.48 66.6397 104.36 67.54 104.116C67.6782 104.095 67.81 104.044 67.9262 103.967C68.0253 103.881 68.104 103.774 68.1569 103.655C69.2955 101.489 69.3758 98.6135 69.5714 96.2192C69.8079 93.6018 69.666 90.9645 69.1501 88.3868C68.5732 85.5859 72.9171 85.0059 73.0926 87.891C73.4136 93.0664 73.1378 99.1786 70.6298 103.987C73.0374 103.804 75.3197 104.151 77.1505 105.38C77.464 105.579 77.7044 105.873 77.8359 106.218C77.9674 106.562 77.9831 106.94 77.8807 107.294C77.7783 107.648 77.5632 107.96 77.2673 108.184C76.9713 108.408 76.6103 108.532 76.2376 108.538C73.0876 108.657 70.4492 107.75 67.2842 108.538C64.2194 109.296 61.4857 110.808 58.7571 112.29C56.6303 113.44 54.8747 110.332 56.9112 109.073C57.8081 108.483 58.7469 107.958 59.7201 107.502C58.5213 107.437 57.3626 107.903 56.209 108.116C56.0184 108.179 55.8126 108.179 55.6221 108.116C55.4983 108.048 55.3999 107.942 55.3412 107.814C55.2561 107.612 55.2253 107.392 55.2516 107.175C55.278 106.958 55.3607 106.751 55.4917 106.575C55.6801 106.311 55.9085 106.076 56.1689 105.881Z" fill="#DCC3C4"/>
<path d="M96.8782 76.6928C96.9334 73.5895 95.7145 70.2484 94.927 67.4773C93.4865 62.4378 91.467 57.5779 88.9079 52.9924C84.1879 44.5652 77.0201 36.3065 67.1939 33.8923C61.892 32.5886 59.8556 35.2109 55.7124 37.3326C52.2765 39.0924 48.0681 38.0117 44.5168 40.1879C41.9136 41.7891 40.1429 44.5007 38.4977 47.1727C33.3223 55.6861 28.8181 64.5808 25.0249 73.7779C23.9665 76.3408 22.9433 79.1317 23.5201 81.8879C24.097 84.6441 27.0313 87.0285 29.449 85.8536C29.6245 89.5071 34.5552 91.8023 37.1735 89.4278C37.5296 92.4864 42.1894 93.6613 43.7444 91.0885C42.9769 92.3526 46.6436 94.3107 47.4161 94.509C49.5729 95.0592 50.8118 94.0578 52.5925 93.2944C52.8441 93.8473 53.2166 94.3381 53.6833 94.7315C54.1499 95.125 54.699 95.4113 55.2911 95.5698C56.0325 95.7102 56.7996 95.6213 57.488 95.3152C58.1764 95.0092 58.7527 94.5009 59.1383 93.8595C59.6759 94.6927 60.5134 95.2933 61.4816 95.5399C62.4499 95.7864 63.4768 95.6607 64.3549 95.1881C64.4451 95.1088 67.3644 96.6009 67.6102 96.7099C70.9007 98.0583 74.3567 97.2057 75.3247 93.4431C78.0634 94.4346 81.8454 95.3814 84.6895 93.7802C90.2672 90.6373 88.1354 83.6279 87.0119 83.5882C89.0634 83.6576 93.663 83.385 95.1025 81.6698C96.2316 80.2486 96.8556 78.4995 96.8782 76.6928Z" fill="#595558"/>
<g style="mix-blend-mode:multiply" opacity="0.26">
<path d="M94.927 67.4773C94.611 66.3818 94.2649 65.2912 93.8987 64.2106C93.6424 68.1071 92.2966 71.8567 90.0114 75.042C82.5828 82.3836 71.4524 86.7906 61.0343 86.7906C48.966 87.2863 33.8379 86.0966 23.475 79.1317C23.3564 80.0495 23.3886 80.9802 23.5703 81.8879C24.1521 84.6391 27.0814 87.0285 29.4991 85.8537C29.6747 89.5071 34.6053 91.8023 37.2237 89.4278C37.5798 92.4864 42.2396 93.6613 43.7945 91.0885C43.0271 92.3526 46.6937 94.3107 47.4662 94.509C49.623 95.0592 50.862 94.0578 52.6426 93.2944C52.8943 93.8473 53.2668 94.3381 53.7334 94.7315C54.2001 95.125 54.7492 95.4113 55.3412 95.5698C56.0826 95.7102 56.8497 95.6213 57.5382 95.3152C58.2266 95.0092 58.8028 94.5009 59.1884 93.8595C59.726 94.6927 60.5635 95.2933 61.5318 95.5399C62.5 95.7864 63.5269 95.6608 64.405 95.1881C64.4953 95.1088 67.4146 96.6009 67.6604 96.7099C70.9508 98.0583 74.4068 97.2057 75.3749 93.4432C78.1136 94.4346 81.8956 95.3814 84.7396 93.7802C90.3173 90.6373 88.1856 83.6279 87.062 83.5882C89.1135 83.6576 93.7131 83.385 95.1527 81.6698C96.2658 80.2396 96.8722 78.4872 96.8782 76.6828C96.9334 73.6044 95.7145 70.2286 94.927 67.4773Z" fill="#494849"/>
</g>
<path d="M58.105 42.0767L58.3759 42.2006C59.0597 42.5526 59.6508 43.0578 60.102 43.6758C60.5531 44.2938 60.8518 45.0074 60.9741 45.7598C61.1948 47.247 60.7334 48.6895 60.2719 50.0924C61.0439 49.8688 61.8653 49.8737 62.6345 50.1063C63.4038 50.3388 64.0873 50.789 64.6007 51.4011C65.0981 52.0221 65.4504 52.7441 65.6325 53.5154C65.8146 54.2867 65.8219 55.0882 65.654 55.8626C65.5168 56.6107 65.2228 57.3223 64.7909 57.9514C64.359 58.5806 63.7987 59.1135 63.146 59.516C61.3654 60.5521 60.001 59.7044 58.2254 59.5706C58.3037 60.6237 58.123 61.6799 57.6987 62.649C57.0704 63.8659 56.0225 64.8206 54.7443 65.3408C53.48 65.7921 52.0985 65.8081 50.8238 65.3861C49.5491 64.9641 48.4561 64.1288 47.722 63.0159C46.678 63.9446 45.366 64.5271 43.9701 64.6815C43.2735 64.7461 42.5718 64.6297 41.9347 64.3436C41.2977 64.0575 40.7475 63.6117 40.3386 63.0505C39.3003 61.4543 39.8671 59.3525 40.5693 57.5976C42.1242 53.6963 44.1256 49.8693 47.1452 46.8702C49.5679 44.4561 54.4283 40.535 58.105 42.0767Z" fill="#F2EFF7"/>
<path d="M53.696 44.9714C51.9153 44.4757 48.5346 45.8538 46.9847 44.9169C45.9815 44.3022 45.3795 42.0418 45.0134 39.9597C44.8378 38.9683 44.7124 38.0264 44.6171 37.3374C44.0604 33.4906 47.0449 29.7281 48.5095 26.377C51.0977 20.4284 55.3864 10.1571 50.2601 4.52072C46.9445 0.882136 41.7681 -1.81957 36.5916 1.51167C36.406 1.58602 36.2155 1.65547 36.0399 1.73974C34.9427 2.28801 33.9863 3.076 33.2433 4.044C32.5002 5.012 31.9899 6.13459 31.7512 7.32651C30.096 15.9967 35.0718 24.6767 36.3057 33.1039C36.6819 35.6619 36.7622 38.2545 36.9227 40.8322C37.0732 43.3009 37.2939 45.763 37.5848 48.2184C37.8757 50.697 38.3472 53.3937 40.2332 55.0643C44.5419 58.8913 51.2432 56.839 55.0001 53.6515C58.5364 50.6623 58.4511 46.2355 53.696 44.9714Z" fill="url(#paint0_linear_126_71)"/>
<path d="M35.6838 4.66472C32.2579 2.34475 27.7185 2.31992 23.2292 2.26539C16.7436 2.19104 10.1878 2.32488 5.85901 7.65387C0.77285 13.9346 -1.71003 21.9802 1.3848 29.7184C9.47049 20.0568 23.2543 21.8166 34.6154 21.6828C36.5465 21.6828 38.603 21.5092 40.1329 20.3641C44.6924 16.9784 40.7449 10.7422 38.3272 7.29696C37.6177 6.26607 36.7215 5.37369 35.6838 4.66472V4.66472Z" fill="#595558"/>
<g style="mix-blend-mode:multiply" opacity="0.26">
<path d="M10.559 23.5367C17.9876 20.9838 26.8608 21.767 34.6054 21.6778C36.5365 21.6778 38.593 21.5043 40.1229 20.3591C43.318 17.9846 42.3349 14.2172 40.6245 10.9851C32.5087 10.4299 20.3099 9.08649 12.159 22.1091C11.5919 22.5466 11.0572 23.0237 10.559 23.5367V23.5367Z" fill="#494849"/>
</g>
<path d="M10.1025 7.83725C9.4723 6.95591 8.60289 6.26853 7.59452 5.85437C6.95202 6.39666 6.36255 6.99747 5.83392 7.64887C0.747764 13.9296 -1.73512 21.9752 1.35972 29.7134C3.7809 26.8443 6.96811 24.7043 10.5589 23.5367C11.0636 23.023 11.6051 22.5459 12.1791 22.109C12.6004 21.7571 13.0268 21.4249 13.4582 21.1176C13.8945 16.5966 13.1722 11.9963 10.1025 7.83725Z" fill="#39383F"/>
<g style="mix-blend-mode:multiply" opacity="0.15">
<path d="M93.1664 73.2128C92.6692 72.0086 92.0894 70.8393 91.431 69.7131C90.8761 68.7473 90.1605 67.8808 89.3142 67.1502C89.2698 67.1177 89.2175 67.0974 89.1627 67.0911C89.1078 67.0848 89.0522 67.0928 89.0015 67.1144C88.9507 67.1359 88.9066 67.1703 88.8734 67.214C88.8403 67.2577 88.8193 67.3092 88.8126 67.3634C88.6404 68.4896 88.7157 69.6393 89.0333 70.7342C89.4006 71.9876 89.93 73.1889 90.6083 74.3084C91.4911 75.7956 93.8687 74.8834 93.1664 73.2128Z" fill="#444344"/>
</g>
<g style="mix-blend-mode:multiply" opacity="0.15">
<path d="M83.3351 74.5958C82.7984 73.7234 82.2768 72.8708 81.8053 71.9586C81.3338 71.0465 81.0278 70.0898 80.6165 69.1628C80.5691 69.0439 80.4842 68.9432 80.3744 68.8758C80.2645 68.8083 80.1357 68.7776 80.0068 68.7881C79.8779 68.7987 79.7559 68.85 79.6589 68.9344C79.5618 69.0188 79.4948 69.1319 79.4679 69.2569C78.9663 71.5372 79.7487 74.2142 81.098 76.1029C82.0962 77.5355 84.228 76.083 83.3351 74.5958Z" fill="#444344"/>
</g>
<g style="mix-blend-mode:multiply" opacity="0.15">
<path d="M90.1619 79.6572C89.7606 78.9681 89.3744 78.289 89.0183 77.5702C88.6621 76.8514 88.4564 76.0831 88.1555 75.3643C88.1213 75.2696 88.057 75.1884 87.9723 75.1328C87.8875 75.0772 87.7869 75.0502 87.6853 75.0558C87.5838 75.0613 87.4868 75.0992 87.4088 75.1637C87.3308 75.2283 87.276 75.316 87.2526 75.4138C86.896 77.282 87.3017 79.2138 88.3812 80.7874C89.1436 81.9127 90.8591 80.8171 90.1619 79.6572Z" fill="#444344"/>
</g>
<g style="mix-blend-mode:multiply" opacity="0.15">
<path d="M85.2011 65.2714C84.8399 64.3295 84.4938 63.4075 84.1979 62.4458C83.902 61.4841 83.7966 60.4926 83.5659 59.526C83.5421 59.4022 83.4785 59.2894 83.3846 59.2042C83.2907 59.119 83.1714 59.0661 83.0446 59.0533C82.9178 59.0405 82.7902 59.0684 82.6807 59.1331C82.5713 59.1977 82.486 59.2955 82.4373 59.412C81.5395 61.5287 81.7953 64.2651 82.7533 66.3223C83.4806 67.874 85.808 66.8478 85.2011 65.2714Z" fill="#444344"/>
</g>
<path d="M43.6641 8.75442C43.9183 8.18582 44.3071 7.68593 44.7977 7.29697C46.2022 6.22126 48.3942 6.59308 49.608 7.82247C51.1128 9.3592 50.4858 12.1154 48.6901 13.1911C48.0457 13.5874 47.2888 13.7667 46.5326 13.7022C45.7765 13.6376 45.0618 13.3327 44.4958 12.833C43.9298 12.3334 43.5428 11.6659 43.3929 10.9306C43.2429 10.1953 43.3381 9.43177 43.6641 8.75442V8.75442Z" fill="white"/>
<path d="M43.8748 9.23026C44.0227 8.9271 44.231 8.65655 44.4872 8.43476C44.7434 8.21298 45.0421 8.04451 45.3657 7.93946C45.6893 7.83442 46.0309 7.7949 46.3703 7.82334C46.7097 7.85178 47.0397 7.94758 47.3408 8.10497C48.8807 8.94273 48.7001 11.3619 47.2605 12.2244C46.7334 12.5292 46.1118 12.6333 45.5125 12.5174C44.9131 12.4015 44.3772 12.0735 44.0052 11.5949C43.7894 11.2413 43.6646 10.8409 43.6418 10.4286C43.6191 10.0163 43.6991 9.60486 43.8748 9.23026V9.23026Z" fill="#160100"/>
<path d="M43.7845 17.6575C43.7845 18.9612 45.179 20.0171 46.8944 20.0171C48.6099 20.0171 49.9993 18.9612 49.9993 17.6575C49.9993 16.3538 48.6099 15.2929 46.8944 15.2929C45.179 15.2929 43.7845 16.3538 43.7845 17.6575Z" fill="#D16966"/>
<g style="mix-blend-mode:multiply" opacity="0.15">
<path d="M81.4492 86.5824C77.938 83.8014 73.9855 82.1903 71.2518 78.4922C69.7661 76.4857 68.7035 74.2047 68.1271 71.7846C67.5507 69.3645 67.4721 66.8545 67.8961 64.4038C68.0917 63.229 66.281 62.7184 66.0754 63.9081C65.2017 68.7036 66.1578 73.6489 68.7589 77.7883C71.8487 82.6959 76.4583 84.074 81.2335 86.8599C81.404 86.9541 81.6147 86.7113 81.4492 86.5824Z" fill="#444344"/>
</g>
<defs>
<linearGradient id="paint0_linear_126_71" x1="44.4466" y1="57.1463" x2="44.4466" y2="0.024514" gradientUnits="userSpaceOnUse">
<stop stop-color="#AD8083"/>
<stop offset="0.28" stop-color="#BD9497"/>
<stop offset="0.73" stop-color="#D4B0B2"/>
<stop offset="1" stop-color="#DCBBBC"/>
</linearGradient>
</defs>
</svg>
