<svg width="111" height="92" viewBox="0 0 111 92" fill="none" xmlns="http://www.w3.org/2000/svg">
<path d="M63.8792 97.0123L57.6379 8.04915C57.5383 6.68676 56.671 5.63876 55.6923 5.72027L49.1169 6.1744L42.5415 6.63436C41.5629 6.6984 40.8479 7.86285 40.9416 9.22524L47.183 98.1825C47.2826 99.5449 48.1499 100.599 49.1286 100.511L55.704 100.057L62.2794 99.6031C63.258 99.5158 63.973 98.3514 63.8792 97.0123Z" fill="#3F8BAF"/>
<path d="M59.0268 27.8213L58.6283 22.1738L50.2831 22.7502L41.9379 23.3324L42.3306 28.9799L50.6816 28.3977L59.0268 27.8213Z" fill="white"/>
<path d="M59.6949 37.3522L59.2964 31.7047L50.9512 32.2869L42.606 32.8633L42.9987 38.5109L51.3497 37.9345L59.6949 37.3522Z" fill="white"/>
<path d="M55.4696 47.9545L52.2053 48.1524L48.9352 48.3446C48.4488 48.3795 48.0855 48.9268 48.1265 49.608L50.7754 93.0532C50.8164 93.7227 51.2442 94.2176 51.7306 94.2176L54.9949 94.0255L58.265 93.8275C58.7514 93.7984 59.1147 93.2453 59.0737 92.5641L56.419 49.1073C56.3838 48.4435 55.956 47.9254 55.4696 47.9545Z" fill="#F3D15D"/>
<path d="M104.685 64.2973C102.682 62.7586 100.179 62.0063 97.6527 62.1839C93.3805 62.5623 89.7353 65.9683 88.4461 70.0264C87.7125 72.1075 87.7603 74.3819 88.5808 76.4308C89.4834 78.4278 91.511 79.9881 93.7087 79.959C94.4087 79.9339 95.0934 79.7485 95.7095 79.4173C96.3255 79.086 96.8562 78.6179 97.2601 78.0493C97.3099 77.9909 97.335 77.9155 97.3302 77.839C97.3254 77.7626 97.291 77.6909 97.2343 77.639C97.1775 77.5872 97.1028 77.5591 97.0257 77.5607C96.9486 77.5623 96.8751 77.5934 96.8206 77.6476C96.2959 78.0665 95.673 78.3465 95.01 78.4615C94.347 78.5766 93.6654 78.5229 93.0289 78.3055C91.0715 77.5777 89.8994 75.3944 89.9229 73.3392C89.9471 72.2264 90.2536 71.1377 90.8139 70.1739C91.3743 69.2101 92.1704 68.4024 93.1285 67.8256C96.9612 65.5724 102.306 68.0235 104.234 72.0117C107.375 78.5035 102.658 88.3139 95.2265 90.4331C87.9362 92.5058 79.6027 87.2659 77.8856 80.4772C76.7135 75.6914 77.6571 71.2723 78.8643 66.6437C81.0502 58.2539 86.8169 40.0886 76.274 34.4761C72.412 32.415 68.1456 32.1472 65.526 36.2635C62.297 41.3055 61.2421 48.8278 60.3454 54.6267C58.3764 67.4355 61.9571 79.0449 70.0678 89.0649C77.2879 97.9845 94.0955 101.146 103.244 94.0545C111.079 87.9936 113.951 74.4046 107.164 66.5389C106.424 65.7024 105.593 64.9506 104.685 64.2973Z" fill="#E6AC25"/>
<path d="M73.1738 89.391C70.7359 86.7885 68.7668 83.6561 68.1866 80.1628C66.8798 72.3203 69.177 63.5579 71.4274 56.088C72.5995 52.2803 73.7716 48.461 74.3576 44.5193C74.6621 42.6744 74.7857 40.8045 74.7268 38.9359C74.7268 38.2314 74.5452 33.6959 73.8009 33.4514C70.6832 32.514 67.5889 33.038 65.5201 36.2751C62.2911 41.3171 61.2362 48.8394 60.3396 54.6383C58.3705 67.4471 61.9512 79.0566 70.062 89.0766C75.3363 95.5974 84.795 98.6774 92.9937 97.74C86.8051 96.8085 80.2532 95.7255 75.518 91.6616C74.6956 90.9477 73.913 90.1897 73.1738 89.391Z" fill="#FFC050"/>
<path d="M59.7477 9.2718C70.7652 -0.532768 91.3528 3.37393 94.787 18.8843C96.5451 26.8432 93.3571 36.6594 84.5841 38.6797C76.0162 40.6476 59.5133 40.4264 54.989 30.9536C51.9592 24.5958 53.061 17.2307 57.4504 11.7113C58.1453 10.835 58.9138 10.019 59.7477 9.2718Z" fill="#E6AC25"/>
<path d="M70.7066 17.0793C63.9354 18.4221 57.9159 22.2358 53.8345 27.7689C54.1243 28.8626 54.5167 29.9269 55.0066 30.9478C59.5308 40.4322 76.0337 40.6418 84.6016 38.6739C92.1498 36.9272 95.5664 29.4282 95.2499 22.296C88.7039 18.1099 78.9346 15.4608 70.7066 17.0793Z" fill="#FFC050"/>
<path d="M59.7477 9.2718C58.9155 10.0185 58.1471 10.8325 57.4504 11.7055C55.6424 13.9251 54.3754 16.5298 53.7481 19.3163C53.1209 22.1028 53.1505 24.9956 53.8345 27.7689C57.7425 22.2835 63.6125 18.4887 70.2436 17.1609C78.4482 15.5423 88.6863 18.1099 95.2148 22.296C95.1618 21.1485 95.0128 20.0073 94.7694 18.8842C91.3528 3.37393 70.7652 -0.532768 59.7477 9.2718Z" fill="#E6AC25"/>
<path d="M75.3539 46.0855C74.8639 45.9376 74.3452 45.9097 73.8419 46.004C71.7263 46.3883 69.933 47.8031 68.0636 48.7754C65.6491 50.033 62.5255 51.407 60.2048 49.2004C58.3763 47.4537 57.6262 44.6591 56.7296 42.4001C56.6478 42.1684 56.5418 41.9459 56.4131 41.7363C56.3551 41.6384 56.2695 41.5595 56.167 41.5093C55.9032 41.4103 55.6395 41.6898 55.5809 41.9634C55.5223 42.237 55.5809 42.5456 55.534 42.7902C55.4872 43.0347 55.1707 43.32 54.948 43.1861C54.5963 42.678 54.1257 42.2625 53.5767 41.975C53.4753 41.9474 53.3684 41.9473 53.267 41.9749C53.1657 42.0024 53.0736 42.0565 53.0005 42.1315C52.9274 42.2065 52.876 42.2996 52.8515 42.4012C52.8271 42.5027 52.8306 42.6089 52.8617 42.7086C52.9786 42.964 53.1507 43.1906 53.3657 43.3724C53.729 43.7566 54.0045 44.4204 53.6001 44.7697C53.0961 45.2005 52.1291 44.4961 51.7248 44.9735C51.3204 45.4509 51.8244 45.6663 52.1409 45.8235C52.8676 46.1903 53.899 45.8701 54.5788 46.3009C55.0268 46.6674 55.3552 47.1578 55.5223 47.7099C57.0519 51.244 60.574 54.9876 64.5356 55.6921C65.8299 55.8939 67.1473 55.9038 68.4445 55.7212C71.2575 55.3836 74.1994 54.353 76.1919 52.2745C77.9735 50.3998 78.4775 47.0636 75.3539 46.0855Z" fill="#E6AC25"/>
<path d="M73.6954 67.9886C71.5154 67.3074 69.2064 68.3147 67.249 69.2171L62.5607 71.383C61.8778 71.741 61.1419 71.9886 60.3806 72.1166C58.2298 72.3494 56.794 70.7542 55.874 69.025C55.3582 68.0643 55.0183 67.0221 54.5554 66.0382C54.0045 64.8737 54.2741 64.2508 54.3092 62.9641C54.3376 62.6586 54.2656 62.3522 54.1041 62.0907C54.0187 61.9647 53.8927 61.8713 53.7468 61.8258C53.6009 61.7803 53.4438 61.7854 53.3012 61.8404C52.891 62.0442 52.9438 62.6264 52.9672 63.0805C53.0375 64.5768 52.2288 65.2464 51.3028 63.9422C50.9747 63.4822 49.2576 62.6497 49.2224 63.721C49.2224 64.2624 50.3945 64.6292 50.6406 65.0193C50.7658 65.2078 50.8219 65.4334 50.7995 65.6581C50.7771 65.8829 50.6775 66.0931 50.5175 66.2536C50.2665 66.4245 49.9658 66.5084 49.6619 66.4923C49.3583 66.4731 49.0541 66.5208 48.7712 66.6321C48.6329 66.6936 48.5223 66.8037 48.4607 66.9412C48.3991 67.0787 48.3907 67.234 48.4371 67.3773C48.6246 67.7674 49.199 67.6684 49.6092 67.5927C51.3146 67.3016 51.9944 68.3263 52.5921 69.7062C53.8659 72.6349 56.0031 75.1115 58.7221 76.8092C61.7871 78.6723 65.8308 78.7189 69.3236 78.946C70.224 79.0496 71.1355 79.0003 72.0193 78.8004C74.135 78.2182 75.4301 76.0291 75.9575 73.904C76.5143 71.645 76.2564 68.7863 73.6954 67.9886Z" fill="#E6AC25"/>
<path d="M79.9191 10.7332C83.494 13.2425 89.0731 10.6167 89.2489 6.23261C89.2638 5.35971 89.0827 4.49449 88.7188 3.69986C88.3549 2.90523 87.8172 2.20118 87.145 1.6389C83.6639 -1.27219 77.6863 0.806324 77.1823 5.43497V5.5514C77.0358 7.56006 78.2489 9.55709 79.9191 10.7332Z" fill="white"/>
<path d="M79.4796 8.96905C79.921 9.28425 80.4277 9.49737 80.9628 9.59284C81.4978 9.68831 82.0475 9.66371 82.5717 9.52081C83.0959 9.37792 83.5813 9.12035 83.9924 8.76699C84.4034 8.41363 84.7297 7.97342 84.9474 7.47857C85.2075 6.82721 85.2735 6.11522 85.1373 5.42763C85.0012 4.74005 84.6687 4.10593 84.1797 3.60098C83.5244 2.98321 82.6706 2.61521 81.7688 2.56195C80.8671 2.50869 79.9754 2.77359 79.2511 3.30987C78.5893 3.79997 78.1273 4.51046 77.9498 5.31129C77.7722 6.11212 77.8909 6.9497 78.2841 7.67069C78.5749 8.1904 78.9844 8.6351 79.4796 8.96905Z" fill="#160100"/>
<path d="M66.9677 10.4362C70.5425 12.9456 76.1275 10.3198 76.3033 5.93567C76.317 5.06296 76.1353 4.19815 75.7715 3.40371C75.4076 2.60926 74.8707 1.90505 74.1994 1.34197C70.7125 -1.56913 64.7407 0.509388 64.266 5.13803V5.25448C64.0785 7.26314 65.2916 9.27179 66.9677 10.4362Z" fill="white"/>
<path d="M66.5164 8.68955C66.9579 9.00585 67.4651 9.2199 68.0008 9.31598C68.5365 9.41205 69.087 9.38773 69.612 9.24478C70.137 9.10183 70.623 8.84387 71.0345 8.48987C71.446 8.13588 71.7725 7.69482 71.99 7.19907C72.2487 6.54706 72.3133 5.83492 72.1761 5.14746C72.039 4.46 71.7059 3.82619 71.2164 3.32149C70.5612 2.70371 69.7073 2.33573 68.8056 2.28247C67.9038 2.22921 67.0121 2.49409 66.2878 3.03038C65.628 3.52201 65.1676 4.23243 64.9902 5.03261C64.8128 5.83279 64.9301 6.66964 65.3209 7.39119C65.6151 7.90843 66.024 8.35241 66.5164 8.68955Z" fill="#160100"/>
<path d="M72.5116 14.0227C72.4262 13.9368 72.3741 13.8237 72.3644 13.7033C72.3548 13.5829 72.3882 13.463 72.4589 13.3648C72.5395 13.2585 72.6585 13.1875 72.7909 13.1668C72.9232 13.1462 73.0585 13.1775 73.168 13.2542C73.3028 13.3531 76.5143 15.6354 78.8702 13.2542C78.9665 13.1606 79.0959 13.1083 79.2306 13.1083C79.3653 13.1083 79.4946 13.1606 79.591 13.2542C79.6404 13.2994 79.6798 13.3543 79.7067 13.4155C79.7336 13.4766 79.7476 13.5426 79.7476 13.6093C79.7476 13.6761 79.7336 13.7421 79.7067 13.8032C79.6798 13.8643 79.6404 13.9192 79.591 13.9645C76.5084 16.404 73.9533 15.094 72.5585 14.0809L72.5116 14.0227Z" fill="#160100"/>
<path d="M44.6161 34.8894C44.7756 34.8503 44.9439 34.8689 45.0908 34.9418C45.1794 35.0004 45.2488 35.0834 45.2904 35.1806C45.3321 35.2779 45.3442 35.3851 45.3252 35.4891C45.3016 35.5913 45.2543 35.6865 45.1872 35.7674C45.12 35.8482 45.0349 35.9124 44.9385 35.9549C44.288 36.2402 43.2507 35.6289 42.6295 36.0946C42.5369 36.1769 42.4754 36.2882 42.4551 36.4099C42.4349 36.5317 42.4571 36.6567 42.5181 36.7642C42.817 37.2998 43.8074 37.195 44.3348 37.23C44.663 37.23 45.0381 37.2707 45.2315 37.5327C45.279 37.6042 45.3089 37.6857 45.3189 37.7708C45.3289 37.8559 45.3187 37.9421 45.2891 38.0225C45.2594 38.1029 45.2112 38.1753 45.1483 38.2338C45.0853 38.2923 45.0095 38.3354 44.9267 38.3595C44.2352 38.5167 42.4243 36.7467 42.143 38.2547C41.9086 39.5123 44.1239 39.0698 44.5986 39.8907C44.6351 39.9492 44.6598 40.0143 44.671 40.0822C44.6823 40.1501 44.68 40.2196 44.6642 40.2867C44.6484 40.3537 44.6195 40.417 44.579 40.473C44.5386 40.5289 44.4875 40.5764 44.4286 40.6127C44.1063 40.7524 43.7898 40.4555 43.5027 40.2517C42.8053 39.7568 42.0024 39.815 41.2054 39.7452C40.4084 39.6753 40.2853 39.1164 40.3615 38.3595C40.4387 37.5453 40.6362 36.7469 40.9475 35.9898C41.0787 35.6133 41.3023 35.2751 41.598 35.0059C42.3423 34.4237 43.2214 35.1456 44.0535 35.0059C44.2469 35.0001 44.4345 34.9302 44.6161 34.8894Z" fill="#E6AC25"/>
<path d="M88.6863 12.7302C88.7102 13.1249 88.8555 13.5029 89.1024 13.8131C89.6436 14.5463 90.3834 15.1117 91.2356 15.4433C91.8506 15.7441 92.5601 15.7922 93.2105 15.5772C93.6001 15.3838 93.9194 15.0747 94.1241 14.6929C94.3289 14.311 94.409 13.8754 94.3533 13.4463C94.2244 12.1421 92.8296 10.3431 91.3821 10.3722C90.4093 10.3896 88.6805 11.6822 88.6863 12.7302Z" fill="#D3961C"/>
<path d="M54.3678 18.6281C54.7332 18.6921 55.0751 18.8506 55.359 19.0878C55.643 19.3249 55.859 19.6323 55.9853 19.9788C56.0996 20.329 56.1048 20.7054 56.0002 21.0586C55.8957 21.4118 55.6862 21.7254 55.3992 21.9584C55.0993 22.15 54.761 22.2743 54.4077 22.3226C54.0544 22.3709 53.6948 22.3419 53.354 22.2378C52.8786 22.1459 52.4418 21.9147 52.0998 21.5741C50.6523 20.0196 52.8031 18.3602 54.3678 18.6281Z" fill="#D3961C"/>
<path d="M57.087 15.5074C56.8526 14.4244 54.989 13.4172 54.1568 14.4302C53.1606 15.6704 54.5729 16.992 55.8388 16.8872C56.075 16.8858 56.307 16.8239 56.5122 16.7077C56.7175 16.5915 56.8892 16.4247 57.0108 16.2235C57.1118 15.9988 57.1384 15.7481 57.087 15.5074Z" fill="#D3961C"/>
<path d="M90.1221 17.4519L90.0283 17.5276C89.3661 18.1098 89.9228 18.8958 90.4972 19.2743C90.9902 19.6156 91.5982 19.7515 92.1908 19.6527C92.4841 19.5975 92.7565 19.4636 92.9786 19.2655C93.2007 19.0675 93.364 18.8127 93.4508 18.529C93.8669 16.9338 92.0619 16.8755 91.0539 17.1084C90.7246 17.1648 90.4087 17.2813 90.1221 17.4519Z" fill="#D3961C"/>
<path d="M78.1024 68.6116C76.8424 68.5126 75.9692 66.568 76.1451 64.2682C76.3209 61.9684 77.4871 60.1927 78.7412 60.2742C79.9953 60.3557 80.8744 62.3178 80.6986 64.6175C80.5228 66.9173 79.3566 68.7047 78.1024 68.6116Z" fill="#D3961C"/>
<path d="M76.9655 58.7604C75.9224 58.6789 75.2074 57.0953 75.3422 55.2147C75.477 53.3341 76.4498 51.8844 77.4871 51.9601C78.5244 52.0358 79.2452 53.6253 79.1104 55.5058C78.9756 57.3864 78.0028 58.8361 76.9655 58.7604Z" fill="#D3961C"/>
<path d="M76.1685 76.3201C75.0492 76.0756 74.4455 74.4978 74.8265 72.8268C75.2074 71.1559 76.4146 69.9157 77.5398 70.1894C78.665 70.463 79.2569 72.0117 78.8819 73.7176C78.5068 75.4235 77.2878 76.5705 76.1685 76.3201Z" fill="#D3961C"/>
<path d="M74.1291 69.7178C73.5079 69.6712 73.0683 68.8328 73.1445 67.8488C73.2207 66.8649 73.7833 66.1022 74.4045 66.1488C75.0257 66.1953 75.4594 67.0337 75.3832 68.0235C75.307 69.0133 74.7444 69.7643 74.1291 69.7178Z" fill="#D3961C"/>
<path d="M80.9154 58.5392C80.3294 58.4577 79.9836 57.5203 80.1301 56.4374C80.2766 55.3544 80.8627 54.5335 81.4429 54.615C82.023 54.6965 82.3688 55.6281 82.2281 56.711C82.0875 57.7939 81.4956 58.6149 80.9154 58.5392Z" fill="#D3961C"/>
<path d="M80.0832 51.7738C79.4972 51.7272 79.1104 50.883 79.1866 49.8816C79.2628 48.8802 79.7726 48.1 80.3587 48.1349C80.9447 48.1699 81.3256 49.0257 81.2495 50.0271C81.1733 51.0285 80.6517 51.8262 80.0832 51.7738Z" fill="#D3961C"/>
<g clip-path="url(#clip0_1_124)">
<path d="M39.6742 19.529L34.3145 19.2644L28.9549 18.9999C28.1579 18.9641 27.4584 19.8543 27.3923 20.9946L23.0071 95.3509C22.9375 96.4913 23.5292 97.4494 24.3261 97.4958L29.6858 97.7568L35.0454 98.0214C35.8424 98.0607 36.5419 97.167 36.6115 96.0302L40.9967 21.6739C41.0628 20.5263 40.4712 19.5683 39.6742 19.529Z" fill="#FF895A"/>
<path d="M31.8155 60.5716L25.0429 60.2499L24.1694 75.593L30.9072 75.9148L37.7773 76.2401L38.6508 60.8969L31.8155 60.5716Z" fill="#3873B4"/>
<path d="M33.7262 27.4116L26.9954 27.0791L26.9258 28.2588L33.6531 28.5913L40.5336 28.9273L40.6032 27.7476L33.7262 27.4116Z" fill="white"/>
<path d="M26.7378 31.1437L26.6682 32.3234L33.3956 32.6523L40.2726 32.9919L40.3422 31.8122L33.4652 31.4726L26.7378 31.1437Z" fill="white"/>
<path d="M23.3341 89.7314L23.2645 90.9111L29.8944 91.2364L36.8689 91.5832L36.9385 90.4035L29.9675 90.0568L23.3341 89.7314Z" fill="white"/>
</g>
<defs>
<clipPath id="clip0_1_124">
<rect width="18" height="79" fill="white" transform="translate(23 19)"/>
</clipPath>
</defs>
</svg>
