<?xml version="1.0" encoding="utf-8"?>
<!-- Generator: Adobe Illustrator 27.0.0, SVG Export Plug-In . SVG Version: 6.00 Build 0)  -->
<svg version="1.1" id="圖層_1" xmlns="http://www.w3.org/2000/svg" xmlns:xlink="http://www.w3.org/1999/xlink" x="0px" y="0px"
	 viewBox="0 0 280 166.8" style="enable-background:new 0 0 280 166.8;" xml:space="preserve">
<style type="text/css">
	.st0{clip-path:url(#SVGID_00000130641335944399456960000000664023146564592528_);}
	.st1{clip-path:url(#SVGID_00000016771242416383846920000018064453949696414603_);}
	.st2{fill:#A5857F;}
	.st3{fill:#917673;}
	.st4{fill:#B8CADA;}
	.st5{fill:#BC9890;}
	.st6{fill:#DCC3C4;}
	.st7{opacity:0.28;fill:#332627;enable-background:new    ;}
	.st8{opacity:0.28;fill:#634B4C;enable-background:new    ;}
	.st9{fill:#D56964;}
	.st10{fill:#BF5656;}
	.st11{opacity:0.13;}
	.st12{fill:#513624;}
	.st13{fill:#FFFFFF;}
	.st14{fill:#160100;}
	.st15{fill:#D16966;}
	.st16{fill:#AA3939;}
	.st17{fill:#3E362B;}
	.st18{fill-rule:evenodd;clip-rule:evenodd;fill:#3E362B;}
	.st19{fill-rule:evenodd;clip-rule:evenodd;fill:#2B251E;}
	.st20{fill:#111111;}
	.st21{fill:#383838;}
	.st22{clip-path:url(#SVGID_00000081648865019435283370000001896859013513529474_);}
	.st23{fill:#386EB9;}
	.st24{fill:#F7652B;}
	.st25{fill:#DADADA;}
	.st26{fill:#EDEDED;}
	.st27{fill:#F6F6F6;}
	.st28{fill:#F8B334;}
	.st29{fill:#FCFAF2;}
	.st30{fill:#C6C6C6;}
</style>
<g>
	<defs>
		<rect id="SVGID_1_" y="-1" width="280" height="167.7"/>
	</defs>
	<clipPath id="SVGID_00000153687409347018091440000008982081806207745664_">
		<use xlink:href="#SVGID_1_"  style="overflow:visible;"/>
	</clipPath>
	<g style="clip-path:url(#SVGID_00000153687409347018091440000008982081806207745664_);">
		<g>
			<defs>
				<rect id="SVGID_00000104667520724450432970000009177224397965456052_" x="17" y="2.8" width="252" height="188"/>
			</defs>
			<clipPath id="SVGID_00000067956133236197409410000015239501354335648660_">
				<use xlink:href="#SVGID_00000104667520724450432970000009177224397965456052_"  style="overflow:visible;"/>
			</clipPath>
			<g style="clip-path:url(#SVGID_00000067956133236197409410000015239501354335648660_);">
				<path class="st2" d="M252,72.6c-2.1-2.1-4.7-3.7-7.5-4.8c-2.8-1.1-5.8-1.5-8.8-1.4c-5.7,0.3-11.3,2-16.1,5.1
					c-4.6,2.7-8.4,6.4-11.3,10.8c-2.4,4.2-4.3,8.6-5.8,13.1c-2.4,6.2-4.4,12.5-5.9,18.9c-1.3,6.2-1.8,9.5-1.8,9.5
					c9.2,3.8,27.7,6.4,36.5,2.9c1.2-0.5,0.8-14.8,0.9-16.9c0.1-3.6,0.4-7.2,0.9-10.8c0.4-3.1,1.3-6.2,2.7-9.1
					c0.4-0.8,0.9-1.6,1.4-2.4c1.8-2.8,4.3-5.1,7.3-6.6c1.1-0.5,10.3-1.9,10.1-1.6C255.4,77.2,253.8,74.5,252,72.6z"/>
				<path class="st3" d="M252,72.6c-2.1-2.1-4.7-3.7-7.5-4.8c-2.8-1.1-5.8-1.5-8.8-1.4v23.8c0.4-0.8,0.9-1.6,1.4-2.4
					c1.8-2.8,4.3-5.1,7.3-6.6c1.1-0.5,10.3-1.9,10.1-1.6C255.4,77.2,253.8,74.5,252,72.6z"/>
				<path class="st4" d="M78.8,182.9c-2.9-0.7-5.8-1.5-8.6-2.5c-26.5-8.1-76.7-30.8-40.6-57.1c18.8-13.7,46.1-15.8,70.1-16.5
					c25.6-0.7,51.2-0.5,76.8,0.6c22.6,1.1,47.9,0.5,69.1,8c21.2,7.5,31.3,26.2,16,41.9c-20.2,20.7-57.2,27.4-87.4,31.3
					C142.8,192.7,109.6,191,78.8,182.9z"/>
				<path class="st2" d="M219.5,71.6c-4.6,2.7-8.4,6.4-11.3,10.8c-2.4,4.2-4.3,8.6-5.8,13.1c-2.4,6.2-4.4,12.5-5.9,18.9
					c-1.3,6.2-1.8,9.5-1.8,9.5c9.2,3.8,27.7,6.4,36.5,2.9c1.2-0.5,0.8-14.8,0.9-16.9c0.1-3.6,0.4-7.2,0.9-10.8
					c0.4-3.1,1.3-6.2,2.7-9.1V66.5C229.9,66.8,224.3,68.5,219.5,71.6L219.5,71.6z"/>
				<path class="st5" d="M80,86.8c-3.9,8.9-8.3,17.6-11.6,26.8c-3.3,9.2-5.6,16.3,4.9,20.4c11.9,4.7,26.4,6.5,39.1,7.8
					c28.9,2.9,61.4-0.2,89.1-8.9c0.4-0.1,0.8-0.3,1.1-0.7c0.2-0.4,0.2-0.9,0.1-1.3c-3.9-19.5-3.6-39.5-4.3-59.5
					c-0.2-6.7-0.6-13.7-4.1-19.4c-2.7-4.4-7-7.6-11.3-10.4c-11.6-7.6-24.5-13.8-38.3-15.6c-16.7-2.1-33.6,2-47.4,11.6
					c-9.8,6.8-7.7,9.6-8.8,20.6C87.5,68.1,84,77.7,80,86.8z"/>
				<path class="st5" d="M159.4,105c-23.6,1.3-46.9,0.3-70.2-6.1c-4.3-1.1-8.4-3.1-12-5.7c-3.1,6.7-6.2,13.4-8.8,20.4
					c-3.3,9.1-5.6,16.3,4.9,20.4c11.9,4.7,26.4,6.5,39.1,7.8c28.9,2.9,61.4-0.2,89.1-8.9c0.4-0.1,0.8-0.3,1.1-0.7
					c0.2-0.4,0.2-0.9,0.1-1.3c-2.5-12.6-3.3-25.4-3.7-38.3c-3.6,1.5-7.1,3.2-10.5,5C179.5,102.7,169.3,104.3,159.4,105z"/>
				<path class="st6" d="M149.1,100.1c-6.4-3.3-14.5-3.7-22-1.1c-6.7,2.4-12.6,6.4-17.3,11.8c-4.2,4.7-6.9,10.6-9.8,16.2
					c-0.4,0.8-5.9,12.5-5.6,12.6c6.1,1,12.2,1.7,17.9,2.3c18.5,1.8,37.2,1.3,55.6-1.4c0,0-0.9-9.8-1.2-11.6
					C164.6,115.5,162,106.8,149.1,100.1z"/>
				<path class="st5" d="M100.2,161.3c0,0-25.9,6.8-45.4-0.8c0,0,9.5-17.5,26.4-15.7C98.1,146.6,100.2,161.3,100.2,161.3z"/>
				<path class="st5" d="M105.3,167.7c0.1-0.1,3.9,1.3,4.1,1.4c3.7,1.1,7.4,1.9,11.2,2.4c11.3,1.8,22.8,0.9,33.6-2.7l1-0.3
					c0.2-0.1,0.4-0.2,0.5-0.4s0.2-0.3,0.3-0.6s0.1-0.4,0-0.6c0-0.2-0.1-0.4-0.3-0.6c-0.9-1.1-1.7-2.4-2.6-3.6
					c-1.7-2.2-3.6-4.2-5.8-5.9C132.7,146.1,115.2,154.9,105.3,167.7z"/>
				<path class="st7" d="M202.6,130.9c-2.5-12.6-3.3-25.5-3.7-38.4c-0.1-3.6-0.2-7.2-0.3-10.8l-0.1-4.8v-0.3l-0.2-5.2v-0.9v-0.1
					v-0.9v-0.2v-0.9c0-0.3,0-0.7,0-1v-0.1c0-0.7-0.1-1.3-0.1-2c-0.2-3.3-0.9-6.6-2-9.8l0,0c-0.5-1.2-1.1-2.4-1.7-3.6
					c-2.7-4.4-7-7.6-11.3-10.4c-11.6-7.6-24.5-13.8-38.3-15.6c-13.2-1.7-26.5,0.5-38.4,6.4l0,0c-1.4,0.7-2.9,1.5-4.3,2.3l-0.4,0.2
					l-0.7,0.4l-0.6,0.4l-0.6,0.4l-0.7,0.5l-0.5,0.3l-1.2,0.8c-9.8,6.8-7.7,9.6-8.8,20.6c-1,9.9-4.5,19.5-8.4,28.6
					c-0.5,1.1-0.9,2.2-1.4,3.2v0.1c-0.5,1.1-1,2.2-1.5,3.2c-3.1,6.7-6.2,13.4-8.8,20.4c-3.3,9.1-5.6,16.3,4.9,20.4
					c6.8,2.5,13.8,4.4,21,5.5c2.9-3.5,8-9.9,9.9-14.3c3.6-8,6.6-17.2,6.9-26c16,2.1,32.3,2.6,48.4,1.6l2-0.2
					c-0.9,12.1,0.4,28.6,4,40.1c12.2-1.6,24.3-4.2,36.1-7.9c0.4-0.1,0.8-0.3,1.1-0.7C202.9,131.8,202.9,131.3,202.6,130.9z"/>
				<path class="st5" d="M76.4,32.5c-3,2.6-4.7,8.1-1.5,10.7c1.3,1.1,3.3,0.7,4.9,0c2.7-1.2,9.3-6.2,7-9.9c-1.2-2-5.1-2.3-7.2-2.3
					C78.5,31.1,77.3,31.6,76.4,32.5L76.4,32.5z"/>
				<path class="st5" d="M203.2,33.9c0.3,1.9,0.3,3.9-0.2,5.7c-0.5,2-1.9,4.2-4,4.1c-1.1-0.1-2.1-0.6-2.9-1.4
					c-2.7-2.2-5.5-5.7-2.7-8.8C195.8,31,202.3,29.3,203.2,33.9z"/>
				<path class="st8" d="M86.9,33.3c-0.6-0.8-1.4-1.4-2.4-1.6c-1.1,4.8-5.8,7.8-11,9.5c0.3,0.8,0.8,1.5,1.4,2c1.3,1.1,3.3,0.7,4.9,0
					C82.6,42,89.2,37,86.9,33.3z"/>
				<path class="st8" d="M194.8,32.5c-0.5,0.3-1,0.7-1.5,1.2c-2.8,3.1,0,6.6,2.7,8.8c0.8,0.8,1.8,1.3,2.9,1.4c2.1,0,3.5-2.2,4-4.1
					c0-0.2,0.1-0.4,0.1-0.7C200.2,37.1,197.4,34.9,194.8,32.5L194.8,32.5z"/>
				<path class="st9" d="M77.7,34.3c-2.2,1.8-3.3,5.6-1,7.4c0.5,0.3,1.1,0.5,1.7,0.5c0.6,0,1.2-0.2,1.7-0.5c1.9-0.8,6.5-4.3,4.9-6.9
					c-0.8-1.4-3.6-1.6-5-1.6C79.2,33.3,78.4,33.7,77.7,34.3L77.7,34.3z"/>
				<path class="st9" d="M201.2,35.2c0.2,1.2,0.2,2.5-0.1,3.7c-0.3,1.3-1.2,2.7-2.5,2.6c-0.7-0.1-1.3-0.4-1.9-0.9
					c-1.7-1.4-3.5-3.6-1.7-5.6C196.5,33.3,200.7,32.3,201.2,35.2z"/>
				<path class="st10" d="M85,34.9c-0.4-0.5-1-0.9-1.6-1.1c-1.6,3-4.4,5.1-7.6,6.9c0.2,0.4,0.5,0.8,0.9,1.1c0.5,0.3,1.1,0.5,1.7,0.5
					s1.2-0.2,1.7-0.5C82,40.9,86.6,37.4,85,34.9z"/>
				<path class="st10" d="M196.6,33.9c-0.6,0.3-1.2,0.6-1.6,1.1c-1.8,2,0,4.2,1.7,5.6c0.5,0.5,1.2,0.8,1.9,0.9
					c1.3,0,2.2-1.4,2.5-2.6v-0.2C199.2,37.4,197.7,35.8,196.6,33.9L196.6,33.9z"/>
				<path class="st5" d="M107,58.1c5.9,0.5,11.8-1.2,16.6-4.8c11.8-8.7,27.4-1.3,38.9,7.3c10.5,8.3,23.9,1.3,35.8-2.6
					c5.6-1.7,11.4-2,17.2-1c-0.7-9.8-8.5-11.3-15.7-17.6c-11-9.8-18.4-22.4-31.9-29.6c-12.5-6.7-25.8-8.5-39.8-6.2
					c-12.7,2.1-25.4,7.5-34.2,17.2c-5.5,6-8.7,16.5-15.8,20.6c-3.5,2-7.7,2.2-10.7,5c-1.8,1.8-3.1,4-3.7,6.5
					C78.4,52.2,92.2,55.9,107,58.1z"/>
				<path class="st5" d="M107,58.1c5.9,0.5,11.8-1.2,16.6-4.8c11.8-8.7,27.4-1.3,38.9,7.3c10.5,8.3,23.9,1.3,35.8-2.6
					c5.6-1.7,11.4-2,17.2-1c-0.7-9.8-8.5-11.3-15.7-17.6c-11-9.8-18.4-22.4-31.9-29.6c-12.5-6.7-25.8-8.5-39.8-6.2
					c-12.7,2.1-25.4,7.5-34.2,17.2c-5.5,6-8.7,16.5-15.8,20.6c-3.5,2-7.7,2.2-10.7,5c-1.8,1.8-3.1,4-3.7,6.5
					C78.4,52.2,92.2,55.9,107,58.1z"/>
				<path class="st5" d="M107,58.1c5.9,0.5,11.8-1.2,16.6-4.8c11.8-8.7,27.4-1.3,38.9,7.3c10.5,8.3,23.9,1.3,35.8-2.6
					c5.6-1.7,11.4-2,17.2-1c-0.7-9.8-8.5-11.3-15.7-17.6c-11-9.8-18.4-22.4-31.9-29.6c-12.5-6.7-25.8-8.5-39.8-6.2
					c-12.7,2.1-25.4,7.5-34.2,17.2c-5.5,6-8.7,16.5-15.8,20.6c-3.5,2-7.7,2.2-10.7,5c-1.8,1.8-3.1,4-3.7,6.5
					C78.4,52.2,92.2,55.9,107,58.1z"/>
				<path class="st6" d="M198.2,58.1C186.4,62,173,69,162.5,60.7c-11.5-8.6-27.1-16-38.9-7.3c-4.8,3.6-10.7,5.3-16.6,4.8
					c-14.8-2.2-28.7-6-43.4-5.1c-0.2,0.7-0.4,1.4-0.5,2.2c-0.7,3.7-0.5,7.5,0.6,11.1c1.1,3.6,3.1,6.9,5.8,9.6
					c6.6,6.6,16.3,10.1,24.9,12.9c29.1,9.4,60.4,8.9,89.2-1.3c6.7-2.4,13.7-4.5,19.9-8.1c7.9-4.6,11.6-10.4,12-19.5
					c0.1-0.9,0.1-1.8,0-2.7C209.7,56.1,203.8,56.4,198.2,58.1z"/>
				<g class="st11">
					<path class="st12" d="M87.3,68.6c-4.8,0-8.3,4.5-9.9,8.9c-0.3,1.3-0.6,2.6-0.7,4c5.6,3.1,11.4,5.5,17.5,7.3
						c4.8,1.6,9.6,2.8,14.5,3.8C106.9,81,99.5,68.2,87.3,68.6z"/>
				</g>
				<g class="st11">
					<path class="st12" d="M127.1,69.2c10.2,4.5,23.6,1,29-8.9c0.5-1,1-2,1.3-3.1c-10.8-6.9-23.7-11.2-33.9-3.8
						c-1.2,0.9-2.6,1.7-4,2.4c-0.2,2.7,0.4,5.5,1.7,7.9C122.7,66,124.7,67.9,127.1,69.2L127.1,69.2z"/>
				</g>
				<g class="st11">
					<path class="st12" d="M189.4,69.2c-7-2.9-16-1.3-20.4,4.8c-4.9,6-9.6,12.6-11.2,19.9c8.7-1.3,17.4-3.5,25.7-6.4
						c6-2.2,12.2-4.1,17.9-7C198.8,75.4,194.5,71.5,189.4,69.2L189.4,69.2z"/>
				</g>
				<path class="st13" d="M99,42.6c0.2-0.3,0.3-0.7,0.5-1c3.6-5.6,13.2-3.7,13.9,3c0.2,1.6-0.1,3.2-0.8,4.7
					c-0.7,1.5-1.8,2.7-3.2,3.5c-1.7,0.9-3.8,1.1-5.7,0.7c-1.9-0.5-3.6-1.6-4.7-3.2C97.6,48.1,97.9,45,99,42.6z"/>
				<path class="st14" d="M103.1,45.3c1.8-3.9,8.5-3.4,9,1.3c0.1,1-0.1,2-0.5,2.9c-0.4,0.9-1.1,1.7-2,2.2c-1.1,0.6-2.3,0.7-3.5,0.4
					s-2.2-1-2.9-2c-0.4-0.7-0.6-1.6-0.6-2.4C102.5,46.8,102.7,46,103.1,45.3L103.1,45.3z"/>
				<path class="st13" d="M161.8,42.6c3-6.3,13.7-5.4,14.5,2c0.2,1.6-0.1,3.2-0.8,4.7c-0.7,1.5-1.8,2.7-3.2,3.5
					c-1.7,0.9-3.8,1.1-5.7,0.7c-1.9-0.5-3.6-1.6-4.7-3.2c-0.6-1.2-1-2.5-1-3.9C160.9,45.1,161.2,43.8,161.8,42.6L161.8,42.6z"/>
				<path class="st14" d="M165.9,45.2c1.9-4,8.5-3.3,9,1.3c0.1,1-0.1,2-0.5,2.9c-0.4,0.9-1.1,1.7-2,2.2c-0.9,0.5-1.9,0.7-2.9,0.5
					c-1-0.1-1.9-0.6-2.7-1.3c-0.7-0.7-1.2-1.6-1.4-2.6C165.3,47.2,165.5,46.1,165.9,45.2L165.9,45.2z"/>
				<path class="st15" d="M180.9,65.1c-0.2,3.5-4.1,6.1-8.8,5.8c-4.7-0.2-8.4-3.3-8.2-6.7c0.2-3.4,4.1-6.1,8.8-5.8
					C177.4,58.7,181.1,61.6,180.9,65.1z"/>
				<path class="st15" d="M113.3,65.1c-0.2,3.5-4.1,6.1-8.8,5.8c-4.7-0.2-8.4-3.3-8.2-6.7c0.2-3.4,4.1-6.1,8.8-5.8
					C109.8,58.7,113.4,61.6,113.3,65.1z"/>
				<path class="st16" d="M136.6,76.1c-1.5,2-3.7,3.4-6.2,3.9c0.6,3.4,1.8,8.7,5.9,8.9c1.3-0.1,2.5-0.6,3.6-1.5
					c1-0.8,1.8-1.9,2.2-3.2c0.4-1.6,1-3.2,1.6-4.7C141,79.4,138.5,78.1,136.6,76.1L136.6,76.1z"/>
				<path class="st17" d="M138.8,89.5c-0.8,0.3-1.6,0.5-2.4,0.6h-0.2c-5.5-0.4-6.6-7.1-7-9.6c0-0.2,0-0.3,0-0.5
					c0-0.2,0.1-0.3,0.2-0.4c0.1-0.1,0.2-0.2,0.3-0.3c0.1-0.1,0.3-0.1,0.4-0.2c0.2,0,0.3,0,0.5,0c0.2,0,0.3,0.1,0.4,0.2
					c0.1,0.1,0.2,0.2,0.3,0.3c0.1,0.1,0.1,0.3,0.2,0.4c0.8,5.1,2.3,7.4,4.7,7.6c1.1-0.1,2.1-0.6,2.9-1.2c0.8-0.7,1.4-1.6,1.7-2.6
					c0.2-0.5,0.3-1.1,0.5-1.6c0.2-1.1,0.6-2.1,1.1-3c0.7-1.2,2.2-0.6,2.2,0.7C144.7,83.6,142,88.2,138.8,89.5z"/>
				<path class="st18" d="M123.5,77.1c-0.5-0.8-0.7-1.5,0.1-1.7c1.3-0.2,2.7,1.2,3.8,1.8c1.5,0.8,3.2,1.2,4.8,0.9
					c2.6-0.4,3-2.6,3.3-4.9c0.1-0.9,0.5-8.8,0.7-9.6c0.3-1.2,1.6-1.6,2.3-0.5c0.2,0.7,0.3,1.4,0.1,2.2c0,0.4-0.3,7.9-0.3,8.4
					c0.2,1.6,0.9,3.4,2.7,3.8c2.2,0.4,3.5-1.4,4.4-3c0.7-1.2,1.8-2.4,2-0.1c0,1.4-0.5,2.8-1.4,3.9c-0.6,0.8-1.4,1.5-2.3,1.9
					c-0.9,0.5-1.9,0.7-2.9,0.7c-0.8-0.1-1.6-0.3-2.3-0.7c-0.7-0.4-1.3-1-1.8-1.7c0.5,0.7-2.9,2.1-3.3,2.2c-1.4,0.4-2.9,0.4-4.4,0.1
					c-1.5-0.3-2.8-0.9-4-1.8C124.6,78.4,124,77.7,123.5,77.1L123.5,77.1z"/>
				<path class="st19" d="M138.5,68.3c0.1-1.5,0.1-2.8,0.1-3c0.1-0.7,0.1-1.5-0.1-2.2c-0.7-1.1-2-0.7-2.3,0.5
					c-0.1,0.4-0.2,2.5-0.4,4.6C136.7,68.5,137.6,68.6,138.5,68.3L138.5,68.3z"/>
				<path class="st20" d="M132.9,43.6c5.4-2,10.4,0.9,15.4,5.7c2.5,2.3,4.8,5.7,3.9,9.3c-0.6,2.1-2,3.8-3.9,4.9
					c-6,3.6-16.6,3.8-22.7,0.3c-7.5-4.3-2.4-12.7,2.2-17C129.3,45.5,131,44.4,132.9,43.6L132.9,43.6z"/>
				<path class="st21" d="M146.8,50.9c-1.5-1.9-4.3-4.5-7-4.3c-2.7,0.2-3.1,3.4-2.7,5.6c0.2,1.4,0.8,2.7,1.6,3.8
					c0.8,1.1,1.9,2,3.2,2.6c1.9,0.9,4.9,1.8,6.5-0.2C150,56.3,148.8,53.4,146.8,50.9z"/>
				<g>
					<defs>
						
							<rect id="SVGID_00000102532318032210391470000000583161527761748111_" x="70.8" y="61.8" transform="matrix(0.9952 -9.791873e-02 9.791873e-02 0.9952 -7.5187 13.3689)" width="123.4" height="43"/>
					</defs>
					<clipPath id="SVGID_00000129172425896105982900000013855159312505794972_">
						<use xlink:href="#SVGID_00000102532318032210391470000000583161527761748111_"  style="overflow:visible;"/>
					</clipPath>
					<g style="clip-path:url(#SVGID_00000129172425896105982900000013855159312505794972_);">
						<path class="st23" d="M127.2,101.9l9.2,0.6l5.2-1.1L128,93.8l-4.4,4L127.2,101.9z"/>
						<path class="st24" d="M80.7,82l-8.4,7.3l53.9,12.5c0,0-4.9-4.3-1.5-5.2L80.7,82z"/>
						<path class="st24" d="M186.5,87.1l7.6,8.1l-54.4,6.7c0,0-0.2-3.7,0.6-4.4L186.5,87.1z"/>
						<path class="st24" d="M138.2,104.3l-12.2-0.6c-0.3,0-0.5-0.1-0.7-0.3c-0.2-0.2-0.3-0.4-0.4-0.6l-0.1-0.3L72,90.9
							c-0.3-0.1-0.6-0.3-0.7-0.5c-0.2-0.3-0.2-0.6-0.1-0.9c0.1-0.3,0.3-0.6,0.5-0.7c0.3-0.2,0.6-0.2,0.9-0.2l53.5,11.8
							c0.2,0,0.4,0.1,0.6,0.3c0.2,0.1,0.3,0.3,0.3,0.5l0.1,0.2l10.4,0.5l0-0.1c0.1-0.2,0.2-0.4,0.4-0.5c0.2-0.1,0.4-0.2,0.6-0.3
							l55.8-6.5c0.2,0,0.3,0,0.5,0c0.2,0,0.3,0.1,0.4,0.2c0.1,0.1,0.2,0.2,0.3,0.4c0.1,0.1,0.1,0.3,0.1,0.4c0,0.2,0,0.3,0,0.5
							c0,0.2-0.1,0.3-0.2,0.4c-0.1,0.1-0.2,0.2-0.4,0.3c-0.1,0.1-0.3,0.1-0.4,0.1l-55,6.5l-0.1,0.3c-0.1,0.2-0.2,0.5-0.5,0.6
							C138.8,104.3,138.5,104.4,138.2,104.3L138.2,104.3z"/>
						<path class="st25" d="M127.8,98.3l-1.9,2c-16.3-3.5-52-17.3-52-17.3l8.2-5.6l48.4,19.7L127.8,98.3z"/>
						<path class="st26" d="M128,98c-13.5-1.1-51.7-21.2-51.7-21.2l6.4-3.7L133,96.5L128,98z"/>
						<path class="st27" d="M138.4,100.9c0,0,43.2-5.1,54.6-11.7l-3.7-11.5c0,0-43.8,19.5-55.7,19.1
							C133.7,96.8,138.1,97.5,138.4,100.9z"/>
						<path class="st27" d="M78.7,72.3c0,0,36.5,25.5,54.5,24.3l0.5-9.8c0,0-28.2-10.4-41.6-21.2L78.7,72.3z"/>
						<path class="st13" d="M189.4,77.6c0,0-38.5,21.9-56.2,19l0.5-9.8c0,0,28.7-7.7,43.1-17.1L189.4,77.6z"/>
						<path class="st28" d="M138.5,101.6c-0.1,0-0.2,0-0.2-0.1c-0.1-0.1-0.1-0.1-0.1-0.2c-0.6-3.5-5.2-4-5.5-4.1
							c-5.3,0-6.2,3.1-6.2,3.2c0,0,0,0.1-0.1,0.1c0,0-0.1,0.1-0.1,0.1c0,0-0.1,0-0.1,0c0,0-0.1,0-0.1,0c0,0-0.1,0-0.1-0.1
							c0,0-0.1-0.1-0.1-0.1c0,0,0-0.1,0-0.1c0,0,0-0.1,0-0.1c0-0.1,1.1-3.6,6.9-3.7l0,0c0.1,0,5.5,0.5,6.1,4.6c0,0,0,0.1,0,0.1
							c0,0,0,0.1-0.1,0.1c0,0-0.1,0.1-0.1,0.1S138.6,101.6,138.5,101.6C138.6,101.6,138.5,101.6,138.5,101.6L138.5,101.6z"/>
						<path class="st29" d="M139.3,99.1c-0.1,0-0.1,0-0.1-0.1c0,0-0.1-0.1-0.1-0.1c0,0,0-0.1,0-0.1c0,0,0-0.1,0-0.1s0,0,0.1-0.1
							c0,0,0.1,0,0.1,0c0.4-0.1,33.6-5.4,49-17.2c0.1,0,0.1-0.1,0.2,0c0.1,0,0.1,0,0.2,0.1c0,0,0,0.1,0,0.1c0,0,0,0.1,0,0.1
							c0,0,0,0.1,0,0.1c0,0,0,0.1-0.1,0.1C173,93.6,139.7,99,139.3,99.1L139.3,99.1z"/>
						<path class="st29" d="M139.5,100.5c-0.1,0-0.1,0-0.2-0.1c0,0-0.1-0.1-0.1-0.2c0-0.1,0-0.1,0.1-0.2c0,0,0.1-0.1,0.2-0.1
							c0.4,0,41-5.3,51.4-12.1c0.1,0,0.1,0,0.2,0c0.1,0,0.1,0,0.2,0.1c0,0.1,0,0.1,0,0.2c0,0.1-0.1,0.1-0.1,0.2
							C180.6,95.1,139.9,100.4,139.5,100.5L139.5,100.5z"/>
						<path class="st30" d="M137.5,94.4c-0.1,0-0.1,0-0.2-0.1s-0.1-0.1-0.1-0.2c0-0.1,0-0.1,0.1-0.2c0,0,0.1-0.1,0.2-0.1
							c14.9,0.1,45.9-17,46.2-17.2c0.1,0,0.1,0,0.2,0c0.1,0,0.1,0.1,0.1,0.1c0,0.1,0,0.1,0,0.2c0,0.1-0.1,0.1-0.1,0.1
							C183.7,77.3,152.6,94.5,137.5,94.4L137.5,94.4z"/>
						<path class="st30" d="M137.6,92.1c-0.1,0-0.1,0-0.2-0.1s-0.1-0.1-0.1-0.2c0-0.1,0-0.1,0.1-0.2c0,0,0.1-0.1,0.2-0.1
							c14.9,0.1,43.8-16.2,44.1-16.3c0,0,0.1,0,0.1,0c0,0,0.1,0,0.1,0c0,0,0.1,0,0.1,0c0,0,0,0,0.1,0.1c0,0,0,0.1,0,0.1
							c0,0,0,0.1,0,0.1c0,0,0,0.1,0,0.1c0,0,0,0-0.1,0.1C181.7,75.8,152.7,92.2,137.6,92.1L137.6,92.1z"/>
						<path class="st30" d="M137.5,90.2c-0.1,0-0.1,0-0.2-0.1c0,0-0.1-0.1-0.1-0.2c0-0.1,0-0.1,0.1-0.2c0,0,0.1-0.1,0.2-0.1
							c15.2-0.2,42.3-15.5,42.6-15.7c0,0,0.1,0,0.1,0c0,0,0.1,0,0.1,0c0,0,0.1,0,0.1,0c0,0,0,0,0.1,0.1c0,0,0,0.1,0,0.1
							c0,0,0,0.1,0,0.1c0,0,0,0.1,0,0.1c0,0,0,0-0.1,0.1C180,74.6,152.8,90,137.5,90.2L137.5,90.2z"/>
						<path class="st30" d="M137.6,88.7c-0.1,0-0.1,0-0.2-0.1c0,0-0.1-0.1-0.1-0.2c0-0.1,0-0.1,0.1-0.2c0,0,0.1-0.1,0.2-0.1
							c14.6-0.8,40.1-15.1,40.4-15.3c0.1,0,0.1,0,0.2,0c0.1,0,0.1,0.1,0.1,0.1c0,0.1,0,0.1,0,0.2c0,0.1-0.1,0.1-0.1,0.1
							C177.9,73.5,152.3,87.9,137.6,88.7L137.6,88.7z"/>
						<path class="st30" d="M137.4,87.3c-0.1,0-0.1,0-0.2-0.1c0,0-0.1-0.1-0.1-0.2c0-0.1,0-0.1,0.1-0.2c0,0,0.1-0.1,0.2-0.1
							c15.5-1.6,38.7-14.7,39-14.8c0.1,0,0.1,0,0.2,0c0.1,0,0.1,0.1,0.1,0.1c0,0.1,0,0.1,0,0.2s-0.1,0.1-0.1,0.1
							C176.3,72.6,153,85.7,137.4,87.3L137.4,87.3z"/>
						<path class="st30" d="M128.7,94c0.1,0,0.1,0,0.2-0.1c0,0,0.1-0.1,0.1-0.2c0-0.1,0-0.1-0.1-0.2c0,0-0.1-0.1-0.2-0.1
							c-14.9-1.3-44-21.4-44.3-21.6c0,0-0.1,0-0.1,0c0,0-0.1,0-0.1,0c0,0-0.1,0-0.1,0c0,0-0.1,0-0.1,0.1c0,0,0,0.1,0,0.1
							c0,0,0,0.1,0,0.1c0,0,0,0.1,0,0.1c0,0,0,0.1,0.1,0.1C84.4,72.5,113.7,92.7,128.7,94L128.7,94z"/>
						<path class="st30" d="M128.8,91.6c0.1,0,0.1,0,0.2-0.1c0,0,0.1-0.1,0.1-0.2c0-0.1,0-0.1-0.1-0.2c0,0-0.1-0.1-0.2-0.1
							C114,89.9,86.9,70.8,86.6,70.6c0,0-0.1,0-0.1,0c0,0-0.1,0-0.1,0c0,0-0.1,0-0.1,0c0,0-0.1,0-0.1,0.1c0,0,0,0.1,0,0.1
							c0,0,0,0.1,0,0.1c0,0,0,0.1,0,0.1c0,0,0,0.1,0.1,0.1C86.6,71.2,113.8,90.3,128.8,91.6L128.8,91.6z"/>
						<path class="st30" d="M129.1,89.8c0.1,0,0.1,0,0.2-0.1c0,0,0.1-0.1,0.1-0.2c0-0.1,0-0.1-0.1-0.2c0,0-0.1-0.1-0.1-0.1
							c-15.1-1.7-40.5-19.5-40.8-19.7c0,0-0.1,0-0.1,0c0,0-0.1,0-0.1,0c0,0-0.1,0-0.1,0c0,0-0.1,0-0.1,0.1c0,0,0,0.1,0,0.1
							c0,0,0,0.1,0,0.1c0,0,0,0.1,0,0.1c0,0,0,0.1,0.1,0.1C88.3,70.2,113.9,88.1,129.1,89.8L129.1,89.8z"/>
						<path class="st30" d="M129.2,88.3c0.1,0,0.1,0,0.2-0.1s0.1-0.1,0.1-0.1c0-0.1,0-0.1,0-0.2c0-0.1-0.1-0.1-0.2-0.1
							c-14.4-2.2-38.4-18.9-38.6-19.1c-0.1,0-0.1,0-0.2,0c-0.1,0-0.1,0-0.1,0.1c0,0,0,0.1,0,0.2c0,0.1,0,0.1,0.1,0.1
							C90.6,69.2,114.6,86,129.2,88.3L129.2,88.3z"/>
						<path class="st30" d="M129.5,86.9c0.1,0,0.1,0,0.2-0.1c0,0,0.1-0.1,0.1-0.1c0-0.1,0-0.1,0-0.2c0,0-0.1-0.1-0.1-0.1
							C114.3,83.3,92.5,68.1,92.3,68c0,0-0.1,0-0.1,0c0,0-0.1,0-0.1,0c0,0-0.1,0-0.1,0c0,0-0.1,0-0.1,0.1c0,0,0,0.1,0,0.1
							c0,0,0,0.1,0,0.1c0,0,0,0.1,0,0.1c0,0,0,0.1,0.1,0.1C92.2,68.5,114.1,83.8,129.5,86.9L129.5,86.9L129.5,86.9z"/>
					</g>
				</g>
				<path class="st5" d="M56.7,132.5c-1.2,1.4-2.3,2.9-3.2,4.6c9.5,4.1,19.9,5.7,30.2,4.8c4.8-5.6,8.4-12.1,10.8-19.1
					c4-12.3,5.9-28.9-4.3-38.8c-1.3-1.3-2.3-2.4-4.2-2.5c-0.3,0-3.3,0.3-2.6,1c-0.6-0.7-1.3-1.3-2.2-1.7c-0.8-0.4-1.7-0.6-2.7-0.5
					c-0.9,0.1-1.8,0.5-2.4,1.1c-0.7,0.6-1.1,1.5-1.3,2.4c-5-2.2-7.9,3.4-8.2,7.9c-0.4,4.5,1,8.9,1.6,13.3c0.1,0.6,0.2,1.3,0.2,1.9
					c0.3,5.2-0.9,10.4-3.6,14.8C62.4,125.5,59.7,129.1,56.7,132.5L56.7,132.5z"/>
				<path class="st5" d="M214.9,132.3c1.3,1.4,2.4,3,3.3,4.7c-9.8,4.1-20.4,5.8-30.9,4.8c-4.9-5.7-8.6-12.3-11.1-19.5
					c-4.1-12.6-6.1-29.4,4.4-39.5c1.3-1.3,2.4-2.5,4.3-2.6c0.3,0,3.4,0.3,2.7,1c0.6-0.7,1.4-1.3,2.2-1.7c0.9-0.4,1.8-0.6,2.7-0.5
					c0.9,0.1,1.8,0.5,2.5,1.1c0.7,0.6,1.2,1.5,1.4,2.4c5.2-2.2,8.1,3.4,8.4,8c0.4,4.6-1,9-1.6,13.6c-0.1,0.7-0.2,1.3-0.2,2
					c-0.3,5.3,0.9,10.6,3.7,15.1C209,125.2,211.8,128.9,214.9,132.3z"/>
			</g>
		</g>
	</g>
</g>
</svg>
