<svg width="160" height="147" viewBox="0 0 160 147" fill="none" xmlns="http://www.w3.org/2000/svg">
<g clip-path="url(#clip0_1_1140)">
<path d="M27.5609 17.9096C37.1575 7.7682 51.496 3.58906 65.7343 5.61669C83.8145 8.19233 101.435 19.2733 111.288 34.7668C122.064 51.7157 126.374 80.6967 115.146 98.4139C111.772 103.744 106.635 107.454 103.144 112.679C98.6898 119.344 99.2113 129.777 106.984 133.681C111.073 135.742 118.482 135.901 119.032 130.132C119.438 125.926 115.796 122.092 116.34 117.884C117.02 112.661 120.285 108.181 123.639 104.315C125.463 102.208 127.609 100.204 130.158 99.0106C131.051 98.5911 137.246 98.027 137.262 98.0286C131.674 105.618 139.244 116.847 135.844 125.669C139.837 124.87 142.959 128.821 146.391 131.035C151.432 134.298 157.92 133.846 163.878 133.276C161.988 136.702 159.428 139.71 156.353 142.12C153.277 144.53 149.749 146.292 145.98 147.3C142.2 148.267 138.266 148.458 134.412 147.86C130.559 147.263 126.866 145.889 123.555 143.822C123.367 143.704 114.507 148.445 113.41 148.811C109.716 150.015 105.929 150.906 102.088 151.476C82.3046 154.636 60.3664 151.277 44.4644 138.384C29.9221 126.594 21.63 108.962 17.66 90.9138C12.6634 68.3053 10.2946 36.1672 27.5609 17.9096Z" fill="#B6C4DB"/>
<path d="M31.4346 14.3387C40.7962 6.8078 53.3024 3.84646 65.7343 5.61669C83.8145 8.19232 101.435 19.2733 111.288 34.7668C122.064 51.7157 126.374 80.6967 115.146 98.4139C111.772 103.744 106.635 107.454 103.144 112.679C98.6899 119.344 99.2113 129.777 106.984 133.681C111.073 135.742 118.482 135.901 119.032 130.132C119.286 127.495 117.987 125.137 117.14 122.727C115.35 117.655 117.302 112.321 120.262 108.129C122.619 104.8 125.411 101.603 129.089 99.7186C130.418 99.0075 131.888 98.6008 133.392 98.5277C133.642 98.513 134.039 98.529 134.497 98.5398C134.188 98.9879 133.857 99.4337 133.586 99.8965C127.611 108.854 119.261 119.776 126.958 130.784C131.393 137.806 141.803 135.876 147.749 142.315C140.029 146.704 132.56 140.852 124.461 141.538C124.881 142.449 124.96 143.482 124.684 144.448C124.312 144.234 123.94 144.015 123.575 143.786C123.388 143.667 114.527 148.408 113.43 148.774C109.736 149.978 105.949 150.869 102.108 151.439C91.3219 153.217 80.2953 152.872 69.6435 150.421C70.8506 133.016 82.6225 114.251 89.2673 97.5977C104.493 58.1443 67.7335 26.8363 31.4346 14.3387Z" fill="#B6C4DB"/>
<path d="M28.2183 19.4119C30.579 18.356 33.1266 17.7872 35.7097 17.7394C40.8919 17.5833 45.9484 19.4205 50.5322 21.8566C73.0057 33.783 85.7424 61.7261 80.0527 86.6101C77.6035 97.3292 72.2054 107.131 68.9533 117.628C67.2387 122.88 66.3985 128.379 66.4664 133.905C66.5647 137.247 70.3525 145.245 69.3406 147.881C67.0058 154.084 47.7036 140.996 44.4402 138.348C29.8979 126.558 21.6057 108.927 17.6357 90.8781C14.0694 74.6684 7.83691 28.7751 28.2183 19.4119Z" fill="#EDEDED"/>
<path d="M48.9034 92.0914C49.4183 87.603 50.4767 83.1941 52.0551 78.9623C53.0258 76.467 56.0289 74.4676 58.295 76.7859C59.3027 77.8108 59.8192 80.1438 61.6013 79.8489C62.9053 79.6357 63.9505 77.8032 64.2016 76.633C64.5741 74.8912 64.2615 73.0833 64.4088 71.3253C64.5986 68.1184 65.0059 64.9282 65.6277 61.7766C66.9123 55.9672 70.0885 51.1957 76.4157 50.6388C81.2541 61.9158 82.7991 74.5864 80.0598 86.5942C77.6105 97.3133 72.2125 107.115 68.9603 117.612C67.2458 122.864 66.4056 128.363 66.4734 133.889C66.5353 136.117 67.7317 138.054 68.0284 140.199C68.3251 142.345 66.0424 143.586 64.1805 144.306C60.6613 145.634 56.3528 145.679 53.4754 143.274C51.6595 141.738 50.6615 139.465 49.8423 137.23C48.3907 133.476 47.5383 129.515 47.3166 125.493C47.1864 121.103 48.5263 116.843 48.3413 112.448C48.0901 105.985 48.0337 98.9351 48.9034 92.0914Z" fill="#D6D6D6"/>
<path d="M20.879 102.518C19.592 98.6997 18.5112 94.8143 17.6412 90.8787C17.0558 88.228 16.4037 84.7763 15.8053 80.8244C26.3606 78.3584 37.609 70.3649 41.3922 77.0903C48.2544 89.6401 35.1416 99.4705 20.879 102.518Z" fill="#D6D6D6"/>
<path d="M81.6023 46.3611C79.0528 48.4764 78.9805 52.6137 81.4356 55.6113C83.8908 58.6089 87.9601 59.3233 90.5091 57.2134C93.0581 55.1036 93.1309 50.9608 90.6752 47.9687C88.2195 44.9766 84.1513 44.2512 81.6023 46.3611Z" fill="#D16966"/>
<path d="M63.301 38.2143C63.8202 38.1088 64.119 37.8209 63.9478 37.2433C63.7256 36.4497 60.3167 36.2879 59.4915 35.9528C58.5034 35.5883 57.6288 34.9682 56.9562 34.1552C56.2837 33.3422 55.837 32.3651 55.6613 31.3228C55.6336 31.155 55.5541 31.0002 55.4341 30.8802C55.3142 30.7601 55.1597 30.681 54.9925 30.6538C54.8253 30.6267 54.6537 30.6529 54.5021 30.7288C54.3504 30.8046 54.2262 30.9264 54.147 31.0769C54.0269 31.4383 54.03 31.8296 54.156 32.1888C54.4523 33.3038 54.9912 34.3386 55.7338 35.219C56.4764 36.0994 57.4044 36.8034 58.4508 37.2802C58.9918 37.5213 61.9309 38.4823 63.301 38.2143Z" fill="#160100"/>
<path d="M43.4939 7.69001L43.6711 7.74594C46.1234 8.6489 45.9657 12.6391 44.8811 14.479C43.1794 17.326 39.1184 18.0179 35.7974 16.0257C34.6272 15.3316 33.6568 14.3441 32.9811 13.16C34.9432 11.3991 40.6266 6.9026 43.4939 7.69001Z" fill="#D16966"/>
<path d="M94.1454 34.1759C94.7828 29.0542 90.4385 23.7302 84.5612 23.8082C78.684 23.8863 74.7755 29.9427 76.1985 35.4407C77.9873 42.3684 86.7468 43.8403 91.6027 39.1473C93.0016 37.8382 93.901 36.0796 94.1454 34.1759V34.1759Z" fill="white"/>
<path d="M89.2993 32.6811C89.7423 26.2463 80.696 23.6746 77.2196 30.7004C74.7042 35.7911 81.035 40.4789 85.4686 38.3895C86.539 37.8451 87.4529 37.0346 88.1235 36.0354C88.794 35.0362 89.1988 33.8814 89.2993 32.6811Z" fill="#160100"/>
<path d="M65.1171 15.6957C65.6475 11.397 62.0013 6.92362 57.0709 6.99291C52.1405 7.06221 48.8294 12.1429 50.0436 16.7653C51.5466 22.5821 58.9016 23.8187 62.9845 19.8568C64.153 18.7587 64.9066 17.2882 65.1171 15.6957Z" fill="white"/>
<path d="M60.9984 14.1155C61.0467 13.3255 60.8932 12.5363 60.5524 11.8229C60.2116 11.1095 59.6948 10.4955 59.0511 10.0392C55.9405 7.8728 52.1354 9.92824 50.7647 13.1294C48.8277 17.6147 54.3415 21.2515 58.0037 19.2434C58.8939 18.7125 59.6355 17.9635 60.1593 17.0667C60.683 16.1699 60.9717 15.1545 60.9984 14.1155V14.1155Z" fill="#160100"/>
<path d="M109.595 54.2306C109.548 51.6206 110.432 49.1615 112.343 49.5957C115.05 50.212 116.094 53.3903 116.165 55.8637C116.207 57.7788 115.371 59.9704 113.135 59.7494C110.866 60.2195 109.653 57.1305 109.595 54.2306Z" fill="#A2B5CC"/>
<path d="M103.896 60.1534C108.393 57.8091 108.845 65.9135 107.347 68.3745C104.271 73.4279 99.0994 62.6799 103.896 60.1534Z" fill="#A2B5CC"/>
<path d="M116.881 77.6596C119.045 75.0072 121.239 85.0793 118.268 86.6263C113.625 89.0565 114.791 80.2303 116.881 77.6596Z" fill="#A2B5CC"/>
<path d="M117.239 63.8391C118.979 63.0013 121.612 64.7828 120.688 69.038C119.763 73.2931 116.646 71.4872 115.946 68.4144C115.372 65.8703 116.143 64.3557 117.239 63.8391Z" fill="#A2B5CC"/>
<path d="M109.458 71.9612C110.237 67.9531 115.126 74.3907 111.631 76.6815C109.458 78.0999 108.965 74.3747 109.458 71.9612Z" fill="#A2B5CC"/>
<path d="M15.3524 95.8579L63.7065 112.312L77.0106 57.6126C77.2993 56.4205 77.1051 55.1626 76.4706 54.115C75.8361 53.0674 74.8132 52.3159 73.6266 52.0256L30.0846 41.3798C29.8993 41.3313 29.7064 41.3204 29.5169 41.3478C29.3273 41.3752 29.1451 41.4404 28.9809 41.5395C28.8168 41.6385 28.674 41.7695 28.5609 41.9247C28.4478 42.0799 28.3667 42.2562 28.3224 42.4432L15.3524 95.8579Z" fill="#F7652B"/>
<path d="M14.6101 100.058C15.1683 97.7678 15.9131 94.5175 14.8018 94.6826C15.0745 94.6845 15.3448 94.7331 15.6011 94.8263L58.4516 105.3C59.8641 105.657 61.0778 106.561 61.8269 107.815C62.576 109.069 62.7995 110.57 62.4485 111.99L62.3549 112.387L14.4406 100.67L14.6101 100.058Z" fill="#FFFCF0"/>
<path d="M14.4202 100.823L14.4335 100.686L62.3479 112.403L62.257 112.772C62.0896 113.479 61.7849 114.147 61.3603 114.736C60.9358 115.326 60.3998 115.825 59.7829 116.206C59.166 116.588 58.4804 116.843 57.7653 116.958C57.0502 117.073 56.3197 117.045 55.6155 116.876L12.7655 106.397C12.0844 106.232 12.8641 106.179 12.3198 105.799C13.4462 105.363 13.7944 103.413 14.4202 100.823Z" fill="#EDEDED"/>
<path d="M61.3716 111.109C61.8763 109.03 60.4562 106.888 58.2002 106.359L15.3503 95.88C15.1916 95.8494 15.0406 95.7875 14.9059 95.698C14.7713 95.6085 14.6557 95.493 14.5658 95.3583C14.4759 95.2236 14.4135 95.0723 14.3822 94.9132C14.3509 94.754 14.3513 94.5903 14.3834 94.4313C14.4752 94.1197 14.6855 93.8571 14.9689 93.7003C15.2523 93.5435 15.5858 93.5052 15.897 93.5938L58.7529 104.068C62.3724 104.972 64.654 108.392 63.8389 111.741L63.7557 112.089L61.2802 111.483L61.3716 111.109Z" fill="#3873B4"/>
<path d="M13.3452 104.114L56.1957 114.588C58.4496 115.138 60.6868 113.91 61.1991 111.809L61.2879 111.462L63.7633 112.067L63.68 112.415C62.8649 115.764 59.2591 117.761 55.6375 116.878L12.7875 106.399C12.6294 106.369 12.4788 106.307 12.3445 106.218C12.2103 106.129 12.0949 106.014 12.005 105.88C11.9151 105.746 11.8525 105.595 11.8208 105.437C11.7891 105.278 11.7888 105.115 11.8201 104.956C11.8644 104.8 11.9392 104.654 12.04 104.527C12.1409 104.399 12.2659 104.294 12.4077 104.215C12.5496 104.137 12.7055 104.088 12.8664 104.07C13.0273 104.053 13.1901 104.068 13.3452 104.114Z" fill="#3873B4"/>
<path d="M58.9009 103.91C58.9954 103.934 59.0936 103.939 59.19 103.924C59.2864 103.91 59.3789 103.876 59.4621 103.825C59.5453 103.774 59.6176 103.707 59.6747 103.627C59.7317 103.548 59.7725 103.458 59.7945 103.363L71.8708 53.7118C71.9177 53.5211 71.8872 53.3196 71.7862 53.1516C71.6852 52.9835 71.5218 52.8626 71.332 52.8155C71.1407 52.7684 70.9385 52.7996 70.77 52.9021C70.6014 53.0046 70.4801 53.17 70.4329 53.3621L58.3567 103.013C58.3335 103.108 58.3291 103.206 58.3439 103.303C58.3587 103.399 58.3924 103.492 58.443 103.575C58.4936 103.659 58.5601 103.731 58.6386 103.789C58.7172 103.846 58.8064 103.887 58.9009 103.91V103.91Z" fill="#E25220"/>
<path d="M53.3157 85.8457L28.5575 79.7928C28.0566 79.6704 27.6249 79.3531 27.3572 78.9109C27.0896 78.4686 27.008 77.9376 27.1304 77.4346L32.3798 55.8528C32.5022 55.3498 32.8184 54.916 33.2591 54.6469C33.6997 54.3779 34.2286 54.2955 34.7295 54.418L57.5298 59.9922C58.0342 60.1155 58.5094 60.3374 58.9283 60.6452C59.3471 60.953 59.7015 61.3406 59.971 61.786C60.2405 62.2314 60.4201 62.7258 60.4993 63.2411C60.5785 63.7563 60.5558 64.2822 60.4326 64.7888L55.6614 84.4042C55.5391 84.9072 55.2228 85.3409 54.7821 85.61C54.3415 85.8791 53.8125 85.9615 53.3117 85.839L53.3157 85.8457Z" fill="#F6F6F6"/>
<path d="M54.1691 72.5829C54.2752 71.4821 55.553 70.9663 56.6421 70.8602C61.3937 70.407 65.8228 73.4726 68.9174 77.1263C72.8265 81.7417 75.4016 87.5119 80.3227 91.2138C82.9042 93.1291 91.3892 95.6134 91.3663 99.5833C91.3433 104.242 80.4429 106.041 77.1579 106.43C71.4393 107.101 65.4506 106.269 60.545 103.096C59.2831 102.38 58.2371 101.335 57.5171 100.071C57.0322 98.9171 56.7757 97.6791 56.7619 96.4263C56.4256 91.9941 56.3002 87.5544 56.3858 83.1073C56.4268 80.1558 56.5142 77.0088 54.9637 74.4983C54.5788 73.9002 54.1073 73.2825 54.1691 72.5829Z" fill="#B6C4DB"/>
<path d="M14.3984 67.8671C14.0517 68.7669 14.8711 69.6792 15.6718 70.2119C17.1059 71.1601 18.7214 71.7973 20.4152 72.083C22.1089 72.3687 23.8437 72.2964 25.5087 71.8709C27.3527 71.3931 29.0556 70.485 30.8797 69.9275C33.7872 69.1006 36.8744 69.1689 39.7414 70.1236C42.6085 71.0784 45.1233 72.8756 46.9604 75.2826C47.7377 76.9185 46.5299 78.7743 45.321 80.1244C38.8723 87.2804 26.3681 98.4305 16.5823 91.3044C13.2736 88.8967 10.7245 84.7512 9.84831 80.4669C8.87862 75.7181 9.99055 70.781 14.3984 67.8671Z" fill="#B6C4DB"/>
</g>
<defs>
<clipPath id="clip0_1_1140">
<rect width="159.079" height="175.442" fill="white" transform="translate(16.8289 0.853851) rotate(5.50444)"/>
</clipPath>
</defs>
</svg>
