<?xml version="1.0" encoding="utf-8"?>
<!-- Generator: Adobe Illustrator 27.0.0, SVG Export Plug-In . SVG Version: 6.00 Build 0)  -->
<svg version="1.1" id="圖層_1" xmlns="http://www.w3.org/2000/svg" xmlns:xlink="http://www.w3.org/1999/xlink" x="0px" y="0px"
	 viewBox="0 0 265 180" style="enable-background:new 0 0 265 180;" xml:space="preserve">
<style type="text/css">
	.st0{clip-path:url(#SVGID_00000134228221406781172930000002778461828346412457_);}
	.st1{clip-path:url(#SVGID_00000143618472224599743010000009087614234131168165_);}
	.st2{fill:#8AA2BA;}
	.st3{fill:#617884;}
	.st4{opacity:0.81;fill:#F4FCFB;enable-background:new    ;}
	.st5{fill:#AA6944;}
	.st6{fill:#B7784E;}
	.st7{fill:#9E704E;}
	.st8{fill:#A0603D;}
	.st9{fill:#DCC3C4;}
	.st10{fill:#BF5656;}
	.st11{fill:#D16966;}
	.st12{fill:#64574D;}
	.st13{fill:#FFFFFF;}
	.st14{fill:#160100;}
	.st15{fill:#D3A9AC;}
	.st16{fill:#B5C5DB;}
	.st17{fill:#A2B5CC;}
	.st18{fill:#8BA1B7;}
	.st19{fill:#7B95AA;}
	.st20{opacity:0.87;fill:#F4FCFB;enable-background:new    ;}
	.st21{opacity:0.94;fill:#F4FCFB;enable-background:new    ;}
	.st22{fill:#698093;}
	.st23{clip-path:url(#SVGID_00000002369427790976564090000000630839000933280695_);}
	.st24{fill:#7ED5CC;}
	.st25{fill:#FFFCF0;}
	.st26{fill:#EDEDED;}
	.st27{fill:#EEB231;}
	.st28{fill:#52CEBF;}
	.st29{fill:#386EB9;}
	.st30{fill:#5E3122;}
	.st31{fill:#7C462E;}
	.st32{opacity:0.75;fill:#F4FCFB;enable-background:new    ;}
</style>
<g>
	<defs>
		<rect id="SVGID_1_" x="-1" y="0.3" width="266" height="179.7"/>
	</defs>
	<clipPath id="SVGID_00000002381789442664760510000009697449305204627383_">
		<use xlink:href="#SVGID_1_"  style="overflow:visible;"/>
	</clipPath>
	<g style="clip-path:url(#SVGID_00000002381789442664760510000009697449305204627383_);">
		<g>
			<defs>
				<rect id="SVGID_00000106125870051192680610000015891887578910964159_" x="10" y="4" width="280" height="196"/>
			</defs>
			<clipPath id="SVGID_00000130626782897365549320000002195475749438950531_">
				<use xlink:href="#SVGID_00000106125870051192680610000015891887578910964159_"  style="overflow:visible;"/>
			</clipPath>
			<g style="clip-path:url(#SVGID_00000130626782897365549320000002195475749438950531_);">
				<path class="st2" d="M116.9,82.1c64.2,6.3,150.8,1.3,150.8,1.3S289,85.9,290,93.6c-3,1.1-6.1,1.7-9.3,1.9
					c-22.3,3.7-44.6,0-66.9,0c-63.5-1.2-128.2,15.5-191.7-4.1c0.9-0.8,1.9-1.5,3-2.2C25.1,89.1,52.7,75.8,116.9,82.1z"/>
				<path class="st3" d="M213.8,95.4c-60.5-1.2-122,13.9-182.6-1.5c0-0.2,0-0.3,0-0.5c0,0-8.4-9.2,65.8-7.3
					c74.2,1.9,171.3,2,171.3,2s16.3,1.2,12.8,7.3h-0.3C258.4,99.1,236,95.4,213.8,95.4z"/>
				<path class="st4" d="M113.5,101.8c8.2,0,14.8-6.6,14.8-14.7c0-8.1-6.6-14.7-14.8-14.7s-14.8,6.6-14.8,14.7
					C98.8,95.2,105.4,101.8,113.5,101.8z"/>
				<path class="st4" d="M88.3,100.1c9.6,0,17.4-7.8,17.4-17.3s-7.8-17.3-17.4-17.3c-9.6,0-17.4,7.8-17.4,17.3
					S78.7,100.1,88.3,100.1z"/>
				<path class="st4" d="M65.4,105.1c7.5-1.8,12.1-9.2,10.3-16.7C74,81,66.5,76.4,59.1,78.1c-7.5,1.8-12.1,9.2-10.3,16.7
					C50.5,102.3,58,106.9,65.4,105.1z"/>
				<path class="st5" d="M253.1,32.3c1.3,0.1,2.6,0.3,3.8,0.6c3,5.7,4.3,12.2,3.7,18.6c-1.7-1.9-4.1-3.1-6.6-3.5
					c-4.3-0.5-8.7-3.7-9.4-8.2C243.9,34.3,248.3,32,253.1,32.3z"/>
				<path class="st6" d="M256.9,32.9c3.1,0.8,6,2.1,8.7,3.9c4,2.6,6.9,6.4,8.5,10.9c1.1,3.6,0.8,11.2-4.2,11.8
					c-3.6,0.4-5.9-4.1-7.8-6.4c-0.5-0.6-1-1.1-1.5-1.6C261.2,45,259.9,38.6,256.9,32.9z"/>
				<path class="st7" d="M117.5,42.1c2.8-0.2,5.5-0.6,8.2-1.2c14.3-3,25.1-13.5,37.5-20.3c28.7-15.9,64.1-21.8,84.8,10
					c13.4,20.7,18.8,52.4-5.2,67.6c-16.4,10.3-36.1,11.2-54.8,9.1c-17.7-2-35.7-5.5-53.4-8.5c-17.8-3-36-4.9-53.8-8.2
					c-12.6-2.3-27.1-5-36.1-14.9c-7.8-8.6-10.7-20.6-1.9-29.9c9.3-9.8,22.8-10.5,35.4-7.9C90.7,40.5,104.4,43.1,117.5,42.1z"/>
				<path class="st8" d="M125.4,75.4c30.3-0.1,57.8-8.8,88.1-17.3c13.8-3.7,32.3-3.2,45.7,3.5c1.4,14.2-2.8,28.1-16.4,36.7
					c-16.4,10.3-36.1,11.2-54.8,9.1c-17.7-2-35.7-5.5-53.4-8.5c-17.8-3-36-4.9-53.8-8.2c-12.6-2.3-27.1-5-36.1-14.9
					c-6.7-7.4-9.8-17.3-4.9-25.8C57.2,74.3,97,76,125.4,75.4z"/>
				<path class="st6" d="M78.3,37.9c12.7,2.6,26.2,5.3,39.3,4.2c2.8-0.2,5.5-0.6,8.2-1.2c14.3-3,25.1-13.5,37.5-20.3
					c28.7-15.9,64.1-21.8,84.8,10c6.1,9.3,9.9,19.8,11.2,30.8c-13.5-6.7-31.9-7.2-45.7-3.5c-30.3,8.6-57.8,17.2-88.1,17.3
					C97,76,57.2,74.3,39.8,49.8c0.9-1.5,1.9-2.9,3.1-4.1C52.2,35.9,65.7,35.3,78.3,37.9z"/>
				<path class="st9" d="M41.9,53.1c3-6.2,9.5-9,16.4-8.9c7.8,0.2,15.2,3.2,20.9,8.5c0.9-0.4,1.9-0.6,2.8-0.8c2.3-0.4,4.6-0.6,7-0.8
					c8.5-0.7,18.6,1.8,24.2,8.5c4.4,5.3,5.7,13.7,2.1,19.7c-3.6,5.9-11,7.6-17.5,8.3c-12.4,1.3-28-0.6-39.2-6.5
					c-5.5-2.9-11-6-14.8-10.9c-1.9-2.4-3.1-5.3-3.4-8.3C40.2,58.9,40.7,55.9,41.9,53.1z"/>
				<path class="st10" d="M80.3,66.8c-3.4-1.1-7-1.9-10.6-2.5c-3.5-0.4-4.2,3.3-2.4,5.8c2.9,4.1,9.8,6.1,14.5,3.3
					c0.5-0.3,1-0.6,1.4-1.1c0.4-0.5,0.6-1,0.8-1.6C84.3,68.7,82.2,67.4,80.3,66.8z"/>
				<path class="st10" d="M74.5,68.2c0,0,0.1-0.1,0.1-0.2c0.4-0.8,0.4-2.7-0.9-3c2.2,0.5,4.4,1.1,6.6,1.8c1.9,0.6,4,1.9,3.7,4
					c-0.1,0.6-0.4,1.1-0.8,1.6c-0.4,0.5-0.8,0.8-1.4,1.1c-4.7,2.8-11.6,0.8-14.5-3.3c-0.4-0.5-0.6-1.1-0.8-1.8
					c0.1,0.4,1.8,1.1,2.2,1.2C70.8,70.6,73.2,70.4,74.5,68.2z"/>
				<path class="st11" d="M70,65.1c0.3,0,0.7,0,1,0c0.8,0,1.6,0.3,2.3,0.7c1.5,1.4-0.4,3.5-1.9,3.7c-1.3,0.2-4.2-0.7-4-2.4
					C67.5,65.6,68.7,65.1,70,65.1z"/>
				<path class="st12" d="M95.6,76.9c-3.2,1.4-6.6,2.4-10.1,3c-3.5,0.6-7,0.8-10.5,0.4c-3.5-0.4-6.9-1.4-10-2.9
					c-3.1-1.6-6-3.6-8.5-6.1c0,0-0.1,0-0.1-0.1c0,0-0.1,0-0.1,0c0,0-0.1,0-0.1,0c0,0-0.1,0-0.1,0.1c0,0.1-0.1,0.1-0.1,0.2
					s0,0.1,0.1,0.2c4.8,5.5,11.5,8.9,18.8,9.6c3.6,0.4,7.2,0.2,10.7-0.5c3.5-0.6,7-1.7,10.2-3.3c0,0,0.1,0,0.1-0.1
					c0,0,0-0.1,0.1-0.1c0,0,0-0.1,0-0.1c0,0,0-0.1,0-0.1c0-0.1-0.1-0.1-0.2-0.1C95.8,76.9,95.7,76.9,95.6,76.9L95.6,76.9z"/>
				<path class="st13" d="M105.4,64c0-0.3-0.1-0.5-0.2-0.8c-1.3-4.5-7.2-4.4-8.6,0.2c-0.7,2.2-0.3,4.9,1.1,6.4c0.4,0.4,1,0.8,1.5,1
					c0.6,0.2,1.2,0.3,1.8,0.3c0.6,0,1.2-0.2,1.8-0.5c0.5-0.3,1-0.7,1.4-1.1c0.6-0.8,1-1.7,1.2-2.6C105.6,65.9,105.6,64.9,105.4,64z"
					/>
				<path class="st14" d="M103.4,64.8c-0.1-0.7-0.4-1.4-1-1.9c-0.5-0.5-1.2-0.8-2-0.9c-0.7,0-1.5,0.2-2.1,0.6
					c-0.6,0.4-1,1.1-1.2,1.8C97,65.1,96.9,66,97,66.7c0.1,0.8,0.5,1.5,1,2.1c0.3,0.3,0.7,0.5,1.1,0.7c0.4,0.2,0.8,0.2,1.3,0.2
					s0.9-0.1,1.2-0.3c0.4-0.2,0.7-0.5,1-0.8c0.4-0.5,0.7-1.2,0.8-1.8C103.5,66.1,103.5,65.4,103.4,64.8z"/>
				<path class="st13" d="M61,56.2c0-0.3,0-0.5,0-0.8c-0.5-4.6-6.3-5.6-8.5-1.2c-1,2-1.2,4.7,0,6.5c0.4,0.5,0.8,0.9,1.3,1.2
					c0.5,0.3,1.1,0.5,1.7,0.6c0.6,0.1,1.2,0,1.8-0.2c0.6-0.2,1.1-0.5,1.6-0.9c0.7-0.7,1.2-1.5,1.6-2.4C60.8,58.1,61,57.1,61,56.2z"
					/>
				<path class="st14" d="M58.9,56.6c0.1-0.7-0.2-1.5-0.6-2.1c-0.4-0.6-1.1-1-1.8-1.2c-0.7-0.2-1.5-0.1-2.2,0.3
					c-0.7,0.3-1.2,0.9-1.5,1.6c-0.4,0.7-0.6,1.5-0.6,2.3c0,0.8,0.2,1.6,0.6,2.3c0.3,0.4,0.6,0.6,0.9,0.9c0.4,0.2,0.8,0.4,1.2,0.4
					c0.4,0,0.9,0,1.3-0.1c0.4-0.1,0.8-0.3,1.1-0.6c0.5-0.5,0.9-1,1.1-1.7C58.7,58,58.9,57.3,58.9,56.6z"/>
				<path class="st15" d="M76.8,83.9c-0.8,0.2-1.6,0.3-2.5,0.3c-0.8,0-1.6-0.1-2.4-0.3c-0.8-0.2-1.6-0.5-2.3-0.9
					c-0.7-0.4-1.5-0.8-2.1-1.3c0,0,0,0-0.1,0c0,0-0.1,0-0.1,0c0,0-0.1,0-0.1,0c0,0,0,0-0.1,0.1c0,0,0,0.1,0,0.1c0,0,0,0.1,0,0.1
					c0.3,0.3,0.6,0.6,1,0.8c0.4,0.3,0.7,0.5,1.1,0.7c0.8,0.4,1.6,0.8,2.5,1c1.7,0.4,3.5,0.3,5.1-0.4c0,0,0,0,0.1-0.1
					c0,0,0-0.1,0-0.1C76.9,83.9,76.9,83.9,76.8,83.9C76.8,83.9,76.8,83.9,76.8,83.9L76.8,83.9z"/>
				<path class="st11" d="M97.6,75.8c0,2,2.4,3.7,5.2,3.7c2.8,0,5.1-1.8,5.1-3.8c0-2.1-2.4-3.7-5.2-3.7C99.9,72,97.6,73.7,97.6,75.8
					z"/>
				<path class="st11" d="M46.8,64.4c-0.9,1.9,0.6,4.4,3.2,5.5c2.6,1.2,5.4,0.6,6.2-1.4c0.9-1.9-0.6-4.4-3.2-5.5
					C50.4,61.9,47.6,62.5,46.8,64.4z"/>
				<path class="st8" d="M177.5,22.9c3.7,0.7,8.2-1.6,9.1-4.6c0.6-1.9-1.6-3.1-3.9-3.1c-2.2-0.2-4.3,0.3-6.2,1.5
					C173.4,18.8,173.9,22.2,177.5,22.9z"/>
				<path class="st8" d="M224.4,14.5c-1.5-1.7-4-2.5-6.6-2.7c-3-0.5-6.8,0.2-8.9,2c-2.1,1.8-1.3,3.7,0,5.3c1.5,1.9,4.1,2.9,7,3.3
					c1.4,0.2,2.8,0.1,4.2-0.3c1.4-0.4,2.6-1.1,3.7-2C225.9,18.4,226,16.3,224.4,14.5z"/>
				<path class="st8" d="M151.4,30.2c-1.9-1.2-4.5-1.2-7.1-0.7c-1.6,0.2-3.1,0.7-4.4,1.4s-2.5,1.8-3.5,3c-1.4,2.2-0.2,3.9,1.5,5.1
					c2,1.4,4.7,1.6,7.6,1.2c1.4-0.2,2.8-0.7,4-1.5c1.2-0.8,2.2-1.8,3-2.9C154,33.6,153.4,31.5,151.4,30.2z"/>
				<path class="st8" d="M178.2,31.1c-1.7-1-4.2-1-6.8-0.6c-3.1,0.3-6,1.6-8.3,3.6c-1.7,1.8-0.7,3.2,0.7,4.2c1.7,1.2,4.3,1.3,7.2,1
					c2.8-0.3,5.4-1.6,7.4-3.6C180.2,33.9,180,32.2,178.2,31.1z"/>
				<path class="st8" d="M203,4.7c-1.7-0.8-3.7-0.9-5.5-0.5c-2.5,0.2-4.9,1.3-6.8,3c-1.4,1.5-0.6,2.6,0.6,3.4
					c1.4,0.9,3.5,1.1,5.9,0.8c2.3-0.3,4.4-1.3,6-2.9C204.6,6.9,204.5,5.5,203,4.7z"/>
				<path class="st8" d="M200.2,25.3c-0.1-0.1-0.3-0.2-0.5-0.3c-0.5-0.1-0.9-0.2-1.4-0.3c-0.5,0-1,0.1-1.4,0.4c-0.4,0.2-0.8,0.6-1,1
					c-1.2,1.7,0.2,3.7,1.7,4.6c1.9,1.1,4-0.3,4.4-2.2c0.2-0.7,0.1-1.3-0.2-1.9C201.4,25.9,200.9,25.5,200.2,25.3z"/>
				<path class="st8" d="M163.2,18.8c-0.1-0.1-0.3-0.2-0.5-0.3c-0.5-0.2-0.9-0.2-1.4-0.3c-0.5,0-1,0.1-1.4,0.4s-0.8,0.6-1,1
					c-1.2,1.7,0.2,3.7,1.7,4.6c1.9,1.1,3.9-0.3,4.4-2.2c0.2-0.7,0.1-1.3-0.3-1.9C164.4,19.4,163.9,19,163.2,18.8z"/>
				<path class="st16" d="M281.9,100.7c0,0,28.4,54-37.9,75.5c-66.3,21.5-187.3,13.1-209.4-8.9s-24.7-43-6.8-66.5
					C27.7,100.7,186.1,127.5,281.9,100.7z"/>
				<path class="st17" d="M268,100.7c0,0,25.2,50.6-33.6,70.8c-58.8,20.1-166.2,12.3-185.8-8.4c-19.6-20.6-21.9-40.3-6.1-62.4
					C42.5,100.7,183.1,125.8,268,100.7z"/>
				<path class="st18" d="M122.7,169.8c-5.3-21.1,5.4-43,21.2-58.6c6.7,0.3,13.5,0.5,20.4,0.6c-10.1,18.4-22.7,36.8-29.7,56.5
					C133.1,171.3,125.7,175.7,122.7,169.8z"/>
				<path class="st19" d="M22.1,91.4c3,0.9,6,1.8,9,2.5c0.3,25,186.9,11.8,195.5,12.1c8.6,0.3,50-3.8,54.2-10.2
					c0.1-0.1,0.1-0.2,0.2-0.3c3.1-0.2,6.1-0.8,9-1.8c0.3,2-0.9,4.4-4.1,7.2c-15.8,13.4-188.9,26.6-255.1,5.1
					C30.7,105.8,11,100.9,22.1,91.4z"/>
				<path class="st20" d="M226.6,106c-8.6-0.3-195.2,12.9-195.5-12.1c60.6,15.5,122.2,0.4,182.6,1.5c22.3,0,44.6,3.7,66.9,0h0.3
					c-0.1,0.1-0.1,0.2-0.2,0.3C276.6,102.1,235.3,106.2,226.6,106z"/>
				<path class="st16" d="M44.3,166c0,7,9.6,12.7,21.4,12.7s21.4-5.7,21.4-12.7c0-7-9.6-12.7-21.4-12.7S44.3,159,44.3,166z"/>
				<path class="st16" d="M250.1,170.9c0,0-13.9,11.3-3.2,16c10.8,4.7-2.1,17.3-13.4,11.8c0,0-6.3-4.7,3.4-7.1s-2.9-7.6-2.9-7.6
					s-11.8-6-11.8-11.8c0-5.8,2.6-9.4,9.5-4.5c0,0-2.9-13.1,6.3-13.1c9.2,0,3.7,11.5,3.7,11.5s3.6-6.8,9.3-3.4
					C256.7,166.1,250.1,170.9,250.1,170.9z"/>
				<path class="st16" d="M55.4,170.9c0,0,13.9,11.3,3.2,16c-10.8,4.7,2.1,17.3,13.4,11.8c0,0,6.3-4.7-3.4-7.1s2.9-7.6,2.9-7.6
					s11.8-6,11.8-11.8c0-5.8-2.6-9.4-9.5-4.5c0,0,2.9-13.1-6.3-13.1s-3.7,11.5-3.7,11.5s-3.6-6.8-9.3-3.4S55.4,170.9,55.4,170.9z"/>
				<path class="st4" d="M38.8,98.3c0,0-4.9,2.4-8.3,0.6l0.9-6.7L38.8,98.3z"/>
				<path class="st4" d="M75.7,95.8c0-2.2,0.7-4.4,1.9-6.2c1.2-1.8,3-3.3,5-4.1c2-0.8,4.3-1.1,6.5-0.6c2.2,0.4,4.2,1.5,5.7,3.1
					c1.6,1.6,2.6,3.5,3.1,5.7c0.4,2.2,0.2,4.4-0.6,6.4s-2.3,3.8-4.1,5c-1.8,1.2-4,1.9-6.2,1.9c-1.5,0-2.9-0.3-4.3-0.8
					c-1.4-0.6-2.6-1.4-3.6-2.4c-1-1-1.9-2.3-2.4-3.6C76,98.7,75.7,97.2,75.7,95.8z"/>
				<path class="st4" d="M98.9,95.8c0-2.2,0.7-4.4,1.9-6.2c1.2-1.8,3-3.3,5-4.1c2-0.8,4.3-1.1,6.5-0.6c2.2,0.4,4.2,1.5,5.7,3.1
					s2.6,3.5,3.1,5.7c0.4,2.2,0.2,4.4-0.6,6.4s-2.3,3.8-4.1,5c-1.8,1.2-4,1.9-6.2,1.9c-3,0-5.8-1.2-7.9-3.3
					C100.1,101.6,98.9,98.8,98.9,95.8z"/>
				<path class="st4" d="M90.2,96c0-1.8,0.5-3.6,1.5-5.1c1-1.5,2.4-2.7,4.1-3.4c1.7-0.7,3.5-0.9,5.3-0.5c1.8,0.4,3.4,1.2,4.7,2.5
					c1.3,1.3,2.1,2.9,2.5,4.7c0.4,1.8,0.2,3.6-0.5,5.3c-0.7,1.7-1.9,3.1-3.4,4.1c-1.5,1-3.3,1.5-5.1,1.5c-2.4,0-4.7-1-6.4-2.7
					C91.2,100.7,90.2,98.4,90.2,96z"/>
				<path class="st4" d="M33.9,77.1c0.2,1.8,0.8,3.5,1.8,5c1,1.5,2.3,2.7,3.9,3.6c1.6,0.9,3.3,1.3,5.1,1.4c1.8,0,3.6-0.3,5.2-1.1
					c0.6,1.6,1.5,3,2.7,4.1s2.7,2,4.2,2.5c1.6,0.5,3.3,0.7,4.9,0.5c1.7-0.2,3.2-0.8,4.6-1.7c2.1,0,4.1,0.6,5.9,1.7
					c1.8,1.1,3.2,2.7,4.1,4.5c0.9,1.9,1.3,4,1.1,6c-0.2,2.1-1,4-2.3,5.7c-7.1-0.6-13.5-1.4-19.1-2.3c-0.1-0.2-0.1-0.3-0.2-0.5
					c-0.2,0.1-0.4,0.2-0.6,0.3c-1.7,0.9-8.7-1.9-10.6-2.6c-2.6-0.8-5.4-1.9-6.8-4.4c-0.1-0.2-0.3-0.4-0.5-0.6
					c-0.2-0.1-0.5-0.1-0.8-0.1c-7,0.4-14-2.8-14-10.9c0-3,1.2-5.8,3.3-7.9C28.1,78.3,31,77.1,33.9,77.1z"/>
				<path class="st21" d="M226.6,110.3c-2.3-0.1-17.4,0.8-38.3,1.7c-0.5-0.2-1-0.5-1.4-0.8c-0.1,0.3-0.3,0.6-0.5,0.9
					c-7.8,0.3-16.3,0.6-25.2,0.9c-0.4-0.6-0.7-1.2-1-1.9c-1,0.8-2.1,1.5-3.3,2c-3.7,0.1-7.4,0.2-11.2,0.2c-2.3-0.9-4.3-2.3-5.9-4.1
					c-4.1,1-8.3,0.6-12.2-1.1c0,0.1,0,0.1,0,0.2c0,1.9-0.5,3.7-1.4,5.3c-12.1,0-24.1-0.1-35.4-0.6c7.1-7.3,15.9-12.7,25.6-15.9
					c0.4,0,0.7,0,1.1,0.1c-0.8-2.4-1.2-4.9-1.1-7.4s0.8-4.9,1.9-7.2s2.6-4.3,4.5-5.9c1.9-1.6,4.1-2.9,6.5-3.7
					c2.4-0.8,4.9-1.1,7.4-0.9c2.5,0.2,4.9,0.9,7.2,2c2.2,1.1,4.2,2.7,5.8,4.6s2.8,4.1,3.6,6.5c0.7,1.9,1.8,3.7,3.3,5.1
					c1.5,1.4,3.3,2.4,5.3,2.9c2,0.5,4.1,0.5,6.1,0c2-0.5,3.8-1.5,5.4-2.9c2.7,0,5.4,0.8,7.7,2.2c1.4-3.1,3.8-5.7,6.9-7.2
					c3.1-1.6,6.6-2,9.9-1.3c3.4,0.7,6.4,2.5,8.5,5.2c2.2,2.7,3.3,6,3.3,9.4c0,1.9-0.3,3.7-1,5.5c1.5-0.7,3.1-1,4.7-0.9
					c1.6,0,3.2,0.4,4.7,1.1c0.1-2.5,0.8-4.9,2.1-7c1.3-2.1,3.1-3.9,5.2-5.1c2.1-1.3,4.5-2,7-2c2.5-0.1,4.9,0.4,7.2,1.5
					c-0.7-2-0.9-4.1-0.7-6.2c0.2-2.1,0.9-4.1,1.9-5.9c1.1-1.8,2.5-3.4,4.3-4.5c1.7-1.2,3.7-2,5.8-2.3c2.1-0.3,4.2-0.2,6.2,0.3
					c2,0.6,3.9,1.5,5.5,2.9c1.6,1.4,2.9,3,3.8,4.9c0.9,1.9,1.3,4,1.3,6.1c0,0.5,0,0.9-0.1,1.4c2.3,1.8,4.1,4.3,4.9,7.1
					c0.9,2.8,0.8,5.8-0.1,8.6C259.1,108.2,233.3,110.5,226.6,110.3z"/>
				<path class="st4" d="M139.8,80.6c0,0-0.1-6,5.3-4.2c5.4,1.8,10.9,12.8,5.6,17.8c0,0-4.9,1.5-1.8-4
					C152,84.7,139.8,80.6,139.8,80.6z"/>
				<path class="st2" d="M30.1,105.6c0.4-0.1,0.8-0.2,1.1-0.4c1.1-0.6,1.9-1.6,2.3-2.7c0.4-1.1,0.4-2.4,0-3.5
					c24.4,18,184.4,6.8,192.4,7c8.7,0.3,50-3.8,54.2-10.2c2.9-4.3-3.9-6.3-8.5-7.1v-4.5c8.7,1.7,25.6,6.4,13.5,16.6
					c-15.8,13.3-188.6,26.6-254.9,5.1C30.2,105.8,30.2,105.7,30.1,105.6z"/>
				<path class="st22" d="M163.1,108.6c0.5,1.8-0.6,6.1-3.6,8.4c-10.9,0.3-21.8,0.3-32.7,0.2c2.2-2.8,4.5-5.4,6.9-8
					C143.7,109,153.7,108.8,163.1,108.6z"/>
				<g>
					<defs>
						<polygon id="SVGID_00000134942204004153244450000018047745982686540420_" points="68.2,152.6 107,115.6 150.5,160.6 
							111.7,197.6 						"/>
					</defs>
					<clipPath id="SVGID_00000068641163696925723500000014897620285761887128_">
						<use xlink:href="#SVGID_00000134942204004153244450000018047745982686540420_"  style="overflow:visible;"/>
					</clipPath>
					<g style="clip-path:url(#SVGID_00000068641163696925723500000014897620285761887128_);">
						<path class="st24" d="M135.3,163.4l-35.1,22l-20.5-40.1c-0.2-0.4-0.4-0.9-0.4-1.4c0-0.5,0-1,0.2-1.4c0.2-0.5,0.4-0.9,0.7-1.3
							c0.3-0.4,0.7-0.7,1.1-0.9l32.4-16.5c0.1-0.1,0.3-0.1,0.4-0.1c0.2,0,0.3,0,0.5,0c0.1,0,0.3,0.1,0.4,0.2
							c0.1,0.1,0.2,0.2,0.3,0.4L135.3,163.4z"/>
						<path class="st25" d="M136.7,166.6c-0.8-1.7-2-4.1-1.1-4.2c-0.2,0.1-0.4,0.1-0.6,0.3L103.1,179c-1,0.5-1.8,1.5-2.2,2.6
							s-0.3,2.3,0.3,3.4l0.1,0.3l35.7-18.2L136.7,166.6z"/>
						<path class="st26" d="M137,167.1L137,167.1l-35.7,18.1l0.1,0.3c0.5,1.1,1.5,1.9,2.6,2.2c1.1,0.4,2.4,0.3,3.4-0.3l31.9-16.3
							c0.5-0.3-0.1-0.1,0.2-0.6C138.6,170.5,138,169,137,167.1z"/>
						<path class="st27" d="M101.9,184.1c-0.4-0.8-0.4-1.7-0.1-2.5c0.3-0.8,0.9-1.5,1.7-1.8l31.9-16.3c0.1,0,0.2-0.1,0.3-0.2
							c0.1-0.1,0.2-0.2,0.2-0.3c0-0.1,0.1-0.3,0.1-0.4c0-0.1,0-0.3-0.1-0.4c-0.1-0.1-0.1-0.2-0.2-0.3c-0.1-0.1-0.2-0.1-0.3-0.2
							c-0.1,0-0.3,0-0.4,0c-0.1,0-0.3,0.1-0.4,0.1l-31.9,16.3c-2.7,1.4-3.9,4.5-2.6,6.9l0.1,0.3l1.8-0.9L101.9,184.1z"/>
						<path class="st27" d="M138.4,169.5l-31.9,16.3c-0.8,0.4-1.7,0.5-2.5,0.3c-0.8-0.2-1.5-0.8-2-1.5l-0.1-0.3l-1.9,1l0.1,0.3
							c1.3,2.5,4.5,3.3,7.2,2l31.9-16.3c0.2-0.1,0.4-0.3,0.5-0.5c0.1-0.2,0.1-0.5-0.1-0.7c-0.1-0.2-0.3-0.4-0.6-0.5
							C138.9,169.4,138.7,169.4,138.4,169.5L138.4,169.5z"/>
						<path class="st28" d="M102.5,178c-0.1,0-0.1,0.1-0.2,0.1c-0.1,0-0.2,0-0.2,0c-0.1,0-0.1-0.1-0.2-0.1c-0.1-0.1-0.1-0.1-0.1-0.2
							L83,141.3c-0.1-0.1-0.1-0.3,0-0.5c0-0.2,0.2-0.3,0.3-0.3c0.1-0.1,0.3-0.1,0.5,0c0.2,0,0.3,0.2,0.3,0.3l18.6,36.4
							c0,0.1,0.1,0.1,0.1,0.2c0,0.1,0,0.2,0,0.2c0,0.1-0.1,0.1-0.1,0.2C102.6,177.9,102.5,177.9,102.5,178z"/>
						<path class="st29" d="M115.4,137.5l-19.9,9.9c-0.1,0.1-0.3,0.1-0.4,0.1c-0.1,0-0.3,0-0.4-0.1s-0.2-0.1-0.3-0.2
							c-0.1-0.1-0.2-0.2-0.2-0.3c-0.1-0.2-0.1-0.5-0.1-0.8c0.1-0.3,0.3-0.5,0.5-0.6l20-9.9c0.2-0.1,0.5-0.1,0.8-0.1
							c0.3,0.1,0.5,0.3,0.6,0.5c0.1,0.1,0.1,0.3,0.1,0.4c0,0.1,0,0.3-0.1,0.4c0,0.1-0.1,0.2-0.2,0.4
							C115.6,137.4,115.5,137.5,115.4,137.5z"/>
						<path class="st29" d="M115.6,145.1l-14.2,7c-0.3,0.1-0.6,0.2-0.9,0.1c-0.3-0.1-0.5-0.3-0.7-0.6c-0.1-0.3-0.2-0.6-0.1-0.9
							c0.1-0.3,0.3-0.5,0.6-0.7l14.2-7c0.1-0.1,0.3-0.1,0.4-0.1c0.2,0,0.3,0,0.5,0.1c0.1,0,0.3,0.1,0.4,0.2c0.1,0.1,0.2,0.2,0.3,0.4
							c0.1,0.3,0.1,0.6,0,0.9C116,144.7,115.8,145,115.6,145.1z"/>
					</g>
				</g>
				<path class="st30" d="M123.3,148.9c-0.6-3.3-4-3.4-6.2-2.9c-3.1,0.8-6.7,3.4-7,7c0,0.8,0.2,1.7,0.6,2.4c0.4,0.7,1.1,1.3,1.8,1.6
					c1.4,0.5,2.6-0.4,3.6-1.2l4.1-3.4c0.9-0.7,3.2-1.8,3.1-3.2C123.3,149.1,123.3,149,123.3,148.9z"/>
				<path class="st7" d="M163.9,83.8c0.3-2.9,0.5-6.1-1.1-8.6c-4.9-7.6-8,1.9-8.8,5.7c-1.9,8.4-4.3,16.7-8.7,24.2
					c-6.5,11-16.8,19.4-23,30.5c-1.9,3-2.9,6.5-3.1,10c0,3.5,1.5,7.2,4.6,9c10,5.8,17-8.1,20.8-14.7
					C155.3,121.2,161.8,105.5,163.9,83.8z"/>
				<path class="st31" d="M122.6,134.9l-0.4,0.6c-1.9,3-2.9,6.5-3.1,10c0,3.5,1.5,7.2,4.6,9c8.1,4.6,14.2-3.5,18.2-10.3
					c-2.1-3.1-5-5.6-8.4-7.3C130.2,135.4,126.4,134.7,122.6,134.9z"/>
				<path class="st8" d="M163.9,83.8c0.3-2.9,0.5-6.1-1.1-8.6c-4.9-7.6-8,1.9-8.8,5.7c-1.9,8.4-4.3,16.7-8.7,24.2
					c-6.3,10.8-16.4,19-22.7,29.9c3.8-0.3,7.5,0.5,10.9,2.1c3.4,1.6,6.3,4.2,8.4,7.3c1-1.6,1.8-3.1,2.5-4.4
					C155.3,121.2,161.8,105.5,163.9,83.8z"/>
				<path class="st31" d="M125.5,145.2c0.9,3.6-3,4.6-5.8,4.7c-4,0.1-9.5-1.7-11.5-5.4c-0.9-1.6-0.7-3.9,0.8-4.8s3.2-0.3,4.8,0.3
					l6.5,2.4c1.4,0.5,4.6,1,5.1,2.5C125.5,145,125.5,145.1,125.5,145.2z"/>
				<path class="st31" d="M134.4,165.7c1.3-2.7,1.6-5.7,0.9-8.6c-0.4-1.8-2.6-6.1-5-4.8c-1.1,0.6-0.5,3.5-0.7,4.6
					c-0.3,1.7-0.9,3.2-1.8,4.7c-1.3,2-3.2,4.3-2.3,6.5c0.8,1.8,3.2,2.4,5,1.7C132.3,169,133.6,167.5,134.4,165.7z"/>
				<path class="st31" d="M121.6,164c2.6-1.5,4.5-3.9,5.5-6.7c0.6-1.7,1.2-6.5-1.6-6.7c-1.2-0.1-2.4,2.7-3.1,3.5
					c-1.1,1.2-2.5,2.2-4,2.9c-2.2,1-5.1,1.8-5.5,4.2c-0.4,1.9,1.3,3.7,3.3,4.1C118.1,165.5,120,165.1,121.6,164z"/>
				<path class="st4" d="M232.6,65.4c4.8,0,8.7-3.9,8.7-8.7c0-4.8-3.9-8.7-8.7-8.7c-4.8,0-8.7,3.9-8.7,8.7
					C223.9,61.5,227.8,65.4,232.6,65.4z"/>
				<path class="st4" d="M255.2,61.1c0,1.2,0.4,2.4,1,3.4c0.7,1,1.6,1.8,2.7,2.2s2.3,0.6,3.5,0.3c1.2-0.2,2.3-0.8,3.1-1.7
					c0.9-0.8,1.4-1.9,1.7-3.1c0.2-1.2,0.1-2.4-0.3-3.5c-0.5-1.1-1.2-2.1-2.2-2.7c-1-0.7-2.2-1-3.4-1c-0.8,0-1.6,0.2-2.3,0.5
					c-0.7,0.3-1.4,0.8-2,1.3c-0.6,0.6-1,1.2-1.3,2C255.4,59.5,255.2,60.3,255.2,61.1z"/>
				<path class="st4" d="M136.1,129.5c6.2,0,11.3-5,11.3-11.3s-5.1-11.3-11.3-11.3s-11.3,5-11.3,11.3S129.9,129.5,136.1,129.5z"/>
				<path class="st4" d="M158.3,116.1c4.1-4.1,4.1-10.6,0-14.7c-4.1-4.1-10.7-4.1-14.7,0c-4.1,4.1-4.1,10.6,0,14.7
					C147.6,120.1,154.2,120.1,158.3,116.1z"/>
				<path class="st4" d="M240.2,104.7c5.6-1.3,9.1-6.9,7.8-12.5s-6.9-9-12.5-7.7c-5.6,1.3-9.1,6.9-7.8,12.5S234.6,106,240.2,104.7z"
					/>
				<path class="st4" d="M124.8,117.4c4.8,0,8.7-3.9,8.7-8.7s-3.9-8.7-8.7-8.7c-4.8,0-8.7,3.9-8.7,8.7S120,117.4,124.8,117.4z"/>
				<path class="st4" d="M239.7,100.7c6.8-6.8,6.8-17.7,0-24.5c-6.8-6.8-17.8-6.8-24.6,0c-6.8,6.8-6.8,17.7,0,24.5
					C221.9,107.4,232.9,107.4,239.7,100.7z"/>
				<path class="st4" d="M198.1,105.4c8.2,0,14.8-6.6,14.8-14.7c0-8.1-6.6-14.7-14.8-14.7c-8.2,0-14.8,6.6-14.8,14.7
					C183.3,98.8,189.9,105.4,198.1,105.4z"/>
				<path class="st32" d="M36.3,98.7c6-1,10.1-6.6,9.1-12.6S38.8,76,32.8,77c-6,1-10.1,6.6-9.1,12.6C24.6,95.6,30.3,99.7,36.3,98.7z
					"/>
				<path class="st32" d="M55.6,94.8c4.3,0,7.7-3.5,7.7-7.7c0-4.3-3.5-7.7-7.7-7.7c-4.3,0-7.7,3.5-7.7,7.7
					C47.9,91.3,51.3,94.8,55.6,94.8z"/>
				<path class="st32" d="M14.8,75.7c2.6,0,4.8-2.1,4.8-4.7c0-2.6-2.1-4.7-4.8-4.7c-2.6,0-4.8,2.1-4.8,4.7
					C10,73.6,12.1,75.7,14.8,75.7z"/>
				<path class="st32" d="M28.1,60.7c1.2,0,2.1-0.9,2.1-2.1s-0.9-2.1-2.1-2.1c-1.2,0-2.1,0.9-2.1,2.1S26.9,60.7,28.1,60.7z"/>
			</g>
		</g>
	</g>
</g>
</svg>
