<?xml version="1.0" encoding="utf-8"?>
<!-- Generator: Adobe Illustrator 27.0.0, SVG Export Plug-In . SVG Version: 6.00 Build 0)  -->
<svg version="1.1" id="圖層_1" xmlns="http://www.w3.org/2000/svg" xmlns:xlink="http://www.w3.org/1999/xlink" x="0px" y="0px"
	 viewBox="0 0 313 253" style="enable-background:new 0 0 313 253;" xml:space="preserve">
<style type="text/css">
	.st0{clip-path:url(#SVGID_00000053540424136999470970000012421770899212405428_);}
	.st1{fill:#B8CADA;}
	.st2{fill:#BCC100;}
	.st3{fill:#A3A300;}
	.st4{fill:#CFD329;}
	.st5{fill:#160100;}
	.st6{fill:#E4E3E5;}
	.st7{fill:#352E28;}
	.st8{fill:#FFFFFF;}
	.st9{fill:#D16966;}
	.st10{fill:#B5B504;}
	.st11{clip-path:url(#SVGID_00000142877338876655285410000007837256416720221845_);}
	.st12{fill:#DADADA;}
	.st13{fill:#EDEDED;}
	.st14{fill:#3873B4;}
	.st15{fill:#FF8A33;}
	.st16{fill:#7ED5CC;}
	.st17{clip-path:url(#SVGID_00000085961239766237770590000008084621839052923264_);}
	.st18{fill:#D7998F;}
	.st19{fill:#CD7163;}
	.st20{fill:#CB695B;}
	.st21{opacity:0.5;fill:#CDDBF1;enable-background:new    ;}
	.st22{opacity:0.5;fill:#98B5DF;enable-background:new    ;}
	.st23{opacity:0.5;fill:#FFFFFF;enable-background:new    ;}
	.st24{fill:#5A6AAD;}
	.st25{fill:#5364A5;}
	.st26{fill:#8492C7;}
</style>
<g>
	<defs>
		<rect id="SVGID_1_" y="0" width="312" height="252.3"/>
	</defs>
	<clipPath id="SVGID_00000134939615167156672510000003506436843380319403_">
		<use xlink:href="#SVGID_1_"  style="overflow:visible;"/>
	</clipPath>
	<g style="clip-path:url(#SVGID_00000134939615167156672510000003506436843380319403_);">
		<path class="st1" d="M93.9,268.7c-26.7-4.2-69.3-10.6-85.6-34.3c-44.2-64.3,100.8-80.2,133.6-81.5c36.9-1.4,73.9-1.2,110.9,0.6
			c39.2,1.9,119.6,5.9,95.9,63.8C316.7,296.1,161.9,279.5,93.9,268.7z"/>
		<path class="st2" d="M133.5,235.2c0,0-28,7.3-49.2-0.8c0,0,10.3-18.9,28.6-17C131.3,219.4,133.5,235.2,133.5,235.2z"/>
		<path class="st2" d="M144,243.9c0,0,28.1,11.4,56.2,0c0,0-6.8-8.4-7.8-9.4C176,219.7,156,228.4,144,243.9z"/>
		<path class="st3" d="M196.5,34.5c4.6,1.2,7.2,4.9,2.7,11.9c-2,3.1-4.3,6-6.9,8.7c-1.3,1.3-2.9,2.6-4.6,2.6c-2,0-3.7-2-5.1-3.8
			c-3-4-6.2-10.9-2.2-15.5C183.3,34.8,191.2,33.1,196.5,34.5z"/>
		<path class="st3" d="M203.7,55.3c4.3,2,6.2,5.5,0.5,10.4c-2.6,2.2-5.4,4.1-8.4,5.7c-1.5,1-3.2,1.4-5,1.2c-2-0.5-3.3-2.4-4.3-4.3
			c-2.2-4-4.1-10.3,0.7-13.3C190.7,52.8,198.8,53.1,203.7,55.3z"/>
		<path class="st3" d="M209.1,73.4c4.3,1.9,6.2,5.3,0.6,9.7c-2.6,2-5.4,3.8-8.3,5.3c-1.5,0.9-3.2,1.3-5,1.1c-2-0.5-3.3-2.3-4.4-4
			c-2.2-3.7-4.2-9.7,0.5-12.5C196.2,70.9,204.3,71.3,209.1,73.4z"/>
		<path class="st3" d="M213.9,92c4.2,2.1,6,5.5,0.3,9.7c-2.6,2-5.5,3.6-8.5,5c-1.5,0.9-3.3,1.2-5,0.9c-2-0.5-3.2-2.4-4.2-4.2
			c-2.1-3.8-3.8-9.9,1-12.4C201,89.1,209,89.8,213.9,92z"/>
		<path class="st3" d="M213.9,110.1c4.2,2.1,6,5.5,0.2,9.7c-2.7,1.9-5.5,3.6-8.5,4.9c-1.5,0.8-3.3,1.1-5,0.8c-2-0.6-3.2-2.4-4.2-4.2
			c-2.1-3.8-3.7-9.9,1.1-12.4C201.1,107,209.1,107.7,213.9,110.1z"/>
		<path class="st3" d="M217.6,129.1c4.2,2.1,6,5.5,0.2,9.8c-2.7,1.9-5.5,3.6-8.5,4.9c-1.5,0.8-3.3,1.1-5,0.8c-2-0.6-3.2-2.4-4.2-4.2
			c-2.1-3.8-3.7-9.9,1.1-12.4C204.8,126.1,212.8,126.8,217.6,129.1z"/>
		<path class="st3" d="M217.9,148.6c4.1,2.3,5.8,5.7-0.2,9.8c-2.7,1.8-5.6,3.4-8.7,4.6c-1.5,0.8-3.3,1-5,0.7c-1.9-0.6-3.1-2.6-4-4.4
			c-1.9-3.9-3.4-10,1.5-12.4C205.2,145.1,213.1,146,217.9,148.6z"/>
		<path class="st3" d="M219.1,167.5c4.1,2.3,5.8,5.7-0.2,9.8c-2.7,1.8-5.6,3.4-8.7,4.6c-1.5,0.8-3.3,1-5,0.7c-1.9-0.6-3.1-2.6-4-4.4
			c-1.9-3.9-3.4-10,1.5-12.4C206.4,164,214.3,165,219.1,167.5z"/>
		<path class="st3" d="M219.1,185.4c4.1,2.3,5.8,5.7-0.2,9.8c-2.7,1.8-5.6,3.4-8.7,4.6c-1.5,0.8-3.3,1-5,0.7c-1.9-0.6-3.1-2.6-4-4.4
			c-1.9-3.9-3.4-10,1.5-12.4C206.4,181.9,214.3,182.8,219.1,185.4z"/>
		<path class="st2" d="M211.7,208.8l2.4-0.9c-0.4-9.7-1-19.3-1.7-28.9c-0.5-6.4-1-12.8-1.7-19.2c-0.6-6.4-1.3-12.8-2.1-19.2
			c-0.8-6.4-1.6-12.8-2.5-19.1c-2.3-15.9-5-31.8-8.1-47.6c-1.2-6.3-2.6-12.6-4-18.9c-0.5-2.3-3.5-3.8-5.4-5.6
			c-0.3-0.2-0.5-0.5-0.7-0.8c-1.9-2.2-1.5-4.5-4.3-5.3c-4.8-1.4-9.7-2-14.6-2c-6.9,0.1-13.8,1.5-20.2,4.2c-1.8,0.8-3.6,1.7-5.3,2.6
			c-1.7,1-3.4,2.1-4.9,3.2c-3,2.2-5.8,4.8-8.2,7.7c-0.8,0.9-1.5,1.9-2.2,2.8c-0.7,1-1.3,2-2,3c-4.3,7.1-7.1,15.1-8.3,23.3
			c-0.5,3-0.8,6-1,9.1c-0.1,1.2-0.1,2.4-0.2,3.7v1.8l-0.1,6.3c-4.2,3.9-7.1,8.5-6.9,13.5c0.3,9.2,3,18.5,3.8,27.7
			c1.3,16,1.2,33.5-5.9,48.3c8.9,7.3,21.2,13.9,32.5,16.3C163,219.9,189.5,216.8,211.7,208.8L211.7,208.8z"/>
		<path class="st4" d="M162.8,126c-5.2-2.9-11.4-3.2-17.5-1.8c-5.8,1.3-11.1,4-15.6,7.8c-4.1,3.3-7,7.9-8.1,13
			c-3.1,20.2-1.1,39.6-7.8,58.3c8,5.5,16.9,9.4,26.3,11.7c14.8,3,30,3.2,44.9,0.7c1.9-0.3-1.8-39-2.3-42.7c-1-7.3-2.6-14.5-4.8-21.5
			c-2.4-7.3-4.7-15.3-9.9-21.2C166.5,128.5,164.8,127.1,162.8,126z"/>
		<path class="st2" d="M212.4,179c-0.5-6.4-1-12.8-1.7-19.2c-0.6-6.4-1.3-12.8-2.1-19.2c-0.8-6.4-1.6-12.8-2.5-19.1
			c-2.3-15.9-5-31.8-8.1-47.6c-1.2-6.3-2.6-12.6-4-18.9c-0.5-2.3-3.5-3.8-5.4-5.6c-0.3-0.2-0.5-0.5-0.7-0.8
			c-1.9-2.2-1.5-4.5-4.3-5.3c-4.8-1.4-9.7-2-14.6-2c-6.9,0.1-13.8,1.5-20.2,4.2c-1.8,0.8-3.6,1.7-5.3,2.6c-1.7,1-3.4,2.1-4.9,3.2
			c-3,2.2-5.8,4.8-8.2,7.7c-0.8,0.9-1.5,1.9-2.2,2.8c-0.7,1-1.3,2-2,3c-4.3,7.1-7.1,15.1-8.3,23.3c-0.5,3-0.8,6-1,9.1
			c-0.1,1.2-0.1,2.4-0.2,3.7v1.8l-0.1,6.3c-4.2,3.9-7.1,8.5-6.9,13.5c0.3,9.2,3,18.5,3.8,27.7c1.3,16,1.2,33.5-5.9,48.3
			c1.9,1.6,4,3.1,6.2,4.6c6.8-18.7,4.7-38.2,7.8-58.3c3.3-18.9,24.7-23.7,41.2-18.9c2.5,0.8,4.1,1.6,4.9,3.3
			c16.8,26.4,16.9,56.7,17.3,86.3c9-1.4,17.9-3.7,26.5-6.8h0.2l2.4-0.9C213.7,198.3,213.1,188.7,212.4,179z"/>
		<path class="st2" d="M85.8,141l17.5-2.5c2.3-0.5,4.6-0.5,6.9-0.2c1.2,0.2,2.2,0.7,3.1,1.4c0.9,0.7,1.6,1.7,2,2.8
			c3.2-4.6,5.5-9.8,6.6-15.3c0.3-1.4,0.5-3.1-0.5-4.2c-0.7-0.6-1.5-1-2.4-1.2c-10-2.3-20.4,0.9-30.6,1.5c-6.4,0.4-23.6-0.5-23.7,9.6
			C64.6,143,79.6,141.8,85.8,141z"/>
		<path class="st5" d="M109,23.1c1.6-2.1,3.7-3.7,6.1-4.7c2.4-1,5.1-1.3,7.7-0.9c1.2,0.2,1.2-1.7,0-1.8c-2.9-0.4-5.9,0-8.6,1.2
			c-2.7,1.2-5,3-6.8,5.4C106.7,23.1,108.3,24.1,109,23.1L109,23.1z"/>
		<path class="st5" d="M162.8,3.1c3-0.6,6.1-0.5,9,0.5c2.9,1,5.5,2.7,7.5,5c1.2,1.3,3.1-0.6,2-2C179,4,176,2.1,172.6,1
			c-3.4-1.1-7-1.3-10.5-0.5C160.3,0.8,161.1,3.5,162.8,3.1L162.8,3.1z"/>
		<path class="st6" d="M89.7,141.2c0.4,0.2,0.8,0.3,1.2,0.2c0.7-0.2,1.1-1,1.3-1.7c0.8-2.8,1.2-5.6,1.2-8.5c0-0.5-0.1-1-0.3-1.5
			c-0.3-0.4-0.6-0.8-1.1-1c-1.8-1.1-4-1.7-6.2-1.6c-2.2,0.1-4.3,0.8-6,2.1C73.5,134,86.2,139.7,89.7,141.2z"/>
		<path class="st6" d="M104.7,138.9c0.5,0.2,1,0.3,1.5,0.1c0.6-0.2,0.9-1,1-1.7c0.7-3,1-6,0.9-9c0-0.5-0.1-0.9-0.2-1.3
			c-0.4-0.6-0.9-1.1-1.6-1.4c-1.9-1-4-1.5-6.1-1.4c-3.6,0.3-7.5,4-5.7,7.7C96,135,101.8,137.9,104.7,138.9z"/>
		<path class="st6" d="M118.3,135.1c0.5,0.2,1,0.3,1.5,0.2c0.3-0.2,0.5-0.4,0.7-0.7c0.2-0.3,0.3-0.6,0.3-1c0.7-3,1-6,0.9-9
			c0.1-0.6-0.1-1.2-0.4-1.7c-0.3-0.5-0.8-0.9-1.4-1c-1.9-1-4-1.5-6.1-1.4c-3.6,0.3-7.5,4-5.7,7.7C109.5,131.1,115.3,134,118.3,135.1
			z"/>
		<path class="st6" d="M131.4,131.5c0.5,0.2,1,0.3,1.5,0.1c0.6-0.2,0.9-1,1.1-1.7c0.7-3,1-6,0.9-9c0-0.5-0.1-0.9-0.3-1.3
			c-0.4-0.6-0.9-1.1-1.6-1.4c-1.9-1-4-1.5-6.2-1.4c-3.6,0.3-7.5,4-5.7,7.7C122.6,127.5,128.4,130.4,131.4,131.5z"/>
		<path class="st6" d="M141.9,127.6c0.5,0.2,1,0.3,1.5,0.2c0.3-0.2,0.5-0.4,0.7-0.7c0.2-0.3,0.3-0.6,0.3-1c0.7-3,1-6,0.9-9
			c0-0.5-0.1-0.9-0.3-1.3c-0.4-0.6-0.9-1.1-1.6-1.4c-1.9-1-4-1.5-6.2-1.4c-3.6,0.3-7.5,4-5.7,7.7C133.1,123.7,139,126.5,141.9,127.6
			z"/>
		<path class="st6" d="M153,124c0.5,0.2,1,0.3,1.5,0.1c0.6-0.3,0.9-1,1-1.7c0.7-3,1-6,0.9-9c0-0.4-0.1-0.9-0.2-1.3
			c-0.4-0.6-0.9-1.1-1.6-1.4c-1.9-1-4-1.5-6.1-1.4c-3.6,0.3-7.5,4-5.7,7.7C144.2,120.1,150,122.9,153,124z"/>
		<path class="st4" d="M73.7,136.3c11.7,1.1,24-0.9,35.6-4.3c36.7-10.7,108.5-35.7,80.2-87.5c-2.4-4.4-5.6-8.7-5.7-13.7
			c-0.2-6.5,1.5-11.7-2.8-17.3c-1.7-2.3-3.8-4.1-6.4-5.3c-2.5-1.2-5.3-1.8-8.1-1.6c-10,0.8-16.1,10.8-14.9,20.1
			c-5.2-0.8-12.3,2.3-17,4.2c-0.5-2.8-1.8-5.4-3.5-7.6c-6.7-7.8-20.7-2.4-20.7,7.8c0.1,11.2,3.3,12.2-5,21.4
			c-9.5,10.4-21.5,18-33.6,25C61.5,83.4,46.4,88.6,40,98.9C26.6,120.1,56.9,134.6,73.7,136.3z"/>
		<path class="st7" d="M51.9,113.2c-0.1-2.1-0.7-4.1-1.8-5.8c-1.6-2.3-3.3-0.8-3.5,1.4c0,2.8,0.4,5.6,1.3,8.3c0.3,1.1,1.6,3,3,1.3
			C52,117.1,52,114.7,51.9,113.2z"/>
		<path class="st7" d="M67.5,119.1c1.4-1.6,2.3-3.6,2.8-5.7c0.4-2.8-1.9-2.8-3.6-1.3c-2,2.1-3.6,4.6-4.8,7.3c-0.5,1.1-0.9,3.4,1.2,3
			C64.8,122.1,66.5,120.3,67.5,119.1z"/>
		<path class="st8" d="M159.5,22.7c0.3-1.4,0.9-2.8,1.9-3.8c1-1.1,2.3-1.8,3.7-2.2c5.3-1.1,9.6-0.4,11.2,5.3
			c0.6,1.8,0.6,3.7,0.1,5.5c-0.5,1.8-1.5,3.4-2.9,4.7c-1.8,1.4-4,2.1-6.3,2c-2.3-0.1-4.4-1.1-6.1-2.6c-1-1.2-1.7-2.6-2-4.2
			C159,25.8,159.1,24.2,159.5,22.7z"/>
		<path class="st5" d="M161,24.1c0.3-1.2,1.1-2.3,2.1-3.1c0.9-0.6,1.9-1,2.9-1c1.1,0,2.1,0.2,3,0.7c0.9,0.5,1.6,1.3,2.1,2.2
			c0.5,0.9,0.7,2,0.5,3c-0.4,4.6-6.3,6.9-9.6,3.5c-0.6-0.7-1.1-1.6-1.3-2.6C160.7,26,160.7,25,161,24.1z"/>
		<path class="st8" d="M115.3,32.6c0.1-1.1,0.6-2.1,1.3-2.9c0.7-0.8,1.6-1.5,2.7-1.8c3.9-1,7.1-0.7,8.5,3.3c0.5,1.3,0.6,2.7,0.3,4.1
			c-0.3,1.4-1,2.6-1.9,3.6c-1.3,1.1-2.9,1.7-4.6,1.7c-1.7,0-3.3-0.6-4.6-1.7c-0.8-0.8-1.3-1.8-1.6-2.9
			C115.1,34.9,115.1,33.7,115.3,32.6z"/>
		<path class="st5" d="M116.4,33.7c0.1-0.7,0.4-1.3,0.8-1.8c0.4-0.5,1-0.9,1.6-1.1c2.4-0.6,4.4-0.4,5.3,2.1c0.3,0.8,0.4,1.7,0.2,2.5
			c-0.2,0.8-0.6,1.6-1.2,2.2c-0.8,0.7-1.8,1.1-2.8,1.1c-1,0-2-0.4-2.8-1.1c-0.5-0.5-0.8-1.1-1-1.8C116.3,35.1,116.2,34.3,116.4,33.7
			z"/>
		<path class="st9" d="M176.8,76.3c7.8,0,14.1-4.8,14.1-10.8s-6.3-10.8-14.1-10.8c-7.8,0-14.1,4.8-14.1,10.8S169,76.3,176.8,76.3z"
			/>
		<path class="st3" d="M213.7,200.1c0,0,7.2,1.3,9.1,4.2c0,0-5.3,2.4-8.7,3.7L213.7,200.1z"/>
		<path class="st3" d="M224.4,187.7c-1.6-3.4-0.9-6.5,4.8-6.2c2.6,0.1,5.3,0.6,7.8,1.2c1.4,0.2,2.6,0.9,3.5,2c0.8,1.5,1,3.2,0.5,4.8
			c-0.6,3.4-2.6,8.1-7,7.2C230.9,196,226.2,191.6,224.4,187.7z"/>
		<path class="st3" d="M229.9,173.5c-1.6-3.4-0.9-6.5,4.8-6.2c2.6,0.1,5.3,0.5,7.8,1.2c1.4,0.2,2.6,0.9,3.5,2c0.8,1.5,1,3.2,0.5,4.8
			c-0.6,3.4-2.6,8.1-7,7.2C236.3,181.8,231.6,177.4,229.9,173.5z"/>
		<path class="st3" d="M236.4,159.6c-1.3-3-0.8-5.7,4.2-5.4c2.3,0.1,4.6,0.5,6.8,1.1c1.2,0.2,2.3,0.8,3.1,1.7
			c0.7,1.3,0.8,2.8,0.4,4.2c-0.5,3-2.3,7.1-6.1,6.3C242.1,166.9,238,163.1,236.4,159.6z"/>
		<path class="st3" d="M244.9,144c-0.1-3,1.2-5.1,5.5-3.2c1.9,0.9,3.8,2,5.5,3.3c1,0.6,1.7,1.5,2.1,2.5c0.1,0.7,0,1.3-0.2,2
			c-0.2,0.6-0.5,1.2-0.9,1.7c-1.5,2.4-4.4,5.3-7.4,3.3C247.2,152.1,245.1,147.4,244.9,144z"/>
		<path class="st3" d="M261.5,134.6c1.3-2.3,3.4-3.2,5.5,0.3c1,1.6,1.8,3.2,2.5,5c0.4,0.9,0.5,1.9,0.3,2.8c-0.5,1-1.4,1.8-2.6,2.2
			c-2.2,1-5.8,1.8-7-1.1C259.3,141.7,260,137.2,261.5,134.6z"/>
		<path class="st3" d="M277.2,133.4c1.8-1.2,3.6-1.2,4,2.1c0.2,1.5,0.2,3,0.1,4.5c0,0.8-0.3,1.6-0.8,2.2c-0.8,0.6-1.7,0.9-2.6,0.8
			c-2,0-4.8-0.7-4.8-3.2C273.1,137.9,275.2,134.8,277.2,133.4z"/>
		<path class="st3" d="M291,137.2c2.1-0.4,3.7,0.4,2.8,3.5c-0.4,1.4-1,2.8-1.8,4.2c-0.3,0.7-0.9,1.3-1.6,1.7
			c-0.5,0.1-0.9,0.1-1.4,0.1c-0.5-0.1-0.9-0.2-1.3-0.5c-1.8-0.8-4.1-2.6-3-4.9C285.4,139.6,288.5,137.7,291,137.2z"/>
		<path class="st3" d="M300,146.8c1.7,0,2.9,0.8,1.7,3.2c-0.5,1.1-1.2,2.1-2,3c-0.4,0.5-0.9,0.9-1.5,1.1c-0.8,0.1-1.5-0.2-2.1-0.7
			c-1.3-0.9-2.9-2.6-1.7-4.2C295.9,147.7,297.9,146.8,300,146.8z"/>
		<path class="st10" d="M237.9,167.5c1.6-4.6,3.8-8.9,6.3-13c9-13.3,27.8-18.9,42.7-12.7c7.5,3.2,15.9,11.4,13.9,20.3
			c-0.9-3.4-4.1-5.4-7.2-6.8c-7.2-3.3-14.6-3.1-19.4,3.9c-8,11.7-8.4,26.8-8.2,41c-9,3.2-27.6,0-36.8-4.2c0,0,0.6-3.4,2.1-9.5
			C233,180,235.3,173.7,237.9,167.5z"/>
		<g>
			<defs>
				
					<rect id="SVGID_00000038400485889860603070000001597763470057279413_" x="177.8" y="131.3" transform="matrix(0.931 -0.3649 0.3649 0.931 -46.595 91.8297)" width="83.6" height="75.8"/>
			</defs>
			<clipPath id="SVGID_00000114040550337680698500000013691736215119608239_">
				<use xlink:href="#SVGID_00000038400485889860603070000001597763470057279413_"  style="overflow:visible;"/>
			</clipPath>
			<g style="clip-path:url(#SVGID_00000114040550337680698500000013691736215119608239_);">
				<path class="st12" d="M221.9,151.3c0.2,1.5-1.7,2.9-4.2,3.2c-2.5,0.3-4.7-0.6-4.9-2.1c0,0,1.8-1.9,4.3-2.2
					C220.6,149.8,221.9,151.3,221.9,151.3z"/>
				<path class="st8" d="M218.9,197.5c-11.3-4.4-20.7-5-31-1.7c-2-15-6.5-29.8-8.5-44.8c0.8-1.4,3.9-2.1,5.7-3.6
					c0.9-0.8,0.5-2.3,1.2-3.1c0,0,0.1-1.1,0.1-2.7c8.8,2.5,17.6,3.8,26.6,10.7C214.9,167.4,216.9,182.5,218.9,197.5z"/>
				<path class="st13" d="M217.3,199.8c-11.3-4.3-18.4-3.8-28.6-0.5c-2-15-6.4-32.8-8.4-47.8c1.2-2.1,2.8-3.1,4.2-4.9
					c0.1-0.2,0.3-1.8,0.2-2.8c8.8,2.5,18,4.4,28.2,8.6C214.9,167.5,215.3,184.7,217.3,199.8z"/>
				<path class="st12" d="M215.8,202.3c-11.3-4.3-15-3.9-25.3-0.6c-2-15-9.1-35.7-11.1-50.7c2.5-2.9,2.1-2.1,3.9-4.6
					c8.8,2.5,19.3,3.1,29.7,6C214.9,167.5,213.8,187.3,215.8,202.3z"/>
				<path class="st8" d="M211.4,152.3C211.4,152.3,211.4,152.3,211.4,152.3l-28.4-5c0,0,0,0-0.1,0c0,0,0,0,0,0c0,0,0,0,0-0.1
					c0,0,0,0,0-0.1c0,0,0-0.1,0.1-0.1c0,0,0.1,0,0.1,0l28.3,5c0,0,0,0,0.1,0c0,0,0,0,0.1,0c0,0,0,0,0,0.1c0,0,0,0,0,0.1
					c0,0,0,0.1-0.1,0.1C211.5,152.3,211.4,152.3,211.4,152.3z"/>
				<path class="st8" d="M212.8,152.5L212.8,152.5l-32.2-2.4c0,0,0,0-0.1,0c0,0,0,0-0.1,0c0,0,0,0,0-0.1c0,0,0,0,0-0.1
					c0,0,0-0.1,0.1-0.1c0,0,0.1,0,0.1,0l26,1.9l-24.4-3.2c0,0,0,0-0.1,0c0,0,0,0-0.1,0c0,0,0,0,0-0.1c0,0,0,0,0-0.1
					c0,0,0-0.1,0.1-0.1c0,0,0.1,0,0.1,0l30.5,3.9c0,0,0.1,0,0.1,0.1c0,0,0,0.1,0,0.1c0,0,0,0.1-0.1,0.1
					C212.9,152.5,212.8,152.5,212.8,152.5L212.8,152.5z"/>
				<path class="st8" d="M227.6,196.5c9.8-6.9,18.8-9.8,29.6-9c-2-15-1.4-30.4-3.4-45.4c-1.1-1.2-6.8-0.2-8.8-1.2
					c-1.1-0.6-0.8-1.9-1.6-2.6c0,0-0.5-2.5-0.8-4c-10.2,3.8-15.6,7.6-20.9,17C223.7,166.3,225.7,181.4,227.6,196.5z"/>
				<path class="st13" d="M229.7,198.3c9.8-6.9,16.8-8.1,27.6-7.3c-2-15-2.2-33.3-4.2-48.3c-1.7-1.7-5.3-1.5-7.1-2.9
					c-0.2-0.2-0.9-2.9-1.1-3.8c-9.4,4-13.8,6.4-23.2,15.3C223.7,166.4,227.7,183.2,229.7,198.3z"/>
				<path class="st12" d="M231.9,200.4c9.8-6.9,15.1-6.5,26-5.8c-2-15-2-37.6-3.9-52.6c-3.1-2.2-3.8-2.6-6.2-4.7
					c-7.9,4.5-16.7,8.8-26,14C223.7,166.4,229.9,185.3,231.9,200.4z"/>
				<path class="st8" d="M223.2,150.9c0,0-0.1,0-0.1,0s-0.1,0-0.1-0.1c0,0,0,0,0-0.1c0,0,0,0,0-0.1c0,0,0,0,0-0.1c0,0,0,0,0.1,0
					l26.1-11.6c0,0,0.1,0,0.1,0c0,0,0.1,0,0.1,0.1c0,0,0,0,0,0.1c0,0,0,0,0,0.1c0,0,0,0,0,0.1c0,0,0,0-0.1,0L223.2,150.9
					L223.2,150.9L223.2,150.9z"/>
				<path class="st8" d="M221.9,151.4c0,0-0.1,0-0.1,0c0,0-0.1,0-0.1-0.1c0,0,0,0,0-0.1c0,0,0,0,0-0.1c0,0,0,0,0-0.1c0,0,0,0,0.1,0
					l28.5-11.1c0,0,0.1,0,0.1,0c0,0,0.1,0.1,0.1,0.1c0,0,0,0,0,0.1c0,0,0,0,0,0.1c0,0,0,0,0,0.1c0,0,0,0-0.1,0l-22.8,8.9l24.7-8.1
					c0,0,0.1,0,0.1,0s0.1,0.1,0.1,0.1c0,0,0,0,0,0.1c0,0,0,0,0,0.1c0,0,0,0,0,0.1c0,0,0,0-0.1,0L221.9,151.4L221.9,151.4
					L221.9,151.4z"/>
				<path class="st8" d="M222.3,151c0,0-0.1,0-0.1,0c0,0-0.1,0-0.1-0.1c0,0,0,0,0-0.1c0,0,0,0,0-0.1c0,0,0,0,0-0.1c0,0,0,0,0.1,0
					l25.4-12.2c0,0,0.1,0,0.1,0c0,0,0.1,0,0.1,0.1c0,0,0,0,0,0.1c0,0,0,0,0,0.1c0,0,0,0,0,0.1c0,0,0,0-0.1,0L222.3,151
					C222.3,151,222.3,151,222.3,151L222.3,151z"/>
				<path class="st14" d="M228.7,203.6c-1.3,1-2.8,1.6-4.3,1.7c-1.6,0.2-3.2,0-4.6-0.7l-6.9-52.3c1.4,0.6,3,0.9,4.6,0.7
					c1.6-0.2,3.1-0.8,4.3-1.8L228.7,203.6z"/>
				<path class="st15" d="M219.8,204.7l-31.8-1.6l-8.7-52.1l33.6,1.4L219.8,204.7z"/>
				<path class="st15" d="M228.6,203.6l30.4-9.1l-5-52.5l-32.2,9.3L228.6,203.6z"/>
				<path class="st16" d="M223,161c-1.3,0.9-2.7,1.4-4.3,1.6c-1.5,0.2-3.1,0-4.5-0.5l-0.4-3.4c1.4,0.5,3,0.7,4.5,0.5
					c1.5-0.2,3-0.7,4.3-1.6L223,161z"/>
				<path class="st16" d="M223.8,166.5c-1.3,0.9-2.7,1.4-4.3,1.6c-1.5,0.2-3.1,0-4.5-0.5l-0.4-3.4c1.4,0.5,3,0.7,4.5,0.5
					c1.5-0.2,3-0.7,4.3-1.6L223.8,166.5z"/>
				<path class="st16" d="M224.5,172c-1.3,0.9-2.7,1.4-4.3,1.6c-1.5,0.2-3.1,0-4.5-0.5l-0.4-3.4c1.4,0.5,3,0.7,4.5,0.5
					c1.5-0.2,3-0.7,4.3-1.6L224.5,172z"/>
				<path class="st14" d="M228.1,162.4c-0.2,0-0.4,0-0.6-0.1c-0.2-0.1-0.3-0.3-0.4-0.4c0-0.1-0.1-0.2,0-0.3c0-0.1,0-0.2,0.1-0.3
					c0.1-0.1,0.1-0.2,0.2-0.3c0.1-0.1,0.2-0.1,0.3-0.2l24.8-7.9c0.2-0.1,0.5-0.1,0.7,0c0.2,0.1,0.4,0.3,0.5,0.5c0,0.1,0.1,0.2,0,0.3
					c0,0.1,0,0.2-0.1,0.3c-0.1,0.1-0.1,0.2-0.2,0.3c-0.1,0.1-0.2,0.1-0.3,0.2l-24.8,7.9C228.2,162.4,228.2,162.4,228.1,162.4
					L228.1,162.4z"/>
				<path class="st14" d="M232.1,166.2c-0.2,0-0.4,0-0.6-0.1c-0.2-0.1-0.3-0.3-0.4-0.5c0-0.1-0.1-0.2,0-0.3c0-0.1,0-0.2,0.1-0.3
					c0.1-0.1,0.1-0.2,0.2-0.3c0.1-0.1,0.2-0.1,0.3-0.2l18.4-5.8c0.2-0.1,0.5-0.1,0.7,0c0.2,0.1,0.4,0.3,0.5,0.5c0,0.1,0.1,0.2,0,0.3
					c0,0.1,0,0.2-0.1,0.3c-0.1,0.1-0.1,0.2-0.2,0.3c-0.1,0.1-0.2,0.1-0.3,0.2l-18.4,5.8C232.2,166.1,232.2,166.1,232.1,166.2
					L232.1,166.2z"/>
			</g>
		</g>
		<g>
			<defs>
				
					<rect id="SVGID_00000167392189664418998870000015070592716700083902_" x="64.2" y="141.5" transform="matrix(0.8192 -0.5735 0.5735 0.8192 -75.0143 94.5266)" width="96.5" height="49.6"/>
			</defs>
			<clipPath id="SVGID_00000067934483689049202250000008307680465698454439_">
				<use xlink:href="#SVGID_00000167392189664418998870000015070592716700083902_"  style="overflow:visible;"/>
			</clipPath>
			<g style="clip-path:url(#SVGID_00000067934483689049202250000008307680465698454439_);">
				<path class="st18" d="M111.4,162.1l4.5,6.4l-9.9,6.9l-4.5-6.4L111.4,162.1z"/>
				<path class="st19" d="M146.1,172.9c-11.1,7.8-26.4,4.9-34.3-6.3c-7.8-11.2-5.2-26.6,5.8-34.3c11.1-7.8,26.4-5,34.3,6.3
					C159.8,149.8,157.2,165.1,146.1,172.9z M143.4,169.1c9-6.3,11.1-18.8,4.7-27.9c-6.4-9.1-18.8-11.4-27.8-5.1s-11.1,18.8-4.7,27.9
					C122,173.1,134.4,175.4,143.4,169.1z"/>
				<path class="st20" d="M146.1,172.9c-11.1,7.8-26.4,4.9-34.3-6.3c-7.8-11.2-5.2-26.6,5.8-34.3c11.1-7.8,26.4-5,34.3,6.3
					C159.8,149.8,157.2,165.1,146.1,172.9z M144.4,170.4c9.7-6.8,12-20.3,5.1-30.2c-6.9-9.8-20.4-12.3-30.1-5.5
					c-9.7,6.8-12,20.3-5.1,30.2C121.2,174.8,134.6,177.2,144.4,170.4z"/>
				<path class="st21" d="M114,161.2c-4.9-10-0.8-22,9.1-26.7c9.9-4.8,21.9-0.5,26.7,9.5c4.9,10,0.8,22-9.1,26.7
					C130.8,175.5,118.8,171.2,114,161.2z"/>
				<path class="st22" d="M118,163.7c-6.4-9.1-4.3-21.6,4.7-27.9c2.2-1.5,4.7-2.6,7.3-3.2c-3.5,0.3-6.8,1.5-9.7,3.5
					c-9,6.3-11.1,18.8-4.7,27.9c2.3,3.2,5.4,5.7,9.1,7.2c3.7,1.5,7.6,1.8,11.5,1c-3.5,0.3-7-0.4-10.2-1.9
					C122.8,168.9,120,166.6,118,163.7z"/>
				<path class="st23" d="M111.9,151.8c-0.1,1.9,0.2,3.9,0.7,5.8l35.8,6.5c1.1-1.6,1.9-3.3,2.5-5.2L111.9,151.8z"/>
				<path class="st23" d="M151.7,155c0.3-2.8,0-5.7-0.9-8.4c-6.1-1.1-12.1-2.3-18.2-3.4c-5.5-1-11.1-2-16.6-3.1
					c-1.8,2.3-3,4.9-3.6,7.7L151.7,155z"/>
				<path class="st24" d="M103.4,165.6l-30.2,21.1c-1,0.7-1.6,1.7-1.8,2.8c-0.2,1.2,0.1,2.3,0.7,3.3l1.5,2.1
					c0.3,0.5,0.8,0.9,1.2,1.2c0.5,0.3,1,0.5,1.6,0.6c0.6,0.1,1.2,0.1,1.7,0c0.6-0.1,1.1-0.4,1.6-0.7L110,175L103.4,165.6z"/>
				<path class="st25" d="M110,174.9c-8.8,6.9-20.5,9.4-31.8,8.3l-5,3.5c-1,0.7-1.6,1.7-1.8,2.8c-0.2,1.2,0.1,2.3,0.7,3.3l1.5,2.1
					c0.7,1,1.7,1.6,2.9,1.8c1.2,0.2,2.3,0,3.3-0.7L110,174.9L110,174.9z"/>
				<path class="st26" d="M87.6,179.2c-0.1,0.1-0.3,0.1-0.5,0.1c-0.2,0-0.3-0.1-0.4-0.3c-0.1-0.1-0.1-0.3-0.1-0.5s0.1-0.3,0.3-0.4
					l15.9-11.1c0.1-0.1,0.3-0.1,0.5-0.1c0.2,0,0.3,0.1,0.4,0.3c0.1,0.1,0.1,0.3,0.1,0.5c0,0.2-0.1,0.3-0.3,0.4L87.6,179.2z"/>
			</g>
		</g>
		<path class="st2" d="M105.9,208.4c-1.1-13.9-15.3-13.4-16.9-26.4l-0.6-4.5l-0.9-7.2c0-0.3-0.1-0.6-0.2-0.9
			c-0.1-0.3-0.3-0.5-0.5-0.7c-0.9-0.5-1.9,0.3-2.4,1.3c-1.5,2.8-2,2.1-3.8-0.1c-0.5-0.6-1.2-1.3-1.9-1c-0.4,0.2-0.7,0.5-0.9,0.8
			l-1.8,2.6c-0.5-0.5-1.1-0.8-1.8-1.1c-0.2-0.1-0.6-0.2-0.8,0c-0.1,0.1-0.1,0.2-0.1,0.3c-0.4,1.8,1,3.6,1.3,5.3
			c0.2,1.4,0.2,2.9-0.1,4.3c-0.7,3.8-1,7.6-1,11.5c0,3.8,0.6,7.5,1.6,11.1c0.5,1.8,1.2,3.5,2,5.1c0.4,0.8,1.8,4.2,2.7,4.4
			c8.5,2.2,17.4,2.5,26,0.8C106,212.1,106.1,210.2,105.9,208.4z"/>
		<path class="st2" d="M206.6,222.4c8.6,1.7,17.5,1.5,26-0.8c0.9-0.2,2.3-3.6,2.7-4.4c0.8-1.7,1.5-3.4,2-5.1c1-3.6,1.6-7.4,1.6-11.1
			c0-3.8-0.3-7.7-1-11.5c-0.3-1.4-0.4-2.9-0.1-4.3c0.4-1.7,1.8-3.5,1.3-5.3c0-0.1-0.1-0.2-0.1-0.3c-0.2-0.2-0.5-0.1-0.8,0
			c-0.6,0.3-1.2,0.7-1.8,1.2l-1.8-2.6c-0.2-0.4-0.5-0.7-0.9-0.8c-0.7-0.2-1.4,0.4-1.9,1c-1.8,2.3-2.3,3-3.8,0.1
			c-0.5-0.9-1.5-1.8-2.4-1.3c-0.2,0.2-0.4,0.5-0.6,0.8c-0.1,0.3-0.2,0.6-0.2,0.9c-0.3,2.4-0.6,4.8-0.9,7.2l-0.6,4.5
			c-1.6,13-15.8,12.4-16.9,26.4C206.2,218.7,206.3,220.6,206.6,222.4z"/>
	</g>
</g>
</svg>
