<svg width="122" height="83" viewBox="0 0 122 83" fill="none" xmlns="http://www.w3.org/2000/svg">
<g clip-path="url(#clip0_1_161)">
<path d="M13.2505 96.7066C13.2505 96.7066 13.5439 86.3788 16.1636 87.1384C18.7833 87.898 19.192 91.7014 19.192 91.7014C19.192 91.7014 19.6007 81.7326 22.5819 82.3777C25.5631 83.0229 26.1395 91.103 26.1395 91.103C26.1395 91.103 27.8161 83.8918 29.5818 85.7024C31.3475 87.513 31.8714 91.6753 31.8714 91.6753C31.8714 91.6753 34.9522 86.384 36.1048 88.7773C37.2575 91.1707 36.8174 96.0614 36.8174 96.0614L13.2505 96.7066Z" fill="#86926E"/>
<path d="M48.3861 52.1592C48.0179 53.3112 47.9672 54.5401 48.2394 55.718C49.193 58.8762 53.3216 59.4173 56.0252 59.1936C57.2984 59.0895 58.6449 58.871 59.2893 57.9553C59.8133 57.1801 59.6561 56.103 59.4256 55.1093C59.2126 54.1691 58.9467 53.2415 58.6292 52.3309C55.6846 53.7461 51.7655 53.3767 48.3861 52.1592Z" fill="#8E8A00"/>
<path d="M51.1996 47.2477C49.8381 48.6068 48.8667 50.3025 48.386 52.1592C51.7655 53.3767 55.6846 53.7461 58.6291 52.3309C58.2897 51.3409 57.8962 50.37 57.4503 49.4225C55.5379 45.3434 53.1068 45.4891 51.1996 47.2477Z" fill="#A3A300"/>
<path d="M69.7944 52.6275C69.4498 51.5148 69.0297 50.4267 68.5369 49.3705C66.8236 45.7284 64.6807 46.1655 63.0093 48.1114C61.7579 49.6769 60.8947 51.5126 60.4891 53.4704C63.6695 54.2924 66.8236 53.8085 69.7944 52.6275Z" fill="#A3A300"/>
<path d="M69.7944 52.6275C66.8236 53.8346 63.6695 54.3184 60.4996 53.4964C60.2403 54.5318 60.226 55.6127 60.4577 56.6546C61.317 59.563 64.9689 59.537 67.3476 58.9594C68.4688 58.6889 69.6791 58.2935 70.2188 57.3309C70.6694 56.5193 70.5279 55.5047 70.3236 54.5734C70.1768 53.8918 69.9935 53.2466 69.7944 52.6275Z" fill="#8E8A00"/>
<path d="M81.1587 53.5848C81.0748 53.0645 80.9805 52.5442 80.86 52.0239C80.0008 48.2466 77.8998 48.3819 75.935 50.026C74.7173 51.1081 73.7118 52.4046 72.9695 53.8501C75.4529 54.7763 78.3975 54.4433 81.1587 53.5848Z" fill="#A3A300"/>
<path d="M72.9695 53.8346C72.1993 55.2966 71.7277 56.8002 71.8063 57.9033C72.0211 60.8325 75.4477 61.3268 77.795 61.1083C78.9005 61.0042 80.116 60.7961 80.8181 59.9428C81.4049 59.2196 81.4783 58.2206 81.473 57.2945C81.4655 56.0517 81.3604 54.8114 81.1587 53.5848C78.3975 54.4433 75.4529 54.7763 72.9695 53.8346Z" fill="#8E8A00"/>
<path d="M92.4915 56.3059C92.4182 55.6764 92.3344 55.052 92.2191 54.4329C91.4908 50.6243 89.3846 50.6868 87.3674 52.258C86.469 52.9854 85.6804 53.837 85.0254 54.7867C87.3498 55.8969 89.9147 56.4188 92.4915 56.3059Z" fill="#A3A300"/>
<path d="M85.0254 54.7867C83.7836 56.5453 82.9034 58.5848 82.9558 59.9896C83.0658 62.924 86.4715 63.538 88.8292 63.4027C89.9347 63.3403 91.1555 63.1738 91.889 62.3621C92.502 61.6597 92.6121 60.666 92.6383 59.7607C92.6705 58.6175 92.6215 57.4735 92.4915 56.3372C89.9121 56.4404 87.347 55.9077 85.0254 54.7867Z" fill="#8E8A00"/>
<path d="M103.348 62.3673C103.733 61.7025 104.082 61.0183 104.396 60.3174C105.836 57.0135 104.186 55.973 101.812 56.1551C100.703 56.2523 99.6133 56.5118 98.5798 56.9251C99.6119 58.9542 101.399 60.7909 103.348 62.3673Z" fill="#A3A300"/>
<path d="M98.5588 56.9043C96.725 57.6119 95.0274 58.7045 94.3358 59.7971C92.8793 62.1124 95.1741 64.3445 97.0551 65.4631C97.9406 65.9834 98.9622 66.5037 99.963 66.2331C100.782 65.9273 101.472 65.3527 101.917 64.6046C102.435 63.8857 102.913 63.1388 103.348 62.3674C101.399 60.7909 99.6119 58.9542 98.5588 56.9043Z" fill="#8E8A00"/>
<path d="M112.454 61.8991C110.467 61.8091 108.484 62.15 106.643 62.898C108.215 65.3486 110.583 67.2216 112.931 68.9906C113.497 68.279 114.022 67.5355 114.502 66.7638C116.603 63.4703 115.011 62.102 112.454 61.8991Z" fill="#A3A300"/>
<path d="M103.924 64.6202C102.001 66.8574 104.086 69.5994 105.91 71.0874C106.769 71.7846 107.78 72.487 108.886 72.3673C109.813 72.2685 110.573 71.6077 111.228 70.9417C111.837 70.3221 112.412 69.6709 112.951 68.9906C110.583 67.2216 108.199 65.3486 106.664 62.898C105.632 63.2606 104.696 63.8492 103.924 64.6202Z" fill="#8E8A00"/>
<path d="M119.957 78.1686C122.744 76.9875 122.346 75.2289 120.737 73.7253C118.793 71.9043 115.084 70.4578 113.082 70.8377C112.637 70.9128 112.215 71.091 111.851 71.358C112.574 74.8959 116.027 77.0447 119.957 78.1686Z" fill="#A3A300"/>
<path d="M111.836 71.358C110.4 72.4662 110.405 74.8595 110.788 76.5609C110.997 77.5442 111.312 78.616 112.171 79.1623C112.941 79.5477 113.822 79.6579 114.665 79.4745C116.288 79.2751 117.884 78.9036 119.427 78.3663C119.616 78.2987 119.789 78.231 119.951 78.1582C116.027 77.0448 112.574 74.896 111.836 71.358Z" fill="#8E8A00"/>
<path d="M14.4504 46.9355C13.8269 47.0708 13.2086 47.2216 12.5956 47.3985C8.47743 48.6004 8.77607 50.8793 10.7251 52.9032C11.8197 53.9858 13.0873 54.8807 14.4765 55.5515C13.8706 52.7119 13.8617 49.7787 14.4504 46.9355Z" fill="#A3A300"/>
<path d="M22.8544 50.1092C22.6658 48.9126 22.3304 47.6066 21.3559 46.899C20.5176 46.3059 19.4121 46.3007 18.3852 46.3788C17.0616 46.474 15.7466 46.6635 14.4504 46.9459C13.8531 49.7873 13.8531 52.7205 14.4504 55.5619C16.3261 56.4984 18.3275 57.0499 19.6898 56.8678C22.9487 56.4204 23.2578 52.6535 22.8544 50.1092Z" fill="#8E8A00"/>
<path d="M13.3605 34.9376C9.08517 35.2289 8.87561 37.539 10.3374 39.9115C11.1022 41.0969 12.0458 42.1585 13.1352 43.0593C13.7436 40.1772 14.8402 37.4186 16.3785 34.9011C15.3726 34.8586 14.3651 34.8708 13.3605 34.9376Z" fill="#A3A300"/>
<path d="M22.0266 36.3319C21.3402 35.5723 20.2556 35.3278 19.2444 35.1769C18.2949 35.0332 17.3381 34.9412 16.3785 34.9011C14.8402 37.4186 13.7436 40.1772 13.1353 43.0593C14.8381 44.4953 16.8028 45.5827 18.2699 45.7024C21.5078 45.9677 22.6291 42.3569 22.7915 39.7867C22.8649 38.5796 22.8439 37.232 22.0266 36.3319Z" fill="#8E8A00"/>
<path d="M18.6471 24.5318C14.398 23.9438 13.7273 26.1395 14.6599 28.7825C15.0404 29.7963 15.5492 30.7579 16.1741 31.6441C17.8524 29.5397 19.3145 27.2738 20.5386 24.8804C19.9098 24.7139 19.2811 24.5994 18.6471 24.5318Z" fill="#A3A300"/>
<path d="M26.8415 27.6535C26.3176 26.769 25.3169 26.306 24.3528 25.9522C23.1101 25.4968 21.8352 25.1333 20.5385 24.8647C19.3145 27.2582 17.8524 29.5241 16.1741 31.6285C17.6097 33.7097 19.6111 35.5723 21.2301 36.0458C24.3476 36.9667 26.1866 33.6629 26.8782 31.1811C27.1978 30.0052 27.4808 28.6941 26.8415 27.6535Z" fill="#8E8A00"/>
<path d="M30.0428 13.9126C28.7699 13.1531 27.4465 12.4804 26.0818 11.8991C21.3663 9.90113 19.8836 12.2372 20.1351 15.5775C20.4096 18.062 21.2095 20.4609 22.4823 22.6171C25.7571 20.4572 28.3722 17.4464 30.0428 13.9126Z" fill="#A3A300"/>
<path d="M34.5697 18.0541C34.2501 16.8731 33.2284 16.025 32.2277 15.3174C31.5204 14.7971 30.7869 14.3548 30.0429 13.9126C28.3722 17.4464 25.7571 20.4572 22.4824 22.6171C23.1865 23.9706 24.2004 25.1414 25.4426 26.0354C28.7539 28.0645 31.9238 24.8127 33.4956 22.154C34.2396 20.8897 34.9522 19.4589 34.5697 18.0541Z" fill="#8E8A00"/>
<path d="M3.34277 82.8304C3.34277 83.512 3.34277 84.1935 3.34277 84.8699C4.0824 84.6273 4.71882 84.1455 5.15038 83.5015C5.15038 83.5015 6.80078 86.4412 6.90033 86.6805C6.95273 86.8054 6.9894 86.9667 6.90033 87.0551C7.32242 86.6865 7.63727 86.2121 7.81202 85.6816C7.86965 85.5047 8.38834 84.1207 8.25736 84.0218C8.79111 84.4333 9.21408 84.9696 9.48861 85.5827C9.65103 85.9417 9.97064 86.6753 9.76107 87.0499C11.2543 86.0822 10.9242 83.8658 11.0342 82.3673C11.0889 80.777 11.3622 79.2016 11.8463 77.6847C12.2537 76.5423 12.7805 75.4454 13.4182 74.4121C14.121 73.3719 14.9557 72.4259 15.9017 71.5973C16.7348 70.8116 17.5626 70.0364 18.4376 69.2976C20.2766 67.7367 22.1995 66.3215 23.9704 64.6982C24.4943 64.2143 25.0183 63.7149 25.5055 63.1946C26.9411 61.6649 28.1934 59.2456 26.8521 57.6327C26.3371 57.0716 25.6502 56.6949 24.8978 56.5609C19.1973 55.2757 14.2146 61.4308 10.8037 65.0624C6.22332 69.8868 3.57079 76.2037 3.34277 82.8304Z" fill="#BCC100"/>
<path d="M47.2963 70.0885C46.3531 71.9759 45.789 74.0276 45.6354 76.129C45.4897 78.0928 45.7604 80.065 46.43 81.9183C47.0997 83.7716 48.1534 85.4649 49.523 86.8887C50.8643 88.2258 55.344 90.0677 53.9032 92.0916C53.0282 93.3143 50.2356 93.2831 48.9205 93.4079C47.6892 93.5276 44.0897 93.1842 43.4872 94.1988C43.2294 94.55 43.1135 94.9844 43.1624 95.4163C43.351 96.2955 44.5089 96.4933 45.4153 96.5037C50.8119 96.5453 56.2609 96.5817 61.5318 95.4319C65.1313 94.6462 63.1036 91.0718 62.6583 88.6681C62.1658 86.0666 64.6073 84.0167 66.1949 81.9043C67.403 80.2425 68.2618 78.3563 68.7203 76.358C69.7682 72.2269 69.3333 67.4766 66.4883 64.2976C62.4173 59.7503 54.3276 61.4568 50.4294 65.5671C49.1605 66.9079 48.104 68.4325 47.2963 70.0885Z" fill="#BCC100"/>
<path d="M119.223 86.7794C118.463 72.2113 106.428 62.487 93.1517 58.7773C86.6391 56.9563 79.8698 56.2435 73.1371 55.5411C63.0879 54.5005 52.9129 56.1447 42.7851 55.3382C40.5217 55.1613 38.1273 55.3798 35.9739 54.6462C34.2396 54.0635 33.4852 52.1176 34.816 50.7596C37.4671 48.0697 41.4857 47.8408 44.9438 46.9199C57.8642 43.486 71.712 33.9646 73.8078 19.9168C74.7247 13.7461 72.6289 8.08014 66.3678 5.98337C62.7526 4.77629 58.7025 4.55776 55.5588 2.20605C53.1068 0.364214 49.6854 -0.603524 46.699 0.405842C41.5486 2.14362 39.5419 9.35485 36.0263 13.0021C33.3751 15.7544 30.2629 18.0437 27.6694 20.8429C24.6148 24.1207 22.3357 27.9553 20.4233 31.9771C16.719 39.7815 15.5297 48.8033 16.1951 57.3413C22.1575 65.3538 31.2741 70.947 40.7732 73.1894C51.7026 75.359 62.0872 70.4787 72.4717 73.7097C72.697 73.7825 72.9066 73.8658 73.1214 73.949C72.697 77.3257 73.6034 82.1384 77.0405 83.2779C77.5688 83.4499 78.1257 83.5188 78.6804 83.4808C78.6437 84.0011 78.5809 84.5214 78.4918 85.0416C80.528 84.1133 82.4381 82.9333 84.1766 81.5297C85.8113 80.692 87.3988 79.8387 88.7873 79.5318C91.4384 78.9594 94.3463 78.9282 96.704 80.2498C99.2085 81.6545 100.749 84.4537 100.99 87.2997C101.135 90.1784 100.345 93.0274 98.7369 95.4267C87.0687 114.063 59.9652 110.427 42.0254 106.311C37.1925 105.238 32.4212 103.908 27.7323 102.326C25.9561 101.717 14.7961 98.4652 14.5289 96.665C14.9114 99.2144 17.4473 100.827 19.7264 102.04L40.3174 113.205C54.3066 120.786 71.3976 124.527 87.1473 121.202C103.154 117.83 120.15 104.537 119.223 86.7794Z" fill="#CFD329"/>
<path d="M33.6424 31.9459C30.3625 41.1707 21.6179 56.9199 36.3773 60.1665C42.387 61.795 47.8517 59.6202 53.3164 57.4506C55.3021 56.7326 57.3508 56.0042 59.4465 55.2966C53.898 55.4839 48.3337 55.7805 42.7851 55.3382C40.5217 55.1613 38.1273 55.3798 35.9739 54.6462C34.2396 54.0635 33.4852 52.1176 34.816 50.7597C37.4671 48.0698 41.4858 47.8408 44.9438 46.9199L45.9917 46.6285C38.9289 46.3372 35.5547 41.5505 33.6424 31.9459Z" fill="#BCC100"/>
<path d="M119.223 86.7794C118.463 72.2113 106.428 62.487 93.1517 58.7773C86.6391 56.9563 79.8698 56.2435 73.1371 55.5411C68.5849 55.1421 64.0102 55.0604 59.4465 55.2966C57.3507 56.0042 55.3021 56.7326 53.3164 57.4506C47.8517 59.6202 42.3869 61.795 36.3773 60.1665C21.6179 56.9095 30.3625 41.1707 33.6423 31.9459C36.0577 38.2414 40.4536 44.1936 45.9707 46.6285C58.5768 42.9865 71.7434 33.5848 73.7816 19.9168C74.6985 13.7461 72.6027 8.08014 66.3416 5.98337C62.7264 4.77629 58.6763 4.55776 55.5327 2.20605C53.0806 0.364214 49.6593 -0.603524 46.6728 0.405842C41.5224 2.14362 39.5157 9.35485 36.0001 13.0021C33.3489 15.7544 30.2367 18.0437 27.6432 20.8429C24.5886 24.1207 22.3095 27.9553 20.3971 31.9771C16.6928 39.7815 15.5034 48.8033 16.1688 57.3413C22.1313 65.3538 31.2479 70.947 40.747 73.1894C51.6764 75.359 62.061 70.4787 72.4455 73.7097C72.6708 73.7825 72.8804 73.8658 73.0952 73.949C72.6708 77.3257 73.5772 82.1384 77.0143 83.2779C77.5427 83.4499 78.0995 83.5188 78.6542 83.4808C78.6176 84.0011 78.5547 84.5214 78.4656 85.0416C80.5018 84.1133 82.4119 82.9333 84.1504 81.5297C85.7851 80.692 87.3726 79.8387 88.7611 79.5318C91.4122 78.9594 94.3201 78.9282 96.6778 80.2498C99.1823 81.6545 100.723 84.4537 100.964 87.2997C101.117 90.1756 100.336 93.0243 98.7369 95.4267C87.0687 114.063 59.9652 110.427 42.0254 106.311C37.1925 105.238 32.4212 103.908 27.7323 102.326C25.9561 101.717 14.7961 98.4652 14.5289 96.665C14.9114 99.2144 33.4537 109.485 40.3174 113.205C54.3066 120.786 71.3976 124.527 87.1473 121.202C103.154 117.83 120.15 104.537 119.223 86.7794Z" fill="#CFD329"/>
<path d="M72.4455 73.7305C65.87 71.6493 59.2946 72.872 52.5829 73.4807C49.9407 78.3977 49.1955 84.1029 50.4871 89.5265H50.529C53.2807 89.6956 56.042 89.6242 58.7811 89.3132C64.1986 88.7929 69.7839 88.4339 74.9133 86.5297C76.1288 86.0822 77.3234 85.5827 78.4813 85.0364C79.3144 80.0988 77.9574 75.4631 72.4455 73.7305Z" fill="#DBDBDB"/>
<path d="M52.5828 73.4807C48.6899 73.8345 44.7551 74.001 40.747 73.1894C31.2479 70.9469 22.1313 65.3538 16.1688 57.3413C16.4469 61.6991 17.4123 65.9864 19.0296 70.0468C21.5864 76.1186 25.9613 81.5245 31.7037 84.8127C37.4461 88.1009 44.0059 89.0739 50.4713 89.5265C49.1846 84.101 49.9354 78.3957 52.5828 73.4807Z" fill="#EDEDED"/>
<path d="M58.2257 75.5203C57.2832 77.4079 56.7191 79.4595 56.5648 81.5609C56.4178 83.5251 56.6885 85.4981 57.3591 87.3518C58.0298 89.2054 59.0855 90.8983 60.4577 92.3205C61.7938 93.6576 66.2787 95.4995 64.8326 97.5234C63.9576 98.7461 61.165 98.7149 59.8552 98.8398C58.5453 98.9646 55.0192 98.616 54.4166 99.6306C54.1607 99.9825 54.0467 100.417 54.097 100.848C54.2857 101.727 55.4383 101.925 56.3448 101.935C61.7414 101.977 67.1904 102.014 72.4612 100.864C76.066 100.078 74.0331 96.5088 73.5929 94.0999C73.0952 91.4984 75.5368 89.4485 77.1243 87.3361C78.3324 85.6744 79.1913 83.7881 79.6497 81.7898C80.6976 77.6587 80.2627 72.9084 77.4177 69.7294C73.3467 65.1821 65.257 66.8887 61.3589 70.999C60.0899 72.3398 59.0334 73.8643 58.2257 75.5203Z" fill="#CFD329"/>
<path d="M22.5505 95.1873C22.0266 95.6348 21.5026 96.0614 20.9787 96.4828C20.6998 95.7601 20.6703 94.9659 20.8948 94.2248C20.8948 94.2248 17.5626 94.8387 17.3111 94.9168C17.1853 94.9584 17.0334 95.0312 17.0229 95.1613C17.0441 94.6075 17.2122 94.069 17.5102 93.6004C17.6097 93.4443 18.3537 92.1644 18.5162 92.206C17.8632 92.0541 17.1824 92.0666 16.5356 92.2425C16.1532 92.3413 15.383 92.5702 15.2205 92.9657C15.0214 91.2071 16.9495 90.0468 18.0341 89.0167C19.2439 87.962 20.3018 86.747 21.1778 85.4058C21.8137 84.3734 22.3405 83.2784 22.7496 82.1384C23.107 80.9373 23.3094 79.696 23.3521 78.4443C23.4307 77.3101 23.5041 76.1759 23.5146 75.0364C23.5407 72.6535 23.4307 70.2602 23.5617 67.8772C23.5966 67.1627 23.6595 66.4499 23.7503 65.7388C24.0175 63.6577 25.1021 61.1655 27.2084 61.1655C27.9784 61.1969 28.7159 61.4825 29.3041 61.9771C33.9358 65.5203 32.3378 73.2518 31.6933 78.179C30.8316 84.7644 27.5809 90.8117 22.5505 95.1873Z" fill="#CFD329"/>
<path d="M67.4419 10.9313C66.8575 10.3907 66.4442 9.6929 66.2525 8.92299C66.0587 7.85119 67.0437 7.66389 67.7562 8.14255C68.6154 8.82393 69.3281 9.66963 69.852 10.6295C70.0878 11.0146 70.2712 11.8782 69.3595 11.9095C68.5998 11.9251 67.8663 11.3371 67.4419 10.9313Z" fill="#352E28"/>
<path d="M54.4691 5.11445C52.5095 1.07699 45.934 1.0978 44.0374 5.34338C43.2252 7.14879 43.723 9.45888 44.8914 10.9989C47.2334 14.0843 52.3366 14.1623 54.4795 10.7648C55.4698 9.18834 55.3545 6.93547 54.4691 5.11445Z" fill="white"/>
<path d="M54.0708 6.84181C53.7005 6.11435 53.0929 5.53296 52.3471 5.19248C51.7364 4.92764 51.0619 4.84255 50.4039 4.94733C49.7459 5.0521 49.1321 5.34234 48.6354 5.78351C48.1387 6.22468 47.7801 6.79823 47.6021 7.43595C47.4242 8.07367 47.4344 8.74873 47.6316 9.38084C48.4856 12.18 52.4623 12.9188 54.0866 10.3434C54.3871 9.80757 54.5436 9.20387 54.5408 8.59054C54.5381 7.97721 54.3762 7.37494 54.0708 6.84181Z" fill="#160100"/>
<path d="M47.5216 27.0863C48.5694 30.0468 52.5828 31.3319 56.4548 29.9583C60.3267 28.5848 62.6006 25.078 61.537 22.1175C60.4734 19.1571 56.4757 17.8772 52.6038 19.2507C48.7319 20.6243 46.458 24.1311 47.5216 27.0863Z" fill="#D16966"/>
<path d="M68.1806 24.3861C68.0836 24.3626 67.9986 24.3047 67.9416 24.2232C67.8847 24.1417 67.8597 24.0423 67.8715 23.9438C67.8834 23.8355 67.9381 23.7363 68.0235 23.668C68.109 23.5997 68.2183 23.568 68.3273 23.5796C68.4636 23.5796 71.6806 23.9126 72.3722 21.2695C72.3861 21.2154 72.4108 21.1646 72.445 21.1201C72.4791 21.0756 72.5219 21.0385 72.5708 21.0108C72.6197 20.9831 72.6737 20.9655 72.7296 20.959C72.7855 20.9525 72.8421 20.9573 72.8961 20.973C72.9506 20.9867 73.0016 21.0113 73.0462 21.0453C73.0908 21.0792 73.1279 21.1218 73.1554 21.1705C73.1828 21.2192 73.2 21.2729 73.2059 21.3284C73.2118 21.3839 73.2062 21.44 73.1895 21.4932C72.4927 24.1623 69.6529 24.5734 68.254 24.4121L68.1806 24.3861Z" fill="#160100"/>
<path d="M71.7958 60.385C71.7958 62.0708 69.2704 63.4339 66.1477 63.4339C63.025 63.4339 60.4891 62.0708 60.4891 60.385C60.4891 58.6993 63.0198 57.3413 66.1372 57.3413C69.2547 57.3413 71.7958 58.7045 71.7958 60.385Z" fill="#BCC100"/>
<path d="M58.6292 62.9084C58.6292 64.3028 56.5648 65.4318 54.0185 65.4318C51.4721 65.4318 49.4078 64.3028 49.4078 62.9084C49.4078 61.514 51.4721 60.385 54.0185 60.385C56.5648 60.385 58.6292 61.514 58.6292 62.9084Z" fill="#BCC100"/>
<path d="M85.1144 60.7336C84.8996 62.2477 82.8353 63.2102 80.4985 62.8824C78.1617 62.5546 76.4537 61.0562 76.6685 59.5421C76.8833 58.0281 78.9529 57.0656 81.2844 57.3933C83.616 57.7211 85.345 59.2196 85.1144 60.7336Z" fill="#BCC100"/>
<path d="M74.2164 67.0552C75.5533 67.0552 76.6371 66.3843 76.6371 65.5567C76.6371 64.7292 75.5533 64.0583 74.2164 64.0583C72.8796 64.0583 71.7958 64.7292 71.7958 65.5567C71.7958 66.3843 72.8796 67.0552 74.2164 67.0552Z" fill="#BCC100"/>
<path d="M57.9323 57.5234C57.9323 58.3039 56.7378 58.9334 55.255 58.9334C53.7722 58.9334 52.5829 58.3039 52.5829 57.5234C52.5829 56.743 53.7775 56.1187 55.255 56.1187C56.7325 56.1187 57.9323 56.7482 57.9323 57.5234Z" fill="#BCC100"/>
<path d="M48.0612 61.5193C48.0612 62.2841 46.9609 62.898 45.6039 62.898C44.2469 62.898 43.1414 62.2841 43.1414 61.5193C43.1414 60.7544 44.2417 60.1405 45.6039 60.1405C46.9662 60.1405 48.0612 60.7544 48.0612 61.5193Z" fill="#BCC100"/>
</g>
<defs>
<clipPath id="clip0_1_161">
<rect width="122" height="125" fill="white"/>
</clipPath>
</defs>
</svg>
