<svg width="118" height="82" viewBox="0 0 118 82" fill="none" xmlns="http://www.w3.org/2000/svg">
<g clip-path="url(#clip0_1_1130)">
<path d="M105.36 74.1358H77.2602L70.4324 81.9941L63.2018 74.1358C59.8594 74.1249 56.6571 72.7794 54.2942 70.3931C51.9313 68.0069 50.5998 64.7738 50.5906 61.3999V36.741C50.5998 33.3676 51.9315 30.1351 54.2945 27.7498C56.6576 25.3644 59.8599 24.0203 63.2018 24.0109H105.36C108.702 24.0202 111.905 25.3642 114.269 27.7494C116.633 30.1346 117.966 33.3671 117.977 36.741V61.4116C117.964 64.7845 116.631 68.0155 114.267 70.3994C111.903 72.7833 108.701 74.1265 105.36 74.1358V74.1358Z" fill="#92A1B5"/>
<path d="M54.7457 70.8251C72.0372 61.6119 81.2053 43.5036 76.0814 24.0109H63.2018C59.8599 24.0203 56.6576 25.3644 54.2945 27.7498C51.9315 30.1351 50.5998 33.3676 50.5906 36.741V61.4116C50.5931 63.1867 50.9641 64.9415 51.6798 66.5629C52.3955 68.1843 53.4399 69.6363 54.7457 70.8251V70.8251Z" fill="#818C9A"/>
<path d="M74.8967 32.9001C74.8967 48.2162 62.945 61.1288 46.7798 64.7693C43.7977 65.4409 48.6181 75.7439 50.5906 79.355C39.6835 79.355 33.48 65.6588 31.56 65.3938C13.6733 62.9137 0 49.3119 0 32.9001C0 14.7328 16.7663 0.00582886 37.4484 0.00582886C58.1305 0.00582886 74.8967 14.7269 74.8967 32.9001Z" fill="#BCC100"/>
<path d="M34.8514 17.7372C42.8698 17.7372 48.4488 23.7635 48.4488 31.1035C48.4955 33.7759 47.7279 36.3983 46.25 38.616C44.7721 40.8338 42.6551 42.5399 40.1853 43.5036C42.1987 45.7126 44.9882 46.4961 48.3555 46.4961C49.9057 46.482 51.4527 46.35 52.9833 46.1014V52.5813C51.2533 52.9235 49.4939 53.0912 47.731 53.082C41.4459 53.082 35.5109 50.0483 32.6513 44.3106C29.478 43.922 26.5601 42.3598 24.4615 39.9258C22.3628 37.4919 21.2325 34.3591 21.289 31.1329C21.289 23.7635 26.868 17.7372 34.8514 17.7372ZM34.8514 37.6658C38.598 37.6658 40.9965 34.5614 40.9965 31.1035C40.9965 27.6455 38.598 24.547 34.8514 24.547C31.1048 24.547 28.7063 27.7162 28.7063 31.1035C28.7063 34.4907 31.1457 37.6658 34.8514 37.6658V37.6658Z" fill="#A3A300"/>
<path d="M34.8514 16.1467C42.8698 16.1467 48.4488 22.1671 48.4488 29.5129C48.4975 32.1865 47.7309 34.8106 46.2528 37.0297C44.7747 39.2488 42.6565 40.9556 40.1854 41.919C42.1987 44.1339 44.9882 44.9174 48.3555 44.9174C49.9057 44.9032 51.4527 44.7713 52.9833 44.5227V51.0026C51.253 51.3423 49.4937 51.508 47.731 51.4974C41.4459 51.4974 35.5109 48.4695 32.6513 42.7319C29.4728 42.3457 26.5496 40.7821 24.4482 38.3441C22.3467 35.9062 21.2168 32.7675 21.2773 29.5365C21.289 22.1671 26.868 16.1467 34.8514 16.1467ZM34.8514 36.0753C38.598 36.0753 40.9965 32.9708 40.9965 29.5129C40.9965 26.055 38.598 22.9565 34.8514 22.9565C31.1048 22.9565 28.7063 26.1257 28.7063 29.5129C28.7063 32.9001 31.1457 36.0753 34.8514 36.0753Z" fill="white"/>
<path d="M89.2703 58.8904H81.5321L79.9797 62.2776H72.3173L85.2436 36.252H85.5938L98.5259 62.2776H90.8577L89.2703 58.8904ZM83.5804 54.0422H87.2687C86.5753 52.4868 85.9732 50.8916 85.4654 49.2648H85.3954C84.8838 50.8918 84.2777 52.4871 83.5804 54.0422V54.0422Z" fill="#677384"/>
<path d="M89.2703 57.2998H81.5321L79.9797 60.687H72.3173L85.2436 34.6674H85.5938L98.5259 60.6929H90.8577L89.2703 57.2998ZM83.5804 52.4517H87.2687C86.5753 50.8963 85.9732 49.301 85.4654 47.6743H85.3954C84.8838 49.3013 84.2777 50.8965 83.5804 52.4517V52.4517Z" fill="white"/>
<path d="M3.15717 25.4424C3.15717 25.4424 8.95213 8.94814 28.1928 3.92917C47.4334 -1.0898 61.2293 10.6152 61.2293 10.6152C61.2293 10.6152 27.259 -9.01882 3.15717 25.4424Z" fill="#CFD329"/>
<path d="M78.5441 25.9961H99.4363C102.593 25.9961 109.882 25.4071 111.756 28.2818C111.756 28.2818 107.023 27.7869 96.1858 27.7869C85.3487 27.7869 78.5441 27.6868 78.5441 27.6868V25.9961Z" fill="#B5C6D5"/>
</g>
<defs>
<clipPath id="clip0_1_1130">
<rect width="118" height="82" fill="white"/>
</clipPath>
</defs>
</svg>
