<svg width="247" height="137" viewBox="0 0 247 137" fill="none" xmlns="http://www.w3.org/2000/svg">
<path d="M68.2828 153.631C36.1593 151.636 -0.275661 149.6 1.19688 134.539C2.46353 121.68 53.8771 118.602 67.8651 117.79C103.772 115.726 139.804 115.606 175.707 117.43C189.821 118.145 273.385 124.743 237.772 143.961C234.845 145.543 230.893 146.544 227.325 147.368C189.921 156.017 149.305 156.73 110.097 155.199C101.875 154.875 85.703 154.716 68.2828 153.631Z" fill="#A7BA89"/>
<g clip-path="url(#clip0_1_51)">
<path d="M215.539 108.203C215.531 105.545 216.319 102.947 217.8 100.746C219.281 98.5454 221.386 96.8434 223.842 95.8618C222.907 95.6474 221.951 95.5388 220.992 95.5378H116.066C114.345 95.5465 112.642 95.896 111.056 96.5665C109.469 97.2369 108.029 98.2152 106.819 99.4454C105.608 100.676 104.65 102.133 104 103.736C103.35 105.338 103.02 107.054 103.03 108.785V109.756H215.539V108.203Z" fill="#FFFCF0"/>
<path d="M215.539 110.097V109.767H103.084V110.679C103.076 112.409 103.406 114.124 104.056 115.726C104.707 117.328 105.665 118.785 106.875 120.015C108.086 121.244 109.525 122.222 111.112 122.892C112.698 123.562 114.4 123.912 116.12 123.92H220.965C222.635 123.92 222.16 124.178 223.623 123.596C216.821 119.731 215.539 116.438 215.539 110.097Z" fill="#EDEDED"/>
<path d="M106.059 108.796C106.049 106.114 107.097 103.538 108.973 101.632C110.848 99.7261 113.399 98.646 116.066 98.6286H220.965C221.754 98.5951 222.5 98.2562 223.046 97.6828C223.593 97.1094 223.898 96.3459 223.898 95.5516C223.898 94.7573 223.593 93.9937 223.046 93.4203C222.5 92.8469 221.754 92.508 220.965 92.4745H116.066C111.784 92.5006 107.688 94.2338 104.676 97.2937C101.664 100.354 99.9826 104.49 100 108.796V109.734H106.059V108.796Z" fill="#FF8A33"/>
<path d="M220.965 120.829H116.066C113.4 120.813 110.849 119.735 108.973 117.83C107.097 115.925 106.049 113.349 106.059 110.668V109.724H100V110.668C99.9826 114.973 101.664 119.11 104.676 122.17C107.688 125.23 111.784 126.963 116.066 126.989H220.965C221.777 126.989 222.556 126.665 223.13 126.087C223.705 125.509 224.027 124.726 224.027 123.909C224.027 123.092 223.705 122.309 223.13 121.732C222.556 121.154 221.777 120.829 220.965 120.829Z" fill="#FF8A33"/>
<path d="M205.893 75.3572C205.893 70.2407 208.813 65.8763 212.924 64.1196C212.136 63.9277 211.327 63.83 210.516 63.8286H121.688C115.591 63.8286 110.65 69.2306 110.65 75.9062V76.7901H205.893V75.3572Z" fill="#FFFCF0"/>
<path d="M205.893 77.0756V76.7736H110.65V77.6081C110.65 84.2672 115.563 89.6857 121.688 89.6857H210.516C211.93 89.6857 211.526 89.9272 212.771 89.3947C207.006 85.8648 205.893 82.8289 205.893 77.0756Z" fill="#EDEDED"/>
<path d="M210.516 86.8639H121.688C117.016 86.8639 113.216 82.7081 113.216 77.6081V75.8898C113.216 70.7842 117.037 66.6339 121.688 66.6339H210.516C211.214 66.5718 211.862 66.2494 212.335 65.7302C212.808 65.2109 213.07 64.5325 213.07 63.8286C213.07 63.1247 212.808 62.4463 212.335 61.9271C211.862 61.4078 211.214 61.0854 210.516 61.0233H121.688C114.188 61.0233 108.085 67.6935 108.085 75.8898V77.6081C108.085 85.8044 114.188 92.4745 121.688 92.4745H210.516C211.214 92.4124 211.862 92.09 212.335 91.5707C212.808 91.0515 213.07 90.3731 213.07 89.6692C213.07 88.9653 212.808 88.2869 212.335 87.7677C211.862 87.2484 211.214 86.926 210.516 86.8639Z" fill="#7ED5CC"/>
<path d="M209.998 52.4208C208.34 49.9471 207.454 47.032 207.454 44.0488V42.8246H181.699V44.0488C181.699 52.613 188.894 59.5631 197.808 59.6619H211.756C213.794 59.662 215.816 59.2899 217.722 58.5639C214.575 57.3731 211.875 55.2259 209.998 52.4208Z" fill="#EDEDED"/>
<path d="M207.454 40.9965C207.455 37.9957 208.35 35.0642 210.025 32.5806C211.919 29.7793 214.634 27.6415 217.793 26.4649C215.864 25.7329 213.818 25.3608 211.756 25.367H197.999C188.997 25.367 181.699 32.361 181.699 40.98V42.8081H207.454V40.9965Z" fill="#FFFCF0"/>
<path d="M180.367 44.0214V40.9691C180.367 33.0143 186.088 26.3222 193.779 24.4996H154.344C149.764 29.4774 147.219 36.0097 147.219 42.7917C147.219 49.5736 149.764 56.1059 154.344 61.0837H195.963C196.545 61.0832 197.126 61.0521 197.704 60.9904C188.118 60.8312 180.367 53.3047 180.367 44.0214Z" fill="#3F8BAF"/>
<path d="M140.489 24.4941H135.696C131.127 29.4598 128.588 35.9765 128.588 42.7422C128.588 49.508 131.127 56.0246 135.696 60.9904H131.629C132.195 61.0503 132.763 61.0796 133.332 61.0782H140.489C135.909 56.1004 133.365 49.5681 133.365 42.7862C133.365 36.0042 135.909 29.4719 140.489 24.4941Z" fill="#3F8BAF"/>
<path d="M131.318 24.6259C120.007 24.6259 116.158 33.4095 116.158 42.7917V42.9454C116.235 52.2781 118.479 60.963 131.411 60.963C126.87 56.0197 124.341 49.5421 124.324 42.8126C124.307 36.0831 126.803 29.5925 131.318 24.6259Z" fill="#3F8BAF"/>
<path d="M149.906 24.4941H145.118C140.538 29.4719 137.994 36.0042 137.994 42.7862C137.994 49.5681 140.538 56.1004 145.118 61.0782H149.917C145.329 56.104 142.78 49.5703 142.78 42.7862C142.78 36.002 145.329 29.4683 149.917 24.4941H149.906Z" fill="#3F8BAF"/>
<path d="M217.351 58.2839H197.999C189.745 58.2839 183.031 51.8828 183.031 44.0104V42.8246H180.367V44.0049C180.367 53.2662 188.118 60.8148 197.704 60.9685H217.356C217.699 60.9465 218.019 60.7944 218.254 60.5431C218.489 60.2917 218.619 59.9599 218.619 59.6152C218.619 59.2705 218.489 58.9387 218.254 58.6874C218.019 58.436 217.699 58.2839 217.356 58.262L217.351 58.2839Z" fill="#FF8A33"/>
<path d="M217.351 24H197.999C196.578 24.0011 195.162 24.1669 193.779 24.4941C186.088 26.3222 180.367 33.0143 180.367 40.9636V42.8356H183.031V40.9691C183.031 33.1076 189.745 26.6955 197.999 26.6955H217.351C217.693 26.6736 218.014 26.5215 218.249 26.2701C218.483 26.0187 218.614 25.687 218.614 25.3423C218.614 24.9976 218.483 24.6658 218.249 24.4144C218.014 24.163 217.693 24.0109 217.351 23.989V24Z" fill="#F3D0C3"/>
<path d="M131.433 60.9904H131.629H131.411C131.418 60.9919 131.425 60.9919 131.433 60.9904Z" fill="#FF8A33"/>
<path d="M128.589 42.9234H124.325C124.36 49.6151 126.893 56.0495 131.422 60.952H131.64H135.707C131.172 56.0514 128.632 49.6175 128.589 42.9234Z" fill="#FF8A33"/>
<path d="M124.325 42.9344H128.589C128.526 36.105 131.065 29.5106 135.685 24.5051H133.321C132.648 24.5073 131.975 24.5513 131.307 24.6368C126.76 29.6268 124.264 36.1661 124.325 42.9344Z" fill="#F3D0C3"/>
<path d="M133.365 42.9124H137.983C137.94 36.0827 140.492 29.4942 145.118 24.4941H140.5C135.875 29.4951 133.323 36.083 133.365 42.9124Z" fill="#F3D0C3"/>
<path d="M133.365 42.9124C133.381 49.6537 135.925 56.1408 140.489 61.0782H145.118C140.554 56.1388 138.01 49.6499 137.994 42.9069L133.365 42.9124Z" fill="#FF8A33"/>
<path d="M142.776 42.9015H147.22C147.172 36.083 149.709 29.5024 154.317 24.4996H149.878C145.269 29.5012 142.729 36.0821 142.776 42.9015Z" fill="#F3D0C3"/>
<path d="M142.776 42.9014C142.791 49.6471 145.338 56.1386 149.906 61.0782H154.344C149.785 56.133 147.25 49.6394 147.247 42.8959L142.776 42.9014Z" fill="#FF8A33"/>
</g>
<path d="M75.0492 78.3979C71.0714 72.4685 67.0661 66.5612 63.1324 60.6044C62.6751 59.9162 62.5814 58.9528 62.35 58.149C61.9864 57.2131 61.6173 56.2716 61.2481 55.3357L60.7578 55.5009C60.9118 55.9869 61.0062 56.4897 61.0388 56.9984C60.9608 57.6479 60.8318 58.2904 60.6532 58.9197C60.0086 58.5839 59.1215 58.4077 58.7689 57.8792C58.0281 56.6389 57.3693 55.3516 56.7966 54.0254L56.196 54.2402C56.5376 55.4513 56.8406 56.6736 57.2208 57.8682C57.6009 59.0629 57.3365 59.8557 55.9867 59.9548C54.6369 60.0539 53.3146 60.0539 51.9813 60.0924C50.3946 60.2135 48.7969 60.5218 47.2212 60.4172C44.6373 60.2466 42.0754 59.8171 39.508 59.4923C39.8753 57.503 40.2426 55.5174 40.6099 53.5355L39.9818 53.3152C39.4783 54.2309 39.0384 55.1801 38.6651 56.1561C37.9929 58.3032 36.6541 58.9088 34.6046 58.182L20.4454 79.4384L25.8557 81.7011L29.1613 76.0526L29.8555 76.4324L27.1008 81.9984L27.6132 82.5489L33.2548 84.0079C33.8884 83.7271 34.7754 83.617 35.117 83.127C36.2189 81.5635 37.1169 79.8733 38.0535 78.2107C38.9901 76.5481 39.8 74.9955 40.6705 73.388C40.8102 73.5756 40.9031 73.7939 40.9414 74.0247C40.9798 74.2555 40.9624 74.492 40.8909 74.7147C40.1416 77.5115 39.3978 80.3027 38.621 83.0885C38.2629 84.3657 38.5273 85.153 40.0038 85.2521C43.034 85.4558 46.0642 85.7091 49.0889 85.9128C50.5599 86.0118 51.1163 85.1255 51.0668 83.8042C51.0007 82.0424 50.8519 80.2862 50.7417 78.5245L51.2926 77.7372C51.7279 80.2367 52.0695 82.5104 52.5543 84.7566C52.6535 85.208 53.3256 85.9072 53.6562 85.8577C56.3062 85.6375 58.9397 85.2631 61.9203 84.8942C60.1518 77.8693 58.4604 71.1638 56.769 64.4582C56.9822 64.4861 57.1847 64.5681 57.3573 64.6962C57.5299 64.8244 57.6669 64.9945 57.7552 65.1904C59.79 70.0131 61.8101 74.8377 63.8156 79.6641C64.7632 81.9268 65.4408 84.5419 68.8897 83.573L76.2227 80.3633C75.782 79.576 75.4349 78.9759 75.0492 78.3979Z" fill="#AAB791"/>
<path d="M58.7304 115.587L44.4059 115.625L38.1527 115.301C38.1527 115.851 38.1527 116.402 38.1527 116.996C38.0921 119.331 37.9434 121.67 38.0315 123.994C38.0591 124.616 38.7753 125.689 39.2601 125.739C43.0341 126.113 46.83 126.289 50.6205 126.532C52.8243 126.427 54.9895 126.433 57.1436 126.141C57.6946 126.069 58.4824 125.089 58.521 124.489C58.7193 121.527 58.6863 118.554 58.7304 115.587Z" fill="#9E704E"/>
<path d="M50.637 126.532C50.8629 123.812 51.0833 121.092 51.2926 118.554L38.1692 116.996C38.1692 116.446 38.1692 115.895 38.1692 115.301L44.4224 115.625L58.7469 115.587C58.7028 118.554 58.7469 121.527 58.5541 124.489C58.5155 125.089 57.7222 126.069 57.1767 126.141C55.006 126.433 52.8132 126.427 50.637 126.532Z" fill="#674B2E"/>
<path d="M25.8447 81.7176L29.1503 76.0691L29.8445 76.449L27.0898 82.0149L25.8447 81.7176Z" fill="#97A484"/>
<path d="M62.35 58.149L65.4684 57.081C65.0772 56.1506 48.863 31.6735 48.0035 30.655C45.7116 34.2941 37.2161 47.0446 35.0344 50.1496C33.668 52.0986 32.3182 54.053 30.8197 56.2056L34.5936 58.2096C36.6431 58.9363 37.9819 58.3307 38.654 56.1836C39.0273 55.2076 39.4673 54.2584 39.9708 53.3428L40.5989 53.563C40.2316 55.5486 39.8643 57.5342 39.497 59.5199C42.0699 59.8447 45.1441 60.3016 47.7281 60.4723C49.3038 60.5714 54.6534 60.0814 55.9922 59.9823C57.331 59.8832 57.6064 59.0904 57.2263 57.8958C56.8461 56.7011 56.5431 55.4789 56.2015 54.2677L56.8021 54.053L59.0554 59.4648L61.755 58.5674L60.7633 55.5119L61.2537 55.3468C61.6173 56.2772 61.9864 57.2131 62.35 58.149Z" fill="#BECCA4"/>
<path d="M85.9744 108.733C82.3051 103.227 78.9169 98.1017 75.5065 93.0147C73.3689 89.8491 71.1541 86.7386 68.9779 83.6005C65.529 84.5694 64.8513 81.9489 63.9037 79.6917C61.8799 74.8653 59.8598 70.0407 57.8433 65.2179C57.755 65.022 57.6181 64.8519 57.4455 64.7238C57.2729 64.5956 57.0704 64.5137 56.8572 64.4857C58.5486 71.1913 60.2399 77.8969 62.0085 84.9218C59.0113 85.2907 56.3778 85.665 53.7443 85.8853C53.3917 85.9128 52.7196 85.2136 52.6425 84.7842C52.1576 82.538 51.8161 80.2642 51.3808 77.7648L50.8299 78.552C50.9401 80.3138 51.0888 82.07 51.1549 83.8317C51.2045 85.153 50.6481 86.0339 49.177 85.9403C46.1469 85.7366 43.1167 85.4833 40.092 85.2796C38.6155 85.1805 38.351 84.3933 38.7092 83.116C39.486 80.3303 40.2298 77.539 40.979 74.7423C41.0506 74.5196 41.0679 74.283 41.0296 74.0522C40.9913 73.8215 40.8984 73.6032 40.7586 73.4155C39.8882 75.0231 39.0397 76.6417 38.1417 78.2382C37.2436 79.8348 36.296 81.591 35.2052 83.1546C34.8636 83.6445 33.9766 83.7546 33.343 84.0354L27.7014 82.5765L11.096 107.351C11.096 107.351 27.9438 116.787 48.9952 115.609H58.824L58.8736 115.466L61.4796 115.163L76.5478 112.036L80.1289 110.852L85.9965 108.782L85.9744 108.733Z" fill="#97A484"/>
<path d="M68.9558 83.6005C71.1596 86.7386 73.3634 89.8491 75.4845 93.0147C78.9169 98.1017 82.3052 103.227 85.9524 108.733L80.0132 110.83C79.3521 109.553 78.6083 108.309 78.0464 106.976C76.0575 102.324 74.1402 97.6172 72.1678 92.9872C72.0686 92.756 71.705 92.6348 70.8951 92.0623C71.8483 95.6298 72.6141 98.5862 73.435 101.521C74.4101 105.022 75.4294 108.507 76.4321 111.981L61.3639 115.108C60.6991 111.438 60.0343 107.751 59.3695 104.048L58.8901 104.141L58.7579 115.411L58.7083 115.554L44.3838 115.598C44.7034 113.748 45.0284 111.904 45.348 110.059L48.3396 114.882L48.7969 114.767C47.9595 110.146 47.1257 105.527 46.2956 100.909H45.7447C45.6088 103.112 45.4729 105.314 45.337 107.516C44.7285 106.954 44.1885 106.322 43.7282 105.633C41.3592 101.064 39.0232 96.4776 36.7643 91.8696C35.5027 89.2931 34.4173 86.6339 33.2548 84.0134C33.8884 83.7326 34.7754 83.6225 35.117 83.1325C36.2189 81.569 37.1169 79.8788 38.0535 78.2162C38.9901 76.5535 39.8 75.001 40.6705 73.3935C40.8102 73.5811 40.9031 73.7994 40.9414 74.0302C40.9798 74.261 40.9624 74.4975 40.8909 74.7203C40.1416 77.517 39.3978 80.3082 38.621 83.094C38.2629 84.3712 38.5273 85.1585 40.0039 85.2576C43.034 85.4613 46.0642 85.7146 49.0889 85.9183C50.5599 86.0174 51.1164 85.131 51.0668 83.8097C51.0007 82.048 50.8519 80.2917 50.7417 78.53L51.2926 77.7427C51.7279 80.2422 52.0695 82.5159 52.5543 84.7621C52.6535 85.2135 53.3256 85.9127 53.6562 85.8632C56.3062 85.643 58.9397 85.2686 61.9203 84.8997C60.1518 77.8748 58.4604 71.1693 56.769 64.4637C56.9822 64.4916 57.1847 64.5736 57.3573 64.7017C57.5299 64.8299 57.6669 65 57.7552 65.1959C59.79 70.0186 61.8101 74.8432 63.8156 79.6696C64.8293 81.9543 65.5069 84.5694 68.9558 83.6005Z" fill="#86926E"/>
<path d="M68.9558 83.6005C65.5069 84.5694 64.8293 81.9489 63.8817 79.6916C61.8579 74.8652 59.8378 70.0407 57.8213 65.2179C57.733 65.022 57.596 64.8519 57.4234 64.7238C57.2508 64.5956 57.0483 64.5136 56.8351 64.4857C58.5265 71.1913 60.2179 77.8969 61.9864 84.9218C58.9893 85.2906 56.3558 85.665 53.7223 85.8852C53.3697 85.9128 52.6976 85.2136 52.6204 84.7841C52.1356 82.5379 51.794 80.2642 51.3587 77.7648L50.8078 78.552C49.3037 76.5481 47.7611 74.5771 46.3066 72.5401C44.8521 70.5031 43.5519 68.5212 42.2407 66.4842C40.6925 64.1168 39.1775 61.7165 37.4034 58.9418L39.5741 59.5308C42.147 59.8556 44.7034 59.8171 47.2873 59.9878C48.8705 60.1484 50.463 60.1962 52.0529 60.1309C53.3862 60.0924 54.7305 60.0924 56.0583 59.9933C57.3861 59.8942 57.6725 59.1014 57.2924 57.9068C56.9122 56.7121 56.6092 55.4899 56.2677 54.2787L56.8682 54.064C57.4409 55.3901 58.0998 56.6775 58.8405 57.9177C59.1931 58.4683 60.0801 58.6224 60.7247 58.9583C60.9034 58.3289 61.0324 57.6865 61.1104 57.0369C61.0778 56.5282 60.9834 56.0254 60.8294 55.5394L61.3198 55.3743C61.6889 56.3102 62.058 57.2516 62.4217 58.1875C62.6751 59.0133 62.7467 59.9548 63.204 60.6429C67.1377 66.5998 71.1431 72.5071 75.1208 78.4364C75.5065 79.0145 75.8536 79.6145 76.3605 80.4293L68.9558 83.6005Z" fill="#9EAC84"/>
<path d="M39.5025 59.5089L37.3318 58.9198C39.1058 61.6725 40.6374 64.0949 42.169 66.4622C43.4968 68.4992 44.8301 70.5362 46.235 72.5181C47.6399 74.5001 49.2321 76.5261 50.7362 78.53C50.8464 80.2918 50.9951 82.048 51.0613 83.8097C51.1108 85.131 50.5544 86.0119 49.0834 85.9183C46.0532 85.7146 43.023 85.4613 39.9983 85.2576C38.5218 85.1586 38.2574 84.3713 38.6155 83.094C39.3923 80.3083 40.1361 77.517 40.8854 74.7203C40.9569 74.4976 40.9743 74.261 40.936 74.0302C40.8976 73.7995 40.8047 73.5812 40.665 73.3935C39.7945 75.0011 38.9461 76.6196 38.048 78.2162C37.15 79.8128 36.2024 81.569 35.1115 83.1326C34.7699 83.6226 33.8829 83.7326 33.2493 84.0134L27.6077 82.5545L27.0953 82.0039L29.85 76.438L29.1558 76.0581L25.8502 81.7067L20.4399 79.4439L34.5991 58.1876C36.6486 58.9143 37.9874 58.3087 38.6596 56.1616C39.0328 55.1856 39.4728 54.2365 39.9763 53.3208L40.6044 53.541C40.2334 55.534 39.8661 57.5233 39.5025 59.5089Z" fill="#AAB791"/>
<path d="M76.4542 112.014C75.4515 108.523 74.4322 105.039 73.457 101.554C72.6361 98.6192 71.8703 95.6628 70.9172 92.0953C71.7271 92.6459 72.0907 92.789 72.1899 93.0202C74.1623 97.6778 76.0795 102.379 78.0684 107.009C78.6194 108.325 79.3742 109.57 80.0353 110.863L76.4542 112.014Z" fill="#737F5B"/>
<path d="M58.7799 115.444L58.9122 104.174L59.3915 104.081C60.06 107.751 60.7248 111.438 61.3859 115.141L58.7799 115.444Z" fill="#737F5B"/>
<path d="M17.531 109.889L22.4894 103.948L22.9357 104.136L20.0763 110.797L17.531 109.889Z" fill="#86926E"/>
<path d="M25.8447 81.7176L29.1503 76.0691L29.8445 76.449L27.0898 82.0149L25.8447 81.7176Z" fill="#97A484"/>
<path d="M45.3645 110.092C45.3645 109.241 45.3535 108.388 45.3315 107.532C45.4711 105.33 45.6069 103.128 45.7392 100.926H46.2901C47.1239 105.543 47.9576 110.162 48.7914 114.783L48.3341 114.899L45.3645 110.092Z" fill="#737F5B"/>
<path d="M62.35 58.149L65.4684 57.081C65.0772 56.1506 48.863 31.6735 48.0035 30.655C45.7116 34.2941 41.3922 41.1153 41.3922 41.1153L51.9813 60.1309C53.3146 60.0924 57.8213 59.7951 57.8213 59.7951C57.4412 58.6005 56.5376 55.4899 56.1685 54.2897L56.769 54.075L59.0224 59.4868L61.3528 58.7766L61.0057 56.9873C60.9695 56.494 60.8771 56.0064 60.7303 55.5339L61.2206 55.3633C61.6099 56.2845 61.9864 57.2131 62.35 58.149Z" fill="#B2C397"/>
<path d="M128.491 23.8834C135.102 24.1972 141.713 28.029 144.236 34.151C145.206 36.5293 145.537 39.1059 145.779 41.6659C146.545 49.7643 146.214 58.7326 140.821 64.8326C139.576 66.2254 138.005 67.4532 136.16 67.7394C134.314 68.0257 132.198 67.0843 131.625 65.3061C130.314 66.9081 128.871 68.6093 126.882 69.1598C124.893 69.7104 122.281 68.4607 122.287 66.4071C121.069 68.6589 117.797 69.0993 115.527 67.9156C113.257 66.732 111.819 64.4087 110.745 62.0854C106.986 53.8252 106.3 44.4955 108.811 35.7751C111.246 27.1756 119.664 23.465 128.491 23.8834Z" fill="#B5C5DB"/>
<path d="M116.684 26.2177C114.776 27.1677 113.088 28.5065 111.729 30.1478C110.371 31.7891 109.371 33.6967 108.794 35.7475C106.287 44.4693 106.976 53.799 110.739 62.0578C111.814 64.3811 113.252 66.7044 115.521 67.8881C115.872 68.069 116.242 68.2111 116.623 68.312C118.958 64.0982 120.438 59.4662 120.981 54.6806C122.309 44.8259 120.529 35.1144 116.684 26.2177Z" fill="#AABACE"/>
<path d="M145.779 41.6658C145.537 39.1113 145.228 36.5293 144.236 34.1509C141.735 28.0289 135.102 24.1971 128.491 23.8833C124.419 23.6173 120.348 24.4222 116.684 26.2177C120.54 35.1144 122.309 44.8259 120.97 54.6806C120.427 59.4662 118.946 64.0982 116.612 68.3119C118.733 68.8955 121.24 68.3119 122.27 66.3795C122.27 68.4496 124.871 69.6828 126.865 69.1322C128.86 68.5817 130.298 66.8915 131.609 65.2785C132.16 67.0567 134.297 67.9926 136.143 67.7119C137.989 67.4311 139.559 66.1979 140.804 64.805C146.214 58.7601 146.55 49.7643 145.779 41.6658Z" fill="#B5C5DB"/>
<path fill-rule="evenodd" clip-rule="evenodd" d="M118.904 32.0534C115.158 32.4223 111.279 34.0133 107.94 35.5879C107.53 35.7571 107.156 36.0038 106.839 36.3146C106.512 36.7055 106.268 37.1588 106.122 37.6469C104.87 41.1359 104.4 44.8571 104.745 48.5476C105.296 54.6035 112.783 57.1195 117.24 58.5234C119.675 50.0341 121.758 40.4491 118.904 32.0534Z" fill="#919FAF"/>
<path fill-rule="evenodd" clip-rule="evenodd" d="M119.169 32.0534H118.904C121.731 40.4492 119.676 50.0341 117.213 58.5234L117.334 58.562C118.658 58.9851 120.011 59.3089 121.383 59.5309C127.218 60.4283 134.176 54.6641 134.893 47.6778C135.868 38.1809 128.094 31.2882 119.169 32.0534Z" fill="#9BAABF"/>
<path d="M50.0365 2.40131C46.9466 1.16411 43.6174 0.638436 40.2962 0.86337C36.9751 1.0883 33.7473 2.05805 30.8527 3.70058C26.8914 5.98532 23.7621 9.44823 20.8917 12.9992C18.6879 15.7519 16.5338 18.7028 16.0214 22.1657C15.4153 26.2837 17.7128 29.6145 21.3655 31.2221C20.6438 36.6449 22.831 41.6438 25.1064 46.4335C25.7565 47.8099 26.4727 49.2523 27.7564 50.0616C28.3716 50.4423 29.1008 50.5957 29.8174 50.4952C30.534 50.3946 31.1927 50.0464 31.6791 49.5111C33.971 60.3292 46.2625 55.3963 51.9483 51.2177C57.364 47.2373 61.1876 41.2584 63.1324 34.8777C66.9835 22.2703 63.0167 7.71953 50.0365 2.40131Z" fill="#B5C5DB"/>
<path d="M47.5738 30.7211C45.9582 34.7744 44.6883 38.9568 43.7778 43.2239C43.5464 44.2809 42.428 55.7046 42.709 55.6386C46.0395 54.7621 49.1755 53.268 51.9538 51.2342C57.3695 47.2538 61.1931 41.2749 63.1379 34.8942C65.3141 27.7372 64.9946 20.0296 61.733 13.313C61.1821 12.1183 53.6838 19.6662 53.0777 20.5196C50.8507 23.6937 49.0035 27.1175 47.5738 30.7211Z" fill="#AABACE"/>
<path fill-rule="evenodd" clip-rule="evenodd" d="M54.0749 17.7393C53.7829 17.5356 53.4854 17.3374 53.1824 17.1502C47.706 13.7314 38.2298 16.5226 34.4889 23.2337C29.6021 32.0148 33.8884 41.8585 42.4886 45.3599C42.8797 42.2009 43.5678 39.0858 44.5436 36.0558C46.5545 29.5594 48.4443 21.9234 54.0749 17.7393Z" fill="#9BAABF"/>
<path fill-rule="evenodd" clip-rule="evenodd" d="M56.8351 19.8699C55.9577 19.1085 55.038 18.3972 54.0804 17.7393C48.4498 21.9235 46.5601 29.5595 44.5491 36.0558C43.5733 39.0859 42.8853 42.201 42.4941 45.3599C42.8357 45.4976 43.1828 45.6297 43.5354 45.7453C47.5242 47.0776 52.2293 47.1547 56.3613 47.0116C56.8553 47.0226 57.3468 46.9404 57.8103 46.7693C58.3069 46.5121 58.7485 46.1605 59.1105 45.7343C61.873 42.7611 63.9492 39.2187 65.1929 35.3566C67.281 28.9814 60.6972 23.1897 56.8351 19.8699Z" fill="#919FAF"/>
<path d="M120.034 112.983C120.002 113.169 119.931 113.346 119.825 113.503C119.72 113.66 119.583 113.793 119.423 113.893C119.263 113.993 119.083 114.059 118.896 114.085C118.709 114.111 118.518 114.098 118.337 114.045C119.069 113.924 120.171 114.959 120.111 115.697C120.023 116.699 118.838 117.167 117.852 117.349C114.111 118.108 92.9549 118.163 99.2136 109.592C102.134 105.6 113.075 106.586 117.918 107.197C118.042 107.211 118.162 107.25 118.271 107.312C118.379 107.374 118.474 107.458 118.549 107.558C118.624 107.658 118.677 107.772 118.706 107.894C118.735 108.015 118.739 108.142 118.717 108.265C118.645 108.617 118.386 108.815 117.725 109.013C119.378 108.463 120.001 110.847 118.149 111.452C119.147 111.518 120.105 111.678 120.034 112.983Z" fill="#97A6B7"/>
<path d="M72.7849 13.0983C75.1184 12.3503 77.5468 11.9388 79.9967 11.8761C81.203 11.9471 82.413 11.8301 83.5833 11.5292C85.5337 10.8631 86.7953 9.02428 88.4536 7.79657C88.9054 7.46074 89.5555 7.17447 90.0018 7.49929C90.2273 7.68858 90.3729 7.956 90.4095 8.24802C90.6849 9.61336 89.9247 10.9512 89.1919 12.1403C89.7429 11.0888 90.7235 9.85007 91.8419 10.2575C92.1443 10.3979 92.3985 10.6242 92.573 10.9081C92.7474 11.1921 92.8342 11.5211 92.8226 11.8541C92.7883 12.5207 92.6217 13.1738 92.3323 13.7754C92.8531 12.9361 93.5843 12.2472 94.4534 11.777C95.3569 11.3916 96.6076 11.6283 96.9932 12.5367C97.3789 13.4451 96.6902 14.5187 96.0236 15.2894C109.439 20.3103 113.836 27.2141 115.147 35.753C116.475 44.4185 115.483 51.2562 112.601 59.5308C110.552 65.4106 106.282 71.6427 100.773 75.023C93.6104 79.3943 85.8422 79.009 77.9307 77.6216C66.5758 75.6342 52.8518 70.4646 50.009 57.3452C47.4471 45.5251 49.8933 34.2225 56.6203 24.0705C60.3061 18.5486 66.2562 15.1683 72.7849 13.0983Z" fill="#B5C5DB"/>
<path d="M115.147 35.775C113.836 27.2361 109.439 20.3599 96.0236 15.3115C96.6902 14.5187 97.4009 13.4892 96.9932 12.5588C96.5855 11.6283 95.3404 11.4136 94.4534 11.799C93.5843 12.2692 92.8531 12.9581 92.3323 13.7975C92.6216 13.1958 92.7883 12.5427 92.8226 11.8761C92.8342 11.5431 92.7474 11.2141 92.5729 10.9302C92.3985 10.6462 92.1443 10.4199 91.8419 10.2795C90.9494 9.95469 90.145 10.6814 89.5776 11.5182C89.4509 11.7384 89.3241 11.9531 89.1919 12.1623C89.3081 11.9405 89.4369 11.7255 89.5776 11.5182C90.1616 10.4997 90.6354 9.39312 90.4095 8.27002C90.3729 7.97801 90.2273 7.71059 90.0018 7.5213C89.5445 7.19648 88.8999 7.48275 88.4536 7.81858C86.8008 9.04628 85.5337 10.8851 83.5833 11.5513C82.413 11.8521 81.203 11.9691 79.9967 11.8981C77.5468 11.9608 75.1184 12.3723 72.7849 13.1203C66.2562 15.1903 60.3061 18.5706 56.6258 24.1311C49.8933 34.2775 47.4471 45.6022 50.0145 57.4057C51.188 62.8231 54.2126 66.8806 58.1574 69.9196C56.9839 66.1043 56.3062 62.212 57.5403 58.1049C58.3204 55.9048 59.5403 53.8863 61.1258 52.1722C62.7113 50.4582 64.6293 49.0845 66.7631 48.1347C67.1377 47.9475 68.0798 48.1347 68.0798 47.3804C68.46 47.3804 69.0219 47.5676 69.3966 47.3804C77.6607 43.8074 87.2801 43.2403 95.379 47.5676C95.9201 47.8771 96.4246 48.2464 96.883 48.6687C103.092 54.3117 102.343 63.3406 100.646 71.0537C100.267 72.9057 99.5519 74.6727 98.5359 76.2673C99.3047 75.9045 100.053 75.5002 100.778 75.0561C106.288 71.6868 110.557 65.4436 112.607 59.5639C115.483 51.2782 116.475 44.4405 115.147 35.775Z" fill="#B5C5DB"/>
<path d="M89.5776 11.4962C89.4369 11.7034 89.3082 11.9185 89.1919 12.1404C89.3241 11.9312 89.4509 11.7164 89.5776 11.4962Z" fill="#B5C5DB"/>
<path d="M99.9298 72.5456L101.627 72.3475C103.428 67.0127 101.83 58.3252 100.574 54.8238C99.7704 52.563 98.4123 50.5396 96.6241 48.9385C86.024 39.3866 61.6503 44.3635 57.5073 58.0664C56.6773 61.0076 56.6317 64.1146 57.375 67.0788C58.6367 67.8991 60.0857 68.2239 61.5016 68.7854C74.7021 74.0046 86.7512 74.0541 99.9298 72.5456Z" fill="#F2EFF7"/>
<path d="M99.9298 72.5456C87.0084 74.1115 73.9005 72.828 61.5291 68.7854C60.0829 68.4049 58.6949 67.8308 57.4026 67.0787C57.6119 68.0147 57.8654 68.9506 58.1519 69.881C63.7715 74.2138 71.2588 76.4875 77.9307 77.6436C85.0213 78.8823 92.0072 79.3227 98.5249 76.2562C100.034 75.546 101.021 74.1367 101.627 72.3474L99.9298 72.5456Z" fill="#DEDCE2"/>
<path fill-rule="evenodd" clip-rule="evenodd" d="M73.6333 69.3305C73.5993 69.2446 73.5716 69.1562 73.5507 69.0662C73.5176 68.9065 73.6664 68.6918 73.8206 68.7579C73.8568 68.777 73.8886 68.8032 73.9143 68.835C74.4652 69.3855 74.8564 69.9801 75.5671 70.2499C75.8847 70.3235 76.2164 70.3082 76.5258 70.2058C78.5422 69.4296 78.8618 65.5042 79.2805 64.6179C79.4623 64.2215 79.9361 64.1719 80.1069 64.5793C80.1458 64.8391 80.1173 65.1044 80.0243 65.3501C79.881 65.9832 78.8673 70.2169 79.6386 70.5031C79.9316 70.5908 80.2456 70.5777 80.5303 70.4659C80.815 70.3541 81.0539 70.1501 81.2088 69.8865C81.4677 69.424 82.1068 68.8735 82.0187 69.8039C81.9256 70.29 81.6737 70.7315 81.3024 71.0592C81.0511 71.3036 80.745 71.4846 80.4097 71.587C80.0743 71.6895 79.7193 71.7105 79.3741 71.6482C79.0981 71.5828 78.841 71.4543 78.623 71.2728C78.405 71.0913 78.2322 70.8618 78.118 70.6022C76.647 71.4886 74.3441 70.9986 73.6333 69.3305Z" fill="#3E362B"/>
<path d="M94.1174 37.5918C93.4232 34.9712 92.3047 31.8772 89.9632 30.121C89.3967 29.6898 88.7481 29.3788 88.057 29.2071C85.5392 28.5905 82.8616 29.9889 80.9664 31.6185C74.8454 36.8982 70.2781 46.7253 71.0054 55.1871C71.0923 56.2066 71.2618 57.2174 71.5122 58.2096C72.8565 63.4232 77.5726 65.7354 82.7845 65.5978C90.112 65.3996 92.4811 58.0334 93.8694 52.3848C95.0209 47.6337 95.4176 42.4696 94.1174 37.5918Z" fill="#65717F"/>
<path d="M94.1173 37.5918C93.4231 34.9712 92.3047 31.8772 89.9632 30.121C89.3967 29.6898 88.7481 29.3788 88.057 29.2071C91.3626 35.263 90.5913 43.1688 90.2607 49.979C90.0734 54.6806 87.0598 59.3822 82.7294 60.698C77.9747 62.2836 73.8812 59.0464 70.9557 55.1926C71.0427 56.2121 71.2122 57.2229 71.4626 58.2151C72.8069 63.4287 77.523 65.7409 82.7349 65.6033C90.0624 65.4051 92.4314 58.0389 93.8198 52.3903C95.0209 47.6337 95.4176 42.4696 94.1173 37.5918Z" fill="#525D68"/>
<path d="M82.7569 60.6815C87.0873 59.3657 90.101 54.6641 90.2883 49.9625C90.5913 43.1523 91.3902 35.252 88.0845 29.1906C85.5667 28.574 82.8892 29.9724 80.9939 31.602C74.873 36.8816 70.3057 46.7088 71.0329 55.1706C73.9088 59.0299 78.0023 62.2836 82.7569 60.6815Z" fill="#65717F"/>
<path d="M90.5913 119.589C90.0403 119.589 85.9744 117.525 85.4069 117.712C73.176 120.349 64.7301 125.612 55.5018 117.332C50.6095 112.818 47.976 106.613 46.8466 100.029C45.9045 94.7599 46.4664 89.684 47.0339 84.4153C47.4994 81.2228 48.3734 78.1032 49.6343 75.1332C46.8796 78.8053 46.3011 83.9418 45.3866 88.4838C45.3039 88.9022 45.2268 89.3261 45.1552 89.7445C44.0125 97.2903 44.7563 105.001 47.3204 112.19C52.097 125.832 66.0523 131.718 79.5614 130.672C85.2471 130.237 90.9604 129.361 96.244 127.22C101.527 125.078 106.387 121.577 109.384 116.732C111.319 113.625 112.339 110.036 112.326 106.376C111.995 107.527 111.626 108.667 111.224 109.773C108.21 117.883 99.4394 119.198 90.5913 119.589Z" fill="#AABACE"/>
<path d="M147.25 79.554C148.06 79.3861 148.822 79.04 149.481 78.541C149.801 78.2838 150.027 77.9296 150.126 77.5322C150.226 77.1348 150.193 76.7158 150.032 76.3388C149.294 75.0341 147.074 75.48 145.878 75.4855C145.994 73.8779 147.768 72.8099 145.79 71.6703C144.76 71.0757 142.997 71.7583 141.994 72.0777C139.383 72.92 137.146 74.7312 134.551 75.535C133.192 75.872 131.788 75.9928 130.391 75.8929L87.4179 75.0671C81.5503 74.957 75.176 75.2378 69.4241 73.966C64.2067 72.7934 59.4356 69.1378 53.8545 71.7363C52.1794 72.5006 50.7241 73.6746 49.6233 75.1497C48.3624 78.1197 47.4884 81.2393 47.0228 84.4318C46.4719 89.7005 45.921 94.7764 46.8355 100.045C47.965 106.652 50.5984 112.834 55.4908 117.349C63.6998 124.924 75.501 125.943 86.1011 124.506C96.0622 123.146 107.395 120.327 111.213 109.828C111.615 108.727 111.984 107.582 112.315 106.431C112.308 104.353 111.897 102.296 111.103 100.375C109.983 97.7645 108.114 95.544 105.731 93.9947C103.406 92.4752 100.585 92.5798 98.4147 91.4787C105.814 88.6434 115.494 88.4617 123.367 87.1404L137.526 84.7566L144.887 83.5179C145.867 83.3582 148.964 83.4408 149.663 82.7691C149.817 82.5807 149.915 82.3526 149.945 82.111C149.976 81.8695 149.937 81.6244 149.834 81.4038C149.636 80.8738 149.285 80.4147 148.824 80.0852C148.364 79.7557 147.816 79.5708 147.25 79.554Z" fill="#B5C5DB"/>
<path d="M65.9808 29.3557C66.0838 29.1646 66.1998 28.9806 66.3279 28.8052C68.5316 25.8818 73.7325 27.3683 73.8041 31.0734C73.8368 31.9641 73.6127 32.8455 73.1586 33.6127C72.7044 34.3798 72.0393 35.0004 71.2422 35.4007C70.2469 35.8175 69.1342 35.8597 68.1101 35.5196C67.086 35.1795 66.2199 34.4801 65.6722 33.5508C65.0111 32.3011 65.2645 30.611 65.9808 29.3557Z" fill="white"/>
<path d="M68.1404 31.0019C69.3139 28.9539 72.9336 29.5044 72.9832 32.103C73.0032 32.6547 72.8644 33.2006 72.5831 33.6759C72.3018 34.1511 71.89 34.5358 71.3965 34.7841C70.7798 35.0436 70.0898 35.0699 69.4551 34.8582C68.8204 34.6464 68.2846 34.2111 67.9476 33.6335C67.761 33.2127 67.681 32.7525 67.7146 32.2936C67.7483 31.8346 67.8945 31.391 68.1404 31.0019Z" fill="#160100"/>
<path d="M101.021 37.3662C102.938 34.0299 108.767 34.9823 108.844 39.1169C108.877 40.0077 108.654 40.8894 108.199 41.6566C107.745 42.4239 107.08 43.0444 106.282 43.4441C105.286 43.8592 104.173 43.9 103.149 43.559C102.125 43.218 101.26 42.5181 100.712 41.5888C100.056 40.3611 100.271 38.6599 101.021 37.3662Z" fill="white"/>
<path d="M103.164 39.0012C104.359 36.9257 107.973 37.5863 108.023 40.1023C108.043 40.6533 107.904 41.1983 107.622 41.6726C107.341 42.1469 106.929 42.5305 106.436 42.7779C105.924 43.0064 105.353 43.0642 104.805 42.9427C104.258 42.8212 103.764 42.527 103.397 42.1034C103.03 41.6799 102.809 41.1496 102.767 40.5909C102.725 40.0322 102.864 39.4748 103.164 39.0012Z" fill="#160100"/>
<path d="M66.3058 52.5995C65.0717 54.9283 61.4961 55.4513 58.3172 53.7667C55.1382 52.082 53.568 48.8118 54.8021 46.4996C56.0363 44.1873 59.6174 43.6533 62.7908 45.3379C65.9642 47.0226 67.5454 50.2708 66.3058 52.5995Z" fill="#D16966"/>
<path d="M107.268 63.4837C106.547 66.0162 103.153 67.277 99.6984 66.2915C96.244 65.306 94.0182 62.4377 94.7399 59.9162C95.4616 57.3947 98.8554 56.1285 102.315 57.114C105.775 58.0995 107.985 60.9513 107.268 63.4837Z" fill="#D16966"/>
<path d="M78.68 36.1384C77.9784 37.2035 77.6868 38.4865 77.8591 39.75C77.9605 40.3745 78.2441 40.9552 78.6744 41.4194C79.1046 41.8836 79.6623 42.2106 80.2777 42.3595C80.7399 42.4421 81.2157 42.3983 81.6551 42.2329C82.8451 41.787 83.5337 40.5813 84.002 39.3756C84.6136 37.8396 86.4978 33.127 84.553 32.0534C82.4649 30.9083 79.4898 34.8061 78.68 36.1384Z" fill="#6C7A87"/>
<path d="M127 141.427C127 141.427 126.912 129.161 130.03 129.948C133.149 130.736 133.799 135.239 133.799 135.239C133.799 135.239 133.854 123.391 137.397 124.025C140.939 124.658 141.964 134.237 141.964 134.237C141.964 134.237 143.617 125.599 145.82 127.675C148.024 129.75 148.779 134.672 148.779 134.672C148.779 134.672 152.184 128.258 153.649 131.049C155.115 133.841 154.801 139.632 154.801 139.632L127 141.427Z" fill="#86926E"/>
<defs>
<clipPath id="clip0_1_51">
<rect width="124" height="103" fill="white" transform="translate(100 24)"/>
</clipPath>
</defs>
</svg>
