<svg width="152" height="120" viewBox="0 0 152 120" fill="none" xmlns="http://www.w3.org/2000/svg">
<path d="M41.8571 116.967C21.7532 115.155 -0.992752 110.884 0.0334982 99.2602C0.907127 89.3325 33.0735 89.7802 41.8361 89.2535C64.3232 87.9559 86.8718 88.16 109.332 89.8645C116.668 90.3912 152.745 88.5847 150.977 103.4C149.561 115.229 126.91 117.04 115.868 118.225C91.1645 120.875 66.5187 119.189 41.8571 116.967Z" fill="#A7BA89"/>
<path d="M104.132 89.8219C106.767 89.4785 109.259 88.568 110.552 86.2268C111.303 84.8637 111.123 83.2196 110.552 81.7889C109.91 80.1633 108.768 78.708 107.241 77.5698C105.713 76.4317 103.855 75.6509 101.852 75.3063C102.144 72.7049 102.274 69.9267 100.857 67.6323C99.4405 65.3379 95.9294 63.8811 93.4375 65.2806C93.1343 62.7693 92.3692 60.3124 91.1693 57.9968C89.8892 55.7441 87.8385 53.7566 85.185 52.8617C84.3664 52.5521 83.4744 52.4025 82.5765 52.4241C81.6786 52.4457 80.7983 52.6381 80.0023 52.9866C79.1995 53.3875 78.5769 53.9987 78.2309 54.7258C77.8849 55.4528 77.8348 56.255 78.0884 57.0083C76.1122 52.9034 73.9559 48.5435 69.3263 46.2439C66.5796 44.886 63.1121 44.5322 60.2659 45.7236C58.8071 46.3486 57.6097 47.3302 56.8328 48.5382C56.0559 49.7462 55.7361 51.1235 55.916 52.4872C54.2317 51.5212 52.252 50.9795 50.2113 50.9263C49.3183 50.8706 48.4212 50.9739 47.5793 51.2295C46.7374 51.4851 45.9698 51.8871 45.327 52.4091C43.6056 53.9699 43.5745 56.41 43.6429 58.5899C40.5358 57.591 37.0185 56.6129 34.1103 57.9656C30.941 59.4327 29.9157 63.0747 30.1829 66.2379C29.1674 65.6721 27.9884 65.346 26.7702 65.2938C25.5519 65.2416 24.3394 65.4653 23.2602 65.9414C22.6581 66.1909 22.1441 66.5674 21.7688 67.034C21.3002 67.8149 21.1371 68.6996 21.3027 69.5625C21.6549 72.4574 23.0829 75.1869 25.3855 77.3665C26.7215 78.6776 27.2062 78.9274 25.5035 80.1292C24.6149 80.7484 23.602 81.227 22.7258 81.8669C19.4944 84.2237 19.6187 87.2049 20.8615 89.9936H100.143C101.476 90.0204 102.809 89.9631 104.132 89.8219V89.8219Z" fill="#7C9ABE"/>
<path d="M66.1871 99.7184C64.3873 98.4175 61.1664 98.2858 59.2771 98.2542C58.4876 98.2542 57.6982 98.349 56.893 98.3912C55.8877 98.4198 54.8834 98.3081 53.909 98.0594C53.7593 98.0393 53.6157 97.9872 53.488 97.9066C53.378 97.8148 53.2899 97.6998 53.2301 97.5696C51.9565 95.2365 51.8091 92.1081 51.5407 89.5011C51.2305 86.6529 51.3244 83.7752 51.8196 80.9533C52.3828 77.8881 47.6936 77.3509 47.5673 80.5214C47.3357 86.1673 47.7725 92.8243 50.5829 98.012C47.983 97.8645 45.5358 98.2911 43.578 99.671C43.2454 99.8959 42.9937 100.222 42.8601 100.601C42.7264 100.979 42.7179 101.391 42.8358 101.775C42.9537 102.159 43.1918 102.495 43.5149 102.734C43.8381 102.972 44.2292 103.1 44.6306 103.1C48.0199 103.158 50.846 102.109 54.2668 102.899C57.5824 103.663 60.5822 105.248 63.5505 106.802C65.8661 108.008 67.6871 104.585 65.4661 103.252C64.4849 102.635 63.4634 102.084 62.4084 101.604C63.6978 101.509 64.9504 101.988 66.2292 102.199C66.4391 102.25 66.6596 102.235 66.8608 102.157C66.9901 102.077 67.0913 101.96 67.1502 101.82C67.2384 101.598 67.2672 101.357 67.234 101.12C67.2008 100.884 67.1066 100.66 66.9608 100.471C66.7461 100.18 66.4847 99.9251 66.1871 99.7184Z" fill="#E5AC2C"/>
<path d="M51.6301 90.3859C51.5986 90.0857 51.5723 89.7907 51.5407 89.5011C51.2305 86.6529 51.3244 83.7752 51.8196 80.9533C52.3828 77.8881 47.6936 77.3509 47.5673 80.5214C47.3819 84.0241 47.5937 87.5366 48.1988 90.9915C49.3773 91.1347 50.5717 90.9239 51.6301 90.3859V90.3859Z" fill="#D19620"/>
<path d="M79.839 92.2397C78.1917 91.0547 75.2498 90.9337 73.5236 90.9021C72.7973 90.9021 72.0605 90.9916 71.3395 91.0285C70.4213 91.0546 69.5039 90.9536 68.6134 90.7282C68.475 90.7089 68.3423 90.6605 68.2239 90.5861C68.1282 90.4998 68.0496 90.3961 67.9924 90.2806C66.8293 88.1423 66.6872 85.2825 66.4451 82.9073C66.1623 80.3029 66.2491 77.6716 66.703 75.0916C67.2293 72.295 62.9295 71.7999 62.8085 74.7018C62.6032 79.8632 63.0032 85.9514 65.5662 90.6914C63.1927 90.5597 60.956 90.9494 59.1666 92.2082C58.8491 92.408 58.6061 92.7066 58.4748 93.0582C58.3436 93.4098 58.3315 93.7948 58.4403 94.154C58.5492 94.5131 58.773 94.8266 59.0773 95.0459C59.3816 95.2653 59.7495 95.3786 60.1244 95.3682C63.2295 95.4261 65.8083 94.4676 68.9397 95.1891C71.9711 95.8896 74.6919 97.3326 77.4286 98.7599C79.5337 99.8606 81.2073 96.727 79.1811 95.5104C78.2834 94.9447 77.348 94.4414 76.3813 94.0041C77.5602 93.9146 78.7075 94.357 79.8758 94.5308C80.0679 94.5797 80.2704 94.5668 80.4547 94.4939C80.5743 94.4208 80.6681 94.3122 80.7231 94.1832C80.8019 93.9809 80.8273 93.7618 80.7969 93.5468C80.7665 93.3319 80.6813 93.1285 80.5495 92.9561C80.3525 92.6808 80.1126 92.4389 79.839 92.2397V92.2397Z" fill="#D19620"/>
<path d="M66.445 82.8967C66.1622 80.2923 66.249 77.661 66.7029 75.081C67.2292 72.2844 62.9295 71.7894 62.8084 74.6913C62.6611 78.4306 62.8347 82.6492 63.9084 86.4939C64.8766 86.3733 65.8304 86.1563 66.7555 85.8461C66.624 84.8401 66.5398 83.8447 66.445 82.8967Z" fill="#B77B13"/>
<path d="M88.4383 50.7122C88.7225 48.1105 88.2962 46.146 86.3332 46.304C76.0602 47.1151 66.0819 43.1441 56.5404 39.2362C52.9195 37.751 49.5882 35.4706 45.7253 36.9189C35.4628 40.7741 26.4739 47.6576 21.6479 57.7959C19.2939 62.7517 15.7589 67.0525 11.3538 70.3199C9.46968 71.7103 4.35948 71.4155 6.12253 75.1864C6.8909 76.8348 8.75394 78.2042 10.0381 79.4576C23.1109 92.3978 49.5092 90.112 65.1503 83.8447C77.2653 78.9889 87.0384 63.5576 88.4383 50.7122Z" fill="#595558"/>
<g style="mix-blend-mode:multiply" opacity="0.26">
<path d="M87.1858 46.3988C84.7491 58.6122 77.4812 70.0988 67.245 78.4727C55.6668 87.3207 41.4045 85.9566 28.479 81.875C22.1321 79.5629 14.7957 75.7867 13.1484 68.8769C12.5695 69.3719 11.9696 69.8564 11.3433 70.3199C9.45919 71.7103 4.34899 71.4154 6.11203 75.1864C6.8804 76.8348 8.74344 78.2041 10.0276 79.4576C23.1004 92.3978 49.4988 90.112 65.1399 83.8447C77.2443 78.9888 87.0384 63.5575 88.4384 50.7122C88.6752 48.5581 88.4173 46.8307 87.1858 46.3988Z" fill="#494849"/>
</g>
<g style="mix-blend-mode:multiply" opacity="0.26">
<path d="M37.1469 81.5221C32.3262 80.7374 27.8107 78.7255 24.6109 74.7703C24.4543 74.5998 24.3343 74.3991 24.2582 74.1804C24.053 73.4431 24.7845 72.8216 25.4266 72.3897C28.7685 70.0987 31.4052 66.9651 33.6471 63.626C35.6891 60.5819 37.0732 56.8479 39.7099 54.283C44.4464 49.6483 52.0039 47.884 57.6982 51.9394C64.1399 56.5266 65.4451 64.5108 61.0454 71.8051C56.7878 78.8677 50.3987 81.9382 42.3571 81.9276C40.6123 81.9324 38.87 81.7968 37.1469 81.5221V81.5221Z" fill="#494849"/>
</g>
<path d="M51.3197 32.3368C51.5881 30.662 52.8986 29.0452 53.5143 27.5179C55.0616 23.8312 56.0405 19.7969 58.5719 16.6054C60.5424 14.1025 63.1863 12.215 66.1925 11.1649C66.7252 9.79899 67.4215 8.50274 68.266 7.3045C70.9764 3.70211 74.5814 0.257683 79.26 0.020684C82.4177 -0.132049 87.2648 0.521036 88.991 3.59676C90.2698 5.87722 90.7593 8.39468 88.0016 10.2485C82.5493 11.2545 76.6023 5.76132 70.6343 11.8601C73.6197 12.6955 76.2995 14.3785 78.3496 16.7055C80.5494 19.2071 81.4546 21.9721 82.8545 24.9478C84.5597 28.5502 85.2807 32.8951 85.486 36.8925C85.607 39.1993 85.286 41.5798 82.923 42.5647C79.7653 43.8919 75.5866 43.2599 72.2868 43.065C66.4503 42.7174 61.1243 40.7793 55.972 38.1039C54.3932 37.2823 52.5933 36.192 51.6986 34.5752C51.3187 33.8949 51.1849 33.1043 51.3197 32.3368Z" fill="#595558"/>
<path d="M46.9252 36.4449C46.0305 35.5285 48.2883 33.0373 48.9883 32.6739C51.2723 31.4678 51.767 32.9952 53.0985 34.5172C55.9194 37.7457 60.1875 39.41 64.1978 40.595C69.8606 42.275 79.8021 46.1145 84.7228 41.0848C84.823 40.955 84.9609 40.8593 85.1175 40.8109C85.3912 40.753 85.6438 40.9847 85.8175 41.2007C87.07 42.6964 88.512 44.7504 88.7594 46.7412C89.2857 50.7596 82.8861 51.6655 80.1126 51.6128C76.097 51.5338 72.2183 50.2909 68.3765 49.2059C60.2325 46.9061 52.8352 42.5055 46.9252 36.4449Z" fill="#F2EFF7"/>
<path d="M81.1441 20.7924L81.2546 20.7608C83.6124 20.1973 85.9912 21.082 88.1805 21.8141C89.9383 22.3987 92.8118 23.0781 93.9696 24.6423C95.1274 26.2065 93.1328 26.6752 91.9908 26.8964C89.9488 27.2967 87.2858 27.8339 85.5912 29.119C85.1754 29.4297 84.8281 30.2039 84.1755 30.0353C83.9912 29.9657 83.828 29.8496 83.7018 29.6983C82.7387 28.7397 81.5546 28.0235 80.5968 27.0649C79.6389 26.1064 78.8916 24.7687 79.1284 23.431C79.3179 22.4672 80.1652 21.1084 81.1441 20.7924Z" fill="#E5AC2C"/>
<path d="M80.5389 26.9649L80.6178 27.0492C81.5757 28.013 82.7598 28.7292 83.7229 29.6825C83.8491 29.8338 84.0123 29.95 84.1965 30.0196C84.8491 30.1881 85.1965 29.4139 85.6122 29.1032C87.2858 27.8339 89.8962 27.2914 91.9276 26.8964C88.7752 24.7108 84.6965 25.3006 80.5389 26.9649Z" fill="#D19620"/>
<path d="M72.992 19.1229C72.71 18.4809 72.2765 17.9171 71.7289 17.4797C70.1501 16.2683 67.7292 16.6844 66.3819 18.0748C64.703 19.8023 65.403 22.9096 67.3976 24.1156C68.1151 24.5504 68.953 24.7435 69.7883 24.6665C70.6236 24.5894 71.4121 24.2464 72.0381 23.6877C72.6641 23.129 73.0946 22.3841 73.2663 21.5625C73.438 20.7408 73.3418 19.8858 72.992 19.1229Z" fill="white"/>
<path d="M72.7551 19.6601C72.5903 19.3185 72.3585 19.0137 72.0735 18.7636C71.7885 18.5135 71.4562 18.3234 71.0963 18.2045C70.7364 18.0856 70.3562 18.0403 69.9785 18.0714C69.6008 18.1025 69.2331 18.2093 68.8975 18.3855C67.1871 19.3335 67.3871 22.0722 68.987 23.0307C69.5755 23.3697 70.2665 23.4844 70.9328 23.3537C71.5992 23.2231 72.1959 22.8559 72.613 22.3197C72.8518 21.9217 72.9897 21.4712 73.0145 21.0076C73.0392 20.544 72.9502 20.0813 72.7551 19.6601V19.6601Z" fill="#160100"/>
<path d="M69.0554 31.6733C71.0551 31.6733 72.6762 30.4259 72.6762 28.8872C72.6762 27.3485 71.0551 26.1012 69.0554 26.1012C67.0557 26.1012 65.4346 27.3485 65.4346 28.8872C65.4346 30.4259 67.0557 31.6733 69.0554 31.6733Z" fill="#D16966"/>
<g style="mix-blend-mode:multiply" opacity="0.15">
<path d="M18.9429 66.1118C18.5324 66.7544 18.2482 67.4707 17.8482 68.129C17.4428 68.6809 17.0904 69.2698 16.7957 69.8881C16.7884 69.9154 16.7875 69.9441 16.7931 69.9719C16.7987 69.9997 16.8106 70.0257 16.8279 70.0481C16.8452 70.0705 16.8675 70.0887 16.8929 70.1011C16.9183 70.1135 16.9463 70.1199 16.9746 70.1198C18.6324 70.1198 20.1323 67.9604 20.1323 66.4331C20.1196 66.2997 20.0665 66.1734 19.9801 66.071C19.8937 65.9685 19.7781 65.8949 19.6488 65.86C19.5196 65.8251 19.3827 65.8305 19.2565 65.8755C19.1304 65.9205 19.021 66.0029 18.9429 66.1118V66.1118Z" fill="#444344"/>
<path d="M23.5109 58.9545C22.6163 59.2494 22.1479 60.0078 21.6637 60.8031C21.1425 61.546 20.8233 62.4117 20.7374 63.3153C20.7403 63.3933 20.7656 63.4689 20.8103 63.5329C20.855 63.5969 20.9172 63.6466 20.9894 63.676C21.0617 63.7055 21.1409 63.7135 21.2176 63.699C21.2942 63.6845 21.3651 63.6482 21.4216 63.5945C21.9734 63.0058 22.4653 62.3636 22.8899 61.6774C23.3689 61.0033 24.0056 60.4661 24.1951 59.6445C24.2202 59.5495 24.22 59.4496 24.1947 59.3547C24.1693 59.2598 24.1195 59.1732 24.0504 59.1035C23.9813 59.0337 23.8951 58.9833 23.8005 58.9572C23.7059 58.9311 23.606 58.9301 23.5109 58.9545Z" fill="#444344"/>
<path d="M29.1158 51.7971C27.537 52.5397 25.7108 53.8195 24.9056 55.4364C24.7898 55.6629 25.0319 55.963 25.2687 55.7998C25.9822 55.3123 26.6674 54.7848 27.3212 54.2198C28.0527 53.6457 28.8317 53.119 29.5842 52.5766C29.6875 52.5144 29.7619 52.4138 29.791 52.2967C29.8201 52.1797 29.8016 52.0558 29.7395 51.9524C29.7087 51.9013 29.6682 51.8567 29.6202 51.8212C29.5722 51.7857 29.5177 51.76 29.4598 51.7456C29.3429 51.7164 29.2191 51.735 29.1158 51.7971V51.7971Z" fill="#444344"/>
<path d="M28.2581 59.3284C27.1953 60.5733 26.2674 61.9274 25.4898 63.3679C25.4597 63.4382 25.4536 63.5164 25.4724 63.5905C25.4912 63.6645 25.5338 63.7303 25.5937 63.7777C25.6537 63.825 25.7275 63.8514 25.8038 63.8525C25.8802 63.8536 25.9548 63.8296 26.0161 63.784C27.2646 62.7175 28.3955 61.5204 29.3896 60.2132C29.8948 59.5391 28.8107 58.7122 28.2581 59.3284Z" fill="#444344"/>
<path d="M24.6478 67.6076C23.9475 67.9222 23.3442 68.4187 22.9005 69.0454C22.8163 69.1718 22.1163 70.3094 22.6163 70.3304C23.032 70.3304 23.4584 69.7669 23.7531 69.5247C24.1944 69.1388 24.6641 68.7867 25.1582 68.4713C25.2325 68.388 25.2783 68.2831 25.2891 68.1719C25.2999 68.0607 25.2751 67.949 25.2183 67.8528C25.1615 67.7567 25.0756 67.6811 24.973 67.6371C24.8705 67.593 24.7566 67.5827 24.6478 67.6076Z" fill="#444344"/>
<path d="M33.7524 50.8755C32.6472 51.971 32.0789 53.5088 31.6473 54.9677C31.6292 55.0296 31.6323 55.0958 31.6561 55.1558C31.6799 55.2158 31.723 55.2661 31.7786 55.2987C31.8342 55.3314 31.8991 55.3445 31.9631 55.3361C32.027 55.3276 32.0863 55.298 32.1315 55.252C33.184 54.1302 34.1998 52.8558 34.5892 51.3548C34.6216 51.2476 34.6166 51.1325 34.5753 51.0285C34.5339 50.9245 34.4585 50.8376 34.3614 50.7819C34.2642 50.7263 34.1512 50.7053 34.0406 50.7223C33.93 50.7393 33.8284 50.7933 33.7524 50.8755V50.8755Z" fill="#444344"/>
<path d="M19.0323 72.3529C18.0481 72.1211 16.7588 72.5267 15.8746 72.9954C14.9168 73.522 15.5904 74.923 16.5904 74.6965C17.6519 74.4867 18.6141 73.9311 19.327 73.1165C19.3661 73.0485 19.3895 72.9726 19.3955 72.8943C19.4015 72.8161 19.3899 72.7375 19.3617 72.6644C19.3334 72.5912 19.2892 72.5252 19.2322 72.4713C19.1752 72.4174 19.1069 72.377 19.0323 72.3529V72.3529Z" fill="#444344"/>
</g>
<path d="M76.7496 109.061C76.7496 109.061 77.2285 98.2753 79.9336 99.1075C82.6387 99.9396 83.0019 103.932 83.0019 103.932C83.0019 103.932 83.5913 93.5143 86.6858 94.2358C89.7804 94.9573 90.233 103.421 90.233 103.421C90.233 103.421 92.096 95.9054 93.917 97.8277C95.7379 99.75 96.1957 104.116 96.1957 104.116C96.1957 104.116 99.4797 98.6335 100.638 101.156C101.795 103.679 101.253 108.756 101.253 108.756L76.7496 109.061Z" fill="#86926E"/>
</svg>
