<?xml version="1.0" encoding="utf-8"?>
<!-- Generator: Adobe Illustrator 27.0.0, SVG Export Plug-In . SVG Version: 6.00 Build 0)  -->
<svg version="1.1" id="圖層_1" xmlns="http://www.w3.org/2000/svg" xmlns:xlink="http://www.w3.org/1999/xlink" x="0px" y="0px"
	 viewBox="0 0 45 45" style="enable-background:new 0 0 45 45;" xml:space="preserve">
<style type="text/css">
	.st0{fill:#9D5C3A;}
	.st1{fill:#7D932D;}
	.st2{fill:#7EA22B;}
	.st3{fill:#5C662D;}
	.st4{fill:#5F6C2E;}
	.st5{fill:#93B625;}
	.st6{fill:#9DC531;}
	.st7{fill:#A8CD3B;}
	.st8{fill:#A1CA1E;}
</style>
<g>
	<g>
		<g>
			<g>
				<path class="st0" d="M18,40L18,40c-0.4,0-0.7-0.3-0.7-0.6l-0.9-13.2c0-0.4,0.3-0.7,0.6-0.7l0,0c0.4,0,0.7,0.3,0.7,0.6l0.9,13.2
					C18.7,39.7,18.4,40,18,40z"/>
			</g>
			<g>
				<path class="st1" d="M20.5,22.6c-1.4-2-2.7-4.2-4-6.2l-3.2,6.7c-0.4,0.8-5.1,9.3-5.2,9.3c2.4,1.4,6.4,1.6,9.6,1.5
					c3.1-0.1,7.3-1,9.3-2.8C26.8,31.2,21,23.3,20.5,22.6z"/>
			</g>
			<g>
				<path class="st2" d="M26.9,31.1c-0.1,0-1.3-1.5-2.6-3.4c0.3,1.4,0.7,2.9,1.3,4.3C26.1,31.7,26.6,31.4,26.9,31.1z"/>
			</g>
			<g>
				<path class="st1" d="M24.3,27.7c-0.2-0.3-0.4-0.5-0.6-0.8c-4.1,0.6-8.2,0.6-12.2-0.7C10,29,8.1,32.4,8,32.3
					c2.4,1.4,6.4,1.6,9.6,1.5c2.5-0.1,5.7-0.7,7.9-1.9C25,30.6,24.6,29.2,24.3,27.7z"/>
			</g>
			<g>
				<path class="st3" d="M23.7,27c-1.5-2-3-4-3.2-4.4c-1.4-2-2.7-4.2-4-6.2l-3.2,6.7c-0.1,0.3-0.9,1.6-1.7,3.2
					C15.5,27.5,19.7,27.6,23.7,27z"/>
			</g>
			<g>
				<path class="st2" d="M19.8,15.3c-1.3-1.9-2.5-3.9-3.7-5.8l-3,6.2c-0.4,0.7-4.7,8.7-4.9,8.6c2.2,1.3,6,1.5,8.9,1.4
					c2.8-0.1,6.8-1,8.7-2.6C25.6,23.3,20.3,16,19.8,15.3z"/>
			</g>
			<g>
				<path class="st4" d="M19.8,15.3c-1.3-1.9-2.5-3.9-3.7-5.8l-3,6.2c-0.1,0.3-0.8,1.6-1.7,3c3.4,0.8,6.7,0.6,10-0.3
					c-0.3-0.7-0.6-1.4-0.8-2.1C20.2,15.8,19.9,15.4,19.8,15.3z"/>
			</g>
			<g>
				<path class="st5" d="M20.6,16.4c0.2,0.7,0.5,1.4,0.8,2.1c0.2-0.1,0.4-0.1,0.6-0.2C21.5,17.6,21,16.9,20.6,16.4z"/>
			</g>
			<g>
				<path class="st6" d="M25.7,23.2C25.7,23.2,25.7,23.2,25.7,23.2c-0.1,0-2.1-2.6-3.7-4.9c-0.2,0.1-0.4,0.1-0.6,0.2
					C22.2,20.4,23.6,22,25.7,23.2z"/>
			</g>
			<g>
				<path class="st2" d="M21.3,18.5c-3.2,0.9-6.6,1.1-10,0.3c-1.4,2.5-3.1,5.6-3.2,5.6c2.2,1.3,6,1.5,8.9,1.4c2.8-0.1,6.7-1,8.6-2.5
					C23.6,22,22.2,20.4,21.3,18.5z"/>
			</g>
			<g>
				<path class="st7" d="M20.3,10.8c0.3-0.2,0.6-0.3,0.8-0.5c-0.1,0-3.1-4.1-3.4-4.5c-0.7-1.1-1.4-2.2-2.1-3.3l-0.1,0.3
					C16,6,17.8,8.7,20.3,10.8z"/>
			</g>
			<g>
				<path class="st8" d="M19.5,11.1c0.3-0.1,0.5-0.2,0.8-0.3c-2.5-2.1-4.3-4.8-4.9-8l-1.6,3.3c-0.2,0.4-2.7,4.9-2.8,4.9
					c0.5,0.3,1.1,0.5,1.7,0.6c-1.1,2-3.2,5.8-3.3,5.7c1.8,1.1,4.7,1.2,7.1,1.1c2.3-0.1,5.4-0.8,6.9-2C23.4,16.4,20.8,12.9,19.5,11.1
					z"/>
			</g>
		</g>
	</g>
	<g>
		<g>
			<g>
				<path class="st0" d="M28.8,42.5L28.8,42.5c-0.3,0-0.6-0.3-0.6-0.6l-0.1-11.4c0-0.3,0.3-0.6,0.6-0.6l0,0c0.3,0,0.6,0.3,0.6,0.6
					l0.1,11.4C29.4,42.2,29.1,42.5,28.8,42.5z"/>
			</g>
			<g>
				<path class="st1" d="M31.8,27.5c-1.1-1.8-2.1-3.7-3.2-5.6l-3.1,5.7c-0.4,0.7-4.9,7.8-5,7.8c2,1.4,5.5,1.7,8.2,1.8
					c2.7,0,6.4-0.5,8.2-1.9C36.9,35.3,32.2,28.2,31.8,27.5z"/>
			</g>
			<g>
				<path class="st2" d="M37,35.2c-0.1,0-1-1.4-2.1-3c0.2,1.3,0.5,2.5,0.9,3.7C36.2,35.7,36.6,35.5,37,35.2z"/>
			</g>
			<g>
				<path class="st1" d="M34.9,32.2c-0.1-0.2-0.3-0.5-0.5-0.7c-3.6,0.4-7.2,0.1-10.5-1.2c-1.4,2.3-3.3,5.1-3.3,5.1
					c2,1.4,5.5,1.7,8.2,1.8c2.2,0,5-0.3,7-1.2C35.3,34.7,35,33.4,34.9,32.2z"/>
			</g>
			<g>
				<path class="st3" d="M34.4,31.5c-1.2-1.8-2.4-3.6-2.6-3.9c-1.1-1.8-2.1-3.7-3.2-5.6l-3.1,5.7c-0.1,0.2-0.8,1.4-1.7,2.7
					C27.3,31.6,30.8,31.8,34.4,31.5z"/>
			</g>
			<g>
				<path class="st2" d="M31.6,21.2c-1-1.7-2-3.5-3-5.2l-2.9,5.3c-0.4,0.6-4.5,7.3-4.6,7.2c1.8,1.3,5.1,1.6,7.6,1.7
					c2.5,0,5.9-0.5,7.6-1.8C36.2,28.4,31.9,21.8,31.6,21.2z"/>
			</g>
			<g>
				<path class="st4" d="M31.6,21.2c-1-1.7-2-3.5-3-5.2l-2.9,5.3c-0.1,0.2-0.8,1.3-1.6,2.5c2.9,0.9,5.8,0.9,8.6,0.2
					c-0.2-0.6-0.4-1.2-0.5-1.8C31.9,21.7,31.6,21.3,31.6,21.2z"/>
			</g>
			<g>
				<path class="st5" d="M32.2,22.2c0.1,0.6,0.3,1.2,0.5,1.8c0.2,0,0.4-0.1,0.6-0.1C32.9,23.2,32.5,22.6,32.2,22.2z"/>
			</g>
			<g>
				<path class="st6" d="M36.3,28.3C36.3,28.3,36.3,28.3,36.3,28.3c-0.1,0-1.7-2.4-3-4.4c-0.2,0-0.4,0.1-0.6,0.1
					C33.4,25.7,34.5,27.2,36.3,28.3z"/>
			</g>
			<g>
				<path class="st2" d="M32.8,24c-2.8,0.6-5.8,0.7-8.6-0.2c-1.3,2.1-3,4.7-3.1,4.7c1.8,1.3,5.1,1.6,7.6,1.7c2.5,0,5.9-0.5,7.6-1.8
					C34.5,27.2,33.4,25.7,32.8,24z"/>
			</g>
			<g>
				<path class="st7" d="M32.2,17.3c0.3-0.1,0.5-0.2,0.7-0.4c-0.1,0-2.5-3.7-2.7-4.1c-0.6-1-1.1-2-1.7-3l-0.1,0.2
					C28.8,12.9,30.2,15.4,32.2,17.3z"/>
			</g>
			<g>
				<path class="st8" d="M31.5,17.5c0.2-0.1,0.5-0.2,0.7-0.2c-2-1.9-3.5-4.4-3.8-7.2l-1.5,2.7c-0.2,0.4-2.6,4.1-2.6,4.1
					c0.4,0.3,0.9,0.5,1.4,0.6c-1,1.7-3.1,4.9-3.1,4.8c1.5,1,4,1.3,6.1,1.3c2,0,4.7-0.4,6.1-1.4C34.7,22.3,32.6,19.2,31.5,17.5z"/>
			</g>
		</g>
	</g>
</g>
</svg>
