<?xml version="1.0" encoding="utf-8"?>
<!-- Generator: Adobe Illustrator 27.0.0, SVG Export Plug-In . SVG Version: 6.00 Build 0)  -->
<svg version="1.1" id="圖層_1" xmlns="http://www.w3.org/2000/svg" xmlns:xlink="http://www.w3.org/1999/xlink" x="0px" y="0px"
	 viewBox="0 0 45 45" style="enable-background:new 0 0 45 45;" xml:space="preserve">
<g>
	<path d="M29.6,5.5H37c0.6,0,1,0.5,1,1v35c0,0.6-0.5,1-1,1H8c-0.6,0-1-0.5-1-1v-35c0-0.6,0.5-1,1-1h7.4v-2c0-0.6,0.5-1,1-1h12.1
		c0.6,0,1,0.5,1,1L29.6,5.5L29.6,5.5z M22.3,34c-0.6,0-1-0.5-1-1c0-0.6,0.5-1,1-1h9.6c0.6,0,1,0.5,1,1c0,0.6-0.5,1-1,1H22.3z
		 M12.4,33.7c-0.4-0.4-0.4-1,0-1.4c0.4-0.4,1-0.4,1.4,0l1.1,1.1l3-3c0.4-0.4,1-0.4,1.4,0c0.4,0.4,0.4,1,0,1.4l-3.7,3.7
		c-0.4,0.4-1,0.4-1.4,0L12.4,33.7z M22.3,26.6c-0.6,0-1-0.5-1-1c0-0.6,0.5-1,1-1h9.6c0.6,0,1,0.5,1,1c0,0.6-0.5,1-1,1H22.3z
		 M12.4,26.3c-0.4-0.4-0.4-1,0-1.4c0.4-0.4,1-0.4,1.4,0L15,26l3-3c0.4-0.4,1-0.4,1.4,0c0.4,0.4,0.4,1,0,1.4l-3.7,3.7
		c-0.4,0.4-1,0.4-1.4,0L12.4,26.3L12.4,26.3z M22.3,19.2c-0.6,0-1-0.5-1-1c0-0.6,0.5-1,1-1h9.6c0.6,0,1,0.5,1,1c0,0.6-0.5,1-1,1
		H22.3z M12.4,18.9c-0.4-0.4-0.4-1,0-1.4c0.4-0.4,1-0.4,1.4,0l1.1,1.1l3-3c0.4-0.4,1-0.4,1.4,0c0.4,0.4,0.4,1,0,1.4l-3.7,3.7
		c-0.4,0.4-1,0.4-1.4,0L12.4,18.9z M15.4,7.5H9v33h27v-33h-6.4v2.4c0,0.6-0.5,1-1,1H16.4c-0.6,0-1-0.5-1-1V7.5z M27.6,8.9V4.5H17.4
		v4.4H27.6z"/>
</g>
</svg>
