<?xml version="1.0" encoding="utf-8"?>
<!-- Generator: Adobe Illustrator 27.0.0, SVG Export Plug-In . SVG Version: 6.00 Build 0)  -->
<svg version="1.1" id="圖層_1" xmlns="http://www.w3.org/2000/svg" xmlns:xlink="http://www.w3.org/1999/xlink" x="0px" y="0px"
	 viewBox="0 0 120 150" style="enable-background:new 0 0 120 150;" xml:space="preserve">
<style type="text/css">
	.st0{fill:#9EB785;}
	.st1{fill:#A5B58F;}
	.st2{fill:#AA6F4A;}
	.st3{fill:#6F4928;}
	.st4{fill:#92A382;}
	.st5{fill:#B6C9A2;}
	.st6{fill:#80916C;}
	.st7{fill:#97AA81;}
	.st8{fill:#6D7E58;}
	.st9{fill:#A9C094;}
	.st10{fill:#B37B7C;}
	.st11{fill:#68564B;}
	.st12{fill:#27240D;}
	.st13{fill:#C6978F;}
	.st14{fill:#E3C3C3;}
	.st15{fill:#E56761;}
	.st16{fill:#352922;}
	.st17{fill:#130307;}
	.st18{fill:#FFFFFF;}
</style>
<g>
	<path class="st0" d="M80.9,148.2c14.6-1.4,31-4.5,30.3-13.2c-0.6-7.4-23.9-7.1-30.3-7.5c-16.2-1-32.8-0.8-48.9,0.5
		c-6.4,0.5-44.3,4.8-28,15.7c1.3,0.9,3.1,1.4,4.8,1.9c17,4.8,35.4,4.9,53.2,3.8C65.7,149.1,73,148.9,80.9,148.2z"/>
	<g>
		<g>
			<g>
				<path class="st1" d="M14.3,92.8c3.5-5.3,7.1-10.5,10.6-15.8c0.4-0.6,0.5-1.4,0.7-2.2c0.3-0.8,0.7-1.7,1-2.5
					c0.1,0,0.3,0.1,0.4,0.1c-0.1,0.4-0.3,0.9-0.2,1.3c0,0.6,0.2,1.1,0.3,1.7c0.6-0.3,1.4-0.5,1.7-0.9c0.7-1.1,1.2-2.3,1.7-3.4
					c0.2,0.1,0.4,0.1,0.5,0.2c-0.3,1.1-0.6,2.2-0.9,3.2c-0.3,1.1-0.1,1.8,1.1,1.9c1.2,0.1,2.4,0.1,3.6,0.1c1.4,0.1,2.8,0.4,4.2,0.3
					c2.3-0.2,4.6-0.5,6.9-0.8l0,0c-0.3-1.8-0.6-3.5-1-5.3c0.2-0.1,0.4-0.1,0.6-0.2c0.4,0.8,0.9,1.6,1.2,2.5c0.6,1.9,1.8,2.4,3.6,1.8
					c4.1,6.2,8.3,12.4,12.6,18.9c-1.7,0.7-3.3,1.4-4.8,2c-1-1.7-2-3.3-2.9-5c-0.2,0.1-0.4,0.2-0.6,0.3c0.8,1.6,1.6,3.3,2.5,4.9
					c-0.2,0.2-0.3,0.3-0.5,0.5c-1.7,0.4-3.3,0.9-5,1.3c-0.6-0.3-1.4-0.3-1.7-0.8c-1-1.4-1.8-2.9-2.6-4.4c-0.8-1.4-1.6-2.9-2.3-4.3
					c-0.3,0.5-0.3,0.8-0.2,1.2c0.7,2.5,1.3,5,2,7.4c0.3,1.1,0.1,1.8-1.2,1.9c-2.7,0.2-5.4,0.4-8.1,0.6c-1.3,0.1-1.8-0.7-1.8-1.9
					c0.1-1.6,0.2-3.1,0.3-4.7c-0.1-0.2-0.3-0.4-0.5-0.7c-0.4,2.2-0.7,4.2-1.1,6.2c-0.1,0.4-0.7,1-1,1C31,99.3,28.6,99,26,98.6
					c1.6-6.2,3.1-12.2,4.6-18.2c-0.5,0.1-0.8,0.4-0.9,0.6c-1.8,4.3-3.6,8.6-5.4,12.9c-0.8,2-1.4,4.3-4.5,3.5
					c-2.1-0.9-4.3-1.9-6.5-2.9C13.7,93.9,14,93.4,14.3,92.8z"/>
				<path class="st2" d="M28.8,125.9c4.2,0,8.5,0,12.7,0c1.9-0.1,3.7-0.2,5.6-0.3c0,0.5,0,1,0,1.5c0.1,2.1,0.2,4.2,0.1,6.2
					c0,0.6-0.7,1.5-1.1,1.5c-3.4,0.3-6.7,0.5-10.1,0.7l0,0c-1.9-0.1-3.9-0.1-5.8-0.3c-0.5-0.1-1.2-0.9-1.2-1.5
					C28.8,131.2,28.9,128.5,28.8,125.9z"/>
				<path class="st3" d="M36,135.6c-0.2-2.4-0.4-4.8-0.6-7.1c4.1-0.5,7.9-0.9,11.7-1.4c0-0.5,0-1,0-1.5c-1.9,0.1-3.7,0.2-5.6,0.3
					c-4.2,0-8.5,0-12.7,0c0,2.6,0,5.3,0.2,7.9c0,0.5,0.7,1.4,1.2,1.5C32.1,135.5,34.1,135.5,36,135.6z"/>
				<path class="st4" d="M58,95.8c-1-1.7-2-3.3-2.9-5c-0.2,0.1-0.4,0.2-0.6,0.3c0.8,1.6,1.6,3.3,2.5,4.9C57.3,96,57.7,95.9,58,95.8z
					"/>
				<path class="st5" d="M25.6,74.8c-0.9-0.3-1.8-0.6-2.8-1c0.3-0.8,14.7-22.6,15.5-23.5c2,3.2,9.6,14.6,11.5,17.3
					c1.2,1.7,2.4,3.5,3.7,5.4c-1.3,0.7-2.3,1.2-3.4,1.8c-1.8,0.6-3,0.1-3.6-1.8c-0.3-0.9-0.8-1.7-1.2-2.5c-0.2,0.1-0.4,0.1-0.6,0.2
					c0.3,1.8,0.6,3.5,1,5.3c-2.3,0.3-5,0.7-7.3,0.8c-1.4,0.1-6.1-0.3-7.3-0.4c-1.2-0.1-1.4-0.8-1.1-1.9c0.3-1.1,0.6-2.1,0.9-3.2
					c-0.2-0.1-0.4-0.1-0.5-0.2l-2,4.8l-2.4-0.8l0.9-2.7c-0.1,0-0.3-0.1-0.4-0.1C26.3,73.2,25.9,74,25.6,74.8z"/>
				<path class="st4" d="M4.6,119.8c3.3-4.9,6.3-9.4,9.3-14c1.9-2.8,3.9-5.6,5.8-8.4c3.1,0.9,3.7-1.5,4.5-3.5
					c1.8-4.3,3.6-8.6,5.4-12.9c0.1-0.3,0.3-0.5,0.9-0.6c-1.5,6-3,11.9-4.6,18.2c2.7,0.3,5,0.7,7.4,0.9c0.3,0,0.9-0.6,1-1
					c0.4-2,0.7-4,1.1-6.2c0.2,0.3,0.4,0.5,0.5,0.7c-0.1,1.6-0.2,3.1-0.3,4.7c0,1.2,0.4,2,1.8,1.9c2.7-0.2,5.4-0.4,8.1-0.6
					c1.3-0.1,1.5-0.8,1.2-1.9c-0.7-2.5-1.4-5-2-7.4c-0.1-0.3-0.1-0.7,0.2-1.2c0.8,1.4,1.5,2.9,2.3,4.3c0.8,1.5,1.6,3,2.6,4.4
					c0.3,0.4,1.1,0.5,1.7,0.8l0,0c1.7-0.4,3.3-0.9,5-1.3c4.8,7.2,9.7,14.5,14.7,22c0,0-15,8.4-33.7,7.3c-2.9,0-5.8,0-8.7,0l0-0.1
					l-2.3-0.3c-4.5-0.9-8.9-1.9-13.4-2.8c-1.1-0.4-2.1-0.7-3.2-1.1C8.3,121.1,6.6,120.5,4.6,119.8C4.7,119.8,4.6,119.8,4.6,119.8z"
					/>
			</g>
			<path class="st6" d="M19.8,97.5c-1.9,2.8-3.9,5.6-5.8,8.4c-3.1,4.5-6.1,9.1-9.3,14c1.9,0.7,3.6,1.3,5.3,1.9
				c0.6-1.1,1.2-2.2,1.7-3.4c1.8-4.1,3.5-8.3,5.2-12.4c0.1-0.2,0.4-0.3,1.1-0.8c-0.8,3.2-1.5,5.8-2.3,8.4c-0.9,3.1-1.8,6.2-2.7,9.3
				c4.5,0.9,8.9,1.9,13.4,2.8c0.6-3.3,1.2-6.6,1.8-9.8c0.1,0,0.3,0.1,0.4,0.1c0,3.3,0.1,6.7,0.1,10l0,0.1c4.2,0,8.5,0,12.7,0
				c-0.3-1.6-0.6-3.3-0.9-4.9c-0.9,1.4-1.8,2.9-2.7,4.3c-0.1,0-0.3-0.1-0.4-0.1c0.7-4.1,1.5-8.2,2.2-12.3c0.2,0,0.3,0,0.5,0
				c0.1,1.9,0.2,3.9,0.4,5.8c0.5-0.6,1.1-1,1.4-1.7c2.1-4.1,4.2-8.1,6.2-12.2c1.1-2.3,2.1-4.7,3.1-7c-0.6-0.3-1.4-0.3-1.7-0.8
				c-1-1.4-1.8-2.9-2.6-4.4c-0.8-1.4-1.6-2.9-2.3-4.3c-0.3,0.5-0.3,0.8-0.2,1.2c0.7,2.5,1.3,5,2,7.4c0.3,1.1,0.1,1.8-1.2,1.9
				c-2.7,0.2-5.4,0.4-8.1,0.6c-1.3,0.1-1.8-0.7-1.8-1.9c0.1-1.6,0.2-3.1,0.3-4.7c-0.1-0.2-0.3-0.4-0.5-0.7c-0.4,2.2-0.7,4.2-1.1,6.2
				c-0.1,0.4-0.7,1-1,1C31,99.3,28.6,99,26,98.6c1.6-6.2,3.1-12.2,4.6-18.2c-0.5,0.1-0.8,0.4-0.9,0.6c-1.8,4.3-3.6,8.6-5.4,12.9
				C23.4,96,22.8,98.3,19.8,97.5z"/>
			<path class="st7" d="M19.8,97.5c3.1,0.9,3.7-1.5,4.5-3.5c1.8-4.3,3.6-8.6,5.4-12.9c0.1-0.3,0.3-0.5,0.9-0.6
				c-1.5,6-3,11.9-4.6,18.2c2.7,0.3,5,0.7,7.4,0.9c0.3,0,0.9-0.6,1-1c0.4-2,0.7-4,1.1-6.2c0.2,0.3,0.4,0.5,0.5,0.7
				c1.3-1.8,2.7-3.5,4-5.3c1.3-1.8,2.4-3.6,3.6-5.4c1.4-2.1,2.7-4.2,4.3-6.7c-0.8,0.2-1.4,0.4-1.9,0.5c-2.3,0.3-4.6,0.3-6.9,0.4
				c-1.4,0.1-2.8,0.2-4.2,0.1c-1.2,0-2.4,0-3.6-0.1c-1.2-0.1-1.4-0.8-1.1-1.9c0.3-1.1,0.6-2.1,0.9-3.2c-0.2-0.1-0.4-0.1-0.5-0.2
				c-0.6,1.1-1,2.4-1.7,3.4c-0.3,0.5-1.1,0.6-1.7,0.9c-0.1-0.6-0.3-1.1-0.3-1.7c0-0.4,0.2-0.9,0.2-1.3c-0.1,0-0.3-0.1-0.4-0.1
				c-0.3,0.8-0.7,1.7-1,2.5c-0.2,0.7-0.3,1.6-0.7,2.2c-3.5,5.3-7,10.5-10.6,15.8c-0.3,0.5-0.7,1-1.1,1.8
				C15.5,95.6,17.6,96.5,19.8,97.5z"/>
			<path class="st1" d="M45.9,76.1c0.5-0.1,1.1-0.3,1.9-0.5c-1.6,2.5-2.9,4.6-4.3,6.7c-1.2,1.8-2.4,3.6-3.6,5.4
				c-1.3,1.8-2.7,3.6-4,5.3c-0.1,1.6-0.2,3.1-0.3,4.7c0,1.2,0.4,2,1.8,1.9c2.7-0.2,5.4-0.4,8.1-0.6c1.3-0.1,1.5-0.8,1.2-1.9
				c-0.7-2.5-1.4-5-2-7.4c-0.1-0.3-0.1-0.7,0.2-1.2c0.8,1.4,1.5,2.9,2.3,4.3c0.8,1.5,1.6,3,2.6,4.4c0.3,0.4,1.1,0.5,1.7,0.8
				c1.7-0.4,3.3-0.9,5-1.3c0.2-0.2,0.3-0.3,0.5-0.5c-0.8-1.6-1.6-3.3-2.5-4.9c0.2-0.1,0.4-0.2,0.6-0.3c1,1.7,2,3.3,2.9,5
				c1.5-0.6,3.1-1.3,4.8-2c-4.3-6.5-8.4-12.7-12.6-18.9c-1.8,0.6-3,0.1-3.6-1.8c-0.3-0.9-0.8-1.7-1.2-2.5c-0.2,0.1-0.4,0.1-0.6,0.2
				C45.3,72.5,45.6,74.3,45.9,76.1z"/>
			<path class="st8" d="M13.1,122.7c0.9-3.1,1.8-6.2,2.7-9.3c0.7-2.6,1.4-5.2,2.3-8.4c-0.7,0.5-1,0.6-1.1,0.8
				c-1.8,4.1-3.5,8.3-5.2,12.4c-0.5,1.2-1.2,2.3-1.7,3.4C11,122,12,122.4,13.1,122.7z"/>
			<path class="st8" d="M28.8,125.8c0-3.3-0.1-6.7-0.1-10c-0.1,0-0.3-0.1-0.4-0.1c-0.6,3.3-1.2,6.6-1.8,9.8
				C27.2,125.6,28,125.7,28.8,125.8z"/>
			<path class="st6" d="M65.4,120.8c-1.5-1.8-3-3.5-4.4-5.3c-0.1,0.1-0.3,0.1-0.4,0.2c0.8,2,1.7,3.9,2.5,5.9
				C63.9,121.4,64.7,121.1,65.4,120.8z"/>
			<path class="st4" d="M58,95.8c-1-1.7-2-3.3-2.9-5c-0.2,0.1-0.4,0.2-0.6,0.3c0.8,1.6,1.6,3.3,2.5,4.9C57.3,96,57.7,95.9,58,95.8z"
				/>
			<path class="st8" d="M40.7,121c0-0.8,0-1.5,0-2.3c-0.1-1.9-0.2-3.9-0.4-5.8c-0.2,0-0.3,0-0.5,0c-0.7,4.1-1.5,8.2-2.2,12.3
				c0.1,0,0.3,0.1,0.4,0.1C38.9,123.9,39.8,122.4,40.7,121z"/>
		</g>
		<path class="st9" d="M25.6,74.8c-0.9-0.3-1.8-0.6-2.8-1c0.3-0.8,14.7-22.6,15.5-23.5c2,3.2,5.9,9.3,5.9,9.3l-9.4,16.9
			c-1.2,0-5.2-0.3-5.2-0.3c0.3-1.1,1.1-3.8,1.4-4.9c-0.2-0.1-0.4-0.1-0.5-0.2l-2,4.8l-2.1-0.6l0.3-1.6c0-0.4,0.2-0.9,0.2-1.3
			c-0.1,0-0.3-0.1-0.4-0.1C26.3,73.2,25.9,74,25.6,74.8z"/>
	</g>
	<g>
		<path class="st10" d="M50.4,117.4c-2.3-2-2.5-6.6-1.3-9.2c0.2-0.4,0.5-0.9,1-0.8c-1.4,2.4-1,5.7,0.9,7.8c0.5,0.6,1.3,1.1,2.1,0.9
			c0.9-0.2,3.9-2,3.3,0.5c-0.6,2.3-3.9,2.3-5.5,1.2C50.7,117.6,50.5,117.5,50.4,117.4z"/>
		<path class="st11" d="M48.4,107.1c-0.2-2.2,1.1-3.5,2.2-5.1c1.5,1.2,1.4,3.5,0.5,5c-0.5,0.8-1.2,1.5-1.9,2
			C48.7,108.4,48.5,107.8,48.4,107.1z"/>
	</g>
	<g>
		<path class="st10" d="M73.3,133.1c0,0.4-0.1,0.8-0.1,1.2c0,0.1,0,0.2-0.1,0.3c-0.1,0.1-0.3,0.2-0.4,0.2c-0.3,0.1-0.6,0.2-0.9,0.2
			c-0.4,0-0.7-0.1-1.1-0.2c-0.2-0.1-0.5-0.1-0.7-0.3c-0.3-0.3-0.3-0.8-0.4-1.1c-0.1-0.5-0.2-1-0.4-1.5c-0.7-3-1.5-6.2-0.8-9.2
			c0.1-0.4,0.2-0.7,0.5-1c0.3-0.3,0.6-0.4,1-0.5c2.1-0.7,6.6-0.7,5.7,2.7c-0.6,2.2-1.5,4.4-1.9,6.7
			C73.4,131.4,73.4,132.2,73.3,133.1z"/>
		<path class="st12" d="M73.4,134.3c0.2,0.2,0.4,0.4,0.5,0.6c0.3,0.3,0.5,0.8,0.6,1.2c0.1,0.2,0.2,0.5,0,0.7
			c-0.1,0.1-0.2,0.1-0.2,0.1c-0.3,0.1-0.6,0.1-0.8,0.1c-0.9,0-1.7-0.1-2.6-0.2c-0.3,0-0.7-0.1-0.8-0.4c-0.1-0.1-0.1-0.3-0.2-0.5
			c-0.1-0.5-0.6-1.5,0-1.7c0.4-0.1,1,0,1.4,0c0.5,0,0.9,0,1.4,0c0.2,0,0.4,0,0.6,0.1C73.3,134.2,73.4,134.2,73.4,134.3z"/>
		<path class="st11" d="M73.1,134.4c0.2,0.2,0.4,0.4,0.6,0.6c0.2,0.4,0.4,0.8,0.5,1.2c0.1,0.2,0.2,0.5,0,0.7
			c-0.1,0.1-0.2,0.1-0.2,0.1c-0.3,0.1-0.6,0.1-0.8,0.1c-0.9,0-1.7-0.1-2.6-0.2c-0.3,0-0.7-0.1-0.8-0.4c-0.2-0.3-0.2-0.8-0.2-1.2
			c0-0.2,0-0.4,0-0.6c0.1-0.3,0.3-0.5,0.6-0.5c0.4,0,0.8-0.1,1.2-0.1c0.3,0,0.5,0,0.8,0C72.5,134,72.8,134.1,73.1,134.4
			C73,134.4,73.1,134.4,73.1,134.4z"/>
	</g>
	<g>
		<path class="st11" d="M89.6,109.2c0.7,0.4,1.4,0.8,2.1,1.1c0.2,0.1,0.4,0.2,0.4,0.4c0.1,0.3-0.3,0.6-0.7,0.6c-0.3,0-0.7,0-0.9,0.3
			c0.7,0.9,0.8,1.4,0.5,1.7c-0.3,0.3-1.2,0.2-2.3,0.1c-0.2,0-0.5-0.1-0.7-0.1C88.5,111.9,89,110.5,89.6,109.2z"/>
		<path class="st10" d="M76.6,101c-3,3.8,1.4,8.1,4.5,9.9c0.6,0.3,6.7,3,6.9,2.3c0.5-1.4,0.9-2.8,1.5-4.1c-0.1,0.2-2.6-2-2.7-2.1
			c-1.3-1.2-2.3-2.2-3-3.8c-0.5-1.2-1-2.4-2-3.3C80.2,98.5,77.9,99.4,76.6,101z"/>
	</g>
	<path class="st13" d="M54.8,109.2c0.4-4.9,1.4-9.8,1.6-13.2c0.4-8.1,0.7-16.3,0.9-24.5c0.2-7.5,0.3-13.7-0.4-21.8
		c0.8,5.1,6.6,6.4,10,10.3c3.1,3.5,5.6,8.5,6.4,13.1c0.5,2.9,0.2,5.7,1,8.5c0.8,2.9,2,5.7,3.4,8.4c2.8,5.6,6.3,10.9,8,17
		c0.6,2,0.9,4.1,1,6.2c0.1,2.2,0,4.4-0.9,6.3c-1.4,3-4.5,4.9-7.6,6.3c-5.5,2.4-13.1,3.4-18.5,0.1C54.6,122.9,54.2,116,54.8,109.2z"
		/>
	<path class="st10" d="M57.3,71.6c0.2-7.5,0.3-13.7-0.4-21.8c0.8,5.1,6.6,6.4,10,10.3c3.1,3.5,5.6,8.5,6.4,13.1
		c0.3,1.9,0.3,3.8,0.5,5.7c-5.2-1.7-11.6,0.3-13.7,4.9c-1.6,4-1.6,9.4-3.8,13.2c0-0.4,0.1-0.7,0.1-1C56.8,87.9,57.1,79.7,57.3,71.6z
		"/>
	<path class="st13" d="M73.7,78.9c0.1,0.9,0.2,1.9,0.5,2.8c0.8,2.9,2,5.7,3.4,8.4c2.8,5.6,6.3,10.9,8,17c0.6,2,0.9,4.1,1,6.2
		c0.1,2.2,0,4.4-0.9,6.3c-1.4,3-4.5,4.9-7.6,6.3c-5.5,2.4-13.1,3.4-18.5,0.1c-5.1-3.1-5.5-10-4.9-16.8c0.4-4.4,1.2-8.8,1.5-12.2
		c2.2-3.8,2.2-9.2,3.8-13.2C62.1,79.2,68.5,77.2,73.7,78.9z"/>
	<path class="st14" d="M83.5,105c-1.8-3.1-4.9-7.3-8.9-7.8c-4.5-0.5-5.3,6.4-5.9,9.8c-1,5.2-1.5,10-1.8,15.2
		c-0.1,1.2-0.1,2.4,0.7,3.3c0.8,0.9,2.1,1.1,3.3,1c4.9-0.1,11.2-2.1,13.6-6.6C86.9,115.4,86,109.4,83.5,105z"/>
	<g>
		<path class="st11" d="M70.3,113.9c0.5,0.6,1.1,1.3,1.6,1.9c0.1,0.2,0.3,0.4,0.2,0.6c-0.1,0.3-0.5,0.4-0.9,0.3
			c-0.3-0.1-0.7-0.3-1-0.1c0.3,1.2,0.2,1.7-0.1,1.8c-0.4,0.1-1.2-0.3-2.2-0.8c-0.2-0.1-0.4-0.2-0.7-0.4
			C68.2,116.1,69.2,114.9,70.3,113.9z"/>
		<path class="st10" d="M58.7,100.9c-0.2,4,0.5,8.1,2.9,11.4c0.4,0.5,5.2,5.5,5.7,4.9c1-1.1,2-2.3,3.1-3.3c-0.4,0.4-3.9-4.5-4.1-5.1
			c-0.7-1.7-0.9-3.5-0.8-5.4c0-0.9,0.1-1.8-0.1-2.7c-0.2-1.3-1-2.5-2.1-3.1c-1.1-0.6-2.7-0.5-3.6,0.5
			C58.9,98.8,58.7,99.8,58.7,100.9z"/>
	</g>
	<g>
		<path class="st10" d="M63.7,134.1c0,0.4-0.1,0.8-0.1,1.2c0,0.1,0,0.2-0.1,0.3c-0.1,0.1-0.3,0.2-0.4,0.2c-0.3,0.1-0.6,0.2-0.9,0.2
			c-0.4,0-0.7-0.1-1.1-0.2c-0.2-0.1-0.5-0.1-0.7-0.3c-0.3-0.3-0.3-0.8-0.4-1.1c-0.1-0.5-0.2-1-0.4-1.5c-0.7-3-1.5-6.2-0.8-9.2
			c0.1-0.4,0.2-0.7,0.5-1c0.3-0.3,0.6-0.4,1-0.5c2.1-0.7,6.6-0.7,5.7,2.7c-0.6,2.2-1.5,4.4-1.9,6.7
			C63.8,132.5,63.8,133.3,63.7,134.1z"/>
		<path class="st12" d="M63.8,135.3c0.2,0.2,0.4,0.4,0.5,0.6c0.3,0.3,0.5,0.8,0.6,1.2c0.1,0.2,0.2,0.5,0,0.7
			c-0.1,0.1-0.2,0.1-0.2,0.1c-0.3,0.1-0.6,0.1-0.8,0.1c-0.9,0-1.7-0.1-2.6-0.2c-0.3,0-0.7-0.1-0.8-0.4c-0.1-0.1-0.1-0.3-0.2-0.5
			c-0.1-0.5-0.6-1.5,0-1.7c0.4-0.1,1,0,1.4,0c0.5,0,0.9,0,1.4,0c0.2,0,0.4,0,0.6,0.1C63.7,135.2,63.7,135.3,63.8,135.3z"/>
		<path class="st11" d="M63.5,135.4c0.2,0.2,0.4,0.4,0.6,0.6c0.2,0.4,0.4,0.8,0.5,1.2c0.1,0.2,0.2,0.5,0,0.7
			c-0.1,0.1-0.2,0.1-0.2,0.1c-0.3,0.1-0.6,0.1-0.8,0.1c-0.9,0-1.7-0.1-2.6-0.2c-0.3,0-0.7-0.1-0.8-0.4c-0.2-0.3-0.2-0.8-0.2-1.2
			c0-0.2,0-0.4,0-0.6c0.1-0.3,0.3-0.5,0.6-0.5c0.4,0,0.8-0.1,1.2-0.1c0.3,0,0.5,0,0.8,0C62.8,135,63.2,135.1,63.5,135.4
			C63.4,135.4,63.4,135.4,63.5,135.4z"/>
	</g>
	<path class="st6" d="M102.8,139.7c0,0-0.9-9.2-3.2-8.4c-2.3,0.8-2.4,4.3-2.4,4.3s-1-8.9-3.6-8.1c-2.6,0.8-2.6,8-2.6,8
		s-2-6.3-3.4-4.6c-1.4,1.7-1.6,5.5-1.6,5.5s-3.1-4.5-4-2.3c-0.9,2.2-0.2,6.5-0.2,6.5L102.8,139.7z"/>
	<g>
		<path class="st11" d="M88.3,35.1c0.1-0.2,0.3-0.5,0.4-0.7c1.7-3.5,1-7.9,0.6-11.6c-0.3-2.8-0.8-5.5-0.8-8.3c0-2.1,1.3-7.1,4.3-3.9
			c0.7,0.8,1.2,1.9,1.4,2.9c0.5,2.9-0.4,5.5-1,8.3c-0.9,3.8-2.9,13.9,2.7,15.4c2.4,0.6,4.8-1.2,5.7-3.3c2-4.5,0.6-10.7,0.2-15.4
			c-0.2-2.9-0.5-5.8-0.3-8.7c0.2-2.4,2-4.8,4.5-3c2.8,2,2.1,6.6,1.4,9.4c-1.2,4.8-2.9,10.3-2.2,15.3c0.5,3.5,3.6,5.6,6.6,3.2
			c3.3-2.6,4.1-6.6,3.3-10.6c-1.1-5.4-2.6-10.7-2.7-16.2c-0.1-2.7,0.4-7,4.1-6c2.2,0.6,3.1,3.3,3.3,5.6c0.6,6.9,0.6,14.1-1.4,20.8
			c-1.8,6.1-6,10.3-11.9,12.5c-3.5,1.3-7.3,1.5-11.1,1.4c-3.2,0-6.4-0.1-9.5,0c-2.4,0.1-5.6,0.8-7.8-0.4c-0.4-0.2-0.8-0.7-0.8-1.2
			c-0.1-1.8,2.8-1.5,3.9-1.6C83.8,38.7,86.7,37.5,88.3,35.1z"/>
		<g>
			<path class="st13" d="M78.6,42.2c0.3,0.4,1.1,0.4,1.8,0.6c0.9,0.3,1.7,0.6,2.6,0.8c1.7,0.6,3.5,1.1,5.3,1.2
				c0.9,0,1.8-0.3,1.9-1.3c0.1-0.7-0.3-1.4-0.8-2c-2-2.4-5.8-3.2-8.6-1.9C80,39.9,77.9,41.2,78.6,42.2z"/>
			<path class="st15" d="M80.4,41.3c0,0.4,0.4,0.8,0.8,1c0.8,0.4,2,0.5,2.9,0.7c0.8,0.2,4.3,1.5,4.1-0.1c-0.2-1.7-1.7-2.4-3.3-2.6
				c-1-0.1-3.9-0.4-4.4,0.7C80.4,41.1,80.4,41.2,80.4,41.3z"/>
		</g>
		<path class="st13" d="M88.8,54.5c2.8,2.1,6.8,3,9.7,4.8c3.7,2.3,5.9,6.7,5.5,11.1c-0.4,4.3-3.4,8.3-7.4,9.9c-1.9,0.7-4,1-6,1
			c-11.4,0-22.2-6.9-28.6-16c-3.8-5.3-6.2-12-4.6-18.4c0.8-3.2,3-6.1,5.6-8.1c0.7-0.5,1.4-1,2.2-1.4c0.4-0.2,1.7-0.3,2-0.6
			c1.1-1.1-1.3-2.3-0.2-3.3c0.3-0.3,0.8-0.2,1.1,0c0.3,0.2,0.5,0.6,0.7,1c0-0.8,0.1-1.6,0.3-2.4c0.1-0.2,0.1-0.5,0.3-0.6
			c0.1-0.1,0.3-0.1,0.5,0c0.6,0.2,0.9,0.8,0.9,1.5c0,0.6-0.1,1.3,0,1.9c0.5-1.3,1.3-2.5,2.3-3.4c1.2-1,2-0.3,1.6,1.1
			c-0.2,0.9-0.7,1.7-1.3,2.4c-0.2,0.2-0.3,0.3-0.4,0.5c-0.4,0.9,4.4,3.2,5.2,3.9c1.8,1.7,3.3,3.7,4.5,5.9c1.6,3,3.2,6.9,5.8,9
			C88.6,54.4,88.7,54.5,88.8,54.5z"/>
		<path class="st14" d="M81.5,74.4c-1.1-3-0.9-6.4,1.2-9.4c2.7-3.9,7.7-6.2,12.4-6.3c5.5-0.1,10.8,4,11.9,9.5
			c1.9,9.7-9.6,14.5-17.5,13C85.6,80.4,82.7,77.7,81.5,74.4z"/>
		<g>
			<path class="st11" d="M100.8,66.3c0.3-0.1,0.5-0.2,0.8-0.2c3.5,0.1,3,8.8-0.7,7.5c0,0-0.1,0-0.1-0.1
				C102.9,72.4,103,67.3,100.8,66.3z"/>
			<path class="st16" d="M100.8,66.3c2.1,1.1,2.1,6.2,0,7.2c-1.1-0.5-1.7-2-1.8-3.6C99.1,68.8,99.7,66.9,100.8,66.3z"/>
		</g>
		<g>
			<path class="st11" d="M89.5,66.3c0.3-0.1,0.5-0.2,0.8-0.2c3.5,0.1,3,8.8-0.7,7.5c0,0-0.1,0-0.1-0.1
				C91.6,72.4,91.7,67.3,89.5,66.3z"/>
			<path class="st16" d="M89.5,66.3c2.1,1.1,2.1,6.2,0,7.2c-1.1-0.5-1.7-2-1.8-3.6C87.8,68.8,88.4,66.9,89.5,66.3z"/>
		</g>
		<g>
			<path class="st17" d="M90.5,78.4c0.2,0,0.4-0.2,0.4-0.4c0-0.2-0.1-0.4-0.4-0.5c-0.1,0-3.4-0.5-3.4-3.3c0-0.2-0.2-0.4-0.4-0.4
				s-0.4,0.2-0.4,0.4C86.3,77,89,78.2,90.5,78.4C90.5,78.4,90.5,78.4,90.5,78.4z"/>
		</g>
		<g>
			<path class="st18" d="M67.8,45.9c-0.4-0.9-1.1-1.6-2-1.6c-1.7-0.1-3,0.3-3.3,2.1c-0.2,1.1,0.3,2.4,1.3,3c1.2,0.7,3,0.4,3.8-0.7
				C68.2,47.9,68.2,46.8,67.8,45.9z"/>
			<path class="st17" d="M67.9,46.3c-0.2-0.5-0.7-1-1.2-1c-1-0.1-1.8,0.2-2,1.3c-0.1,0.7,0.2,1.5,0.8,1.9c0.8,0.5,1.8,0.3,2.4-0.5
				C68.2,47.6,68.2,46.9,67.9,46.3z"/>
		</g>
		<g>
			<path class="st18" d="M78.7,44.9c-0.4-0.9-1.1-1.5-2-1.6c-1.7-0.1-2.9,0.3-3.2,2.1c-0.2,1.1,0.3,2.4,1.3,3
				c1.2,0.7,2.9,0.4,3.7-0.7C79.1,46.9,79.1,45.8,78.7,44.9z"/>
			<path class="st17" d="M78.8,45.3c-0.2-0.5-0.7-1-1.2-1c-1-0.1-1.8,0.2-2,1.3c-0.1,0.7,0.2,1.5,0.8,1.9c0.7,0.4,1.8,0.3,2.3-0.5
				C79.1,46.6,79.1,45.9,78.8,45.3z"/>
		</g>
		<path class="st11" d="M50.6,36.2c-0.2-0.2-0.3-0.5-0.4-0.8c-1.9-3.8-1.1-8.5-0.7-12.6c0.3-3,0.9-5.9,0.8-9c0-2.3-1.4-7.7-4.6-4.3
			c-0.8,0.8-1.3,2-1.5,3.1c-0.5,3.1,0.5,6,1.1,9c0.9,4.1,3.2,15.1-2.9,16.7c-2.6,0.7-5.2-1.3-6.1-3.6c-2.2-4.9-0.6-11.5-0.2-16.7
			c0.3-3.1,0.6-6.3,0.3-9.4c-0.2-2.6-2.2-5.2-4.9-3.3c-3,2.1-2.3,7.1-1.5,10.2c1.3,5.2,3.1,11.2,2.4,16.6c-0.5,3.7-3.9,6.1-7.2,3.5
			c-3.6-2.8-4.5-7.2-3.6-11.5c1.2-5.8,2.8-11.6,3-17.6c0.1-2.9-0.4-7.6-4.5-6.5c-2.4,0.6-3.4,3.6-3.6,6.1
			c-0.7,7.5-0.6,15.3,1.5,22.5c1.9,6.6,6.5,11.2,12.9,13.5c3.8,1.4,8,1.6,12,1.5c3.5,0,6.9-0.1,10.4,0c2.6,0.1,6.1,0.9,8.4-0.4
			c0.5-0.3,0.8-0.7,0.9-1.3c0.2-2-3.1-1.6-4.2-1.8C55.3,40.1,52.2,38.8,50.6,36.2z"/>
		<g>
			<path class="st13" d="M61.1,45.5c-0.3,0.5-1.4,0.7-2.3,1c-1.1,0.4-2.2,0.9-3.3,1.4c-2.2,1-4.4,1.9-6.8,2.2
				c-1.2,0.2-2.4-0.2-2.6-1.5C46,47.7,46.4,46.8,47,46c2.4-3.4,7.2-4.9,11.1-3.6C59,42.7,61.9,44.2,61.1,45.5z"/>
			<path class="st15" d="M58.7,44.6c0.1,0.6-0.4,1.1-0.9,1.4c-1.1,0.6-2.5,0.9-3.7,1.3c-1.1,0.4-5.5,2.5-5.5,0.4
				c0-2.2,1.9-3.4,4-3.8c1.3-0.3,5.1-1,5.9,0.3C58.7,44.4,58.7,44.5,58.7,44.6z"/>
		</g>
	</g>
</g>
</svg>
