<?xml version="1.0" encoding="utf-8"?>
<!-- Generator: Adobe Illustrator 27.0.0, SVG Export Plug-In . SVG Version: 6.00 Build 0)  -->
<svg version="1.1" id="圖層_1" xmlns="http://www.w3.org/2000/svg" xmlns:xlink="http://www.w3.org/1999/xlink" x="0px" y="0px"
	 viewBox="0 0 45 45" style="enable-background:new 0 0 45 45;" xml:space="preserve">
<g>
	<path d="M41.3,40.6L6.1,40.9l7.7-4.5c0.1-0.1,0.2-0.2,0.3-0.3l12.1-18.9l1.6-2.4l2.7-4.2h0C31,9.7,31.2,8.7,31,7.8
		c-0.2-1-0.8-1.8-1.6-2.3l-3.6-2.3c-0.8-0.5-1.8-0.7-2.8-0.5c-1,0.2-1.8,0.8-2.3,1.6L4.2,29.8c-0.1,0.1-0.1,0.2-0.1,0.3L2.9,41.3
		c0,0.1,0,0.2,0,0.3c0,0,0,0.1,0,0.1c0,0.4,0.4,0.8,0.8,0.8l37.7-0.3h0c0.4,0,0.8-0.4,0.8-0.8C42.1,41,41.8,40.6,41.3,40.6
		L41.3,40.6z M12,35.5l-7.4,4.4l0.9-8.5L12,35.5z M13,34.7l-7.2-4.6l11.4-17.7l7.1,4.6L13,34.7z M18.8,10l7.1,4.6l-0.7,1.1l-7.1-4.6
		L18.8,10z M22,5.1L22,5.1c0.3-0.5,0.8-0.8,1.3-0.9c0.5-0.1,1.1,0,1.6,0.3l3.6,2.3c0.5,0.3,0.8,0.8,0.9,1.3c0.1,0.5,0,1.1-0.3,1.6
		l-2.3,3.6l-7.2-4.6L22,5.1z"/>
	<path d="M22.6,16.8c-0.3-0.2-0.7-0.1-0.9,0.2l-6.5,9.9c-0.2,0.3-0.1,0.7,0.2,0.9c0.3,0.2,0.7,0.1,0.9-0.2l6.5-9.9
		C22.9,17.4,22.9,17,22.6,16.8L22.6,16.8z"/>
</g>
</svg>
