<?xml version="1.0" encoding="utf-8"?>
<!-- Generator: Adobe Illustrator 27.0.0, SVG Export Plug-In . SVG Version: 6.00 Build 0)  -->
<svg version="1.1" id="圖層_1" xmlns="http://www.w3.org/2000/svg" xmlns:xlink="http://www.w3.org/1999/xlink" x="0px" y="0px"
	 viewBox="0 0 45 45" style="enable-background:new 0 0 45 45;" xml:space="preserve">
<g>
	<path d="M8.7,24.9l1.4,8.4c0,0,0,0.1,0,0.2l3,7.1c0.1,0.3,0.4,0.5,0.7,0.5c0.1,0,0.2,0,0.3,0c0.4-0.2,0.6-0.7,0.4-1.1l-3-7
		l-1.4-8.4c0,0,0-0.1,0-0.1l-3.5-10c-0.2-0.5,0-1.1,0.5-1.3L7.6,13c0.5-0.2,1.1,0,1.3,0.5c0,0,0,0,0,0.1l4.7,9
		c0.1,0.3,0.4,0.4,0.7,0.4h0h0.1c0.4-0.1,0.7-0.5,0.6-1L12.5,7.8c-0.1-0.7,0.4-1.5,1.1-1.6L14.1,6c0.3,0,0.7,0,1,0.2
		c0.3,0.2,0.5,0.5,0.6,0.9l2.4,13.1v0v0c0,0,0,0,0,0.1c0,0,0,0,0,0c0,0,0,0,0,0.1l0.1,0.1l0,0c0,0,0,0,0,0c0,0,0,0,0.1,0h0
		c0,0,0,0,0.1,0h0.1h0H19h0c0,0,0.1,0,0.1,0h0c0,0,0.1,0,0.1,0l0.1-0.1c0,0,0,0,0-0.1c0,0,0,0,0,0c0,0,0,0,0-0.1v0c0,0,0,0,0-0.1v0
		v-0.1l0.8-14.6c0-0.4,0.1-0.8,0.4-1c0.3-0.3,0.7-0.4,1.1-0.4h0.5c0.8,0,1.5,0.7,1.5,1.5l-0.4,13.9v0v0.1v0.1v0.1c0,0,0,0,0,0.1
		c0,0,0,0,0,0l0,0l0.1,0.1l0,0l0,0c0,0,0,0,0.1,0h0h0h0.1h0.1h0h0h0.1h0.1h0c0,0,0,0,0.1,0h0c0,0,0,0,0.1,0c0,0,0,0,0,0
		c0,0,0,0,0.1,0l0,0c0,0,0,0,0-0.1c0,0,0,0,0,0c0,0,0,0,0-0.1v0L29,9.1c0.3-0.8,1.1-1.2,1.9-0.9l0.4,0.1c0.4,0.1,0.7,0.4,0.8,0.8
		c0.1,0.4,0.2,0.8,0,1.2l-3.5,11.9c-1,4.4-0.4,5.8,0.3,6.2c0.3,0.2,0.8,0.1,1-0.2l4.8-5.5c0,0,0-0.1,0.1-0.1
		c0.2-0.3,0.5-0.6,0.9-0.7c0.4-0.1,0.8,0,1.1,0.1l0.4,0.2c0.3,0.2,0.6,0.5,0.7,0.9c0.1,0.4,0,0.8-0.1,1.1l-5.7,8.1l-4.7,7.2
		c-0.1,0.1-0.1,0.3-0.1,0.4v1.6c0,0.4,0.4,0.8,0.8,0.8c0.4,0,0.8-0.4,0.8-0.8v-1.4l4.6-7l5.8-8.1l0,0c0.4-0.7,0.5-1.6,0.3-2.4
		c-0.2-0.8-0.7-1.5-1.5-1.9l-0.4-0.2c-0.7-0.4-1.6-0.5-2.4-0.3c-0.8,0.2-1.5,0.7-1.9,1.4L29.8,26c0-0.9,0.2-2.2,0.5-3.3l3.5-11.8
		c0.3-0.8,0.2-1.7-0.1-2.4c-0.4-0.7-1-1.3-1.8-1.6l-0.4-0.1c-1.6-0.6-3.4,0.3-4,1.9l-1.9,5.6l0.2-8.5c0-1.7-1.4-3.2-3.1-3.2h-0.5
		c-0.8,0-1.6,0.3-2.3,0.9C19.3,4,19,4.8,19,5.5l-0.4,7.6l-1.1-6.2c-0.1-0.8-0.6-1.5-1.3-2c-0.7-0.5-1.5-0.6-2.3-0.5l-0.5,0.1
		c-1.7,0.3-2.7,1.9-2.5,3.5l1.7,8.9L10.5,13c-0.2-0.6-0.7-1.1-1.4-1.4c-0.6-0.3-1.4-0.3-2,0l-0.3,0.1c-1.4,0.5-2,2.1-1.5,3.4
		L8.7,24.9z"/>
	<path d="M25,28c-0.2,0.1-5.8,2.8-5.7,7.6c0,0.4,0.4,0.8,0.8,0.8c0.4,0,0.8-0.4,0.8-0.8c0-3.6,4.8-6,4.8-6c0.4-0.2,0.6-0.7,0.4-1.1
		C25.8,28,25.4,27.8,25,28L25,28z"/>
</g>
</svg>
