<?xml version="1.0" encoding="utf-8"?>
<!-- Generator: Adobe Illustrator 27.0.0, SVG Export Plug-In . SVG Version: 6.00 Build 0)  -->
<svg version="1.1" id="圖層_1" xmlns="http://www.w3.org/2000/svg" xmlns:xlink="http://www.w3.org/1999/xlink" x="0px" y="0px"
	 viewBox="0 0 45 45" style="enable-background:new 0 0 45 45;" xml:space="preserve">
<path d="M8.3,42.5c-0.5,0-0.9-0.5-0.9-0.9V3.4c0-0.5,0.4-0.9,0.9-0.9h22.2c0.2,0,0.5,0.1,0.6,0.3L37.3,9c0.2,0.2,0.3,0.4,0.3,0.6v32
	c0,0.5-0.4,0.9-0.9,0.9L8.3,42.5L8.3,42.5z M9.2,40.7h26.7V10.5h-5.3c-0.5,0-0.9-0.5-0.9-0.9V4.3H9.2L9.2,40.7z M13.6,35.4
	c-0.5,0-0.9-0.4-0.9-0.9c0-0.5,0.4-0.9,0.9-0.9h17.8c0.5,0,0.9,0.4,0.9,0.9c0,0.5-0.4,0.9-0.9,0.9H13.6z M13.6,27.4
	c-0.5,0-0.9-0.4-0.9-0.9c0-0.5,0.4-0.9,0.9-0.9h17.8c0.5,0,0.9,0.4,0.9,0.9c0,0.5-0.4,0.9-0.9,0.9H13.6z M13.6,19.4
	c-0.5,0-0.9-0.4-0.9-0.9c0-0.5,0.4-0.9,0.9-0.9h17.8c0.5,0,0.9,0.4,0.9,0.9c0,0.5-0.4,0.9-0.9,0.9H13.6z M13.6,11.4
	c-0.5,0-0.9-0.4-0.9-0.9c0-0.5,0.4-0.9,0.9-0.9h14.2c0.5,0,0.9,0.4,0.9,0.9c0,0.5-0.4,0.9-0.9,0.9H13.6z M31.4,8.7h3.2l-3.2-3.2V8.7
	z"/>
</svg>
