<?xml version="1.0" encoding="utf-8"?>
<!-- Generator: Adobe Illustrator 27.0.0, SVG Export Plug-In . SVG Version: 6.00 Build 0)  -->
<svg version="1.1" id="圖層_1" xmlns="http://www.w3.org/2000/svg" xmlns:xlink="http://www.w3.org/1999/xlink" x="0px" y="0px"
	 viewBox="0 0 45 45" style="enable-background:new 0 0 45 45;" xml:space="preserve">
<g>
	<path d="M40.9,20.9h-4.7c-0.5,0-0.9,0.4-0.9,0.9c0,0.5,0.4,0.9,0.9,0.9h4.7c0.5,0,0.9-0.4,0.9-0.9C41.8,21.3,41.4,20.9,40.9,20.9z"
		/>
	<path d="M8.9,20.9H4.1c-0.5,0-0.9,0.4-0.9,0.9c0,0.5,0.4,0.9,0.9,0.9h4.7c0.5,0,0.9-0.4,0.9-0.9C9.8,21.3,9.4,20.9,8.9,20.9z"/>
	<path d="M21.6,3.4V8c0,0.5,0.4,0.9,0.9,0.9c0.5,0,0.9-0.4,0.9-0.9V3.4c0-0.5-0.4-0.9-0.9-0.9C22,2.5,21.6,2.9,21.6,3.4z"/>
	<path d="M34.6,8.1l-3.2,3.2c-0.4,0.4-0.4,0.9,0,1.3c0.2,0.2,0.4,0.3,0.7,0.3c0.2,0,0.5-0.1,0.7-0.3L36,9.4c0.4-0.4,0.4-0.9,0-1.3
		C35.6,7.7,35,7.7,34.6,8.1L34.6,8.1z"/>
	<path d="M9,8.1C8.6,8.5,8.6,9,9,9.4l3.2,3.2c0.2,0.2,0.4,0.3,0.7,0.3s0.5-0.1,0.7-0.3c0.4-0.4,0.4-0.9,0-1.3l-3.2-3.2
		C10,7.7,9.4,7.7,9,8.1L9,8.1z"/>
	<path d="M22.5,10.5c-6.2,0-11.3,5.1-11.3,11.3c0,3.1,1.2,6,3.4,8.1c-0.5,0.4-0.8,1.1-0.8,1.8c0,0.5,0.2,1,0.5,1.4
		c-0.3,0.3-0.4,0.8-0.5,1.2v0.2c0,0.5,0.2,1,0.5,1.4c-0.3,0.4-0.5,0.9-0.5,1.4c0,1.2,0.9,2.2,2.1,2.4c0.1,1.6,1.5,2.8,3.2,2.8h6.9
		c1.6,0,3-1.3,3.2-2.8c1.2-0.1,2.1-1.1,2.1-2.4c0-0.5-0.2-1-0.5-1.4c0.3-0.4,0.5-0.9,0.5-1.4c0-0.5-0.2-1-0.5-1.4
		c0.3-0.4,0.5-0.9,0.5-1.4c0-0.7-0.3-1.4-0.8-1.8c2.2-2.1,3.4-5,3.4-8.1C33.8,15.6,28.7,10.5,22.5,10.5L22.5,10.5z M25.9,40.6h-6.9
		c-0.6,0-1.1-0.4-1.2-0.9h9.3C27,40.2,26.5,40.6,25.9,40.6L25.9,40.6z M19.2,34h9.6c0.3,0,0.5,0.2,0.5,0.5c0,0.3-0.2,0.5-0.5,0.5
		l-9.6,0c-0.5,0-0.9,0.4-0.9,0.9c0,0.5,0.4,0.9,0.9,0.9h9.6c0.3,0,0.5,0.2,0.5,0.5c0,0.3-0.2,0.5-0.5,0.5H16.1
		c-0.3,0-0.5-0.2-0.5-0.5c0-0.3,0.2-0.5,0.5-0.5c0.5,0,0.9-0.4,0.9-0.9c0-0.5-0.4-0.9-0.9-0.9c-0.3,0-0.5-0.2-0.5-0.5
		c0-0.3,0.2-0.5,0.5-0.5c0.5,0,0.9-0.4,0.9-0.9c0-0.5-0.4-0.9-0.9-0.9c-0.3,0-0.5-0.2-0.5-0.5c0-0.3,0.2-0.5,0.5-0.5h12.7
		c0.3,0,0.5,0.2,0.5,0.5c0,0.3-0.2,0.5-0.5,0.5h-9.6c-0.5,0-0.9,0.4-0.9,0.9C18.3,33.6,18.7,34,19.2,34L19.2,34z M28.1,29.3H16.9
		l-0.1-0.1c-2.4-1.8-3.7-4.5-3.7-7.4c0-5.2,4.2-9.4,9.4-9.4s9.4,4.2,9.4,9.4C31.9,24.8,30.5,27.5,28.1,29.3L28.1,29.3z"/>
</g>
</svg>
