<?xml version="1.0" encoding="utf-8"?>
<!-- Generator: Adobe Illustrator 27.0.0, SVG Export Plug-In . SVG Version: 6.00 Build 0)  -->
<svg version="1.1" id="圖層_1" xmlns="http://www.w3.org/2000/svg" xmlns:xlink="http://www.w3.org/1999/xlink" x="0px" y="0px"
	 viewBox="0 0 45 45" style="enable-background:new 0 0 45 45;" xml:space="preserve">
<style type="text/css">
	.st0{fill:#FFFFFF;}
</style>
<path class="st0" d="M22.5,2.5c-11,0-20,9-20,20s9,20,20,20s20-9,20-20S33.5,2.5,22.5,2.5z M22.5,11.3c2.7,0,5,2.2,5,5s-2.2,5-5,5
	s-5-2.2-5-5S19.8,11.3,22.5,11.3z M30.7,31.6c0,0.5-0.4,0.9-0.9,0.9H15.2c-0.5,0-0.9-0.4-0.9-0.9V31c0-4.5,3.7-8.2,8.2-8.2
	s8.2,3.7,8.2,8.2V31.6z"/>
</svg>
