<?xml version="1.0" encoding="utf-8"?>
<!-- Generator: Adobe Illustrator 27.0.0, SVG Export Plug-In . SVG Version: 6.00 Build 0)  -->
<svg version="1.1" id="圖層_1" xmlns="http://www.w3.org/2000/svg" xmlns:xlink="http://www.w3.org/1999/xlink" x="0px" y="0px"
	 viewBox="0 0 340.2 255.1" style="enable-background:new 0 0 340.2 255.1;" xml:space="preserve">
<style type="text/css">
	.st0{clip-path:url(#SVGID_00000163753357950008887560000005657531847202773665_);}
	.st1{fill:#859770;}
	.st2{fill:#C8D199;}
	.st3{fill:#88A028;}
	.st4{fill:#9FAFBE;}
	.st5{fill:#92A3AF;}
	.st6{fill:#B4C3D7;}
	.st7{fill:#8E9FAC;}
	.st8{fill:#EDEDEC;}
	.st9{fill:#8A9AA8;}
	.st10{fill:#A6B5C8;}
	.st11{fill:#C3D5EB;}
	.st12{fill:#E29A97;}
	.st13{opacity:0.24;}
	.st14{fill:#FFFFFF;}
	.st15{fill-rule:evenodd;clip-rule:evenodd;fill:#FFFFFF;}
	.st16{fill-rule:evenodd;clip-rule:evenodd;fill:#3E362B;}
	.st17{fill-rule:evenodd;clip-rule:evenodd;fill:#CC6762;}
	.st18{fill-rule:evenodd;clip-rule:evenodd;fill:#C57272;}
	.st19{fill-rule:evenodd;clip-rule:evenodd;fill:#E29A97;}
	.st20{fill:#A3C540;}
	.st21{opacity:0.44;}
	.st22{fill:#F4E4B9;}
	.st23{fill:#ACC938;}
	.st24{fill:#C5DA5B;}
	.st25{fill:#DA6E1F;}
	.st26{fill:#C8621D;}
	.st27{fill:#E5AE37;}
	.st28{fill-rule:evenodd;clip-rule:evenodd;fill:#B4C3D7;}
	.st29{fill:#160406;}
	.st30{fill:#DC8585;}
</style>
<g>
	<defs>
		
			<rect id="SVGID_1_" x="42.5" y="-42.5" transform="matrix(-1.836970e-16 1 -1 -1.836970e-16 297.6378 -42.5197)" width="255.1" height="340.2"/>
	</defs>
	<clipPath id="SVGID_00000031910522104546243680000008357887332893987258_">
		<use xlink:href="#SVGID_1_"  style="overflow:visible;"/>
	</clipPath>
	<g style="clip-path:url(#SVGID_00000031910522104546243680000008357887332893987258_);">
		<path class="st1" d="M407.3,191.3c-5.3-14.1-23.7-14.4-27.3-11.1c5.6-10.6,9.6-22.1,11.8-33.9c1.3-6.9,3.2-18.8-2.1-25.8
			c-8-10.6-26.1,10.2-31.1,14.3c0.1-11.9-3.1-23.6-9.3-33.8c-2.6-4.3-8.3-4.8-10.3-1c-5.7,11.1-7,25.9-3,39.1
			c-2.1-6.8-4.9-15.3-12.1-18.3c-9.1-3.9-13.3,6.7-14.7,13.9c-1,5.3,0,11.2-1.1,16.3c-1.7-3-4.3-5.4-7.6-5.9
			c-1.6-0.2-3.2-0.1-4.7,0.4c-1.5,0.5-2.9,1.4-4,2.5c-2.2,2.3-4,4.9-5.3,7.8c3.5-16.9,0.2-36.2-9.9-52.6c-1.5-2.7-4-4.7-6.9-5.5
			c-4.7-1.1-6.4,2.3-7.7,5.5c-4.7,12.2-5.8,26.3-3.2,40.4c-4.4-3.9-10.7-5.1-15.1-2.7c-4.4,2.4-6.6,8.1-5.3,13.7
			c-10.3-1.1-18.5,8.9-16.4,19.7c12.9,2.4,15.8,27.2,25,38.3l38.2,22.3c0,0-48.3,0.5,60.3,0.5C398.3,235.3,414.1,209.3,407.3,191.3z
			"/>
		<path class="st2" d="M314.2,265.9c3.7-0.8,7.5-1.7,11.2-2.6c12.3-3,44.5-20,15.3-41.9c-19.8-14.9-58.9-20.2-82.8-21.3
			c-45.9,0.2-91.7,3.4-137.1,9.6c-17.9,2.5-123.3,20.6-76,47.1c3.9,2.2,9,3.4,13.6,4.3C125.1,274.7,248,280.5,314.2,265.9z"/>
		<path class="st3" d="M82.5,227c0,0,0.6-12.3,3.7-11.4c3.1,1,3.5,5.5,3.5,5.5s0.7-11.9,4.2-11.1c3.5,0.8,4,10.5,4,10.5
			s2.1-8.6,4.2-6.3s2.6,7.2,2.6,7.2s3.8-6.3,5.1-3.4c1.3,2.9,0.7,8.7,0.7,8.7L82.5,227z"/>
		<path class="st3" d="M218.9,194.1c0,0,1.1-21.7,6.5-20.1c5.4,1.7,6.2,9.7,6.2,9.7s1.2-21,7.5-19.5c6.2,1.5,7.1,18.5,7.1,18.5
			s3.8-15.1,7.4-11.2c3.6,3.9,4.5,12.7,4.5,12.7s6.7-11,9-5.9c2.3,5.1,1.2,15.3,1.2,15.3L218.9,194.1z"/>
		<path class="st4" d="M239.4,231.5c1.7-0.1,3.5-0.4,5.2-0.9c0.4-0.1,0.7-0.2,1.1-0.4c0.3-0.3,0.6-0.6,0.7-1c0.1-0.4,0.1-0.9,0-1.3
			c-0.3-0.8-0.8-1.5-1.6-2c-1.4-1-3.2-1.5-4.9-1.3c-0.9,0.1-1.9,0.4-2.8,0.6c-1.6,0.4-3.3,0.6-5,0.6c-0.9,0-1.8-0.1-2.7-0.3
			c-0.6-0.3-1.2-0.4-1.8-0.3c-0.2,0.1-0.5,0.2-0.7,0.4c-0.2,0.1-0.3,0.3-0.4,0.5c-0.1,0.2-0.1,0.4-0.2,0.6c0,0.7,0.7,1.2,1.3,1.6
			c1.9,1,4,1.8,6.2,2.3C235.6,231.1,237.5,231.5,239.4,231.5z"/>
		<path class="st4" d="M297.5,238.6c4.4-2.7,7.4-6.6,5.9-12.3c-1.4-5.1-7.5-7.3-12.2-6c-2.9,0.7-8.8,5.2-12.7,10.2
			c-2.1,2.8-3.6,5.7-3.4,8.2H297.5z"/>
		<path class="st4" d="M297.5,238.6c4.4-2.7,7.4-6.6,5.9-12.3c-1.4-5.1-7.5-7.3-12.2-6c-2.4,0.6-7.1,3.9-10.8,7.9
			c2.2,3.1,3.8,6.7,4.7,10.4H297.5z"/>
		<path class="st5" d="M285.1,238.6c-0.9-3.7-2.5-7.3-4.7-10.4c-0.7,0.7-1.3,1.5-1.9,2.2c-2.1,2.8-3.6,5.7-3.4,8.2H285.1z"/>
		<path class="st4" d="M253.7,238.6c-0.2-0.3-0.4-0.6-0.6-0.9c-1.9-2.5-4.3-4.5-7.2-5.8c-0.7-0.4-1.6-0.6-2.4-0.6
			c-0.8,0-1.7,0.2-2.4,0.5c-2.5,1.3-3.5,4.1-3.6,6.8H253.7z"/>
		<path class="st6" d="M280.8,238.6c-0.3-2.9-1.2-5.7-2.6-8.2c-2.9-5.3-7.2-9.7-11.1-14.3c-4.4-5.3-6.8-11.6-10.9-16.8
			c-4.8-6.2-12.9-7.5-14.1,1.4c-1.4,11-2.4,21.9-3.6,32.9c-0.2,1.7-0.2,3.4,0.1,5H280.8z"/>
		<path class="st7" d="M242.1,200.7c1.2-8.9,9.2-7.6,14.1-1.4c3,3.9,5.2,8.4,7.8,12.6c-7.2,4-15.3,6.1-23.6,5.9l-0.2-0.2
			C240.7,211.9,241.4,206.3,242.1,200.7z"/>
		<path class="st8" d="M268.8,238.6c-0.4-1.9-1-3.7-1.7-5.4c-1.2-2.9-2.8-5.5-4.9-7.8c-4.7-5.1-13.3-9.6-20.4-7.4
			c-1.3,0.4-1.7,1.6-1.9,2.9c-0.6,4.2-1.1,8.4-1.5,12.7c-0.2,1.7-0.2,3.4,0.1,5L268.8,238.6z"/>
		<path class="st6" d="M280.7,238.6c-0.3-2-1.2-3.9-2.4-5.6c-1.2-1.6-2.8-3-4.7-3.8c-3-1.5-7.8-2.5-10.9-0.6
			c-0.4,0.2-0.8,0.5-1.1,0.9c-2.3,2.5-3.6,5.7-3.9,9.1H280.7z"/>
		<path class="st4" d="M195.7,39.8c2.1-6.7,7.8-13.5,14.7-12.5c4.1,0.6,7.2,3.8,9.8,7c6.3,7.9,10.9,17.4,14.9,26.5
			c5.5,12.2,9.5,25.1,12,38.3c2.2,12.7,4,28,1.1,40.7c-0.1,0.4-0.2,0.8-0.5,1.1c-0.2,0.1-0.4,0.3-0.6,0.3s-0.5,0.1-0.7,0.1
			c-4.2-0.2-6.3-6.1-8.9-8.8c-4.1-4.5-8.1-9.2-12-13.9C207.4,96.7,186.2,70,195.7,39.8z"/>
		<path class="st9" d="M249.4,118.9c0.5,7,0.1,14.1-1.4,21c-0.1,0.4-0.2,0.8-0.5,1.1c-0.2,0.1-0.4,0.3-0.6,0.3
			c-0.2,0.1-0.5,0.1-0.7,0.1c-4.2-0.2-6.3-6.1-8.9-8.8c-3.4-3.7-6.7-7.6-9.9-11.4C234.8,118.8,242.2,117.8,249.4,118.9z"/>
		<path class="st4" d="M195.7,39.8c2.1-6.7,7.8-13.5,14.7-12.5c4.1,0.6,7.2,3.8,9.8,7c6.3,7.9,10.9,17.4,14.9,26.5
			c8.3,18.3,13.2,38,14.4,58.1c-7.2-1.2-14.7-0.1-22,2.2c-0.7-0.8-1.4-1.6-2.1-2.5C207.4,96.7,186.2,70,195.7,39.8z"/>
		<path class="st6" d="M176.6,150c20.1-16.1,53.1-23.5,77.9-13.2c25,10.3,28.9,37.8,13.7,58.2c-18.7,25.2-55.3,22.9-81.7,13.4
			C153.5,196.5,148.4,172.7,176.6,150z"/>
		<path class="st6" d="M176.6,150c20.1-16.1,53.1-23.5,77.9-13.2c25,10.3,28.9,37.8,13.7,58.2c-18.7,25.2-55.3,22.9-81.7,13.4
			C153.5,196.5,148.4,172.7,176.6,150z"/>
		<path class="st10" d="M247.4,183.1c2.5-12.7,7.6-29.1,19-34.1c1-0.5,2.1-0.9,3.2-1.3c10.7,13,10,32.2-1.3,47.4
			c-18.7,25.2-55.3,22.9-81.7,13.4l-1.5-0.6C209.7,209.4,241.7,206.9,247.4,183.1z"/>
		<path class="st6" d="M176.6,150c20.1-16.1,53.1-23.5,77.9-13.2c5.8,2.3,11,6.1,15,10.9c-1.1,0.4-2.1,0.8-3.2,1.3
			c-11.4,5.1-16.4,21.5-19,34.1c-5.7,23.8-37.7,26.2-62.4,24.7C153.3,195.7,148.9,172.3,176.6,150z"/>
		<path class="st6" d="M312.3,21.1c4.7-1.3,9.4,0,13,5.3c8.6,12.4-1.4,33.8-7.2,45.5c-13.4,27.2-31.3,51.6-47.3,77.2
			c-1.2,2-2.8,4.2-5,4.5c-4,0.6-6.1-4.9-6.6-9.2c-2.4-23.2,0.8-46.6,9.3-68.3C275.6,58.2,292,26.6,312.3,21.1z"/>
		<path class="st11" d="M313,31.5c-0.5-1.1-1.2-2.1-2-2.9c-1-0.9-6.2-4.3-7.5-3.4c2.7-1.8,5.7-3.2,8.8-4.1c4.7-1.3,9.4,0,13,5.3
			c8.6,12.4-1.4,33.8-7.2,45.5c-1.1,2.1-2.1,4.3-3.3,6.4c3.3-6.3,2.9-17.4,2.7-24.3c-0.2-6.3-1.2-12.6-3.1-18.6
			C314,34.1,313.6,32.8,313,31.5z"/>
		<path class="st12" d="M302,81.9c2.4-4.8,4.5-9.9,5.2-15.3c0.5-4.1,1.1-11.9-3.3-14.3c-9.3-5.1-16.1,11.6-18.7,17.4
			c-5.3,11.6-9.2,23.7-12.8,36c-3.3,11.4-8.4,23.4-7.3,35.5C265.1,141.5,292.4,101.2,302,81.9z"/>
		<g class="st13">
			<path class="st14" d="M299.6,82.8c2.4-4.8,4.5-9.9,5.2-15.3c0.5-4.1,1.1-11.9-3.3-14.3c-1.4-0.8-3.1-1.1-4.6-0.8
				c1.1-0.6,2.3-1,3.5-1s2.4,0.3,3.5,1c4.3,2.4,3.8,10.2,3.3,14.3c-0.7,5.4-2.8,10.5-5.2,15.3c-9.5,19.3-36.9,59.6-36.9,59.3
				c-0.1-0.8-0.1-1.6-0.1-2.3C271.7,129,291.7,98.7,299.6,82.8z"/>
		</g>
		<path class="st15" d="M159.7,174.7c1-2.3,2.4-4.3,4.2-6c1.8-1.7,3.9-3,6.2-3.8c4.8-1.5,10-1.7,14.9-0.6c4.6,0.9,9.1,2.5,11.9,6.4
			c2.6,3.6,3.1,8,2.5,12.3c-1,6.5-5.6,11.7-11.3,14.6c-2.3,1.1-4.7,1.9-7.2,2.3c-2.1,0.4-4.3,0.4-6.4,0.1c-5-0.9-9.6-3.6-12.6-7.7
			c-1.9-2.5-3-5.4-3.4-8.5C158,180.6,158.4,177.5,159.7,174.7z"/>
		<path class="st16" d="M162.9,192.2c0.6-0.2,1.1-0.5,1.5-0.9c0.4-0.4,0.8-1,0.9-1.5c0.5-1.3,0.7-2.6,0.8-3.9
			c-0.1-0.8,0-1.6,0.3-2.3c0.8-1.1,2.1-0.6,2.4,0.7c0.4,2.1,0,4.4,0.6,6.5c1.4,5.2,8.4,2.6,11.5,0.8c0.7-0.4,1.1,0.3,0.9,1
			c-0.4,1.2-2,2.4-3.1,2.9c-1.2,0.6-2.6,1-4,1.1c-1.4,0.1-2.8-0.1-4.1-0.6c-0.3-0.1-3.7-1.8-3.4-2.1c-0.3,0.4-0.7,0.8-1.1,1.1
			c-0.7,0.5-1.2,1-2,0.3l-1.7-1.6c-0.2-0.2-0.7-0.9-0.2-0.9C162.4,192.4,162.6,192.3,162.9,192.2z"/>
		<path class="st17" d="M178.2,175.1c-0.1,0.8-0.5,1.6-1.2,2.1c-2.3,2.5-4.6,4.8-7.1,7.1c-0.6,0.7-1.4,1.1-2.3,1.3
			c-0.6,0-1.2-0.1-1.7-0.3c-0.5-0.2-1-0.6-1.4-1.1c-3.6-3.6-8.2-11.4-0.7-13.4C167.6,169.9,178.2,170.5,178.2,175.1z"/>
		<path class="st18" d="M172.8,179.3c2.5-3.4,0-7.4-3.5-8.8c4.2,0.2,8.9,1.5,8.9,4.6c-0.1,0.8-0.5,1.6-1.2,2.1
			c-2.3,2.5-4.6,4.8-7.1,7.1c-0.6,0.7-1.4,1.1-2.3,1.3c-0.6,0-1.2-0.1-1.7-0.3c-0.5-0.2-1-0.6-1.4-1.1c-1-1-1.8-2-2.5-3.2
			C165,183.1,169.1,183.1,172.8,179.3z"/>
		<path class="st19" d="M163.8,170.9c1.8-0.4,3.7-0.5,5.5-0.4c3.5,1.5,6.1,5.4,3.5,8.8c-3.7,3.7-7.8,3.8-10.9,1.8
			C159.3,177.3,158,172.4,163.8,170.9z"/>
		<path class="st20" d="M254.3,172.8c-1.3-0.6-2.2,0.1-2.6,1.5c-0.8,3.5,1.6,6.2,3.4,9c1.3,1.8,1.8,3.9,1.5,6.1
			c-0.3,2.2-1.8,4.1-2.9,6.1c-0.3,0.4-0.4,0.9-0.4,1.4c0.1,0.2,0.2,0.4,0.3,0.5c0.1,0.2,0.3,0.3,0.5,0.4c0.2,0.1,0.4,0.1,0.6,0.1
			c0.2,0,0.4,0,0.6-0.1c1.1-0.4,1.3-1.4,1.9-2.2c0.8-1.3,1.9-2.4,2.6-3.8c0.4-0.7,0.8-1.5,1.2-2.2c1.6-2.3,3.5-4.3,5.6-6
			c1.7-1.6,3.3-3.3,4.7-5.1c0.7-0.8,1.1-1.8,1.1-2.8c-0.1-0.5-0.3-0.9-0.6-1.2c-0.3-0.3-0.8-0.5-1.2-0.5c1.1-0.8,2.3-2.1,2-3.6
			c-0.1-0.3-0.2-0.5-0.4-0.8c-0.2-0.2-0.4-0.4-0.7-0.5c-0.3-0.1-0.5-0.2-0.8-0.2c-0.3,0-0.6,0.1-0.8,0.2c1.1-0.6,2-1.5,2.5-2.7
			c0.1-0.4,0.1-0.8,0-1.2c-0.1-0.4-0.4-0.7-0.7-0.9c-0.5-0.2-0.9-0.1-0.4-0.7c1-0.8,1.8-1.9,2.2-3.1c0.3-1,0.3-2.3-1-2.4
			c-0.4,0-0.8,0.1-1.2,0.4c0.7-0.8,1.1-1.7,1.4-2.6c0.2-0.6,0.1-1.3-0.1-1.9c-0.2-0.6-0.6-1.1-1.2-1.5c-1.3-0.6-2.8,0.1-3.9,0.9
			c-1.2,0.9-2.2,1.9-3.2,3c-0.1-0.3-0.4-0.5-0.7-0.6c-0.3-0.1-0.6-0.1-0.9,0c-0.6,0.2-1,0.7-1.3,1.2c-0.3,0.6-0.6,1.3-0.6,2
			c-0.1,0.7,0,1.4,0.2,2.1c-0.4-0.1-0.8-0.1-1.1-0.1c-0.4,0.1-0.7,0.2-1,0.5c-1.6,1.3-1.5,3.9-0.6,5.6c-0.3-0.4-0.8-0.7-1.3-0.8
			s-1,0-1.4,0.3c-0.5,0.3-0.9,0.8-1.3,1.3c-0.3,0.5-0.5,1.1-0.6,1.7C253.4,170.6,253.6,172.2,254.3,172.8z"/>
		<g class="st21">
			<path class="st22" d="M259.1,187.1c0.2-0.4,0-3.9,0.1-3.9c3.6-0.6,8.1-3.2,10.2-6.5c0,0,0-0.1-0.1,0c-1.3,1.7-3,3.1-4.8,4.1
				c-1.7,0.8-3.5,1.5-5.3,1.9c0.1-2.4,0.4-4.8,1.1-7.1c1.8-0.1,3.5-0.5,5.1-1.3c1.7-0.7,3.2-1.7,4.6-2.8c0,0,0-0.1-0.1-0.1
				c-1.5,1.1-3.1,2-4.8,2.7c-0.8,0.3-1.6,0.6-2.3,0.8c-0.8,0.2-1.6,0.3-2.4,0.5c0.1-0.3,0.2-0.6,0.3-0.9c0.6-1.8,1.2-3.6,1.9-5.3
				c1-0.2,2-0.4,2.9-0.8c0.7,0.4,1.5,0.6,2.2,0.5c-0.7-0.2-1.3-0.4-1.9-0.6c1.2-0.5,2.4-1.1,3.5-1.9c-0.8,0.4-1.5,0.8-2.3,1.1
				c-0.4,0.2-0.8,0.3-1.2,0.5l-0.5,0.2c-0.2,0.1-0.4,0.1-0.6,0.2l-0.8,0.2c-0.5,0.1-1,0.3-1.5,0.4c0.4-0.9,0.7-1.8,1.1-2.7
				c0.4-0.9,0.7-1.6,1.1-2.4c1,0,1.9-0.3,2.8-0.7c0.9-0.4,1.7-1,2.3-1.8c-1.4,1.3-3.2,2.1-5.1,2.3c0.9-1.9,2-3.8,3.2-5.5
				c0,0,0-0.1-0.1,0c-1.2,1.5-2.3,3.2-3.2,4.9c-0.8-1.1-1.4-2.2-1.8-3.5c0,0-0.1,0-0.1,0c0.3,1.3,0.9,2.6,1.8,3.6
				c-0.4,0.9-0.9,1.8-1.3,2.7s-0.7,1.6-1,2.4c-0.4-0.6-0.9-1.1-1.4-1.7c-0.1-0.2-0.3-0.4-0.3-0.6c-0.4-0.8-0.6-1.7-0.7-2.6
				c0-0.1-0.2,0-0.2,0.1c0,0.9,0.2,1.7,0.6,2.5c0,0.1,0.1,0.3,0.2,0.4l-0.3-0.1c-0.4-0.1-0.7-0.2-1.1-0.4c0,0-0.1,0.1-0.1,0.1
				c0.3,0.2,0.6,0.4,0.9,0.5c0.2,0.1,0.5,0.2,0.7,0.2c0.6,0.7,1.4,1.7,1.6,1.8c-0.8,2-1.6,4-2.2,6l-0.2,0.6
				c-1.6-1.6-2.9-3.5-3.7-5.6c0-0.1-0.1,0-0.1,0c0.5,2.3,1.8,4.4,3.7,5.9c-0.7,2.5-1.1,5.2-1.2,7.8c-0.5-0.5-1-0.9-1.5-1.4
				c-0.6-0.7-1.1-1.4-1.6-2.2c-0.9-1.4-1.6-3-2.2-4.5c0.5,1.7,1.2,3.4,2.1,4.9c0.8,1.4,1.9,2.7,3.2,3.8
				C258.8,184.8,258.5,186.5,259.1,187.1z"/>
		</g>
		<path class="st23" d="M251.9,197.3c0.3,1.9,2.4,8.3,9.5,5c0.8-1.5,2.1-4.4,2.5-5.2c0.5-0.4,1.4-0.9,2.6-1.6
			c1.2-0.7,2.3-1.4,3.7-2.1l-0.7-0.7c-1.3,0.8-2.3,1.5-3.2,2.1l-0.8,0.6c0.1-0.4,0.3-0.7,0.6-1c0.1-0.2,0.3-0.3,0.4-0.4
			c0.9-0.5,1.7-1.1,2.5-1.7l-1.4-1.2c-0.4,0.6-0.7,1.1-0.7,1.1l-1.2,1.1c0.4-0.6,0.9-1.5,1.4-2.4h0.1l-3.3-3l-1.1,1.5
			c0-0.2,0.1-0.3,0.1-0.5c0.1-0.5,0.2-1,0.3-1.5l-1-1c0,0,0,0.1,0,0.1l-0.5,0.7C257.7,191.9,252.4,196.1,251.9,197.3z M255,196.6
			c1.3-2,4.8-5.6,7-8.2c-0.2,0.7-0.4,1.5-0.6,2.2c-2,2.2-4.2,4.4-6.5,6.3c0.1-0.3,0.2-0.5,0.4-0.8
			C255.2,196.3,255.1,196.5,255,196.6L255,196.6z"/>
		<path class="st3" d="M282.8,179.6c1.1-0.2,2.1-0.7,2.9-1.4c0.2-0.2,0.3-0.4,0.4-0.7c0.1-0.2,0.2-0.5,0.2-0.8s0-0.5-0.2-0.8
			c-0.1-0.2-0.2-0.5-0.4-0.7c0.9-0.7,1.6-1.6,2-2.6c0.5-1.1,0.6-2.5-0.3-3.3c-0.4-0.2-0.8-0.4-1.3-0.4c-0.4,0-0.9,0.1-1.3,0.3
			c-0.8,0.4-1.7,0.8-2.5,1.1c-0.1-0.5-0.2-0.9-0.5-1.3c-0.3-0.4-0.7-0.6-1.2-0.8c-0.5-0.1-0.9-0.1-1.4,0c-0.5,0.1-0.8,0.4-1.2,0.8
			c0.1-1-1.1-1.7-2.1-1.6c-1,0.2-1.8,0.8-2.5,1.5c-4.3,4-8.3,8.4-10.7,13.7c-0.2,0.4-0.3,0.9-0.3,1.3c0.1,0.5,0.3,0.9,0.5,1.3
			l1.7,2.7c0.4,0.7,0.9,1.3,1.5,1.9c0.7,0.4,1.4,0.6,2.2,0.7s1.5,0,2.2-0.3c3.1-0.9,5.3-3.2,8.1-4.5c1.3-0.6,2.6-1.3,3.8-2.1
			C283.5,182.8,285,180.2,282.8,179.6z"/>
		<path class="st23" d="M259.9,176.6c-1.1-0.9-2.1-0.5-2.8,0.8c-1.3,2.5-0.8,5.7,0.5,8.2c0.8,1.2,1.2,2.7,1.3,4.1
			c0.1,1.5-0.2,2.9-0.8,4.2c-0.4,0.8-1,1.8-0.4,2.6c0.2,0.3,0.5,0.4,0.9,0.5c0.3,0.1,0.7,0,1-0.1c0.6-0.3,1.1-0.8,1.6-1.3
			c2.3-2.6,5.2-4.7,8.3-6.2c2.8-1.2,6.2-1.5,7.5-4.8c0.1-0.3,0.2-0.7,0.2-1c0-0.3-0.2-0.7-0.4-1c-0.2-0.3-0.5-0.5-0.8-0.6
			c-0.3-0.1-0.7-0.2-1-0.2c0.7-0.1,1.4-0.5,1.9-1c0.5-0.5,0.9-1.2,1.1-1.9c0-0.3-0.1-0.6-0.2-0.8c-0.1-0.3-0.3-0.5-0.5-0.7
			c-0.2-0.2-0.5-0.3-0.8-0.4c-0.3-0.1-0.6-0.1-0.8,0c1.2-0.3,2.3-1,3.1-1.9c0.2-0.3,0.3-0.7,0.3-1.1c0-0.4-0.2-0.8-0.5-1.1
			c-0.4-0.3-0.8-0.4-0.2-0.7c1.2-0.5,2.2-1.3,2.9-2.4c0.5-0.8,0.9-2.1-0.3-2.5c-0.4-0.1-0.8-0.1-1.2,0.1c0.8-0.6,1.5-1.3,2-2.1
			c0.3-0.5,0.5-1.2,0.4-1.8c-0.1-0.6-0.3-1.2-0.8-1.7c-1.1-0.9-2.7-0.6-4-0.1c-1.4,0.5-2.6,1.2-3.8,2c-0.1-0.3-0.2-0.5-0.5-0.7
			c-0.2-0.2-0.5-0.2-0.8-0.2c-0.6,0.1-1.2,0.4-1.6,0.8c-0.5,0.5-0.9,1.1-1.1,1.8c-0.3,0.7-0.4,1.4-0.4,2.1c-0.3-0.2-0.7-0.3-1.1-0.4
			s-0.8,0-1.1,0.2c-1.9,0.8-2.5,3.3-2,5.1c-0.2-0.5-0.6-0.8-1-1c-0.5-0.2-1-0.2-1.4-0.1c-0.6,0.2-1.1,0.5-1.5,0.9
			c-0.4,0.4-0.8,0.9-1,1.5C259.7,174.3,259.4,175.9,259.9,176.6z"/>
		<path class="st24" d="M280.7,193.9c0.4-0.2,0.8-0.4,1.1-0.7c0.3-0.3,0.5-0.7,0.6-1.1c0.1-0.4,0.1-0.7-0.1-1.1
			c-0.2-0.3-0.4-0.6-0.8-0.7c0.7,0.2,1.5,0.2,2.2-0.1c0.7-0.3,1.3-0.8,1.6-1.4c0.1-0.3,0.2-0.5,0.2-0.8c0-0.3-0.1-0.6-0.3-0.8
			c0.5,0,1-0.1,1.5-0.2c0.5-0.2,0.9-0.5,1.3-0.8c0.3-0.3,0.6-0.7,0.6-1.1c0-0.2,0-0.4-0.2-0.6c-0.1-0.2-0.3-0.3-0.5-0.4
			c0.6-0.9,1.1-1.8,1.5-2.8c0.2-0.5,0.4-1,0.3-1.5c0-0.5-0.2-1-0.5-1.5c-0.3-0.3-0.8-0.5-1.2-0.5c-0.5,0-0.9,0.1-1.3,0.3
			c-0.6,0.4-1.2,0.9-1.6,1.5c0.1-0.3,0.2-0.6,0.1-0.9c-0.3-0.9-1.2-0.6-1.9-0.2c-0.8,0.5-1.4,1.3-1.8,2.1c-0.3,0.5-0.3,0.2-0.5-0.1
			c-0.2-0.2-0.5-0.3-0.8-0.3c-0.3,0-0.6,0.1-0.8,0.2c-0.7,0.6-1.2,1.4-1.4,2.3c0-0.2,0-0.4,0-0.6c0-0.2-0.2-0.4-0.3-0.6
			c-0.1-0.2-0.3-0.3-0.5-0.4c-0.2-0.1-0.4-0.1-0.6-0.1c-1.1,0.1-1.8,1.1-2.1,2.1c-0.1-0.3-0.3-0.6-0.6-0.8c-0.3-0.2-0.6-0.3-1-0.2
			c-0.7,0.2-1.4,0.6-1.8,1.2c-1,1.3-1.9,2.8-2.7,4.3c-0.4,0.8-0.8,1.7-1.3,2.5c-0.4,0.6-0.9,1.8-1.5,2.1c0-0.1,0-0.2-0.1-0.3
			c-0.1-0.1-0.2-0.1-0.3-0.2c-0.1,0-0.2,0-0.3,0.1c-0.1,0-0.2,0.1-0.3,0.2c-0.1,0.1-0.2,0.3-0.2,0.4c0,0.2,0,0.4,0,0.7
			c0,0.2,0,0.3-0.1,0.5c-0.1,0.1-0.2,0.3-0.3,0.4c-0.8,0.8-1.6,1.7-2.2,2.7c-0.1,0.1-0.2,0.3-0.2,0.5c0,0.1,0.1,0.2,0.1,0.2
			c0.3,0.5,0.8,1,1.3,0.9c0.3-0.1,0.6-0.3,0.8-0.6c0.9-1,2-1.8,3.3-2.3c1.2-0.3,2.5-0.2,3.6,0.3c2.3,0.7,4.6,1.9,6.9,0.6
			c0.9-0.5,1.2-1.3,0.5-2.1C279.1,194.2,280,194.2,280.7,193.9z"/>
		<path class="st25" d="M227.5,238.6h0.8c4.2-4.1,8.7-7.9,13.4-11.5c2.1-1.5,4.1-3.2,6-5c4-3.6,7.7-7.6,11-11.8
			c5.2-6.7,6.4-10.8,2.7-14.3c-0.3-0.3-0.8-0.9-1.2-1.1c-2.1-1.9-4.1-3-7-2.1c-2.9,0.9-6.3,3.9-11.1,11.1c-2.2,2.5-3.5,5.5-5.3,8.2
			c-0.8,1.2-2.9,4.2-5.3,7.8c-3,4.5-6.6,9.8-9.1,13.6c0.8,0.9,1.7,1.8,2.5,2.6C225.9,237,226.7,237.8,227.5,238.6z"/>
		<path class="st26" d="M228.2,238.6c4.3-4.1,8.7-7.9,13.4-11.5c2.1-1.5,4.1-3.2,6-5c4-3.6,7.7-7.6,11-11.8
			c5.2-6.7,6.4-10.8,2.7-14.3c-0.3-0.3-0.9-0.9-1.2-1.1c-0.3-0.3-0.7-0.6-1-0.8c-1.5,19.7-18.7,33.9-34,44.5H228.2z"/>
		<path class="st25" d="M225.3,238.6c16.4-11.4,32.6-25.9,34-44.5c-0.8-0.7-1.8-1.2-2.8-1.5c-1.1-0.2-2.1-0.2-3.2,0.1
			c-2.8,0.8-6.3,3.9-11.1,11.1c-2.1,2.3-3.6,5.3-5.2,7.9c-1.7,2.6-3.5,5.4-5.3,8.1c-4.8,7.1-11.1,16.5-11.9,18
			c-0.2,0.3-0.3,0.5-0.4,0.8H225.3z"/>
		<path class="st27" d="M251.9,203.7c-0.2,0.4,1.1,1.9,2,0.8C254.8,203.3,252.4,202.7,251.9,203.7z"/>
		<path class="st27" d="M250.1,205.9c-0.1,1.1-1.8-0.7-2-1.2S250.3,204,250.1,205.9z"/>
		<path class="st27" d="M243.9,208.4c-0.7,1.4,1.4,1.8,1.7,1.4C245.9,209.4,244.9,206.5,243.9,208.4z"/>
		<path class="st27" d="M239.8,213.5c-0.9,1.1,1.4,1.9,1.5,1.5C241.5,214.6,240.9,212.1,239.8,213.5z"/>
		<path class="st27" d="M237.9,218c-0.6,0.8,1.8,2,2,1.9C240.2,219.7,239.1,216.3,237.9,218z"/>
		<path class="st27" d="M235.7,224.5c0-1.1-0.8-2.6-2-2.2c-1.2,0.4-0.8,0.8,0.3,1.6C235.1,224.8,235.7,225,235.7,224.5z"/>
		<path class="st27" d="M231.9,226.2c0.8,0.8,1.7,2.5,0.1,1.7c-1.6-0.8-1.4-1.3-1.1-1.7C231.1,225.8,231.5,225.9,231.9,226.2z"/>
		<path class="st27" d="M231.9,226.2l0.2,0.3c-0.5,0.4-0.6,1.2-0.8,1.1c-0.9-0.6-0.7-1.1-0.5-1.4
			C231.1,225.8,231.5,225.9,231.9,226.2z"/>
		<path class="st28" d="M234.9,226.1c0.1-0.2,0.1-0.4,0.2-0.5c0.1-0.2,0.3-0.3,0.4-0.4c0.2-0.1,0.3-0.2,0.5-0.2c0.2,0,0.4,0,0.6,0
			c-0.2-0.1-0.4-0.3-0.5-0.5c-0.1-0.2-0.2-0.4-0.2-0.7c0-0.2,0-0.5,0.1-0.7c0.1-0.2,0.2-0.4,0.4-0.6c0.4-0.3,0.8-0.5,1.3-0.6
			c0.5-0.1,0.9-0.1,1.4,0.1c0.9,0.3,1.8,0.7,2.7,1.1c0.4,2.3,0.4,4.6,0.1,6.9h-0.1c-0.8-0.1-1.6-0.1-2.4,0c-0.9,0.2-1.9,0.2-2.8,0
			c-0.9-0.4-1.3-1.8-0.4-2.2c-0.2,0-0.4-0.1-0.6-0.2c-0.2-0.1-0.3-0.2-0.5-0.4c-0.1-0.2-0.2-0.4-0.3-0.6
			C234.9,226.5,234.9,226.3,234.9,226.1z"/>
		<path class="st28" d="M241.9,222.8c1.5,0.2,3.1,0.1,4.5-0.2c2.4-0.6,4.6-1.8,6.3-3.5c1.7-1.5,3.8-2.5,6.1-2.8
			c3.3-0.4,7,0.6,7.3,4.4c0.5,7.1-8.9,8.9-14,9.1c-4,0.2-11.5,1.6-14.7-1.5c-1.5-1.4-1.5-4.3,0.5-5.1
			C239.2,222.8,240.6,222.7,241.9,222.8z"/>
		<path class="st6" d="M225.9,234.2c0.2-0.1,0.4-0.2,0.6-0.3c0.1,0,0.6-0.5,0.4-0.5c0.3,0.1,0.6,0.2,0.9,0.1c0.3,0,0.6-0.2,0.9-0.4
			c0.2-0.2,0.4-0.5,0.5-0.8c0.1-0.3,0.1-0.7,0-1c0.2,0,0.4-0.1,0.6-0.2s0.3-0.3,0.4-0.5c0.1-0.4,0.1-0.8,0-1.2
			c-0.2-0.6-0.6-1.1-1.1-1.5c-0.5-0.3-1-0.6-1.4-0.9c-0.5-0.5,0-0.7,0.3-1.2c0.1-0.1,0.1-0.2,0.1-0.4c-0.1-0.8-2.1-0.3-2.5-0.1
			c-0.8,0.4-1.5,1-2.1,1.7c-0.5,0.5-0.8,1-1.1,1.6C221.7,230.2,223.6,234.8,225.9,234.2z"/>
		<path class="st14" d="M217.6,155.5c1.1-2.4,2.7-4.6,4.8-6.3c5.9-4.6,15.3-3,20.4,2.3c6.4,6.6,3.7,18.4-3.9,23.1
			C226.4,182.1,211.6,169,217.6,155.5z"/>
		<path class="st29" d="M218.5,157.5c2.3-5.5,9.6-7.7,14.7-4.8c6.5,3.6,5.8,14-0.3,17.7c-2.2,1.3-4.9,1.7-7.4,1.2
			c-2.6-0.5-4.8-1.9-6.4-4C217.1,164.9,217.1,160.9,218.5,157.5z"/>
		<path class="st30" d="M226.3,197.4c6.5,0,11.7-4,11.7-9c0-5-5.2-9-11.7-9s-11.7,4-11.7,9C214.6,193.4,219.9,197.4,226.3,197.4z"/>
	</g>
</g>
</svg>
