<?xml version="1.0" encoding="utf-8"?>
<!-- Generator: Adobe Illustrator 27.0.0, SVG Export Plug-In . SVG Version: 6.00 Build 0)  -->
<svg version="1.1" id="圖層_1" xmlns="http://www.w3.org/2000/svg" xmlns:xlink="http://www.w3.org/1999/xlink" x="0px" y="0px"
	 viewBox="0 0 340.2 226.8" style="enable-background:new 0 0 340.2 226.8;" xml:space="preserve">
<style type="text/css">
	.st0{clip-path:url(#SVGID_00000124144040576649370340000014623391619513681593_);}
	.st1{fill:#96B078;}
	.st2{fill:#C7D098;}
	.st3{fill:#C59790;}
	.st4{fill:#3F3325;}
	.st5{fill:#221C15;}
	.st6{fill:#B69288;}
	.st7{fill:#A1807B;}
	.st8{fill:#907471;}
	.st9{fill:#987D7C;}
	.st10{fill:#7A6362;}
	.st11{fill:#322C2C;}
	.st12{opacity:0.26;}
	.st13{fill:#181718;}
	.st14{fill:#4C4543;}
	.st15{fill:#CA6762;}
	.st16{fill:#AE8787;}
	.st17{fill:#3E362A;}
	.st18{fill:#C76663;}
</style>
<g>
	<defs>
		<rect id="SVGID_1_" y="28.3" width="311.8" height="198.4"/>
	</defs>
	<clipPath id="SVGID_00000039106798932277862380000004912796600723553679_">
		<use xlink:href="#SVGID_1_"  style="overflow:visible;"/>
	</clipPath>
	<g style="clip-path:url(#SVGID_00000039106798932277862380000004912796600723553679_);">
		<path class="st1" d="M114.3,114.5c1.3-11.6,0.9-23.3-1.4-34.8c-1.3-6.6-3.7-18.1-11-22.5c-11-6.7-19.9,18.4-22.9,23.9
			C75,70.3,67.9,60.9,58.7,54c-3.9-3-9.2-1.4-9.6,2.8C47.9,68.8,52,82.6,60.3,93c-4.3-5.4-9.8-12-17.4-12.2
			c-9.6-0.3-9.6,10.8-8.3,17.7c1,5.1,3.9,10,4.8,15c-1.2-1.1-2.6-1.9-4.2-2.3c-1.5-0.5-3.2-0.6-4.8-0.3c-1.5,0.4-2.9,1.1-4.1,2.1
			c-1.2,1-2.1,2.2-2.8,3.7c-1.2,2.8-1.8,5.9-2,8.9C18.8,109.1,9,92.9-5.9,81.7c-2.3-1.9-5.2-2.8-8.2-2.5c-4.6,0.7-5,4.4-5,7.8
			c0.1,13.7,5.1,25.8,11.1,37.5c-11.8-7.3-16.2,16-13.7,23.4c-8.6-0.5-15.2,9.3-13.8,17.8c1.5,8.5,8.7,15,16.5,18.6
			c7.8,3.6,16.5,4.9,24.8,7.4c15.7,4.6,30,13.3,45.5,18.5c14.6,4.9,28.8,3.3,43.4,6.3c10.7,2.2,20.1,9.2,31.2,2.6
			c7.1-4.2,9.5-12.7,11.1-20.7c5.7-27,9.3-55,9.2-83.4c0-4.9-1.4-14.9-8.9-14.9C128.3,99.7,118.5,108.2,114.3,114.5z"/>
		<path class="st1" d="M175.8,167.5c4.3-6.1,9.6-11.5,15.6-16c3.5-2.6,9.5-7,14.9-6c8.1,1.5,1.6,17.3,0.7,21.2
			c6.6-3.4,14-4.8,21.3-4.2c3.1,0.2,5,3.3,3.4,5.4c-4.6,6.3-12.4,11-20.9,12.5c4.4-0.7,9.8-1.5,13.5,1.6c4.7,4,0,9.3-3.6,12
			c-2.6,2-6.2,3.1-8.8,5.1c1,0,2.1,0.2,3,0.7c0.9,0.4,1.8,1.1,2.4,1.9c0.6,0.8,0.9,1.8,1.1,2.7c0.1,1,0.1,2-0.3,2.9
			c-0.6,1.9-1.6,3.6-2.9,5.1c8.4-6.6,20-10.1,32-9.1c1.9,0.1,3.7,0.9,5,2.3c1.9,2.3,0.5,4.2-0.9,5.8c-5.9,6.5-13.5,10.1-21.4,13.1
			c8.8,1.6,0.9,14.6-3.5,17c4.3,3.5,3.3,11-1.1,14.4c-4.3,3.4-10.6,3.4-15.9,1.8c-5.3-1.7-10-4.7-15-7.1c-9.5-4.5-20-6.6-29.7-10.7
			c-9.1-3.9-15.2-10.8-23.4-15.6c-6-3.6-13.5-4.3-16-12.2c-1.6-5.1,0.9-10.1,3.6-14.6c8.9-15.6,19.4-30.2,31.4-43.6
			c2.1-2.3,7-6.5,10.7-3.3C175.4,154.5,176.5,162.7,175.8,167.5z"/>
		<path class="st2" d="M205.3,253.2c4-0.3,8-0.6,12-1c13.2-1.2,102.8-11,75.7-38.1c-18.4-18.4-58.9-16.5-82.9-19.9
			c-47.6-6.6-95.6-10.1-143.7-10.4c-18.9-0.1-131.1,3-85.9,37.5c3.7,2.8,8.9,4.8,13.5,6.5C61.1,251.8,134.4,258.5,205.3,253.2z"/>
		<path class="st3" d="M143.3,201.6c0.8-0.9,1.7-1.6,2.8-2.1c4.8-2.3,12.8-4.2,18.3-1.6c5.5,2.6-1.9,9.7-4.8,12.2
			c-0.8,0.7-1.7,1.2-2.8,1.5c-0.7,0.1-1.4,0-2.1-0.2c-3.6-0.7-6.9-2.1-10-4.1c-1-0.5-1.8-1.3-2.2-2.3c-0.2-0.6-0.2-1.2-0.1-1.8
			C142.6,202.6,142.9,202.1,143.3,201.6z"/>
		<path class="st3" d="M149.2,197.3c-0.2-1.8-0.3-3.6-0.4-5.5c-0.4-7.8,0.2-15.5,1.9-23.1c0.8-3.3,1.8-6.5,3-9.7
			c0.3-0.8,0.5-1.6,0.5-2.4c-0.2-2-1.6-1.6-3-1.7c-2-0.1-4.1-0.3-6.1-0.5c-0.4-0.1-0.8,0-1.1,0.1c-0.2,0.2-0.4,0.4-0.5,0.6
			c-0.1,0.2-0.2,0.5-0.2,0.8c-2.6,15.6-2.9,31.6-1.1,47.3c0,1.1,0.4,2.1,1,2.9c1.4,1.5,4.2,0.7,5.3-1.1c1.1-1.8,1-4.2,0.8-6.3
			L149.2,197.3z"/>
		<path class="st4" d="M157.4,201.3c0.6-1.2,2.2-3.5,3.5-4.1c1.8-0.7,4.4,1.1,5.5,2.2c0.9,0.9,1.6,1.9,2,3c0.1,0.3,0.9,3.3,0.5,3.4
			l-5.4,1.1c-1.8,0.4-4,0.7-5.5-0.4C156.5,205.4,156.5,203,157.4,201.3z"/>
		<path class="st4" d="M157.4,201.2c0.7-1.2,2.2-3.4,3.5-3.9c1.8-0.7,4.4,1.1,5.5,2.2c0.9,0.9,1.6,1.9,2,3c0.1,0.3,0.9,3.3,0.5,3.4
			l-0.5,0.1c-1.2-1.7-2.9-3.1-4.8-3.9C161.7,201.2,159.5,200.9,157.4,201.2z"/>
		<path class="st5" d="M157.4,201.3c0,0,0.1-0.1,0.1-0.2c2.1-0.3,4.3,0,6.2,0.9c1.9,0.8,3.6,2.2,4.9,3.9l-4.9,1.1
			c-1.8,0.4-4,0.7-5.5-0.4C156.5,205.5,156.5,203,157.4,201.3z"/>
		<path class="st4" d="M154.1,206.3c0.5-1,1.2-1.9,2-2.7c0.3-0.4,0.7-0.7,1.2-1c0.5-0.2,1.1-0.4,1.7-0.3c0.5,0,1,0.1,1.5,0.2
			c1,0.3,1.9,0.7,2.7,1.3c1.5,1,3.3,3.5,3.3,5.3c-0.1,3.1-6.4,2.4-8.5,2.5c-1,0.1-1.9,0-2.8-0.4C153.6,210.3,153.3,208,154.1,206.3z
			"/>
		<path class="st3" d="M44.9,201.6c0.8-0.9,1.7-1.6,2.8-2.1c4.8-2.3,12.8-4.2,18.3-1.6c5.5,2.6-1.9,9.7-4.8,12.2
			c-0.6,0.6-1.4,1.1-2.2,1.3c-0.9,0.2-1.8,0.2-2.6,0c-3.6-0.7-6.9-2.1-10-4.1c-1-0.5-1.8-1.3-2.2-2.3c-0.2-0.6-0.2-1.2-0.1-1.8
			C44.2,202.6,44.5,202.1,44.9,201.6z"/>
		<path class="st3" d="M50.8,197.3c-0.2-1.8-0.3-3.6-0.4-5.5c-0.4-7.8,0.2-15.5,1.9-23.1c0.8-3.3,1.8-6.5,3-9.7
			c0.3-0.8,0.5-1.6,0.5-2.4c-0.2-2-1.6-1.6-3-1.7c-2-0.1-4.1-0.3-6.1-0.5c-0.4-0.1-0.8,0-1.1,0.1c-0.2,0.2-0.4,0.4-0.5,0.6
			c-0.1,0.2-0.2,0.5-0.2,0.8c-2.6,15.6-2.9,31.6-1.1,47.3c0,1.1,0.4,2.1,1,2.9c1.4,1.5,4.2,0.7,5.3-1.1c1.1-1.8,1-4.2,0.8-6.3
			C50.9,198.3,50.9,197.8,50.8,197.3z"/>
		<path class="st6" d="M143.3,155.9c0-0.3,0.1-0.5,0.2-0.8c0.1-0.2,0.3-0.5,0.5-0.6c0.3-0.2,0.7-0.2,1.1-0.1c2,0.2,4.1,0.4,6.1,0.5
			c1.4,0,2.8-0.3,3,1.6c0,0.8-0.1,1.7-0.5,2.4c-1.2,3.2-2.1,6.4-3,9.7c-0.3,1.2-0.5,2.4-0.8,3.6c-2.8,0.6-5.7,1-8.6,1
			C141.7,167.4,142.4,161.7,143.3,155.9z"/>
		<path class="st6" d="M45.6,154.5c0.3-0.2,0.7-0.2,1.1-0.1c2,0.2,4.1,0.4,6.1,0.5c1.4,0,2.8-0.3,3,1.7c0,0.8-0.2,1.7-0.5,2.4
			c-1.1,3.2-2.2,6.4-3,9.7c-0.1,0.3-0.1,0.7-0.2,1c-2.8-0.6-5.8-1-8.7-1.5c0.4-4.1,0.9-8.1,1.5-12.2c0-0.3,0.1-0.5,0.2-0.8
			C45.3,154.9,45.4,154.7,45.6,154.5z"/>
		<path class="st4" d="M59,201.3c0.6-1.2,2.2-3.5,3.5-4.1c1.8-0.7,4.4,1.1,5.5,2.2c0.9,0.8,1.6,1.9,2,3c0.1,0.3,0.9,3.3,0.5,3.4
			l-5.4,1.1c-1.9,0.4-4,0.7-5.5-0.4C58.1,205.4,58.1,203,59,201.3z"/>
		<path class="st5" d="M69.7,206.1l-4.5,1c-1.9,0.4-4,0.7-5.5-0.4c-1.5-1.2-1.6-3.6-0.7-5.3c0.3-0.6,0.6-1.1,1-1.6
			C63.8,200.6,67.3,202.9,69.7,206.1z"/>
		<path class="st4" d="M62.5,197.3c1.8-0.7,4.4,1.1,5.5,2.2c0.9,0.8,1.6,1.9,2,3c0.1,0.3,0.9,3.3,0.5,3.4l-0.9,0.2
			c-2.4-3.2-5.8-5.5-9.7-6.4C60.6,198.7,61.5,197.8,62.5,197.3z"/>
		<path class="st4" d="M55.8,206.3c0.5-1,1.2-1.9,2-2.7c0.3-0.4,0.7-0.7,1.2-1c0.5-0.2,1.1-0.4,1.7-0.3c0.5,0,1,0.1,1.5,0.2
			c1,0.3,1.9,0.7,2.7,1.3c1.5,1,3.3,3.5,3.3,5.3c-0.1,3.1-6.4,2.4-8.5,2.5c-1,0.1-1.9,0-2.8-0.4C55.2,210.3,54.9,208,55.8,206.3z"/>
		<path class="st6" d="M106,190.7c0.7-0.8,1.5-1.4,2.5-1.8c4.3-2.1,11.5-3.7,16.3-1.4c4.9,2.3-1.7,8.7-4.3,10.8
			c-0.7,0.6-1.5,1.1-2.5,1.3c-0.6,0.1-1.2,0-1.8-0.1c-3.2-0.7-6.2-1.9-9-3.7c-0.9-0.5-1.5-1.2-2-2.1c-0.1-0.5-0.1-1,0-1.6
			C105.4,191.6,105.6,191.1,106,190.7z"/>
		<path class="st4" d="M118.6,190.5c0.5-1.1,2-3.2,3.2-3.6c1.6-0.6,3.9,1,5,2c0.8,0.8,1.4,1.7,1.8,2.7c0.1,0.3,0.8,2.9,0.4,3l-4.8,1
			c-1.7,0.4-3.6,0.7-4.9-0.4c-0.6-0.6-1-1.4-1.1-2.2C118,192.1,118.1,191.2,118.6,190.5z"/>
		<path class="st5" d="M127.5,194.9l-3.4,0.7c-1.7,0.4-3.6,0.7-4.9-0.4c-0.6-0.6-1-1.4-1.1-2.2c-0.1-0.9,0-1.7,0.5-2.5
			c0.3-0.6,0.7-1.2,1.1-1.7C122.9,189.9,125.7,192,127.5,194.9z"/>
		<path class="st4" d="M121.7,186.8c1.6-0.6,3.9,1,5,2c0.8,0.8,1.4,1.7,1.8,2.7c0.1,0.3,0.8,2.9,0.4,3l-1.4,0.3
			c-1.9-2.9-4.6-5-7.9-6.1C120.2,188,120.9,187.3,121.7,186.8z"/>
		<path class="st4" d="M115.7,194.9c0.5-0.9,1.1-1.7,1.8-2.4c0.3-0.3,0.7-0.6,1.1-0.9c0.5-0.2,1-0.3,1.5-0.3c0.5,0,0.9,0.1,1.3,0.2
			c0.9,0.3,1.7,0.7,2.4,1.2c1.3,0.9,3,3.1,2.9,4.8c-0.1,2.8-5.7,2.2-7.6,2.2c-0.8,0.1-1.7,0-2.5-0.4
			C115.2,198.5,115,196.4,115.7,194.9z"/>
		<path class="st6" d="M67.5,190.4c-0.2,0-0.4,0-0.6,0c-1.3-9.4-0.8-19-0.2-28.6c0.7-13.2,11.2-11.8,10.2,1.4
			c-0.6,7.7-4.8,18-6.6,27C69.9,190.1,67.9,190.4,67.5,190.4z"/>
		<path class="st6" d="M67.8,187.8c0.7-0.8,1.6-1.5,2.6-1.9c4.4-2.2,11.8-3.8,16.9-1.5c5,2.4-1.7,9-4.4,11.2
			c-0.7,0.7-1.6,1.1-2.6,1.3c-0.6,0.1-1.3,0-1.9-0.1c-3.3-0.7-6.4-2-9.2-3.8c-0.9-0.5-1.6-1.3-2-2.2c-0.1-0.5-0.2-1.1,0-1.6
			C67.3,188.7,67.5,188.2,67.8,187.8z"/>
		<path class="st4" d="M80.9,187.5c0.6-1.1,2.1-3.3,3.3-3.7c1.6-0.7,4.1,1,5.1,2c0.8,0.8,1.4,1.7,1.9,2.8c0.1,0.3,0.9,3,0.4,3.1
			l-5,1.1c-1.7,0.4-3.7,0.7-5.1-0.4c-0.6-0.6-1.1-1.4-1.2-2.3C80.2,189.2,80.4,188.3,80.9,187.5z"/>
		<path class="st4" d="M81.1,187.1c0.7-1.3,1.7-2.5,3-3.3c1.6-0.7,4.1,1,5.1,2c0.8,0.8,1.4,1.7,1.9,2.8c0.1,0.3,0.9,3,0.4,3.1
			l-0.8,0.2c-1.1-1.6-2.5-2.9-4.2-3.7C84.9,187.4,83,187,81.1,187.1z"/>
		<path class="st5" d="M81.1,187.1c1.9-0.1,3.8,0.3,5.5,1.2c1.7,0.9,3.2,2.1,4.2,3.7l-4.2,0.9c-1.7,0.4-3.7,0.7-5.1-0.4
			c-0.6-0.6-1-1.4-1.2-2.3c-0.1-0.9,0-1.8,0.5-2.6C80.9,187.4,81,187.2,81.1,187.1z"/>
		<path class="st4" d="M77.9,192.1c0.5-0.9,1.1-1.8,1.9-2.5c0.3-0.4,0.7-0.7,1.1-0.9c0.5-0.2,1-0.3,1.6-0.3c0.5,0,0.9,0.1,1.4,0.2
			c0.9,0.3,1.7,0.7,2.5,1.2c1.3,1,3.1,3.2,3,4.9c-0.1,2.9-5.9,2.2-7.8,2.3c-0.9,0.1-1.8,0-2.6-0.4C77.4,195.9,77.1,193.7,77.9,192.1
			z"/>
		<path class="st6" d="M105.7,193.2c-0.2,0-0.4,0-0.6,0c-1.2-9.1-0.7-18.4-0.2-27.7c0.7-12.7,10.9-11.5,9.9,1.3
			c-0.6,7.4-4.7,17.4-6.4,26.1C108,192.9,106.1,193.2,105.7,193.2z"/>
		<path class="st7" d="M76.9,163.2c-0.4,3.7-1.2,7.4-2.3,11c-2.8-0.1-5.6-0.1-8.4,0.1c0.1-4.2,0.3-8.3,0.5-12.4
			C67.4,148.7,78,150,76.9,163.2z"/>
		<path class="st7" d="M104.4,179c0-4.4,0.3-8.9,0.5-13.4c0.7-12.7,10.9-11.5,9.9,1.3c-0.4,3.5-1.1,7-2.2,10.4
			C110,178.5,107.2,179.1,104.4,179z"/>
		<path class="st8" d="M69,169.7c-2.2,0.3-4.5-0.1-6.5-1c-3.2-1.7-5.9-4.4-7.5-7.7c-1.2,0.8-2.5,1.2-4,1.2c-1.4,0.1-2.8-0.3-4-0.9
			c-3.2-1.8-5.7-4.5-7.3-7.8c-1.4-3.1-2.4-6.3-2.9-9.7c-0.5-3.3,0-6.5,0.2-9.8c0.4-5.5,1.3-11,2.8-16.3c2.9-11.1,9.6-20.8,17.3-29.2
			C72.4,72,92.9,59.5,115.4,57.2s46.5,7,59.1,25.7c7.9,11.8,11.6,25.3,8.5,39.3c-1.7,6.8-4.2,13.3-7.6,19.5c-0.9,1.7-1.8,3.4-2.8,5
			c-0.8,1.4-1.1,2.9-2,4.3c-1.6,3-3.9,5.6-6.6,7.7c-0.5,0.4-1.1,0.8-1.7,1.1c-4.2,2.3-9.6,2.7-13.6,0c-2.5,4-6.4,7-11,8.3
			c-4.6,1.3-9.4,0.7-13.6-1.5c-0.4-0.3-0.9-0.4-1.5-0.4c-0.4,0.1-0.7,0.4-0.9,0.7c-4.4,5.2-11.8,6.9-18.6,7.1
			c-1.9,0.1-3.7-0.1-5.5-0.5c-2-0.6-3.2-1.8-4.9-3c-1.4,1.3-3,2.3-4.8,2.8c-1.8,0.6-3.7,0.7-5.6,0.5s-3.7-0.9-5.3-1.9
			c-1.6-1-2.9-2.4-3.9-4c-0.2,0.4-0.5,0.7-0.9,0.9C71.2,169.3,70.1,169.6,69,169.7z"/>
		<path class="st9" d="M123.5,82.6c-5.3-1.9-10.2-4.8-14.3-8.6c-4.2-3.8-7.5-8.4-9.9-13.4c5.2-1.7,10.6-2.8,16.1-3.4
			c20.2-2,41.7,5.3,55,20.4C157.5,88.2,138.5,86.9,123.5,82.6z"/>
		<path class="st10" d="M80.4,69.3c5.9-3.6,12.2-6.5,18.8-8.7c2.4,5.1,5.7,9.7,9.9,13.4c4.2,3.8,9,6.7,14.3,8.6
			c15,4.3,34,5.6,46.9-5c1.5,1.7,2.8,3.4,4.1,5.3c7.9,11.8,11.6,25.3,8.4,39.3c-1.7,6.8-4.2,13.3-7.6,19.5c-0.9,1.7-1.8,3.4-2.8,5
			c-0.8,1.4-1.1,2.9-2,4.3c-1.7,3-3.9,5.6-6.6,7.7c-0.6,0.4-1.1,0.8-1.7,1.1c-4.2,2.3-9.6,2.7-13.6,0c-1.3,2.2-3.1,4-5.1,5.5
			c-2.5-2.1-4.7-4.5-6.6-7.1c-9.3-14-14-31.6-4.7-46.8C111.4,107.2,87.8,91,80.4,69.3z"/>
		<path class="st8" d="M37,134.1c0.4-5.5,1.3-11,2.8-16.3c2.9-11.1,9.6-20.8,17.3-29.2c6.8-7.5,14.7-14,23.3-19.2
			c7.4,21.7,31,37.9,51.8,42.1c-9.3,15.2-4.7,32.7,4.7,46.8c2,2.6,4.2,5,6.6,7.1c-1.8,1.3-3.7,2.2-5.8,2.8
			c-4.6,1.2-9.4,0.7-13.6-1.5c-0.4-0.3-0.9-0.4-1.5-0.4c-0.4,0.1-0.7,0.4-0.9,0.7c-4.4,5.2-11.8,6.9-18.6,7.1
			c-1.9,0.1-3.7-0.1-5.5-0.5c-2-0.6-3.2-1.8-4.9-3c-1.4,1.3-3,2.3-4.8,2.8c-1.8,0.6-3.7,0.7-5.6,0.5c-1.9-0.2-3.7-0.9-5.3-1.9
			c-1.6-1-2.9-2.4-3.9-4c-0.2,0.4-0.5,0.7-0.9,0.9c-1,0.6-2.1,0.9-3.2,1.1c-2.2,0.3-4.5-0.1-6.5-1c-3.2-1.7-5.9-4.4-7.5-7.7
			c-1.2,0.8-2.5,1.2-4,1.2c-1.4,0.1-2.8-0.3-4-0.9c-3.2-1.8-5.7-4.5-7.3-7.8c-1.4-3.1-2.4-6.3-2.9-9.7
			C36.3,140.5,36.8,137.4,37,134.1z"/>
		<path class="st3" d="M178.3,155.2c3.5,2.3,6.9,4.8,10.1,7.6c7.8,6.5,16.9,12.7,27.5,10.5c10.9-2.2,17.9-12.2,19.9-22.5
			c3-15.1-5.5-26.9-16.3-36.3c-11.3-9.8-23.9-17.9-35.4-27.4c-4.2-3.5-8.7-7.1-14.1-8.2c-8.6-1.8-17.4,3.5-22.4,10.7
			c-5,7.2-7,16-8.9,24.6c-1.7,7.5-4.1,17.4,0.6,24.4c2.6,3.8,6.4,5.4,10.6,6.6c6.8,2.1,13.9,3.6,20.6,6.2
			C173.2,152.4,175.8,153.7,178.3,155.2z"/>
		<path class="st11" d="M186.7,76.9c2,0,4-0.1,6-0.3c2.5-0.2,5-0.6,7.4-1.4c2.3-0.8,4.4-2,6.2-3.6c1.8-1.6,3.2-3.6,4.2-5.8
			c0.9-2.2,1.2-4.7,0.8-7.1c-0.4-2.4-1.4-4.6-3-6.5c-2.1-2.3-7.1-4.9-10.2-4.1c-1.2,0.3-2.2,0.8-3.4,1.2c-2.7,0.9-3.1-1.7-0.9-2.8
			c2.7-1.4,5.7-2.1,8.8-2.1c3.1,0,6.1,0.7,8.8,2c9.5,4.7,12.5,16,10,25.8c-2.1,8.1-8.7,14.5-16.3,18c-7.6,3.5-16.2,4.4-24.5,4.4
			c-5.2,0-12.9,0-15.6-5.3c-1.1-2.3-1.4-5-1-7.5c0-1,0.4-1.9,0.9-2.7c1-1,2.3-1.5,3.7-1.6C174.4,76.6,180.6,76.9,186.7,76.9z"/>
		<g class="st12">
			<path class="st13" d="M163.7,81.6c0-1,0.4-1.9,0.9-2.7c1-1,2.3-1.5,3.7-1.6c6-0.8,12.2-0.4,18.3-0.5c2,0,4-0.1,6-0.3
				c1.3-0.1,2.6-0.3,3.8-0.5c3.5,4.2,5.8,9.2,6.8,14.6c-7.2,2.9-15.1,3.7-22.9,3.7c-5.2,0-12.9,0-15.6-5.3
				C163.7,86.8,163.3,84.2,163.7,81.6z"/>
		</g>
		<path class="st14" d="M129.7,73.7c-2.5-0.2-4.9-0.4-7.4-0.8c-3.1-0.4-6.1-1.2-9-2.4c-2.8-1.1-5.3-2.8-7.3-5
			c-2.1-2.2-3.6-4.7-4.6-7.5c-1.8-5.7-0.5-12.4,3.8-16.5c2.8-2.6,9.1-5.4,13-4.2c1.4,0.5,2.7,1.2,4.1,1.8c3.3,1.4,4-1.8,1.3-3.4
			c-3.2-1.9-6.9-3.1-10.6-3.4c-3.8-0.3-7.5,0.3-11,1.7c-12.2,5-16.7,18.7-14.4,31c1.9,10.2,9.5,18.6,18.6,23.6
			c9.1,4.9,19.6,6.8,29.9,7.5c6.4,0.5,15.9,1.1,19.7-5.2c1.5-2.8,2.2-6,1.9-9.2c0-1.2-0.3-2.4-0.9-3.4c-1-1.4-2.8-1.9-4.4-2.2
			C144.8,74.3,137.2,74.3,129.7,73.7z"/>
		<path class="st3" d="M153.8,95.1c-0.6,0.9-2.4,1.2-4.1,1.8c-2,0.8-3.9,1.7-5.9,2.5c-3.8,1.9-7.9,3.2-12.1,3.9
			c-2.1,0.3-4.3-0.3-4.7-2.6c-0.2-1.8,0.4-3.5,1.5-4.9c2.2-3,5.3-5.2,8.9-6.4c3.6-1.1,7.4-1.1,10.9,0
			C150,90.1,155.3,92.7,153.8,95.1z"/>
		<path class="st15" d="M149.5,93.5c0,0.5-0.1,1-0.4,1.5c-0.3,0.4-0.7,0.8-1.1,1.1c-1.9,1.1-4.5,1.7-6.6,2.4
			c-2.1,0.7-9.8,4.4-9.7,0.7c0-4,3.4-6.1,7.1-6.8c2.3-0.5,9.1-1.8,10.5,0.6C149.4,93.1,149.5,93.3,149.5,93.5z"/>
		<path class="st8" d="M185.8,94.3c0.3,1.2,0.3,2.5,0.1,3.8c-0.2,0.6-0.5,1.2-1,1.6c-0.5,0.4-1.1,0.6-1.7,0.7
			c-0.8-0.1-1.5-0.5-2.1-1c-1.6-1.3-2.9-2.8-3.9-4.6c-1.3,2.1-2.6,4.3-5,5.4c-0.8,0.3-1.6,0.5-2.4,0.4c-3.1-0.3-4.1-3.3-4.3-6
			c-1.6,1.6-3.6,2.7-5.9,3.1c-1.7,0.3-3.4-0.1-4.9-1.1c-1.4-1-2.4-2.5-2.7-4.2c-0.9,2-4.2,1.4-5.1-0.6c-0.9-2-0.1-4.3,0.9-6.2
			c2.5-4.6,6.3-8.4,11-11c4.6-2.5,9.9-3.7,15.1-3.3c8.2,0.7,30.8,13.7,23.9,24.4C194.7,100.4,188.3,98,185.8,94.3z"/>
		<path class="st16" d="M63.1,101.5c0.1,0,0.1,0,0.2,0c0.1,0,0.1,0,0.1,0.1c0,0,0.1,0.1,0.1,0.1c0,0,0,0.1,0,0.2
			c-0.1,1.2-0.5,2.4-1.1,3.5c-0.6,1.5-1,3-1.2,4.6c0,0.2-0.1,0.4-0.1,0.5c-0.1,0.2-0.2,0.3-0.3,0.4c-0.1,0.1-0.3,0.2-0.5,0.2
			c-0.2,0-0.4,0.1-0.5,0c-0.2,0-0.4-0.1-0.5-0.2c-0.2-0.1-0.3-0.2-0.4-0.4c-0.1-0.1-0.2-0.3-0.2-0.5c0-0.2,0-0.4,0-0.5
			C59,107.1,60.1,102.1,63.1,101.5z"/>
		<path class="st16" d="M63.4,88.7C63.4,88.7,63.5,88.7,63.4,88.7c-0.5,1.4-1.3,2.6-2.1,3.7c-0.9,1.4-1.4,2.9-2.2,4.2
			c-0.4,0.6-1.6,0.2-1.5-0.5C58.2,93.3,60.7,89.5,63.4,88.7z"/>
		<path class="st16" d="M69.4,81.7c1.4-1.8,3.2-3.2,5.3-4.2c0.6-0.3,4.1-1.9,4.1,0c0,1.4-2,2-3,2.5c-1.5,1-2.9,2.1-4.2,3.4
			C70.5,84.5,68.3,83.1,69.4,81.7z"/>
		<path class="st16" d="M69.3,92.7c0.6-1.5,1.6-2.8,2.9-3.8c0.9-0.7,2.5-2.2,3.7-1.7c0.1,0,0.2,0.1,0.2,0.2c0.1,0.1,0.1,0.2,0.1,0.2
			c-0.1,1.1-1.6,2-2.4,2.7c-0.5,0.5-1,1-1.4,1.6c-0.4,0.6-0.9,1.2-1.4,1.8c-0.2,0.1-0.4,0.2-0.6,0.2s-0.4,0-0.6-0.1
			c-0.2-0.1-0.3-0.3-0.4-0.5C69.3,93.1,69.2,92.9,69.3,92.7z"/>
		<path class="st16" d="M54.4,127.7c0.3-1.3,0.6-2.9,1.7-3.7c0.3-0.2,0.6,0,0.7,0.3c0.4,1.3-0.2,2.7-0.4,4c-0.2,1.4-0.7,2.9-1.3,4.2
			c0,0.1-0.1,0.1-0.2,0.1c-0.1,0-0.1,0-0.2,0c-0.1,0-0.1,0-0.2-0.1c-0.1,0-0.1-0.1-0.1-0.2C54,130.8,54,129.2,54.4,127.7z"/>
		<path class="st16" d="M54.1,144.6c0.1-0.1,0.2-0.2,0.3-0.3c0.1-0.1,0.3-0.1,0.4-0.1c0.1,0,0.3,0.1,0.4,0.2
			c0.1,0.1,0.2,0.2,0.2,0.4c0.3,1.2,0.4,2.5,0.7,3.8c0.3,1.2,1.2,2.3,1,3.6c-0.1,0.6-0.6,1.3-1.4,1C53.1,152,52.8,146.9,54.1,144.6z
			"/>
		<path class="st16" d="M80.3,92.8c0.6-0.7,1.3-1.4,2.1-2c0.7-0.7,1.4-1.4,2.1-2.2c0.4-0.4,2.1-3,2.8-1.9c0.8,1.1-0.9,2.9-1.6,3.8
			c-1,1.3-2.4,3.1-4,3.8C80.9,94.6,79.6,93.7,80.3,92.8z"/>
		<path class="st17" d="M209.1,148.6c3.2,4.2,7.8,7.9,13,8c7.1,0.2,17.4-8.1,16.1-15.8c-1-5.9-10-7.8-14.8-8.4
			c-3.5-0.6-7.1-0.5-10.5,0.4c-5.4,1.8-9,6.8-6.2,12.1C207.5,146.2,208.3,147.5,209.1,148.6z"/>
		<path class="st17" d="M203.4,161.2c-0.1-0.3-0.2-0.6-0.1-0.9c0.1-0.3,0.3-0.5,0.6-0.7c0.3-0.1,0.6-0.2,0.9-0.1
			c0.3,0.1,0.5,0.3,0.7,0.6c0.2,0.3,5,8,12,4.9c0.1-0.1,0.3-0.1,0.4-0.1c0.2,0,0.3,0,0.4,0.1c0.1,0.1,0.3,0.1,0.4,0.2
			c0.1,0.1,0.2,0.2,0.3,0.4c0.1,0.1,0.1,0.3,0.1,0.4c0,0.2,0,0.3-0.1,0.4c-0.1,0.1-0.1,0.3-0.2,0.4c-0.1,0.1-0.2,0.2-0.4,0.3
			C211.2,170.2,205.5,164.6,203.4,161.2C203.4,161.2,203.4,161.2,203.4,161.2z"/>
		<path class="st17" d="M178.5,104.8c-1.2-0.1-2.4,0.2-3.4,0.8c-6.3,3.5-9,13.3-9.7,16.3c-0.1,0.3,0,0.6,0.1,0.8
			c0.2,0.2,0.4,0.4,0.7,0.5c0.3,0.1,0.6,0,0.8-0.1s0.4-0.4,0.5-0.7c0.6-2.7,3-11.8,8.6-14.8c0.6-0.4,1.2-0.6,1.9-0.6
			c0.7,0,1.3,0.2,1.9,0.6c3.1,2,4.8,8.5,4.5,11.8c0,0.3,0.1,0.6,0.2,0.8c0.2,0.2,0.4,0.4,0.7,0.4c0.3,0,0.6-0.1,0.8-0.3
			c0.2-0.2,0.4-0.5,0.4-0.7c0.4-3.9-1.6-11.3-5.5-13.9C180.4,105.2,179.5,104.9,178.5,104.8z"/>
		<path class="st18" d="M165.8,135.7c0.5,4.1,5.5,7,11.2,6.4c5.7-0.6,9.9-4.4,9.4-8.6c-0.5-4.2-5.5-7-11.2-6.4
			C169.5,127.7,165.3,131.6,165.8,135.7z"/>
	</g>
</g>
</svg>
