<?xml version="1.0" encoding="UTF-8"?><svg id="_015_HEALTH" xmlns="http://www.w3.org/2000/svg" viewBox="0 0 21.27 8"><path d="M10.63,5C6.5,5,2.65,3.79,.34,1.75-.08,1.39-.12,.75,.25,.34,.61-.08,1.25-.12,1.66,.25c1.96,1.72,5.31,2.75,8.97,2.75S17.65,1.97,19.61,.25c.41-.36,1.05-.32,1.41,.09,.36,.41,.32,1.05-.09,1.41-2.31,2.03-6.16,3.25-10.29,3.25Z"/><path d="M10.63,8c-.55,0-1-.45-1-1V4c0-.55,.45-1,1-1s1,.45,1,1v3c0,.55-.45,1-1,1Z"/><path d="M6.38,7.67c-.06,0-.11,0-.17-.01-.54-.09-.91-.61-.82-1.15,0,0,0,0,0,0l.5-2.93c.09-.54,.61-.91,1.15-.82,.54,.09,.91,.61,.82,1.15h0l-.5,2.94c-.08,.48-.5,.83-.98,.83Z"/><path d="M2.27,6.31c-.55,0-1-.45-1-1,0-.11,.02-.23,.06-.33l.98-2.74c.19-.52,.76-.79,1.28-.61s.79,.76,.61,1.28h0l-.98,2.74c-.14,.4-.52,.66-.94,.66Z"/><path d="M14.89,7.67c-.49,0-.9-.35-.98-.83l-.5-2.94c-.09-.54,.27-1.06,.82-1.15,.54-.09,1.06,.27,1.15,.82l.5,2.94c.09,.54-.27,1.06-.81,1.15,0,0,0,0,0,0-.06,0-.11,.01-.17,.01Z"/><path d="M19,6.31c-.42,0-.8-.27-.94-.66l-.98-2.74c-.19-.52,.09-1.09,.61-1.28,.52-.19,1.09,.09,1.28,.61l.98,2.74c.19,.52-.09,1.09-.61,1.28-.11,.04-.22,.06-.33,.06h0Z"/></svg>