<?xml version="1.0" encoding="UTF-8"?><svg id="_圖層_1" xmlns="http://www.w3.org/2000/svg" viewBox="0 0 100.1 100"><defs><style>.cls-1{fill:#ff0;}</style></defs><path class="cls-1" d="M92.3,24.6H7.7c-4.3,0-7.7,3.4-7.7,7.7v34.6c0,4.2,3.4,7.7,7.7,7.7h6.9v15.4c0,2.6,2.1,4.7,4.7,4.7h61.5c2.6,0,4.7-2.1,4.7-4.7v-15.4h6.9c4.2,0,7.7-3.4,7.7-7.7V32.3c-.1-4.3-3.5-7.7-7.8-7.7Zm-16.2,60.7H23.9V48.5h52.2v36.8h0Z"/><path class="cls-1" d="M84.6,9.2c0-2.1-1.7-3.8-3.8-3.8H19.2c-2.1,0-3.8,1.7-3.8,3.8v7.7H84.6v-7.7Z"/></svg>