<?xml version="1.0" encoding="UTF-8"?><svg id="Layer_1" xmlns="http://www.w3.org/2000/svg" viewBox="0 0 436.01 290.73"><defs><style>.cls-1{fill:lime;fill-rule:evenodd;}</style></defs><path class="cls-1" d="M163.45,145.37c0,30.08,24.43,54.51,54.51,54.51s54.51-24.43,54.51-54.51v-.45c-5.82,5.9-13.8,9.54-22.71,9.54-17.54,0-31.8-14.26-31.8-31.8,0-12.63,7.44-23.62,18.08-28.71-5.63-2-11.72-3.09-18.08-3.09-30.08,0-54.51,24.44-54.51,54.51Zm260.39-30.98C390.04,71.41,307.73,0,218.05,0S45.89,71.42,12.08,114.38C4.45,124.2,.27,134.83,0,145.37c.28,10.54,4.45,21.17,12.08,30.98,33.81,42.98,116.11,114.38,205.88,114.38s172.07-71.4,205.88-114.38c7.72-9.81,11.9-20.44,12.17-30.98-.27-10.54-4.45-21.17-12.17-30.98Zm-205.88,121.84c-50.15,0-90.86-40.7-90.86-90.85s40.71-90.86,90.86-90.86,90.85,40.7,90.85,90.86c0,50.15-40.71,90.85-90.85,90.85Z"/></svg>